<?xml version="1.0" encoding="UTF-8" standalone="no"?>
<svg
   width="208.88869mm"
   height="39.606522mm"
   viewBox="0 0 208.88869 39.606522"
   version="1.1"
   id="svg8"
   inkscape:version="1.2.2 (b0a84865, 2022-12-01)"
   sodipodi:docname="driver.svg"
   xmlns:inkscape="http://www.inkscape.org/namespaces/inkscape"
   xmlns:sodipodi="http://sodipodi.sourceforge.net/DTD/sodipodi-0.dtd"
   xmlns="http://www.w3.org/2000/svg"
   xmlns:svg="http://www.w3.org/2000/svg"
   xmlns:rdf="http://www.w3.org/1999/02/22-rdf-syntax-ns#"
   xmlns:cc="http://creativecommons.org/ns#"
   xmlns:dc="http://purl.org/dc/elements/1.1/">
  <defs
     id="defs2">
    <marker
       style="overflow:visible"
       id="TriangleOutL"
       refX="0.0"
       refY="0.0"
       orient="auto"
       inkscape:stockid="TriangleOutL"
       inkscape:isstock="true">
      <path
         transform="scale(0.8)"
         style="fill-rule:evenodd;stroke:#000000;stroke-width:1pt;stroke-opacity:1;fill:#000000;fill-opacity:1"
         d="M 5.77,0.0 L -2.88,5.0 L -2.88,-5.0 L 5.77,0.0 z "
         id="path1904" />
    </marker>
    <marker
       style="overflow:visible;"
       id="Arrow2Send"
       refX="0.0"
       refY="0.0"
       orient="auto"
       inkscape:stockid="Arrow2Send"
       inkscape:isstock="true">
      <path
         transform="scale(0.3) rotate(180) translate(-2.3,0)"
         d="M 8.7185878,4.0337352 L -2.2072895,0.016013256 L 8.7185884,-4.0017078 C 6.9730900,-1.6296469 6.9831476,1.6157441 8.7185878,4.0337352 z "
         style="fill-rule:evenodd;stroke-width:0.625;stroke-linejoin:round;stroke:#000000;stroke-opacity:1;fill:#000000;fill-opacity:1"
         id="path1795" />
    </marker>
    <marker
       style="overflow:visible"
       id="TriangleOutL-3"
       refX="0"
       refY="0"
       orient="auto"
       inkscape:stockid="TriangleOutL"
       inkscape:isstock="true">
      <path
         transform="scale(0.8)"
         style="fill:#000000;fill-opacity:1;fill-rule:evenodd;stroke:#000000;stroke-width:1pt;stroke-opacity:1"
         d="M 5.77,0 -2.88,5 V -5 Z"
         id="path1904-8" />
    </marker>
    <marker
       style="overflow:visible"
       id="TriangleOutL-37"
       refX="0"
       refY="0"
       orient="auto"
       inkscape:stockid="TriangleOutL"
       inkscape:isstock="true">
      <path
         transform="scale(0.8)"
         style="fill:#000000;fill-opacity:1;fill-rule:evenodd;stroke:#000000;stroke-width:1pt;stroke-opacity:1"
         d="M 5.77,0 -2.88,5 V -5 Z"
         id="path1904-4" />
    </marker>
    <marker
       style="overflow:visible"
       id="TriangleOutL-1"
       refX="0"
       refY="0"
       orient="auto"
       inkscape:stockid="TriangleOutL"
       inkscape:isstock="true">
      <path
         transform="scale(0.8)"
         style="fill:#000000;fill-opacity:1;fill-rule:evenodd;stroke:#000000;stroke-width:1pt;stroke-opacity:1"
         d="M 5.77,0 -2.88,5 V -5 Z"
         id="path1904-0" />
    </marker>
    <marker
       style="overflow:visible"
       id="TriangleOutL-6"
       refX="0"
       refY="0"
       orient="auto"
       inkscape:stockid="TriangleOutL"
       inkscape:isstock="true">
      <path
         transform="scale(0.8)"
         style="fill:#000000;fill-opacity:1;fill-rule:evenodd;stroke:#000000;stroke-width:1pt;stroke-opacity:1"
         d="M 5.77,0 -2.88,5 V -5 Z"
         id="path1904-43" />
    </marker>
    <marker
       style="overflow:visible"
       id="TriangleOutL-8"
       refX="0"
       refY="0"
       orient="auto"
       inkscape:stockid="TriangleOutL"
       inkscape:isstock="true">
      <path
         transform="scale(0.8)"
         style="fill:#000000;fill-opacity:1;fill-rule:evenodd;stroke:#000000;stroke-width:1pt;stroke-opacity:1"
         d="M 5.77,0 -2.88,5 V -5 Z"
         id="path1904-47" />
    </marker>
    <marker
       style="overflow:visible"
       id="TriangleOutL-3-1"
       refX="0"
       refY="0"
       orient="auto"
       inkscape:stockid="TriangleOutL"
       inkscape:isstock="true">
      <path
         transform="scale(0.8)"
         style="fill:#000000;fill-opacity:1;fill-rule:evenodd;stroke:#000000;stroke-width:1pt;stroke-opacity:1"
         d="M 5.77,0 -2.88,5 V -5 Z"
         id="path1904-8-6" />
    </marker>
    <marker
       style="overflow:visible"
       id="TriangleOutL-3-1-1"
       refX="0"
       refY="0"
       orient="auto"
       inkscape:stockid="TriangleOutL"
       inkscape:isstock="true">
      <path
         transform="scale(0.8)"
         style="fill:#000000;fill-opacity:1;fill-rule:evenodd;stroke:#000000;stroke-width:1pt;stroke-opacity:1"
         d="M 5.77,0 -2.88,5 V -5 Z"
         id="path1904-8-6-0" />
    </marker>
  </defs>
  <sodipodi:namedview
     id="base"
     pagecolor="#ffffff"
     bordercolor="#666666"
     borderopacity="1.0"
     inkscape:pageopacity="0.0"
     inkscape:pageshadow="2"
     inkscape:zoom="1.4810403"
     inkscape:cx="423.68867"
     inkscape:cy="90.139343"
     inkscape:document-units="mm"
     inkscape:current-layer="layer1"
     inkscape:document-rotation="0"
     showgrid="false"
     inkscape:window-width="1728"
     inkscape:window-height="1027"
     inkscape:window-x="0"
     inkscape:window-y="38"
     inkscape:window-maximized="0"
     fit-margin-top="0"
     fit-margin-left="0"
     fit-margin-right="0"
     fit-margin-bottom="0"
     inkscape:snap-global="false"
     inkscape:showpageshadow="2"
     inkscape:pagecheckerboard="0"
     inkscape:deskcolor="#d1d1d1" />
  <metadata
     id="metadata5">
    <rdf:RDF>
      <cc:Work
         rdf:about="">
        <dc:format>image/svg+xml</dc:format>
        <dc:type
           rdf:resource="http://purl.org/dc/dcmitype/StillImage" />
        <dc:title />
      </cc:Work>
    </rdf:RDF>
  </metadata>
  <g
     inkscape:label="Layer 1"
     inkscape:groupmode="layer"
     id="layer1"
     transform="translate(0.12291622,-4.2393397)">
    <path
       id="rect835"
       style="fill:#ffffff;stroke:#000000;stroke-width:0.254"
       d="M 6.9943275,9.1109953 H 23.2512 c 1.088674,0 1.965116,0.876442 1.965116,1.9651167 v 21.616281 c 0,1.088675 -0.876442,1.965117 -1.965116,1.965117 H 6.9943275 c -1.0886745,0 -1.9651165,-0.876442 -1.9651165,-1.965117 V 11.076112 c 0,-1.0886747 0.876442,-1.9651167 1.9651165,-1.9651167 z" />
    <g
       aria-label="hello.c"
       id="text839"
       style="font-size:4.23333px;line-height:1.25;font-family:'Courier New';-inkscape-font-specification:'Courier New';text-align:center;text-anchor:middle;stroke-width:0.264583">
      <path
         d="M 6.3345841,37.084447 V 35.813208 H 5.9521788 v 3.174997 h 0.3824053 v -1.624706 q 0.041341,-0.06614 0.093018,-0.119889 0.053743,-0.05581 0.1157551,-0.09715 0.078548,-0.05374 0.1715656,-0.08268 0.093018,-0.02894 0.1963703,-0.02894 0.1260904,-0.0021 0.223242,0.03514 0.097152,0.03514 0.1612303,0.107487 0.059945,0.06615 0.09095,0.167432 0.031006,0.09922 0.031006,0.23151 v 1.411799 H 7.8001265 V 37.58054 q 0,-0.225309 -0.05581,-0.388606 Q 7.6905725,37.026569 7.5892868,36.919082 7.4880011,36.811595 7.3433072,36.761986 7.2006804,36.71031 7.0249807,36.71031 q -0.1343587,0.0021 -0.2542479,0.03927 -0.1178221,0.03721 -0.2170408,0.109554 -0.062012,0.04341 -0.1178222,0.101285 -0.05581,0.05581 -0.1012857,0.124024 z"
         style="font-family:'Roboto Mono';-inkscape-font-specification:'Roboto Mono'"
         id="path238" />
      <path
         d="m 9.4806426,39.029546 q 0.3265948,0 0.5477694,-0.130224 0.223242,-0.132292 0.334863,-0.301791 l -0.233577,-0.1819 q -0.10542,0.136425 -0.2645831,0.219107 -0.1591632,0.08268 -0.3638017,0.08268 -0.1550292,0 -0.2831866,-0.05788 -0.1281575,-0.05788 -0.2191079,-0.159163 -0.088883,-0.09508 -0.1405598,-0.219108 -0.049609,-0.124023 -0.064079,-0.287321 v -0.01447 h 1.5978338 v -0.171566 q 0,-0.233577 -0.05994,-0.434081 -0.05788,-0.200505 -0.177766,-0.349333 -0.11989,-0.146761 -0.3017904,-0.229443 -0.1798338,-0.08475 -0.4216793,-0.08475 -0.1922362,0 -0.3762041,0.07855 -0.1819009,0.07855 -0.3245278,0.225309 -0.1446938,0.148828 -0.2315102,0.363802 -0.086816,0.212906 -0.086816,0.483691 v 0.08682 q 0,0.233577 0.078548,0.432015 0.078548,0.198437 0.2191079,0.343131 0.1405598,0.144694 0.33693,0.225309 0.1984374,0.08062 0.4340817,0.08062 z m -0.049609,-2.005044 q 0.1467609,0 0.2521808,0.05374 0.1074868,0.05374 0.1777667,0.140559 0.07028,0.08682 0.109554,0.206706 0.039274,0.117822 0.039274,0.221175 v 0.0186 H 8.8067825 q 0.022738,-0.155029 0.078548,-0.272851 0.057878,-0.119889 0.1405598,-0.202571 0.082682,-0.08062 0.186035,-0.121957 0.1033528,-0.04341 0.2191079,-0.04341 z"
         style="font-family:'Roboto Mono';-inkscape-font-specification:'Roboto Mono'"
         id="path240" />
      <path
         d="m 11.092946,35.813208 v 0.332796 h 0.760676 v 2.511472 h -0.760676 v 0.330729 h 1.872752 v -0.330729 h -0.72967 v -2.844268 z"
         style="font-family:'Roboto Mono';-inkscape-font-specification:'Roboto Mono'"
         id="path242" />
      <path
         d="m 13.633357,35.813208 v 0.332796 h 0.760677 v 2.511472 h -0.760677 v 0.330729 h 1.872753 v -0.330729 h -0.729671 v -2.844268 z"
         style="font-family:'Roboto Mono';-inkscape-font-specification:'Roboto Mono'"
         id="path244" />
      <path
         d="m 16.006337,37.849257 v 0.04548 q 0,0.241845 0.07028,0.448551 0.07028,0.206705 0.202571,0.359667 0.130225,0.152962 0.318327,0.239779 0.190169,0.08682 0.42788,0.08682 0.235645,0 0.423747,-0.08682 0.188102,-0.08682 0.320393,-0.239779 0.130225,-0.152962 0.200505,-0.359667 0.07028,-0.206706 0.07028,-0.448551 v -0.04548 q 0,-0.241845 -0.07028,-0.448551 -0.07028,-0.208772 -0.200505,-0.361734 -0.132291,-0.152963 -0.32246,-0.239779 -0.188102,-0.08888 -0.425814,-0.08888 -0.235644,0 -0.423746,0.08888 -0.188102,0.08682 -0.318327,0.239779 -0.132291,0.152962 -0.202571,0.361734 -0.07028,0.206706 -0.07028,0.448551 z m 0.382405,0.04548 v -0.04548 q 0,-0.163297 0.03927,-0.312125 0.03927,-0.150895 0.119889,-0.264583 0.07855,-0.113688 0.196371,-0.179834 0.117822,-0.06821 0.276985,-0.06821 0.159163,0 0.276986,0.06821 0.119889,0.06615 0.200504,0.179834 0.07855,0.113688 0.117822,0.264583 0.04134,0.148828 0.04134,0.312125 v 0.04548 q 0,0.165364 -0.03927,0.316259 -0.03927,0.148828 -0.117822,0.262516 -0.08061,0.113688 -0.200504,0.179834 -0.117823,0.06615 -0.274919,0.06615 -0.159163,0 -0.279052,-0.06615 -0.119889,-0.06615 -0.198438,-0.179834 -0.08062,-0.113688 -0.119889,-0.262516 -0.03927,-0.150895 -0.03927,-0.316259 z"
         style="font-family:'Roboto Mono';-inkscape-font-specification:'Roboto Mono'"
         id="path246" />
      <path
         d="m 19.319827,38.740158 q 0,0.11989 0.07441,0.204639 0.07648,0.08268 0.225309,0.08268 0.146761,0 0.225309,-0.08268 0.07855,-0.08268 0.07855,-0.204639 0,-0.124023 -0.07855,-0.208772 -0.07648,-0.08682 -0.225309,-0.08682 -0.150895,0 -0.225309,0.08682 -0.07441,0.08682 -0.07441,0.208772 z"
         style="font-family:'Roboto Mono';-inkscape-font-specification:'Roboto Mono'"
         id="path248" />
      <path
         d="m 22.147559,38.719488 q -0.179834,0 -0.30179,-0.07028 -0.119889,-0.07235 -0.192236,-0.188102 -0.07441,-0.113688 -0.107487,-0.256315 -0.03101,-0.144694 -0.03101,-0.291455 v -0.08682 q 0,-0.144694 0.03101,-0.287321 0.03307,-0.142627 0.107487,-0.258382 0.07441,-0.113688 0.194303,-0.183968 0.121957,-0.07235 0.299723,-0.07235 0.115755,0 0.214974,0.03927 0.101286,0.03927 0.173633,0.107487 0.07235,0.06821 0.113688,0.159163 0.04341,0.08888 0.04547,0.19017 h 0.361735 q 0,-0.169499 -0.06821,-0.318327 -0.06821,-0.148828 -0.188102,-0.258382 -0.121956,-0.107487 -0.289388,-0.169499 -0.165364,-0.06408 -0.363802,-0.06408 -0.254248,0 -0.444417,0.09095 -0.190169,0.09095 -0.316259,0.243913 -0.128158,0.155029 -0.192236,0.3576 -0.06408,0.202572 -0.06408,0.423747 v 0.08682 q 0,0.223242 0.06408,0.425814 0.06408,0.200504 0.192236,0.353466 0.12609,0.155029 0.316259,0.24598 0.190169,0.09095 0.444417,0.09095 0.177767,0 0.341064,-0.05995 0.163298,-0.06201 0.289388,-0.165364 0.126091,-0.101286 0.200505,-0.235644 0.07648,-0.136426 0.07855,-0.285254 h -0.361735 q -0.0021,0.09302 -0.04961,0.173633 -0.04548,0.07855 -0.121957,0.136425 -0.07648,0.05994 -0.175699,0.09302 -0.09715,0.03307 -0.200505,0.03307 z"
         style="font-family:'Roboto Mono';-inkscape-font-specification:'Roboto Mono'"
         id="path250" />
    </g>
    <path
       id="rect835-7"
       style="fill:#ffffff;stroke:#000000;stroke-width:0.254"
       d="m 68.392012,8.8430243 h 16.256872 c 1.088674,0 1.965116,0.8764419 1.965116,1.9651167 v 21.616281 c 0,1.088675 -0.876442,1.965117 -1.965116,1.965117 H 68.392012 c -1.088675,0 -1.965117,-0.876442 -1.965117,-1.965117 V 10.808141 c 0,-1.0886748 0.876442,-1.9651167 1.965117,-1.9651167 z" />
    <path
       id="rect835-7-8"
       style="fill:#ffffff;stroke:#000000;stroke-width:0.254"
       d="m 127.67303,9.5576124 h 16.25687 c 1.08867,0 1.96511,0.8764416 1.96511,1.9651166 V 33.13901 c 0,1.088675 -0.87644,1.965117 -1.96511,1.965117 h -16.25687 c -1.08868,0 -1.96512,-0.876442 -1.96512,-1.965117 V 11.522729 c 0,-1.088675 0.87644,-1.9651166 1.96512,-1.9651166 z" />
    <path
       id="rect835-7-8-0"
       style="fill:#ffffff;stroke:#000000;stroke-width:0.254"
       d="m 187.48997,9.5576124 h 16.25688 c 1.08867,0 1.96511,0.8764416 1.96511,1.9651166 V 33.13901 c 0,1.088675 -0.87644,1.965117 -1.96511,1.965117 h -16.25688 c -1.08867,0 -1.96511,-0.876442 -1.96511,-1.965117 V 11.522729 c 0,-1.088675 0.87644,-1.9651166 1.96511,-1.9651166 z" />
    <path
       id="rect963"
       style="fill:#ededed;stroke:#000000;stroke-width:0.254"
       d="m 34.849702,16.792814 h 22.688163 c 1.088674,0 1.965116,0.876442 1.965116,1.965116 v 5.002117 c 0,1.088674 -0.876442,1.965116 -1.965116,1.965116 H 34.849702 c -1.088674,0 -1.965116,-0.876442 -1.965116,-1.965116 V 18.75793 c 0,-1.088674 0.876442,-1.965116 1.965116,-1.965116 z" />
    <path
       id="rect963-8"
       style="fill:#ededed;stroke:#000000;stroke-width:0.254"
       d="m 95.953733,16.614166 h 20.723047 c 1.08867,0 1.96512,0.876442 1.96512,1.965116 v 5.002117 c 0,1.088674 -0.87645,1.965116 -1.96512,1.965116 H 95.953733 c -1.088674,0 -1.965116,-0.876442 -1.965116,-1.965116 v -5.002117 c 0,-1.088674 0.876442,-1.965116 1.965116,-1.965116 z" />
    <path
       id="rect963-8-4"
       style="fill:#ededed;stroke:#000000;stroke-width:0.254"
       d="m 155.95878,16.792814 h 20.72305 c 1.08867,0 1.96512,0.876442 1.96512,1.965116 v 5.002117 c 0,1.088674 -0.87645,1.965116 -1.96512,1.965116 h -20.72305 c -1.08867,0 -1.96511,-0.876442 -1.96511,-1.965116 V 18.75793 c 0,-1.088674 0.87644,-1.965116 1.96511,-1.965116 z" />
    <g
       aria-label="a.out"
       id="text839-2"
       style="font-size:4.23333px;line-height:1.25;font-family:'Courier New';-inkscape-font-specification:'Courier New';text-align:center;text-anchor:middle;stroke-width:0.264583">
      <path
         d="m 190.51144,39.715237 h 0.39894 v -0.03307 q -0.0372,-0.09302 -0.0579,-0.217041 -0.0207,-0.12609 -0.0207,-0.237711 v -1.039729 q 0,-0.188102 -0.0682,-0.328662 -0.0682,-0.14056 -0.18603,-0.235645 -0.11989,-0.09302 -0.28319,-0.138492 -0.1633,-0.04754 -0.35346,-0.04754 -0.20878,0 -0.37414,0.05788 -0.1633,0.05788 -0.27699,0.150895 -0.11575,0.09509 -0.17776,0.212907 -0.06,0.117822 -0.062,0.239778 h 0.38448 q 0,-0.07028 0.0331,-0.134358 0.0351,-0.06615 0.0971,-0.113688 0.062,-0.04754 0.1509,-0.07648 0.0909,-0.02894 0.20463,-0.02894 0.12196,0 0.21911,0.03101 0.0992,0.03101 0.16743,0.08682 0.0682,0.05788 0.10542,0.138493 0.0372,0.08061 0.0372,0.1819 v 0.1757 h -0.41754 q -0.23358,0 -0.42375,0.04547 -0.1881,0.04548 -0.32246,0.136426 -0.13436,0.09302 -0.20877,0.23151 -0.0724,0.138493 -0.0724,0.322461 0,0.14056 0.0537,0.262516 0.0558,0.119889 0.1571,0.206706 0.0992,0.08888 0.24184,0.140559 0.1447,0.05168 0.32247,0.05168 0.10955,0 0.2067,-0.02274 0.0971,-0.02274 0.18397,-0.06201 0.0848,-0.03927 0.15503,-0.09095 0.0723,-0.05168 0.13022,-0.109554 0.006,0.07028 0.0186,0.136426 0.0145,0.06408 0.0372,0.107487 z m -0.67592,-0.291455 q -0.11163,0 -0.19637,-0.02894 -0.0848,-0.02894 -0.14056,-0.08062 -0.0558,-0.04961 -0.0848,-0.119889 -0.0269,-0.07028 -0.0269,-0.152962 0,-0.08682 0.031,-0.15503 0.0331,-0.06821 0.0951,-0.117822 0.0868,-0.07028 0.23358,-0.103353 0.14883,-0.03514 0.34727,-0.03514 h 0.35553 v 0.452686 q -0.0331,0.06614 -0.091,0.128157 -0.0579,0.05994 -0.13642,0.107487 -0.0806,0.04754 -0.17777,0.07648 -0.0971,0.02894 -0.20877,0.02894 z"
         style="font-family:'Roboto Mono';-inkscape-font-specification:'Roboto Mono'"
         id="path259" />
      <path
         d="m 192.24777,39.46719 q 0,0.119889 0.0744,0.204638 0.0765,0.08268 0.22531,0.08268 0.14676,0 0.22531,-0.08268 0.0786,-0.08268 0.0786,-0.204638 0,-0.124023 -0.0786,-0.208773 -0.0765,-0.08682 -0.22531,-0.08682 -0.15089,0 -0.22531,0.08682 -0.0744,0.08682 -0.0744,0.208773 z"
         style="font-family:'Roboto Mono';-inkscape-font-specification:'Roboto Mono'"
         id="path261" />
      <path
         d="m 194.0151,38.576289 v 0.04547 q 0,0.241846 0.0703,0.448551 0.0703,0.206706 0.20257,0.359668 0.13023,0.152962 0.31833,0.239778 0.19017,0.08682 0.42788,0.08682 0.23564,0 0.42375,-0.08682 0.1881,-0.08682 0.32039,-0.239778 0.13022,-0.152962 0.2005,-0.359668 0.0703,-0.206705 0.0703,-0.448551 v -0.04547 q 0,-0.241845 -0.0703,-0.448551 -0.0703,-0.208773 -0.2005,-0.361735 -0.13229,-0.152962 -0.32246,-0.239778 -0.1881,-0.08888 -0.42581,-0.08888 -0.23565,0 -0.42375,0.08888 -0.1881,0.08682 -0.31833,0.239778 -0.13229,0.152962 -0.20257,0.361735 -0.0703,0.206706 -0.0703,0.448551 z m 0.38241,0.04547 v -0.04547 q 0,-0.163297 0.0393,-0.312125 0.0393,-0.150895 0.11989,-0.264583 0.0786,-0.113689 0.19637,-0.179834 0.11782,-0.06821 0.27699,-0.06821 0.15916,0 0.27698,0.06821 0.11989,0.06614 0.20051,0.179834 0.0785,0.113688 0.11782,0.264583 0.0413,0.148828 0.0413,0.312125 v 0.04547 q 0,0.165365 -0.0393,0.31626 -0.0393,0.148828 -0.11783,0.262516 -0.0806,0.113688 -0.2005,0.179834 -0.11782,0.06614 -0.27492,0.06614 -0.15916,0 -0.27905,-0.06614 -0.11989,-0.06615 -0.19844,-0.179834 -0.0806,-0.113688 -0.11989,-0.262516 -0.0393,-0.150895 -0.0393,-0.31626 z"
         style="font-family:'Roboto Mono';-inkscape-font-specification:'Roboto Mono'"
         id="path263" />
      <path
         d="m 198.13681,39.715237 h 0.34727 v -2.236554 h -0.38448 v 1.604035 q -0.031,0.07235 -0.0785,0.134358 -0.0455,0.05994 -0.10749,0.103353 -0.0744,0.05374 -0.1757,0.08475 -0.10129,0.02894 -0.22944,0.02894 -0.10956,0 -0.19431,-0.02894 -0.0827,-0.02894 -0.14056,-0.101285 -0.0579,-0.07028 -0.0868,-0.19017 -0.0289,-0.119889 -0.0289,-0.30179 v -1.33325 h -0.38241 v 1.329116 q 0,0.250114 0.0538,0.429948 0.0558,0.177767 0.15709,0.293522 0.10129,0.115755 0.24391,0.171565 0.14263,0.05374 0.31833,0.05374 0.21911,0 0.38654,-0.09095 0.16743,-0.09302 0.27905,-0.258382 z"
         style="font-family:'Roboto Mono';-inkscape-font-specification:'Roboto Mono'"
         id="path265" />
      <path
         d="m 200.10878,36.937114 h -0.38447 v 0.541569 h -0.58704 v 0.295588 h 0.58704 V 38.9897 q 0,0.206706 0.0537,0.353467 0.0558,0.144694 0.1509,0.235644 0.0951,0.09302 0.22324,0.136426 0.13022,0.04134 0.27905,0.04134 0.0889,0 0.17777,-0.0083 0.0909,-0.0083 0.17156,-0.0248 0.0806,-0.01447 0.14883,-0.03514 0.0682,-0.02274 0.11576,-0.05168 l -0.0538,-0.270785 q -0.0351,0.0083 -0.0909,0.02067 -0.0537,0.01033 -0.11575,0.02067 -0.0641,0.01034 -0.13023,0.0186 -0.0661,0.0062 -0.12815,0.0062 -0.0848,0 -0.16123,-0.02067 -0.0744,-0.02067 -0.1323,-0.07235 -0.0579,-0.04961 -0.0909,-0.134359 -0.0331,-0.08475 -0.0331,-0.214974 v -1.215429 h 0.85163 v -0.295588 h -0.85163 z"
         style="font-family:'Roboto Mono';-inkscape-font-specification:'Roboto Mono'"
         id="path267" />
    </g>
    <g
       aria-label="hello.o"
       id="text839-8"
       style="font-size:4.23333px;line-height:1.25;font-family:'Courier New';-inkscape-font-specification:'Courier New';text-align:center;text-anchor:middle;stroke-width:0.264583">
      <path
         d="m 127.48915,37.411015 v -1.271239 h -0.3824 v 3.174998 h 0.3824 v -1.624706 q 0.0413,-0.06615 0.093,-0.119889 0.0537,-0.05581 0.11576,-0.09715 0.0785,-0.05374 0.17156,-0.08268 0.093,-0.02894 0.19637,-0.02894 0.12609,-0.0021 0.22324,0.03514 0.0971,0.03514 0.16123,0.107487 0.0599,0.06615 0.0909,0.167431 0.031,0.09922 0.031,0.231511 v 1.411799 h 0.38241 v -1.407665 q 0,-0.225309 -0.0558,-0.388607 -0.0537,-0.165364 -0.15502,-0.272851 -0.10129,-0.107487 -0.24598,-0.157096 -0.14263,-0.05168 -0.31833,-0.05168 -0.13436,0.0021 -0.25425,0.03927 -0.11782,0.03721 -0.21704,0.109554 -0.062,0.04341 -0.11782,0.101286 -0.0558,0.05581 -0.10129,0.124023 z"
         style="font-family:'Roboto Mono';-inkscape-font-specification:'Roboto Mono'"
         id="path270" />
      <path
         d="m 130.63521,39.356115 q 0.3266,0 0.54777,-0.130225 0.22324,-0.132291 0.33486,-0.30179 l -0.23357,-0.181901 q -0.10542,0.136426 -0.26459,0.219108 -0.15916,0.08268 -0.3638,0.08268 -0.15503,0 -0.28318,-0.05788 -0.12816,-0.05788 -0.21911,-0.159164 -0.0889,-0.09508 -0.14056,-0.219107 -0.0496,-0.124024 -0.0641,-0.287321 v -0.01447 h 1.59783 v -0.171565 q 0,-0.233577 -0.0599,-0.434082 -0.0579,-0.200504 -0.17777,-0.349332 -0.11989,-0.146761 -0.30179,-0.229443 -0.17983,-0.08475 -0.42168,-0.08475 -0.19223,0 -0.3762,0.07855 -0.1819,0.07855 -0.32453,0.22531 -0.14469,0.148828 -0.23151,0.363801 -0.0868,0.212907 -0.0868,0.483691 v 0.08682 q 0,0.233577 0.0786,0.432014 0.0785,0.198438 0.21911,0.343131 0.14056,0.144694 0.33693,0.22531 0.19844,0.08062 0.43408,0.08062 z m -0.0496,-2.005044 q 0.14676,0 0.25218,0.05374 0.10749,0.05374 0.17777,0.14056 0.0703,0.08682 0.10955,0.206706 0.0393,0.117822 0.0393,0.221175 v 0.0186 h -1.20303 q 0.0227,-0.155029 0.0785,-0.272851 0.0579,-0.11989 0.14056,-0.202572 0.0827,-0.08062 0.18603,-0.121956 0.10336,-0.04341 0.21911,-0.04341 z"
         style="font-family:'Roboto Mono';-inkscape-font-specification:'Roboto Mono'"
         id="path272" />
      <path
         d="m 132.24751,36.139776 v 0.332796 h 0.76068 v 2.511473 h -0.76068 v 0.330729 h 1.87276 v -0.330729 h -0.72967 v -2.844269 z"
         style="font-family:'Roboto Mono';-inkscape-font-specification:'Roboto Mono'"
         id="path274" />
      <path
         d="m 134.78793,36.139776 v 0.332796 h 0.76067 v 2.511473 h -0.76067 v 0.330729 h 1.87275 v -0.330729 h -0.72967 v -2.844269 z"
         style="font-family:'Roboto Mono';-inkscape-font-specification:'Roboto Mono'"
         id="path276" />
      <path
         d="m 137.16091,38.175826 v 0.04547 q 0,0.241846 0.0703,0.448551 0.0703,0.206706 0.20257,0.359668 0.13022,0.152962 0.31832,0.239778 0.19017,0.08682 0.42788,0.08682 0.23565,0 0.42375,-0.08682 0.1881,-0.08682 0.32039,-0.239778 0.13023,-0.152962 0.20051,-0.359668 0.0703,-0.206705 0.0703,-0.448551 v -0.04547 q 0,-0.241846 -0.0703,-0.448551 -0.0703,-0.208773 -0.20051,-0.361735 -0.13229,-0.152962 -0.32246,-0.239778 -0.1881,-0.08888 -0.42581,-0.08888 -0.23564,0 -0.42375,0.08888 -0.1881,0.08682 -0.31832,0.239778 -0.13229,0.152962 -0.20257,0.361735 -0.0703,0.206705 -0.0703,0.448551 z m 0.3824,0.04547 v -0.04547 q 0,-0.163297 0.0393,-0.312125 0.0393,-0.150895 0.11989,-0.264584 0.0786,-0.113688 0.19637,-0.179833 0.11783,-0.06821 0.27699,-0.06821 0.15916,0 0.27699,0.06821 0.11988,0.06615 0.2005,0.179833 0.0785,0.113689 0.11782,0.264584 0.0413,0.148828 0.0413,0.312125 v 0.04547 q 0,0.165365 -0.0393,0.31626 -0.0393,0.148828 -0.11782,0.262516 -0.0806,0.113688 -0.20051,0.179834 -0.11782,0.06614 -0.27492,0.06614 -0.15916,0 -0.27905,-0.06614 -0.11989,-0.06615 -0.19844,-0.179834 -0.0806,-0.113688 -0.11989,-0.262516 -0.0393,-0.150895 -0.0393,-0.31626 z"
         style="font-family:'Roboto Mono';-inkscape-font-specification:'Roboto Mono'"
         id="path278" />
      <path
         d="m 140.4744,39.066727 q 0,0.119889 0.0744,0.204638 0.0765,0.08268 0.22531,0.08268 0.14676,0 0.22531,-0.08268 0.0786,-0.08268 0.0786,-0.204638 0,-0.124023 -0.0786,-0.208773 -0.0765,-0.08682 -0.22531,-0.08682 -0.1509,0 -0.22531,0.08682 -0.0744,0.08682 -0.0744,0.208773 z"
         style="font-family:'Roboto Mono';-inkscape-font-specification:'Roboto Mono'"
         id="path280" />
      <path
         d="m 142.24173,38.175826 v 0.04547 q 0,0.241846 0.0703,0.448551 0.0703,0.206706 0.20257,0.359668 0.13022,0.152962 0.31833,0.239778 0.19017,0.08682 0.42788,0.08682 0.23564,0 0.42374,-0.08682 0.18811,-0.08682 0.3204,-0.239778 0.13022,-0.152962 0.2005,-0.359668 0.0703,-0.206705 0.0703,-0.448551 v -0.04547 q 0,-0.241846 -0.0703,-0.448551 -0.0703,-0.208773 -0.2005,-0.361735 -0.13229,-0.152962 -0.32246,-0.239778 -0.18811,-0.08888 -0.42582,-0.08888 -0.23564,0 -0.42374,0.08888 -0.18811,0.08682 -0.31833,0.239778 -0.13229,0.152962 -0.20257,0.361735 -0.0703,0.206705 -0.0703,0.448551 z m 0.3824,0.04547 v -0.04547 q 0,-0.163297 0.0393,-0.312125 0.0393,-0.150895 0.11989,-0.264584 0.0786,-0.113688 0.19637,-0.179833 0.11782,-0.06821 0.27698,-0.06821 0.15917,0 0.27699,0.06821 0.11989,0.06615 0.2005,0.179833 0.0786,0.113689 0.11782,0.264584 0.0414,0.148828 0.0414,0.312125 v 0.04547 q 0,0.165365 -0.0393,0.31626 -0.0393,0.148828 -0.11782,0.262516 -0.0806,0.113688 -0.2005,0.179834 -0.11783,0.06614 -0.27492,0.06614 -0.15917,0 -0.27906,-0.06614 -0.11988,-0.06615 -0.19843,-0.179834 -0.0806,-0.113688 -0.11989,-0.262516 -0.0393,-0.150895 -0.0393,-0.31626 z"
         style="font-family:'Roboto Mono';-inkscape-font-specification:'Roboto Mono'"
         id="path282" />
    </g>
    <g
       aria-label="hello.tu"
       id="text839-3"
       style="font-size:4.23333px;line-height:1.25;font-family:'Courier New';-inkscape-font-specification:'Courier New';text-align:center;text-anchor:middle;stroke-width:0.264583">
      <path
         d="m 67.265448,36.875073 v -1.271239 h -0.382405 v 3.174997 h 0.382405 v -1.624705 q 0.04134,-0.06615 0.09302,-0.119889 0.05374,-0.05581 0.115755,-0.09715 0.07855,-0.05374 0.171566,-0.08268 0.09302,-0.02894 0.19637,-0.02894 0.12609,-0.0021 0.223242,0.03514 0.09715,0.03514 0.16123,0.107487 0.05994,0.06615 0.09095,0.167431 0.031,0.09922 0.031,0.231511 v 1.411798 h 0.382406 v -1.407664 q 0,-0.225309 -0.05581,-0.388607 -0.05374,-0.165364 -0.155029,-0.272851 -0.101286,-0.107487 -0.24598,-0.157096 -0.142626,-0.05168 -0.318326,-0.05168 -0.134359,0.0021 -0.254248,0.03927 -0.117822,0.03721 -0.217041,0.109554 -0.06201,0.04341 -0.117822,0.101286 -0.05581,0.05581 -0.101286,0.124023 z"
         style="font-family:'Roboto Mono';-inkscape-font-specification:'Roboto Mono'"
         id="path285" />
      <path
         d="m 70.411507,38.820173 q 0.326595,0 0.54777,-0.130225 0.223242,-0.132291 0.334863,-0.30179 l -0.233578,-0.181901 q -0.10542,0.136426 -0.264583,0.219108 -0.159163,0.08268 -0.363802,0.08268 -0.155029,0 -0.283186,-0.05788 -0.128158,-0.05788 -0.219108,-0.159164 -0.08888,-0.09508 -0.14056,-0.219108 -0.04961,-0.124023 -0.06408,-0.28732 v -0.01447 h 1.597834 v -0.171565 q 0,-0.233578 -0.05994,-0.434082 -0.05788,-0.200504 -0.177767,-0.349332 -0.119889,-0.146761 -0.30179,-0.229443 -0.179834,-0.08475 -0.42168,-0.08475 -0.192236,0 -0.376204,0.07855 -0.181901,0.07855 -0.324527,0.225309 -0.144694,0.148828 -0.231511,0.363802 -0.08682,0.212907 -0.08682,0.483691 v 0.08682 q 0,0.233577 0.07855,0.432014 0.07855,0.198437 0.219108,0.343131 0.14056,0.144694 0.33693,0.225309 0.198437,0.08062 0.434082,0.08062 z m -0.04961,-2.005044 q 0.146761,0 0.252181,0.05374 0.107487,0.05374 0.177767,0.14056 0.07028,0.08682 0.109554,0.206705 0.03927,0.117823 0.03927,0.221175 v 0.0186 h -1.203026 q 0.02274,-0.155029 0.07855,-0.272851 0.05788,-0.11989 0.14056,-0.202572 0.08268,-0.08062 0.186035,-0.121956 0.103352,-0.04341 0.219107,-0.04341 z"
         style="font-family:'Roboto Mono';-inkscape-font-specification:'Roboto Mono'"
         id="path287" />
      <path
         d="m 72.02381,35.603834 v 0.332796 h 0.760677 v 2.511473 H 72.02381 v 0.330728 h 1.872752 v -0.330728 h -0.72967 v -2.844269 z"
         style="font-family:'Roboto Mono';-inkscape-font-specification:'Roboto Mono'"
         id="path289" />
      <path
         d="m 74.564222,35.603834 v 0.332796 h 0.760676 v 2.511473 h -0.760676 v 0.330728 h 1.872752 v -0.330728 h -0.729671 v -2.844269 z"
         style="font-family:'Roboto Mono';-inkscape-font-specification:'Roboto Mono'"
         id="path291" />
      <path
         d="m 76.937201,37.639884 v 0.04547 q 0,0.241846 0.07028,0.448551 0.07028,0.206706 0.202571,0.359668 0.130225,0.152962 0.318327,0.239778 0.190169,0.08682 0.42788,0.08682 0.235645,0 0.423747,-0.08682 0.188102,-0.08682 0.320393,-0.239778 0.130225,-0.152962 0.200505,-0.359668 0.07028,-0.206705 0.07028,-0.448551 v -0.04547 q 0,-0.241846 -0.07028,-0.448551 -0.07028,-0.208773 -0.200505,-0.361735 -0.132291,-0.152962 -0.32246,-0.239778 -0.188102,-0.08888 -0.425814,-0.08888 -0.235644,0 -0.423746,0.08888 -0.188102,0.08682 -0.318327,0.239778 -0.132291,0.152962 -0.202571,0.361735 -0.07028,0.206705 -0.07028,0.448551 z m 0.382405,0.04547 v -0.04547 q 0,-0.163298 0.03927,-0.312126 0.03927,-0.150895 0.11989,-0.264583 0.07855,-0.113688 0.19637,-0.179833 0.117822,-0.06821 0.276985,-0.06821 0.159164,0 0.276986,0.06821 0.119889,0.06614 0.200504,0.179833 0.07855,0.113688 0.117822,0.264583 0.04134,0.148828 0.04134,0.312126 v 0.04547 q 0,0.165365 -0.03927,0.31626 -0.03927,0.148828 -0.117822,0.262516 -0.08061,0.113688 -0.200504,0.179833 -0.117822,0.06615 -0.274919,0.06615 -0.159163,0 -0.279052,-0.06615 -0.119889,-0.06614 -0.198437,-0.179833 -0.08062,-0.113688 -0.11989,-0.262516 -0.03927,-0.150895 -0.03927,-0.31626 z"
         style="font-family:'Roboto Mono';-inkscape-font-specification:'Roboto Mono'"
         id="path293" />
      <path
         d="m 80.250691,38.530785 q 0,0.119889 0.07441,0.204638 0.07648,0.08268 0.225309,0.08268 0.146761,0 0.225309,-0.08268 0.07855,-0.08268 0.07855,-0.204638 0,-0.124024 -0.07855,-0.208773 -0.07648,-0.08682 -0.225309,-0.08682 -0.150895,0 -0.225309,0.08682 -0.07441,0.08682 -0.07441,0.208773 z"
         style="font-family:'Roboto Mono';-inkscape-font-specification:'Roboto Mono'"
         id="path295" />
      <path
         d="m 83.030881,36.000709 h -0.384472 v 0.541568 h -0.587044 v 0.295589 h 0.587044 v 1.215429 q 0,0.206706 0.05374,0.353466 0.05581,0.144694 0.150895,0.235645 0.09509,0.09302 0.223242,0.136425 0.130225,0.04134 0.279053,0.04134 0.08888,0 0.177767,-0.0083 0.09095,-0.0083 0.171565,-0.0248 0.08061,-0.01447 0.148828,-0.03514 0.06821,-0.02274 0.115755,-0.05168 l -0.05374,-0.270784 q -0.03514,0.0083 -0.09095,0.02067 -0.05374,0.01033 -0.115756,0.02067 -0.06408,0.01033 -0.130224,0.0186 -0.06615,0.0062 -0.128158,0.0062 -0.08475,0 -0.16123,-0.02067 -0.07441,-0.02067 -0.132291,-0.07235 -0.05788,-0.04961 -0.09095,-0.134358 -0.03307,-0.08475 -0.03307,-0.214974 v -1.215429 h 0.851627 v -0.295589 h -0.851627 z"
         style="font-family:'Roboto Mono';-inkscape-font-specification:'Roboto Mono'"
         id="path297" />
      <path
         d="m 86.139732,38.778831 h 0.347266 v -2.236554 h -0.384473 v 1.604035 q -0.031,0.07235 -0.07855,0.134359 -0.04547,0.05994 -0.107487,0.103353 -0.07441,0.05374 -0.175699,0.08475 -0.101286,0.02894 -0.229443,0.02894 -0.109554,0 -0.194304,-0.02894 -0.08268,-0.02894 -0.140559,-0.101286 -0.05788,-0.07028 -0.08682,-0.190169 -0.02894,-0.119889 -0.02894,-0.30179 v -1.333251 h -0.382405 v 1.329117 q 0,0.250114 0.05374,0.429948 0.05581,0.177766 0.157096,0.293522 0.101286,0.115755 0.243912,0.171565 0.142627,0.05374 0.318327,0.05374 0.219108,0 0.386539,-0.09095 0.167432,-0.09302 0.279053,-0.258382 z"
         style="font-family:'Roboto Mono';-inkscape-font-specification:'Roboto Mono'"
         id="path299" />
    </g>
    <g
       aria-label="preprocessor"
       id="text839-7"
       style="font-size:3.52778px;line-height:1.25;font-family:'Roboto Mono';-inkscape-font-specification:'Roboto Mono';text-align:center;text-anchor:middle;stroke-width:0.264583">
      <path
         d="m 33.788041,22.833058 h 0.318672 v -0.895725 q 0.03445,0.0379 0.07407,0.07062 0.03962,0.03101 0.08441,0.05684 0.07407,0.04134 0.165364,0.06373 0.09302,0.02239 0.199816,0.02239 0.1757,0 0.311781,-0.07235 0.137804,-0.07235 0.230822,-0.199816 0.09302,-0.127468 0.141249,-0.299723 0.04823,-0.173978 0.04823,-0.373793 v -0.03617 q 0,-0.208428 -0.04823,-0.382406 -0.04823,-0.1757 -0.141249,-0.301446 -0.09302,-0.125746 -0.230822,-0.19637 -0.137804,-0.07062 -0.316949,-0.07062 -0.10163,0 -0.191203,0.02239 -0.08785,0.02067 -0.160197,0.06201 -0.05168,0.02756 -0.09646,0.06718 -0.04479,0.0379 -0.08268,0.08613 l -0.0155,-0.203261 h -0.291111 z m 1.255739,-1.663982 v 0.03617 q 0,0.136081 -0.03101,0.260104 -0.02928,0.124024 -0.0913,0.218764 -0.06201,0.09474 -0.158475,0.151585 -0.09646,0.05512 -0.229099,0.05512 -0.08268,0 -0.151584,-0.02067 -0.06718,-0.02067 -0.122301,-0.05684 -0.04823,-0.03101 -0.08613,-0.07579 -0.0379,-0.04479 -0.06718,-0.09646 v -0.897447 q 0.03273,-0.05857 0.07579,-0.106799 0.04306,-0.04823 0.09819,-0.08096 0.04995,-0.03273 0.111966,-0.04995 0.06373,-0.01723 0.137804,-0.01723 0.134359,0 0.230822,0.05512 0.09646,0.05512 0.160197,0.148139 0.06201,0.09474 0.0913,0.218764 0.03101,0.122301 0.03101,0.258382 z"
         id="path302" />
      <path
         d="m 37.128064,20.218229 q -0.203261,0 -0.363458,0.08957 -0.158475,0.08785 -0.272163,0.241157 l -0.0017,-0.04651 -0.01378,-0.24977 h -0.303168 v 1.863798 h 0.320394 v -1.195449 q 0.03101,-0.08613 0.07751,-0.155029 0.04823,-0.07062 0.111966,-0.118856 0.07062,-0.05512 0.165365,-0.08268 0.09474,-0.02928 0.211873,-0.02928 0.09129,0 0.173978,0.01034 0.08441,0.0086 0.177422,0.02928 l 0.04306,-0.311782 q -0.04823,-0.02067 -0.144694,-0.03273 -0.09474,-0.01206 -0.18259,-0.01206 z"
         id="path304" />
      <path
         d="m 38.847167,22.150929 q 0.272163,0 0.456476,-0.108521 0.186035,-0.110243 0.279053,-0.251492 l -0.194648,-0.151584 q -0.08785,0.113688 -0.220487,0.18259 -0.132636,0.0689 -0.303168,0.0689 -0.129191,0 -0.235989,-0.04823 -0.106798,-0.04823 -0.182591,-0.132637 -0.07407,-0.07924 -0.117133,-0.18259 -0.04134,-0.103353 -0.0534,-0.239434 v -0.01206 h 1.33153 v -0.142971 q 0,-0.194648 -0.04995,-0.361736 -0.04823,-0.167087 -0.14814,-0.29111 -0.09991,-0.122301 -0.251492,-0.191203 -0.149862,-0.07062 -0.3514,-0.07062 -0.160197,0 -0.313504,0.06546 -0.151584,0.06546 -0.27044,0.187758 -0.120578,0.124023 -0.192925,0.303168 -0.07235,0.177423 -0.07235,0.403077 v 0.07235 q 0,0.194648 0.06546,0.360013 0.06546,0.165364 0.182591,0.285943 0.117133,0.120578 0.280775,0.187758 0.165365,0.06718 0.361735,0.06718 z m -0.04134,-1.670872 q 0.122301,0 0.210151,0.04479 0.08957,0.04479 0.148139,0.117133 0.05857,0.07235 0.0913,0.172255 0.03273,0.09819 0.03273,0.184313 v 0.0155 h -1.002524 q 0.01895,-0.129191 0.06546,-0.227377 0.04823,-0.09991 0.117134,-0.16881 0.0689,-0.06718 0.155029,-0.10163 0.08613,-0.03617 0.18259,-0.03617 z"
         id="path306" />
      <path
         d="m 40.139079,22.833058 h 0.318672 v -0.895725 q 0.03445,0.0379 0.07407,0.07062 0.03962,0.03101 0.0844,0.05684 0.07407,0.04134 0.165365,0.06373 0.09302,0.02239 0.199815,0.02239 0.1757,0 0.311782,-0.07235 0.137804,-0.07235 0.230821,-0.199816 0.09302,-0.127468 0.141249,-0.299723 0.04823,-0.173978 0.04823,-0.373793 v -0.03617 q 0,-0.208428 -0.04823,-0.382406 -0.04823,-0.1757 -0.141249,-0.301446 -0.09302,-0.125746 -0.230821,-0.19637 -0.137804,-0.07062 -0.316949,-0.07062 -0.101631,0 -0.191203,0.02239 -0.08785,0.02067 -0.160197,0.06201 -0.05168,0.02756 -0.09646,0.06718 -0.04479,0.0379 -0.08268,0.08613 l -0.0155,-0.203261 h -0.291111 z m 1.255738,-1.663982 v 0.03617 q 0,0.136081 -0.03101,0.260104 -0.02928,0.124024 -0.09129,0.218764 -0.06201,0.09474 -0.158474,0.151585 -0.09646,0.05512 -0.229099,0.05512 -0.08268,0 -0.151585,-0.02067 -0.06718,-0.02067 -0.122301,-0.05684 -0.04823,-0.03101 -0.08613,-0.07579 -0.0379,-0.04479 -0.06718,-0.09646 v -0.897447 q 0.03273,-0.05857 0.07579,-0.106799 0.04306,-0.04823 0.09819,-0.08096 0.04995,-0.03273 0.111966,-0.04995 0.06373,-0.01723 0.137804,-0.01723 0.134358,0 0.230821,0.05512 0.09646,0.05512 0.160197,0.148139 0.06201,0.09474 0.09129,0.218764 0.03101,0.122301 0.03101,0.258382 z"
         id="path308" />
      <path
         d="m 43.479101,20.218229 q -0.203261,0 -0.363458,0.08957 -0.158474,0.08785 -0.272162,0.241157 l -0.0017,-0.04651 -0.01378,-0.24977 h -0.303169 v 1.863798 h 0.320394 v -1.195449 q 0.03101,-0.08613 0.07752,-0.155029 0.04823,-0.07062 0.111966,-0.118856 0.07062,-0.05512 0.165364,-0.08268 0.09474,-0.02928 0.211874,-0.02928 0.0913,0 0.173977,0.01034 0.08441,0.0086 0.177423,0.02928 l 0.04306,-0.311782 q -0.04823,-0.02067 -0.144694,-0.03273 -0.09474,-0.01206 -0.18259,-0.01206 z"
         id="path310" />
      <path
         d="m 44.285254,21.167354 v 0.0379 q 0,0.201538 0.05857,0.373793 0.05857,0.172255 0.16881,0.299723 0.108521,0.127469 0.265272,0.199816 0.158475,0.07235 0.356568,0.07235 0.196371,0 0.353123,-0.07235 0.156752,-0.07235 0.266995,-0.199816 0.10852,-0.127468 0.167087,-0.299723 0.05857,-0.172255 0.05857,-0.373793 v -0.0379 q 0,-0.201539 -0.05857,-0.373794 -0.05857,-0.173977 -0.167087,-0.301446 -0.110243,-0.127468 -0.268718,-0.199815 -0.156752,-0.07407 -0.354845,-0.07407 -0.196371,0 -0.353123,0.07407 -0.156751,0.07235 -0.265272,0.199815 -0.110243,0.127469 -0.16881,0.301446 -0.05857,0.172255 -0.05857,0.373794 z m 0.318671,0.0379 v -0.0379 q 0,-0.136082 0.03273,-0.260105 0.03273,-0.125746 0.09991,-0.220487 0.06546,-0.09474 0.163642,-0.149861 0.09819,-0.05684 0.230822,-0.05684 0.132636,0 0.230822,0.05684 0.09991,0.05512 0.167087,0.149861 0.06546,0.09474 0.09819,0.220487 0.03445,0.124023 0.03445,0.260105 v 0.0379 q 0,0.137804 -0.03273,0.26355 -0.03273,0.124023 -0.09819,0.218763 -0.06718,0.09474 -0.167087,0.149862 -0.09819,0.05512 -0.229099,0.05512 -0.132636,0 -0.232544,-0.05512 -0.09991,-0.05512 -0.165365,-0.149862 -0.06718,-0.09474 -0.09991,-0.218763 -0.03273,-0.125746 -0.03273,-0.26355 z"
         id="path312" />
      <path
         d="m 47.285934,21.892547 q -0.149862,0 -0.251492,-0.05857 -0.09991,-0.06029 -0.160197,-0.156752 -0.06201,-0.09474 -0.08957,-0.213596 -0.02584,-0.120578 -0.02584,-0.242879 v -0.07235 q 0,-0.120579 0.02584,-0.239435 0.02756,-0.118856 0.08957,-0.215318 0.06201,-0.09474 0.161919,-0.153307 0.101631,-0.06029 0.24977,-0.06029 0.09646,0 0.179145,0.03273 0.0844,0.03273 0.144694,0.08957 0.06029,0.05684 0.09474,0.132636 0.03617,0.07407 0.0379,0.158474 h 0.301447 q 0,-0.141249 -0.05684,-0.265272 -0.05684,-0.124024 -0.156752,-0.215319 -0.10163,-0.08957 -0.241156,-0.141249 -0.137804,-0.0534 -0.303169,-0.0534 -0.211873,0 -0.370348,0.07579 -0.158474,0.07579 -0.26355,0.203261 -0.106798,0.129191 -0.160197,0.298001 -0.0534,0.16881 -0.0534,0.353123 v 0.07235 q 0,0.186035 0.0534,0.354845 0.0534,0.167087 0.160197,0.294555 0.105076,0.129192 0.26355,0.204984 0.158475,0.07579 0.370348,0.07579 0.148139,0 0.284221,-0.04995 0.136081,-0.05168 0.241156,-0.137804 0.105076,-0.08441 0.167088,-0.19637 0.06373,-0.113689 0.06546,-0.237712 h -0.301447 q -0.0017,0.07752 -0.04134,0.144694 -0.0379,0.06546 -0.10163,0.113688 -0.06373,0.04995 -0.146417,0.07751 -0.08096,0.02756 -0.167087,0.02756 z"
         id="path314" />
      <path
         d="m 49.43223,22.150929 q 0.272163,0 0.456476,-0.108521 0.186035,-0.110243 0.279053,-0.251492 l -0.194648,-0.151584 q -0.08785,0.113688 -0.220487,0.18259 -0.132636,0.0689 -0.303168,0.0689 -0.129191,0 -0.235989,-0.04823 -0.106798,-0.04823 -0.182591,-0.132637 -0.07407,-0.07924 -0.117133,-0.18259 -0.04134,-0.103353 -0.0534,-0.239434 v -0.01206 h 1.33153 v -0.142971 q 0,-0.194648 -0.04995,-0.361736 -0.04823,-0.167087 -0.148139,-0.29111 -0.09991,-0.122301 -0.251492,-0.191203 -0.149862,-0.07062 -0.3514,-0.07062 -0.160197,0 -0.313504,0.06546 -0.151584,0.06546 -0.27044,0.187758 -0.120578,0.124023 -0.192925,0.303168 -0.07235,0.177423 -0.07235,0.403077 v 0.07235 q 0,0.194648 0.06546,0.360013 0.06546,0.165364 0.182591,0.285943 0.117133,0.120578 0.280775,0.187758 0.165365,0.06718 0.361735,0.06718 z m -0.04134,-1.670872 q 0.122301,0 0.210151,0.04479 0.08957,0.04479 0.148139,0.117133 0.05857,0.07235 0.0913,0.172255 0.03273,0.09819 0.03273,0.184313 v 0.0155 h -1.002524 q 0.01895,-0.129191 0.06546,-0.227377 0.04823,-0.09991 0.117134,-0.16881 0.0689,-0.06718 0.155029,-0.10163 0.08613,-0.03617 0.18259,-0.03617 z"
         id="path316" />
      <path
         d="m 51.964377,21.622106 q 0,0.04479 -0.01723,0.08441 -0.01722,0.03962 -0.04995,0.07235 -0.0534,0.0534 -0.148139,0.08441 -0.09474,0.02928 -0.222209,0.02928 -0.08096,0 -0.163642,-0.01723 -0.08268,-0.01722 -0.149862,-0.05857 -0.0689,-0.04134 -0.11541,-0.10852 -0.04479,-0.06718 -0.05168,-0.165365 h -0.318671 q 0,0.118856 0.0534,0.229099 0.05512,0.110243 0.158474,0.192926 0.10163,0.08441 0.24977,0.136081 0.148139,0.04995 0.337619,0.04995 0.165365,0 0.304891,-0.03962 0.139527,-0.03962 0.239435,-0.111965 0.09991,-0.07235 0.155029,-0.173978 0.05684,-0.10163 0.05684,-0.225654 0,-0.11541 -0.04995,-0.20326 -0.04823,-0.08785 -0.141249,-0.15503 -0.09302,-0.06546 -0.229099,-0.111966 -0.136081,-0.04823 -0.308336,-0.0844 -0.130914,-0.02584 -0.217041,-0.0534 -0.08441,-0.02756 -0.134359,-0.06201 -0.05168,-0.03445 -0.07235,-0.07752 -0.02067,-0.04306 -0.02067,-0.09819 0,-0.0534 0.02584,-0.103353 0.02584,-0.04995 0.07751,-0.08785 0.04995,-0.0379 0.125746,-0.06029 0.07751,-0.02239 0.179146,-0.02239 0.09819,0 0.175699,0.02756 0.07924,0.02756 0.134359,0.07235 0.05512,0.04479 0.08613,0.103353 0.03101,0.05684 0.03101,0.117134 H 52.2641 q 0,-0.122301 -0.0534,-0.227377 -0.05168,-0.106798 -0.148139,-0.186035 -0.09646,-0.07924 -0.234267,-0.124024 -0.137804,-0.04479 -0.310058,-0.04479 -0.160198,0 -0.294556,0.04306 -0.132637,0.04306 -0.229099,0.117133 -0.09646,0.07407 -0.149862,0.173978 -0.0534,0.09819 -0.0534,0.211873 0,0.115411 0.05168,0.203261 0.05168,0.08613 0.146417,0.149862 0.09302,0.06546 0.223931,0.111965 0.132637,0.04651 0.292834,0.07924 0.130913,0.02584 0.218763,0.05857 0.08785,0.03101 0.141249,0.0689 0.0534,0.0379 0.07579,0.08441 0.02239,0.04479 0.02239,0.10163 z"
         id="path318" />
      <path
         d="m 54.081389,21.622106 q 0,0.04479 -0.01723,0.08441 -0.01723,0.03962 -0.04995,0.07235 -0.0534,0.0534 -0.148139,0.08441 -0.09474,0.02928 -0.222209,0.02928 -0.08096,0 -0.163642,-0.01723 -0.08268,-0.01722 -0.149862,-0.05857 -0.0689,-0.04134 -0.11541,-0.10852 -0.04479,-0.06718 -0.05168,-0.165365 h -0.318671 q 0,0.118856 0.0534,0.229099 0.05512,0.110243 0.158474,0.192926 0.10163,0.08441 0.24977,0.136081 0.148139,0.04995 0.337619,0.04995 0.165365,0 0.304891,-0.03962 0.139527,-0.03962 0.239435,-0.111965 0.09991,-0.07235 0.155029,-0.173978 0.05684,-0.10163 0.05684,-0.225654 0,-0.11541 -0.04995,-0.20326 -0.04823,-0.08785 -0.141249,-0.15503 -0.09302,-0.06546 -0.229099,-0.111966 -0.136081,-0.04823 -0.308336,-0.0844 -0.130914,-0.02584 -0.217041,-0.0534 -0.0844,-0.02756 -0.134359,-0.06201 -0.05168,-0.03445 -0.07235,-0.07752 -0.02067,-0.04306 -0.02067,-0.09819 0,-0.0534 0.02584,-0.103353 0.02584,-0.04995 0.07751,-0.08785 0.04995,-0.0379 0.125746,-0.06029 0.07751,-0.02239 0.179146,-0.02239 0.09819,0 0.1757,0.02756 0.07924,0.02756 0.134358,0.07235 0.05512,0.04479 0.08613,0.103353 0.03101,0.05684 0.03101,0.117134 h 0.318671 q 0,-0.122301 -0.0534,-0.227377 -0.05168,-0.106798 -0.148139,-0.186035 -0.09646,-0.07924 -0.234267,-0.124024 -0.137804,-0.04479 -0.310058,-0.04479 -0.160198,0 -0.294556,0.04306 -0.132637,0.04306 -0.229099,0.117133 -0.09646,0.07407 -0.149862,0.173978 -0.0534,0.09819 -0.0534,0.211873 0,0.115411 0.05168,0.203261 0.05168,0.08613 0.146417,0.149862 0.09302,0.06546 0.223931,0.111965 0.132637,0.04651 0.292834,0.07924 0.130913,0.02584 0.218763,0.05857 0.08785,0.03101 0.141249,0.0689 0.0534,0.0379 0.07579,0.08441 0.02239,0.04479 0.02239,0.10163 z"
         id="path320" />
      <path
         d="m 54.870316,21.167354 v 0.0379 q 0,0.201538 0.05857,0.373793 0.05857,0.172255 0.16881,0.299723 0.108521,0.127469 0.265273,0.199816 0.158474,0.07235 0.356567,0.07235 0.196371,0 0.353123,-0.07235 0.156752,-0.07235 0.266995,-0.199816 0.10852,-0.127468 0.167087,-0.299723 0.05857,-0.172255 0.05857,-0.373793 v -0.0379 q 0,-0.201539 -0.05857,-0.373794 -0.05857,-0.173977 -0.167087,-0.301446 -0.110243,-0.127468 -0.268718,-0.199815 -0.156752,-0.07407 -0.354845,-0.07407 -0.196371,0 -0.353122,0.07407 -0.156752,0.07235 -0.265273,0.199815 -0.110243,0.127469 -0.16881,0.301446 -0.05857,0.172255 -0.05857,0.373794 z m 0.318671,0.0379 v -0.0379 q 0,-0.136082 0.03273,-0.260105 0.03273,-0.125746 0.09991,-0.220487 0.06546,-0.09474 0.163642,-0.149861 0.09819,-0.05684 0.230822,-0.05684 0.132636,0 0.230822,0.05684 0.09991,0.05512 0.167087,0.149861 0.06546,0.09474 0.09819,0.220487 0.03445,0.124023 0.03445,0.260105 v 0.0379 q 0,0.137804 -0.03273,0.26355 -0.03273,0.124023 -0.09819,0.218763 -0.06718,0.09474 -0.167087,0.149862 -0.09819,0.05512 -0.229099,0.05512 -0.132636,0 -0.232544,-0.05512 -0.09991,-0.05512 -0.165365,-0.149862 -0.06718,-0.09474 -0.09991,-0.218763 -0.03273,-0.125746 -0.03273,-0.26355 z"
         id="path322" />
      <path
         d="m 58.298189,20.218229 q -0.203261,0 -0.363458,0.08957 -0.158474,0.08785 -0.272162,0.241157 l -0.0017,-0.04651 -0.01378,-0.24977 h -0.303169 v 1.863798 h 0.320394 v -1.195449 q 0.03101,-0.08613 0.07751,-0.155029 0.04823,-0.07062 0.111966,-0.118856 0.07062,-0.05512 0.165364,-0.08268 0.09474,-0.02928 0.211874,-0.02928 0.0913,0 0.173977,0.01034 0.08441,0.0086 0.177423,0.02928 l 0.04306,-0.311782 q -0.04823,-0.02067 -0.144694,-0.03273 -0.09474,-0.01206 -0.18259,-0.01206 z"
         id="path324" />
    </g>
    <g
       aria-label="compiler"
       id="text839-7-8"
       style="font-size:3.52778px;line-height:1.25;font-family:'Courier New';-inkscape-font-specification:'Courier New';text-align:center;text-anchor:middle;stroke-width:0.264583">
      <path
         d="m 98.857221,21.783412 q -0.149861,0 -0.251492,-0.05857 -0.09991,-0.06029 -0.160197,-0.156752 -0.06201,-0.09474 -0.08957,-0.213596 -0.02584,-0.120578 -0.02584,-0.242879 v -0.07235 q 0,-0.120579 0.02584,-0.239434 0.02756,-0.118856 0.08957,-0.215319 0.06201,-0.09474 0.16192,-0.153307 0.10163,-0.06029 0.249769,-0.06029 0.09646,0 0.179145,0.03273 0.08441,0.03273 0.144694,0.08957 0.06029,0.05684 0.09474,0.132636 0.03617,0.07407 0.0379,0.158475 h 0.301446 q 0,-0.141249 -0.05684,-0.265273 -0.05684,-0.124023 -0.156752,-0.215319 -0.101631,-0.08957 -0.241157,-0.141249 -0.137804,-0.0534 -0.303169,-0.0534 -0.211873,0 -0.370348,0.07579 -0.158474,0.07579 -0.26355,0.20326 -0.106798,0.129192 -0.160197,0.298001 -0.0534,0.16881 -0.0534,0.353123 v 0.07235 q 0,0.186035 0.0534,0.354845 0.0534,0.167087 0.160197,0.294556 0.105076,0.129191 0.26355,0.204983 0.158475,0.07579 0.370348,0.07579 0.148139,0 0.284221,-0.04995 0.136081,-0.05168 0.241157,-0.137804 0.105075,-0.0844 0.167087,-0.19637 0.06373,-0.113688 0.06546,-0.237712 h -0.301446 q -0.0017,0.07751 -0.04134,0.144694 -0.0379,0.06546 -0.101631,0.113688 -0.06373,0.04995 -0.146416,0.07751 -0.08096,0.02756 -0.167088,0.02756 z"
         style="font-family:'Roboto Mono';-inkscape-font-specification:'Roboto Mono'"
         id="path327" />
      <path
         d="m 100.09057,21.058219 v 0.0379 q 0,0.201538 0.0586,0.373793 0.0586,0.172255 0.16881,0.299724 0.10852,0.127468 0.26528,0.199815 0.15847,0.07235 0.35656,0.07235 0.19637,0 0.35313,-0.07235 0.15675,-0.07235 0.26699,-0.199815 0.10852,-0.127469 0.16709,-0.299724 0.0586,-0.172255 0.0586,-0.373793 v -0.0379 q 0,-0.201538 -0.0586,-0.373793 -0.0586,-0.173978 -0.16709,-0.301446 -0.11024,-0.127469 -0.26872,-0.199816 -0.15675,-0.07407 -0.35484,-0.07407 -0.19637,0 -0.35312,0.07407 -0.15676,0.07235 -0.26528,0.199816 -0.11024,0.127468 -0.16881,0.301446 -0.0586,0.172255 -0.0586,0.373793 z m 0.31867,0.0379 v -0.0379 q 0,-0.136081 0.0327,-0.260105 0.0327,-0.125746 0.0999,-0.220486 0.0655,-0.09474 0.16365,-0.149862 0.0982,-0.05684 0.23082,-0.05684 0.13263,0 0.23082,0.05684 0.0999,0.05512 0.16709,0.149862 0.0654,0.09474 0.0982,0.220486 0.0345,0.124024 0.0345,0.260105 v 0.0379 q 0,0.137804 -0.0327,0.26355 -0.0327,0.124023 -0.0982,0.218764 -0.0672,0.09474 -0.16709,0.149861 -0.0982,0.05512 -0.2291,0.05512 -0.13263,0 -0.23254,-0.05512 -0.0999,-0.05512 -0.16537,-0.149861 -0.0672,-0.09474 -0.0999,-0.218764 -0.0327,-0.125746 -0.0327,-0.26355 z"
         style="font-family:'Roboto Mono';-inkscape-font-specification:'Roboto Mono'"
         id="path329" />
      <path
         d="m 102.44357,20.143545 h -0.28595 v 1.863798 h 0.30317 v -1.483114 q 0.0103,-0.02756 0.0258,-0.05168 0.0172,-0.02412 0.0396,-0.04306 0.0293,-0.02412 0.0706,-0.03617 0.0431,-0.01378 0.0999,-0.01378 0.0517,0 0.0896,0.01378 0.0396,0.01206 0.0654,0.03962 0.0276,0.02928 0.0396,0.07407 0.0138,0.04479 0.0138,0.103353 v 1.396987 h 0.30317 v -1.395264 q 0,-0.01034 0,-0.01723 0,-0.0086 0,-0.01722 0.005,-0.04306 0.0207,-0.07752 0.0155,-0.03617 0.0431,-0.06373 0.0276,-0.02584 0.0689,-0.04134 0.0413,-0.0155 0.0982,-0.0155 0.0534,0 0.093,0.01378 0.0413,0.01378 0.0689,0.04134 0.0258,0.02928 0.0396,0.07407 0.0138,0.04479 0.0138,0.103353 v 1.395264 h 0.30317 v -1.391819 q 0,-0.134359 -0.031,-0.232544 -0.031,-0.09991 -0.0896,-0.16192 -0.0534,-0.05512 -0.13091,-0.08268 -0.0775,-0.02928 -0.17398,-0.02928 -0.0706,0.0017 -0.13091,0.01895 -0.0586,0.01723 -0.1068,0.04651 -0.0379,0.02584 -0.0706,0.06029 -0.0327,0.03445 -0.0568,0.07407 -0.019,-0.04306 -0.0465,-0.07752 -0.0258,-0.03445 -0.0586,-0.05857 -0.0448,-0.03101 -0.10507,-0.04651 -0.0586,-0.01723 -0.13264,-0.01723 -0.13091,0.0017 -0.22393,0.05685 -0.0913,0.05512 -0.14814,0.153306 z"
         style="font-family:'Roboto Mono';-inkscape-font-specification:'Roboto Mono'"
         id="path331" />
      <path
         d="m 104.41244,22.723924 h 0.31867 v -0.895726 q 0.0344,0.0379 0.0741,0.07062 0.0396,0.03101 0.0844,0.05684 0.0741,0.04134 0.16536,0.06373 0.093,0.02239 0.19982,0.02239 0.1757,0 0.31178,-0.07235 0.1378,-0.07235 0.23082,-0.199815 0.093,-0.127469 0.14125,-0.299724 0.0482,-0.173977 0.0482,-0.373793 v -0.03617 q 0,-0.208428 -0.0482,-0.382405 -0.0482,-0.1757 -0.14125,-0.301446 -0.093,-0.125747 -0.23082,-0.196371 -0.1378,-0.07062 -0.31695,-0.07062 -0.10163,0 -0.1912,0.02239 -0.0879,0.02067 -0.1602,0.06201 -0.0517,0.02756 -0.0965,0.06718 -0.0448,0.0379 -0.0827,0.08613 l -0.0155,-0.203261 h -0.29111 z m 1.25574,-1.663983 v 0.03617 q 0,0.136081 -0.031,0.260105 -0.0293,0.124023 -0.0913,0.218764 -0.062,0.09474 -0.15848,0.151584 -0.0965,0.05512 -0.2291,0.05512 -0.0827,0 -0.15158,-0.02067 -0.0672,-0.02067 -0.1223,-0.05684 -0.0482,-0.03101 -0.0861,-0.07579 -0.0379,-0.04479 -0.0672,-0.09646 v -0.897448 q 0.0327,-0.05857 0.0758,-0.106798 0.0431,-0.04823 0.0982,-0.08096 0.0499,-0.03273 0.11197,-0.04995 0.0637,-0.01722 0.1378,-0.01722 0.13436,0 0.23082,0.05512 0.0965,0.05512 0.1602,0.148139 0.062,0.09474 0.0913,0.218764 0.031,0.122301 0.031,0.258382 z"
         style="font-family:'Roboto Mono';-inkscape-font-specification:'Roboto Mono'"
         id="path333" />
      <path
         d="m 106.58113,20.143545 v 0.277331 h 0.6339 v 1.310859 h -0.6339 v 0.275608 h 1.56063 v -0.275608 h -0.60806 v -1.58819 z m 0.59256,-0.489203 q 0,0.07751 0.0465,0.129191 0.0482,0.05168 0.14469,0.05168 0.0947,0 0.14297,-0.05168 0.0482,-0.05168 0.0482,-0.129191 0,-0.04306 -0.0138,-0.07924 -0.0138,-0.03617 -0.0413,-0.06029 -0.0224,-0.02239 -0.0568,-0.03445 -0.0345,-0.01378 -0.0792,-0.01378 -0.0448,0 -0.081,0.01378 -0.0344,0.01206 -0.0568,0.03445 -0.0276,0.02584 -0.0414,0.06201 -0.0121,0.03617 -0.0121,0.07751 z"
         style="font-family:'Roboto Mono';-inkscape-font-specification:'Roboto Mono'"
         id="path335" />
      <path
         d="m 108.69814,19.361508 v 0.277331 h 0.6339 v 2.092896 h -0.6339 v 0.275608 h 1.56063 v -0.275608 h -0.60806 v -2.370227 z"
         style="font-family:'Roboto Mono';-inkscape-font-specification:'Roboto Mono'"
         id="path337" />
      <path
         d="m 111.58858,22.041794 q 0.27216,0 0.45648,-0.10852 0.18603,-0.110243 0.27905,-0.251492 l -0.19465,-0.151585 q -0.0878,0.113688 -0.22049,0.18259 -0.13263,0.0689 -0.30316,0.0689 -0.1292,0 -0.23599,-0.04823 -0.1068,-0.04823 -0.18259,-0.132636 -0.0741,-0.07924 -0.11714,-0.18259 -0.0413,-0.103353 -0.0534,-0.239435 v -0.01206 h 1.33153 v -0.142971 q 0,-0.194648 -0.0499,-0.361735 -0.0482,-0.167088 -0.14814,-0.291111 -0.0999,-0.122301 -0.25149,-0.191203 -0.14986,-0.07062 -0.3514,-0.07062 -0.1602,0 -0.31351,0.06546 -0.15158,0.06546 -0.27044,0.187758 -0.12057,0.124024 -0.19292,0.303169 -0.0724,0.177422 -0.0724,0.403076 v 0.07235 q 0,0.194648 0.0655,0.360013 0.0655,0.165365 0.18259,0.285943 0.11713,0.120578 0.28077,0.187758 0.16537,0.06718 0.36174,0.06718 z m -0.0413,-1.670872 q 0.1223,0 0.21015,0.04479 0.0896,0.04479 0.14814,0.117133 0.0586,0.07235 0.0913,0.172255 0.0327,0.09819 0.0327,0.184313 v 0.0155 h -1.00252 q 0.019,-0.129191 0.0655,-0.227376 0.0482,-0.09991 0.11713,-0.16881 0.0689,-0.06718 0.15503,-0.101631 0.0861,-0.03617 0.18259,-0.03617 z"
         style="font-family:'Roboto Mono';-inkscape-font-specification:'Roboto Mono'"
         id="path339" />
      <path
         d="m 114.1035,20.109094 q -0.20326,0 -0.36346,0.08957 -0.15847,0.08785 -0.27216,0.241157 l -0.002,-0.04651 -0.0138,-0.24977 h -0.30317 v 1.863798 h 0.32039 v -1.195449 q 0.031,-0.08613 0.0775,-0.155029 0.0482,-0.07062 0.11196,-0.118856 0.0706,-0.05512 0.16537,-0.08268 0.0947,-0.02928 0.21187,-0.02928 0.0913,0 0.17398,0.01034 0.0844,0.0086 0.17742,0.02928 l 0.0431,-0.311781 q -0.0482,-0.02067 -0.1447,-0.03273 -0.0947,-0.01206 -0.18259,-0.01206 z"
         style="font-family:'Roboto Mono';-inkscape-font-specification:'Roboto Mono'"
         id="path341" />
    </g>
    <g
       aria-label="linker"
       id="text839-7-9"
       style="font-size:3.52778px;line-height:1.25;font-family:'Courier New';-inkscape-font-specification:'Courier New';text-align:center;text-anchor:middle;stroke-width:0.264583">
      <path
         d="m 160.4341,19.540156 v 0.277331 h 0.63389 v 2.092896 h -0.63389 v 0.275608 h 1.56062 v -0.275608 h -0.60806 v -2.370227 z"
         style="font-family:'Roboto Mono';-inkscape-font-specification:'Roboto Mono'"
         id="path344" />
      <path
         d="m 162.55111,20.322193 v 0.277331 h 0.6339 v 1.310859 h -0.6339 v 0.275608 h 1.56063 v -0.275608 h -0.60806 v -1.58819 z m 0.59255,-0.489203 q 0,0.07751 0.0465,0.129191 0.0482,0.05168 0.1447,0.05168 0.0947,0 0.14297,-0.05168 0.0482,-0.05168 0.0482,-0.129191 0,-0.04306 -0.0138,-0.07924 -0.0138,-0.03617 -0.0413,-0.06029 -0.0224,-0.02239 -0.0568,-0.03445 -0.0344,-0.01378 -0.0792,-0.01378 -0.0448,0 -0.081,0.01378 -0.0344,0.01206 -0.0568,0.03445 -0.0276,0.02584 -0.0413,0.06201 -0.0121,0.03617 -0.0121,0.07751 z"
         style="font-family:'Roboto Mono';-inkscape-font-specification:'Roboto Mono'"
         id="path346" />
      <path
         d="m 164.61817,22.185991 h 0.31867 v -1.336698 q 0.0327,-0.06029 0.0758,-0.110243 0.0448,-0.04995 0.0965,-0.08785 0.0637,-0.04306 0.13953,-0.06718 0.0758,-0.02584 0.16364,-0.02584 0.10163,0 0.17915,0.02412 0.0792,0.02412 0.13436,0.07751 0.0534,0.0534 0.081,0.139526 0.0276,0.08613 0.0276,0.210151 v 1.176501 h 0.31867 V 21.0026 q 0,-0.186035 -0.0465,-0.320394 -0.0448,-0.136081 -0.12919,-0.223931 -0.0844,-0.08785 -0.20499,-0.129191 -0.11885,-0.04134 -0.26527,-0.04134 -0.10852,0.0017 -0.2067,0.03273 -0.0965,0.02928 -0.17915,0.08441 -0.0551,0.03617 -0.10508,0.08613 -0.0482,0.04823 -0.0896,0.106798 l -0.0224,-0.275608 h -0.28594 z"
         style="font-family:'Roboto Mono';-inkscape-font-specification:'Roboto Mono'"
         id="path348" />
      <path
         d="m 167.29328,21.316104 0.68386,0.869887 h 0.4048 l -0.86989,-1.086928 0.75447,-0.77687 h -0.38757 l -0.6115,0.613228 -0.20843,0.223931 v -1.619196 h -0.3204 v 2.645835 h 0.3204 v -0.644233 z"
         style="font-family:'Roboto Mono';-inkscape-font-specification:'Roboto Mono'"
         id="path350" />
      <path
         d="m 169.67557,22.220442 q 0.27216,0 0.45647,-0.10852 0.18604,-0.110243 0.27906,-0.251492 l -0.19465,-0.151585 q -0.0879,0.113688 -0.22049,0.18259 -0.13263,0.0689 -0.30316,0.0689 -0.1292,0 -0.23599,-0.04823 -0.1068,-0.04823 -0.18259,-0.132636 -0.0741,-0.07924 -0.11714,-0.18259 -0.0413,-0.103353 -0.0534,-0.239435 v -0.01206 h 1.33153 v -0.142971 q 0,-0.194648 -0.05,-0.361735 -0.0482,-0.167088 -0.14814,-0.291111 -0.0999,-0.122301 -0.25149,-0.191203 -0.14986,-0.07062 -0.3514,-0.07062 -0.1602,0 -0.31351,0.06546 -0.15158,0.06546 -0.27044,0.187758 -0.12057,0.124024 -0.19292,0.303169 -0.0724,0.177422 -0.0724,0.403076 v 0.07235 q 0,0.194648 0.0655,0.360013 0.0655,0.165365 0.18259,0.285943 0.11713,0.120578 0.28077,0.187758 0.16537,0.06718 0.36174,0.06718 z m -0.0413,-1.670872 q 0.1223,0 0.21015,0.04479 0.0896,0.04479 0.14814,0.117133 0.0586,0.07235 0.0913,0.172255 0.0327,0.09819 0.0327,0.184313 v 0.0155 h -1.00252 q 0.0189,-0.129191 0.0655,-0.227376 0.0482,-0.09991 0.11713,-0.16881 0.0689,-0.06718 0.15503,-0.101631 0.0861,-0.03617 0.18259,-0.03617 z"
         style="font-family:'Roboto Mono';-inkscape-font-specification:'Roboto Mono'"
         id="path352" />
      <path
         d="m 172.19049,20.287742 q -0.20326,0 -0.36346,0.08957 -0.15847,0.08785 -0.27216,0.241157 l -0.002,-0.04651 -0.0138,-0.24977 h -0.30317 v 1.863798 h 0.32039 v -1.195449 q 0.031,-0.08613 0.0775,-0.155029 0.0482,-0.07062 0.11196,-0.118856 0.0706,-0.05512 0.16537,-0.08268 0.0947,-0.02928 0.21187,-0.02928 0.0913,0 0.17398,0.01034 0.0844,0.0086 0.17742,0.02928 l 0.0431,-0.311781 q -0.0482,-0.02067 -0.14469,-0.03273 -0.0947,-0.01206 -0.18259,-0.01206 z"
         style="font-family:'Roboto Mono';-inkscape-font-specification:'Roboto Mono'"
         id="path354" />
    </g>
    <path
       id="rect963-8-4-0"
       style="fill:#ffffff;stroke:#000000;stroke-width:0.254"
       d="m 155.95878,31.546001 h 20.72305 c 1.08867,0 1.96512,0.876442 1.96512,1.965116 v 5.002117 c 0,1.088674 -0.87645,1.965116 -1.96512,1.965116 h -20.72305 c -1.08867,0 -1.96511,-0.876442 -1.96511,-1.965116 v -5.002117 c 0,-1.088674 0.87644,-1.965116 1.96511,-1.965116 z" />
    <g
       aria-label="libs"
       id="text839-7-9-3"
       style="font-size:3.52778px;line-height:1.25;font-family:'Courier New';-inkscape-font-specification:'Courier New';text-align:center;text-anchor:middle;stroke-width:0.264583">
      <path
         d="m 162.78612,34.659959 v 0.27733 h 0.6339 v 2.092897 h -0.6339 v 0.275608 h 1.56063 v -0.275608 h -0.60806 v -2.370227 z"
         style="font-family:'Roboto Mono';-inkscape-font-specification:'Roboto Mono'"
         id="path358" />
      <path
         d="m 164.90314,35.441996 v 0.27733 h 0.63389 v 1.31086 h -0.63389 v 0.275608 h 1.56063 v -0.275608 h -0.60806 v -1.58819 z m 0.59255,-0.489204 q 0,0.07751 0.0465,0.129191 0.0482,0.05168 0.1447,0.05168 0.0947,0 0.14297,-0.05168 0.0482,-0.05168 0.0482,-0.129191 0,-0.04306 -0.0138,-0.07924 -0.0138,-0.03617 -0.0413,-0.06029 -0.0224,-0.02239 -0.0568,-0.03445 -0.0344,-0.01378 -0.0792,-0.01378 -0.0448,0 -0.081,0.01378 -0.0345,0.01206 -0.0568,0.03445 -0.0276,0.02584 -0.0413,0.06201 -0.0121,0.03617 -0.0121,0.07752 z"
         style="font-family:'Roboto Mono';-inkscape-font-specification:'Roboto Mono'"
         id="path360" />
      <path
         d="m 168.54977,36.394565 v -0.03617 q 0,-0.146417 -0.0241,-0.27733 -0.0241,-0.132637 -0.0706,-0.241157 -0.0448,-0.09646 -0.10335,-0.173978 -0.0586,-0.07924 -0.13264,-0.134359 -0.0827,-0.05857 -0.18431,-0.0913 -0.10163,-0.03273 -0.22221,-0.03273 -0.0965,0 -0.17914,0.01895 -0.0827,0.01895 -0.15159,0.05512 -0.0551,0.02928 -0.10335,0.07062 -0.0482,0.03962 -0.0879,0.08957 v -0.981853 h -0.31867 v 2.645835 h 0.29283 l 0.0155,-0.211874 q 0.031,0.03962 0.0655,0.07235 0.0344,0.03273 0.0724,0.06029 0.0792,0.05512 0.17742,0.0844 0.0999,0.02928 0.22049,0.02928 0.10507,0 0.19464,-0.02584 0.0913,-0.02584 0.16709,-0.07235 0.10508,-0.06718 0.17915,-0.168809 0.0758,-0.103353 0.1223,-0.232544 0.0344,-0.09819 0.0517,-0.210151 0.0189,-0.113689 0.0189,-0.23599 z m -0.31867,-0.03617 v 0.03617 q 0,0.08268 -0.0103,0.16192 -0.0103,0.07924 -0.0327,0.148139 -0.0276,0.09129 -0.0741,0.165365 -0.0465,0.07407 -0.11541,0.122301 -0.0517,0.0379 -0.11714,0.05857 -0.0654,0.01895 -0.14469,0.01895 -0.0827,0 -0.15159,-0.02067 -0.0689,-0.02239 -0.12402,-0.06201 -0.0551,-0.03962 -0.0982,-0.0913 -0.0414,-0.0534 -0.0724,-0.115411 v -0.814765 q 0.0293,-0.06201 0.0706,-0.113688 0.0431,-0.0534 0.0982,-0.09302 0.0534,-0.0379 0.1223,-0.05857 0.0689,-0.02239 0.15158,-0.02239 0.0758,0 0.13781,0.01723 0.062,0.01722 0.11196,0.04823 0.0724,0.04306 0.1223,0.118856 0.05,0.07579 0.081,0.167087 0.0224,0.07407 0.0327,0.158475 0.0121,0.08268 0.0121,0.170532 z"
         style="font-family:'Roboto Mono';-inkscape-font-specification:'Roboto Mono'"
         id="path362" />
      <path
         d="m 170.32572,36.811422 q 0,0.04479 -0.0172,0.0844 -0.0172,0.03962 -0.0499,0.07235 -0.0534,0.0534 -0.14814,0.08441 -0.0947,0.02928 -0.22221,0.02928 -0.081,0 -0.16364,-0.01723 -0.0827,-0.01723 -0.14986,-0.05857 -0.0689,-0.04134 -0.11541,-0.10852 -0.0448,-0.06718 -0.0517,-0.165365 h -0.31867 q 0,0.118856 0.0534,0.229099 0.0551,0.110243 0.15847,0.192925 0.10163,0.0844 0.24977,0.136082 0.14814,0.04995 0.33762,0.04995 0.16537,0 0.30489,-0.03962 0.13953,-0.03962 0.23944,-0.111966 0.0999,-0.07235 0.15503,-0.173977 0.0568,-0.10163 0.0568,-0.225654 0,-0.115411 -0.0499,-0.203261 -0.0482,-0.08785 -0.14125,-0.155029 -0.093,-0.06546 -0.2291,-0.111966 -0.13608,-0.04823 -0.30834,-0.0844 -0.13091,-0.02584 -0.21704,-0.0534 -0.0844,-0.02756 -0.13436,-0.06201 -0.0517,-0.03445 -0.0723,-0.07751 -0.0207,-0.04306 -0.0207,-0.09819 0,-0.0534 0.0258,-0.103353 0.0258,-0.04995 0.0775,-0.08785 0.0499,-0.0379 0.12574,-0.06029 0.0775,-0.02239 0.17915,-0.02239 0.0982,0 0.1757,0.02756 0.0792,0.02756 0.13436,0.07235 0.0551,0.04479 0.0861,0.103353 0.031,0.05684 0.031,0.117133 h 0.31867 q 0,-0.122301 -0.0534,-0.227376 -0.0517,-0.106798 -0.14813,-0.186035 -0.0965,-0.07924 -0.23427,-0.124024 -0.13781,-0.04479 -0.31006,-0.04479 -0.1602,0 -0.29456,0.04306 -0.13263,0.04306 -0.2291,0.117133 -0.0965,0.07407 -0.14986,0.173977 -0.0534,0.09819 -0.0534,0.211874 0,0.115411 0.0517,0.203261 0.0517,0.08613 0.14642,0.149861 0.093,0.06546 0.22393,0.111966 0.13263,0.04651 0.29283,0.07924 0.13092,0.02584 0.21877,0.05857 0.0879,0.03101 0.14124,0.0689 0.0534,0.0379 0.0758,0.0844 0.0224,0.04479 0.0224,0.10163 z"
         style="font-family:'Roboto Mono';-inkscape-font-specification:'Roboto Mono'"
         id="path364" />
    </g>
    <path
       id="rect963-8-4-0-7"
       style="fill:#ffffff;stroke:#000000;stroke-width:0.254"
       d="m 35.070535,30.679089 h 20.723047 c 1.088674,0 1.965116,0.876441 1.965116,1.965115 v 5.002117 c 0,1.088674 -0.876442,1.965116 -1.965116,1.965116 H 35.070535 c -1.088674,0 -1.965116,-0.876442 -1.965116,-1.965116 v -5.002117 c 0,-1.088674 0.876442,-1.965115 1.965116,-1.965115 z" />
    <g
       aria-label="headers"
       id="text839-7-9-3-8"
       style="font-size:3.52778px;line-height:1.25;font-family:'Courier New';-inkscape-font-specification:'Courier New';text-align:center;text-anchor:middle;stroke-width:0.264583">
      <path
         d="m 38.991074,34.852413 v -1.059367 h -0.318672 v 2.645835 h 0.318672 v -1.353923 q 0.03445,-0.05512 0.07752,-0.09991 0.04479,-0.04651 0.09646,-0.08096 0.06546,-0.04479 0.142972,-0.0689 0.07751,-0.02412 0.163642,-0.02412 0.105075,-0.0017 0.186035,0.02928 0.08096,0.02928 0.134359,0.08957 0.04995,0.05512 0.07579,0.139527 0.02584,0.08268 0.02584,0.192925 v 1.176501 h 0.318672 v -1.173056 q 0,-0.187758 -0.04651,-0.323839 -0.04479,-0.137804 -0.129191,-0.227376 -0.08441,-0.08957 -0.204983,-0.130914 -0.118856,-0.04306 -0.265273,-0.04306 -0.111965,0.0017 -0.211873,0.03273 -0.09819,0.03101 -0.180868,0.0913 -0.05168,0.03617 -0.09819,0.0844 -0.04651,0.04651 -0.08441,0.103353 z"
         style="font-family:'Roboto Mono';-inkscape-font-specification:'Roboto Mono'"
         id="path368" />
      <path
         d="m 41.612793,36.473332 q 0.272163,0 0.456476,-0.108521 0.186035,-0.110243 0.279053,-0.251492 l -0.194648,-0.151584 q -0.08785,0.113688 -0.220487,0.18259 -0.132636,0.0689 -0.303168,0.0689 -0.129191,0 -0.23599,-0.04823 -0.106798,-0.04823 -0.18259,-0.132637 -0.07407,-0.07924 -0.117133,-0.18259 -0.04134,-0.103353 -0.0534,-0.239434 v -0.01206 h 1.33153 v -0.142971 q 0,-0.194648 -0.04995,-0.361736 -0.04823,-0.167087 -0.148139,-0.29111 -0.09991,-0.122301 -0.251492,-0.191203 -0.149862,-0.07062 -0.3514,-0.07062 -0.160197,0 -0.313504,0.06546 -0.151584,0.06546 -0.27044,0.187758 -0.120578,0.124023 -0.192926,0.303168 -0.07235,0.177423 -0.07235,0.403077 v 0.07235 q 0,0.194648 0.06546,0.360013 0.06546,0.165364 0.18259,0.285943 0.117134,0.120578 0.280776,0.187757 0.165365,0.06718 0.361735,0.06718 z m -0.04134,-1.670872 q 0.122301,0 0.210151,0.04479 0.08957,0.04479 0.148139,0.117133 0.05857,0.07235 0.0913,0.172255 0.03273,0.09819 0.03273,0.184313 v 0.0155 h -1.002524 q 0.01895,-0.129192 0.06546,-0.227377 0.04823,-0.09991 0.117133,-0.16881 0.0689,-0.06718 0.15503,-0.10163 0.08613,-0.03617 0.18259,-0.03617 z"
         style="font-family:'Roboto Mono';-inkscape-font-specification:'Roboto Mono'"
         id="path370" />
      <path
         d="m 44.13116,36.438881 h 0.332452 v -0.02756 q -0.03101,-0.07752 -0.04823,-0.180867 -0.01722,-0.105076 -0.01722,-0.198094 v -0.866442 q 0,-0.156752 -0.05684,-0.273885 -0.05684,-0.117133 -0.15503,-0.196371 -0.09991,-0.07751 -0.235989,-0.11541 -0.136081,-0.03962 -0.294556,-0.03962 -0.173977,0 -0.311781,0.04823 -0.136082,0.04823 -0.230822,0.125747 -0.09646,0.07924 -0.148139,0.177422 -0.04995,0.09819 -0.05168,0.199816 h 0.320394 q 0,-0.05857 0.02756,-0.111966 0.02928,-0.05512 0.08096,-0.09474 0.05168,-0.03962 0.125746,-0.06373 0.07579,-0.02412 0.170533,-0.02412 0.10163,0 0.18259,0.02584 0.08268,0.02584 0.139526,0.07235 0.05684,0.04823 0.08785,0.115411 0.03101,0.06718 0.03101,0.151584 v 0.146417 h -0.347955 q -0.194648,0 -0.353122,0.0379 -0.156752,0.0379 -0.268718,0.113688 -0.111966,0.07751 -0.173977,0.192926 -0.06029,0.11541 -0.06029,0.268717 0,0.117134 0.04479,0.218764 0.04651,0.09991 0.130913,0.172255 0.08268,0.07407 0.201539,0.117133 0.120578,0.04306 0.268717,0.04306 0.0913,0 0.172255,-0.01895 0.08096,-0.01895 0.153307,-0.05168 0.07062,-0.03273 0.129191,-0.07579 0.06029,-0.04306 0.108521,-0.0913 0.0052,0.05857 0.0155,0.113688 0.01206,0.0534 0.03101,0.08957 z m -0.563274,-0.242879 q -0.09302,0 -0.163642,-0.02412 -0.07062,-0.02412 -0.117133,-0.06718 -0.04651,-0.04134 -0.07062,-0.09991 -0.02239,-0.05857 -0.02239,-0.127469 0,-0.07235 0.02584,-0.129191 0.02756,-0.05684 0.07924,-0.09819 0.07235,-0.05857 0.194649,-0.08613 0.124023,-0.02928 0.289388,-0.02928 h 0.296278 v 0.377238 q -0.02756,0.05512 -0.07579,0.106798 -0.04823,0.04995 -0.113688,0.08957 -0.06718,0.03962 -0.148139,0.06373 -0.08096,0.02412 -0.173978,0.02412 z"
         style="font-family:'Roboto Mono';-inkscape-font-specification:'Roboto Mono'"
         id="path372" />
      <path
         d="m 44.963151,35.491479 v 0.03617 q 0,0.199815 0.0534,0.373793 0.0534,0.172255 0.149861,0.299723 0.09646,0.127469 0.232544,0.199816 0.137804,0.07235 0.306614,0.07235 0.172255,0 0.301446,-0.05857 0.129191,-0.05857 0.222209,-0.172255 l 0.01378,0.196371 h 0.292834 v -2.645835 h -0.318672 v 0.96635 q -0.0913,-0.106798 -0.217041,-0.16192 -0.124023,-0.05684 -0.291111,-0.05684 -0.170532,0 -0.308336,0.07062 -0.137804,0.07062 -0.234267,0.19637 -0.09818,0.125746 -0.151584,0.301446 -0.05168,0.173978 -0.05168,0.382406 z m 0.318671,0.03617 v -0.03617 q 0,-0.136081 0.02928,-0.258382 0.02928,-0.124024 0.09129,-0.218764 0.06029,-0.09302 0.155029,-0.148139 0.09646,-0.05512 0.230822,-0.05512 0.156751,0 0.261827,0.07407 0.105075,0.07235 0.167087,0.186035 v 0.86472 q -0.06201,0.122301 -0.167087,0.194648 -0.105076,0.07235 -0.265273,0.07235 -0.132636,0 -0.227376,-0.0534 -0.09474,-0.05512 -0.155029,-0.148139 -0.06201,-0.09302 -0.09129,-0.215319 -0.02928,-0.122301 -0.02928,-0.258382 z"
         style="font-family:'Roboto Mono';-inkscape-font-specification:'Roboto Mono'"
         id="path374" />
      <path
         d="m 47.963831,36.473332 q 0.272162,0 0.456475,-0.108521 0.186035,-0.110243 0.279053,-0.251492 l -0.194648,-0.151584 q -0.08785,0.113688 -0.220486,0.18259 -0.132636,0.0689 -0.303169,0.0689 -0.129191,0 -0.235989,-0.04823 -0.106798,-0.04823 -0.18259,-0.132637 -0.07407,-0.07924 -0.117134,-0.18259 -0.04134,-0.103353 -0.0534,-0.239434 v -0.01206 h 1.331531 v -0.142971 q 0,-0.194648 -0.04995,-0.361736 -0.04823,-0.167087 -0.148139,-0.29111 -0.09991,-0.122301 -0.251493,-0.191203 -0.149861,-0.07062 -0.351399,-0.07062 -0.160198,0 -0.313504,0.06546 -0.151585,0.06546 -0.270441,0.187758 -0.120578,0.124023 -0.192925,0.303168 -0.07235,0.177423 -0.07235,0.403077 v 0.07235 q 0,0.194648 0.06546,0.360013 0.06546,0.165364 0.18259,0.285943 0.117133,0.120578 0.280775,0.187757 0.165365,0.06718 0.361736,0.06718 z M 47.92249,34.80246 q 0.1223,0 0.21015,0.04479 0.08957,0.04479 0.14814,0.117133 0.05857,0.07235 0.0913,0.172255 0.03273,0.09819 0.03273,0.184313 v 0.0155 H 47.40228 q 0.01895,-0.129192 0.06546,-0.227377 0.04823,-0.09991 0.117133,-0.16881 0.0689,-0.06718 0.155029,-0.10163 0.08613,-0.03617 0.182591,-0.03617 z"
         style="font-family:'Roboto Mono';-inkscape-font-specification:'Roboto Mono'"
         id="path376" />
      <path
         d="m 50.478752,34.540632 q -0.203261,0 -0.363458,0.08957 -0.158475,0.08785 -0.272163,0.241156 l -0.0017,-0.04651 -0.01378,-0.24977 h -0.303169 v 1.863798 h 0.320395 v -1.195449 q 0.03101,-0.08613 0.07751,-0.155029 0.04823,-0.07062 0.111966,-0.118856 0.07062,-0.05512 0.165365,-0.08268 0.09474,-0.02928 0.211873,-0.02928 0.0913,0 0.173978,0.01033 0.0844,0.0086 0.177422,0.02928 l 0.04306,-0.311782 q -0.04823,-0.02067 -0.144694,-0.03273 -0.09474,-0.01206 -0.18259,-0.01206 z"
         style="font-family:'Roboto Mono';-inkscape-font-specification:'Roboto Mono'"
         id="path378" />
      <path
         d="m 52.61299,35.944509 q 0,0.04479 -0.01723,0.08441 -0.01723,0.03962 -0.04995,0.07235 -0.0534,0.0534 -0.14814,0.0844 -0.09474,0.02928 -0.222208,0.02928 -0.08096,0 -0.163643,-0.01723 -0.08268,-0.01723 -0.149861,-0.05857 -0.0689,-0.04134 -0.115411,-0.10852 -0.04479,-0.06718 -0.05168,-0.165365 H 51.3762 q 0,0.118856 0.0534,0.229099 0.05512,0.110243 0.158474,0.192926 0.101631,0.0844 0.24977,0.136081 0.148139,0.04995 0.33762,0.04995 0.165364,0 0.304891,-0.03962 0.139526,-0.03962 0.239434,-0.111965 0.09991,-0.07235 0.155029,-0.173978 0.05685,-0.10163 0.05685,-0.225654 0,-0.115411 -0.04995,-0.203261 -0.04823,-0.08785 -0.141249,-0.155029 -0.09302,-0.06546 -0.229099,-0.111966 -0.136082,-0.04823 -0.308337,-0.0844 -0.130913,-0.02584 -0.217041,-0.0534 -0.0844,-0.02756 -0.134359,-0.06201 -0.05168,-0.03445 -0.07235,-0.07752 -0.02067,-0.04306 -0.02067,-0.09818 0,-0.0534 0.02584,-0.103353 0.02584,-0.04995 0.07751,-0.08785 0.04995,-0.0379 0.125746,-0.06029 0.07751,-0.02239 0.179145,-0.02239 0.09819,0 0.1757,0.02756 0.07924,0.02756 0.134359,0.07235 0.05512,0.04479 0.08613,0.103353 0.03101,0.05684 0.03101,0.117134 h 0.318671 q 0,-0.122301 -0.0534,-0.227377 -0.05168,-0.106798 -0.148139,-0.186035 -0.09646,-0.07924 -0.234266,-0.124024 -0.137804,-0.04479 -0.310059,-0.04479 -0.160197,0 -0.294556,0.04306 -0.132636,0.04306 -0.229099,0.117133 -0.09646,0.07407 -0.149862,0.173978 -0.0534,0.09819 -0.0534,0.211873 0,0.115411 0.05168,0.203261 0.05168,0.08613 0.146416,0.149862 0.09302,0.06546 0.223932,0.111965 0.132636,0.04651 0.292833,0.07924 0.130914,0.02584 0.218764,0.05857 0.08785,0.03101 0.141249,0.0689 0.0534,0.0379 0.07579,0.08441 0.02239,0.04479 0.02239,0.10163 z"
         style="font-family:'Roboto Mono';-inkscape-font-specification:'Roboto Mono'"
         id="path380" />
    </g>
    <path
       style="fill:none;stroke:#000000;stroke-width:0.4;stroke-linecap:butt;stroke-linejoin:miter;stroke-miterlimit:4;stroke-dasharray:none;stroke-opacity:1;marker-end:url(#TriangleOutL)"
       d="m 25.401737,21.437635 h 4.673455"
       id="path1760"
       sodipodi:nodetypes="cc" />
    <path
       style="fill:none;stroke:#000000;stroke-width:0.4;stroke-linecap:butt;stroke-linejoin:miter;stroke-miterlimit:4;stroke-dasharray:none;stroke-opacity:1;marker-end:url(#TriangleOutL-3)"
       d="m 86.442076,21.2108 h 4.673455"
       id="path1760-3"
       sodipodi:nodetypes="cc" />
    <path
       style="fill:none;stroke:#000000;stroke-width:0.4;stroke-linecap:butt;stroke-linejoin:miter;stroke-miterlimit:4;stroke-dasharray:none;stroke-opacity:1;marker-end:url(#TriangleOutL-37)"
       d="m 118.59175,21.032153 h 4.67346"
       id="path1760-8"
       sodipodi:nodetypes="cc" />
    <path
       style="fill:none;stroke:#000000;stroke-width:0.4;stroke-linecap:butt;stroke-linejoin:miter;stroke-miterlimit:4;stroke-dasharray:none;stroke-opacity:1;marker-end:url(#TriangleOutL-1)"
       d="m 178.44526,20.674859 h 4.67345"
       id="path1760-9"
       sodipodi:nodetypes="cc" />
    <path
       style="fill:none;stroke:#000000;stroke-width:0.4;stroke-linecap:butt;stroke-linejoin:miter;stroke-miterlimit:4;stroke-dasharray:none;stroke-opacity:1;marker-end:url(#TriangleOutL-6)"
       d="m 145.93151,21.025379 h 4.67345"
       id="path1760-2"
       sodipodi:nodetypes="cc" />
    <path
       style="fill:none;stroke:#000000;stroke-width:0.4;stroke-linecap:butt;stroke-linejoin:miter;stroke-miterlimit:4;stroke-dasharray:none;stroke-opacity:1;marker-end:url(#TriangleOutL-8)"
       d="m 59.466386,21.389447 h 4.673455"
       id="path1760-95"
       sodipodi:nodetypes="cc" />
    <path
       style="fill:none;stroke:#000000;stroke-width:0.4;stroke-linecap:butt;stroke-linejoin:miter;stroke-miterlimit:4;stroke-dasharray:none;stroke-opacity:1;marker-end:url(#TriangleOutL-3-1)"
       d="M 45.432056,30.57922 V 27.870881"
       id="path1760-3-2"
       sodipodi:nodetypes="cc" />
    <path
       style="fill:none;stroke:#000000;stroke-width:0.4;stroke-linecap:butt;stroke-linejoin:miter;stroke-miterlimit:4;stroke-dasharray:none;stroke-opacity:1;marker-end:url(#TriangleOutL-3-1-1)"
       d="M 166.19739,31.204485 V 28.496146"
       id="path1760-3-2-2"
       sodipodi:nodetypes="cc" />
  </g>
</svg>
