<?xml version="1.0" encoding="UTF-8" standalone="no"?>
<svg
   width="208.88869mm"
   height="39.606522mm"
   viewBox="0 0 208.88869 39.606522"
   version="1.1"
   id="svg8"
   inkscape:version="1.2.2 (b0a84865, 2022-12-01)"
   sodipodi:docname="driver.svg"
   xmlns:inkscape="http://www.inkscape.org/namespaces/inkscape"
   xmlns:sodipodi="http://sodipodi.sourceforge.net/DTD/sodipodi-0.dtd"
   xmlns="http://www.w3.org/2000/svg"
   xmlns:svg="http://www.w3.org/2000/svg"
   xmlns:rdf="http://www.w3.org/1999/02/22-rdf-syntax-ns#"
   xmlns:cc="http://creativecommons.org/ns#"
   xmlns:dc="http://purl.org/dc/elements/1.1/">
  <defs
     id="defs2">
    <marker
       style="overflow:visible"
       id="TriangleOutL"
       refX="0.0"
       refY="0.0"
       orient="auto"
       inkscape:stockid="TriangleOutL"
       inkscape:isstock="true">
      <path
         transform="scale(0.8)"
         style="fill-rule:evenodd;stroke:#000000;stroke-width:1pt;stroke-opacity:1;fill:#000000;fill-opacity:1"
         d="M 5.77,0.0 L -2.88,5.0 L -2.88,-5.0 L 5.77,0.0 z "
         id="path1904" />
    </marker>
    <marker
       style="overflow:visible;"
       id="Arrow2Send"
       refX="0.0"
       refY="0.0"
       orient="auto"
       inkscape:stockid="Arrow2Send"
       inkscape:isstock="true">
      <path
         transform="scale(0.3) rotate(180) translate(-2.3,0)"
         d="M 8.7185878,4.0337352 L -2.2072895,0.016013256 L 8.7185884,-4.0017078 C 6.9730900,-1.6296469 6.9831476,1.6157441 8.7185878,4.0337352 z "
         style="fill-rule:evenodd;stroke-width:0.625;stroke-linejoin:round;stroke:#000000;stroke-opacity:1;fill:#000000;fill-opacity:1"
         id="path1795" />
    </marker>
    <marker
       style="overflow:visible"
       id="TriangleOutL-3"
       refX="0"
       refY="0"
       orient="auto"
       inkscape:stockid="TriangleOutL"
       inkscape:isstock="true">
      <path
         transform="scale(0.8)"
         style="fill:#000000;fill-opacity:1;fill-rule:evenodd;stroke:#000000;stroke-width:1pt;stroke-opacity:1"
         d="M 5.77,0 -2.88,5 V -5 Z"
         id="path1904-8" />
    </marker>
    <marker
       style="overflow:visible"
       id="TriangleOutL-37"
       refX="0"
       refY="0"
       orient="auto"
       inkscape:stockid="TriangleOutL"
       inkscape:isstock="true">
      <path
         transform="scale(0.8)"
         style="fill:#000000;fill-opacity:1;fill-rule:evenodd;stroke:#000000;stroke-width:1pt;stroke-opacity:1"
         d="M 5.77,0 -2.88,5 V -5 Z"
         id="path1904-4" />
    </marker>
    <marker
       style="overflow:visible"
       id="TriangleOutL-1"
       refX="0"
       refY="0"
       orient="auto"
       inkscape:stockid="TriangleOutL"
       inkscape:isstock="true">
      <path
         transform="scale(0.8)"
         style="fill:#000000;fill-opacity:1;fill-rule:evenodd;stroke:#000000;stroke-width:1pt;stroke-opacity:1"
         d="M 5.77,0 -2.88,5 V -5 Z"
         id="path1904-0" />
    </marker>
    <marker
       style="overflow:visible"
       id="TriangleOutL-6"
       refX="0"
       refY="0"
       orient="auto"
       inkscape:stockid="TriangleOutL"
       inkscape:isstock="true">
      <path
         transform="scale(0.8)"
         style="fill:#000000;fill-opacity:1;fill-rule:evenodd;stroke:#000000;stroke-width:1pt;stroke-opacity:1"
         d="M 5.77,0 -2.88,5 V -5 Z"
         id="path1904-43" />
    </marker>
    <marker
       style="overflow:visible"
       id="TriangleOutL-8"
       refX="0"
       refY="0"
       orient="auto"
       inkscape:stockid="TriangleOutL"
       inkscape:isstock="true">
      <path
         transform="scale(0.8)"
         style="fill:#000000;fill-opacity:1;fill-rule:evenodd;stroke:#000000;stroke-width:1pt;stroke-opacity:1"
         d="M 5.77,0 -2.88,5 V -5 Z"
         id="path1904-47" />
    </marker>
    <marker
       style="overflow:visible"
       id="TriangleOutL-3-1"
       refX="0"
       refY="0"
       orient="auto"
       inkscape:stockid="TriangleOutL"
       inkscape:isstock="true">
      <path
         transform="scale(0.8)"
         style="fill:#000000;fill-opacity:1;fill-rule:evenodd;stroke:#000000;stroke-width:1pt;stroke-opacity:1"
         d="M 5.77,0 -2.88,5 V -5 Z"
         id="path1904-8-6" />
    </marker>
    <marker
       style="overflow:visible"
       id="TriangleOutL-3-1-1"
       refX="0"
       refY="0"
       orient="auto"
       inkscape:stockid="TriangleOutL"
       inkscape:isstock="true">
      <path
         transform="scale(0.8)"
         style="fill:#000000;fill-opacity:1;fill-rule:evenodd;stroke:#000000;stroke-width:1pt;stroke-opacity:1"
         d="M 5.77,0 -2.88,5 V -5 Z"
         id="path1904-8-6-0" />
    </marker>
  </defs>
  <sodipodi:namedview
     id="base"
     pagecolor="#ffffff"
     bordercolor="#666666"
     borderopacity="1.0"
     inkscape:pageopacity="0.0"
     inkscape:pageshadow="2"
     inkscape:zoom="1.4810403"
     inkscape:cx="435.16709"
     inkscape:cy="90.139343"
     inkscape:document-units="mm"
     inkscape:current-layer="layer1"
     inkscape:document-rotation="0"
     showgrid="false"
     inkscape:window-width="1728"
     inkscape:window-height="1027"
     inkscape:window-x="0"
     inkscape:window-y="38"
     inkscape:window-maximized="0"
     fit-margin-top="0"
     fit-margin-left="0"
     fit-margin-right="0"
     fit-margin-bottom="0"
     inkscape:snap-global="false"
     inkscape:showpageshadow="2"
     inkscape:pagecheckerboard="0"
     inkscape:deskcolor="#d1d1d1" />
  <metadata
     id="metadata5">
    <rdf:RDF>
      <cc:Work
         rdf:about="">
        <dc:format>image/svg+xml</dc:format>
        <dc:type
           rdf:resource="http://purl.org/dc/dcmitype/StillImage" />
        <dc:title />
      </cc:Work>
    </rdf:RDF>
  </metadata>
  <g
     inkscape:label="Layer 1"
     inkscape:groupmode="layer"
     id="layer1"
     transform="translate(0.12291622,-4.2393397)">
    <path
       id="rect835"
       style="fill:#ffffff;stroke:#000000;stroke-width:0.254"
       d="M 6.9943275,9.1109953 H 23.2512 c 1.088674,0 1.965116,0.876442 1.965116,1.9651167 v 21.616281 c 0,1.088675 -0.876442,1.965117 -1.965116,1.965117 H 6.9943275 c -1.0886745,0 -1.9651165,-0.876442 -1.9651165,-1.965117 V 11.076112 c 0,-1.0886747 0.876442,-1.9651167 1.9651165,-1.9651167 z" />
    <g
       aria-label="hello.c"
       id="text839"
       style="font-size:4.23333px;line-height:1.25;font-family:'Courier New';-inkscape-font-specification:'Courier New';text-align:center;text-anchor:middle;stroke-width:0.264583">
      <path
         d="m 6.2911759,36.39405 v 1.068668 q 0.1653645,-0.179834 0.3162595,-0.252181 0.1529621,-0.07441 0.3410642,-0.07441 0.2025714,0 0.3431312,0.07235 0.1426269,0.07028 0.2377114,0.219108 0.095085,0.146761 0.095085,0.310058 v 1.076936 H 7.81873 q 0.064079,0 0.088883,0.02481 0.026872,0.02274 0.026872,0.06201 0,0.03721 -0.026872,0.06201 -0.024805,0.02481 -0.088883,0.02481 H 7.2544238 q -0.064079,0 -0.09095,-0.02481 -0.026872,-0.0248 -0.026872,-0.06201 0,-0.03927 0.026872,-0.06201 0.026872,-0.02481 0.09095,-0.02481 H 7.448727 v -1.064533 q 0,-0.188102 -0.1364256,-0.314193 -0.1343586,-0.12609 -0.3762041,-0.12609 -0.1901691,0 -0.3245278,0.09302 -0.097152,0.06615 -0.3203936,0.312126 v 1.099673 h 0.1963703 q 0.062012,0 0.088883,0.02481 0.026872,0.02274 0.026872,0.06201 0,0.03721 -0.026872,0.06201 -0.026872,0.02481 -0.088883,0.02481 H 5.921173 q -0.062012,0 -0.088883,-0.02481 -0.026872,-0.0248 -0.026872,-0.06201 0,-0.03927 0.026872,-0.06201 0.026872,-0.02481 0.088883,-0.02481 H 6.1175433 V 36.56975 H 5.883966 q -0.062012,0 -0.088883,-0.02481 -0.026872,-0.0248 -0.026872,-0.06408 0,-0.03721 0.026872,-0.06201 0.026872,-0.02481 0.088883,-0.02481 z"
         id="path238" />
      <path
         d="M 10.342605,38.134511 H 8.5732052 q 0.045475,0.33693 0.2811196,0.543636 0.2377114,0.204638 0.5870438,0.204638 0.1943032,0 0.4072099,-0.06408 0.2129065,-0.06408 0.3472655,-0.169498 0.03927,-0.03101 0.06821,-0.03101 0.03307,0 0.05788,0.02687 0.0248,0.0248 0.0248,0.05994 0,0.03514 -0.03307,0.06821 -0.09922,0.103353 -0.3534665,0.194303 -0.2521808,0.08888 -0.5188309,0.08888 -0.446484,0 -0.7462071,-0.291455 -0.297656,-0.293522 -0.297656,-0.709 0,-0.378271 0.2790525,-0.649056 0.2811196,-0.270784 0.6945307,-0.270784 0.4258134,0 0.7007313,0.279053 0.274919,0.276985 0.270785,0.719335 z m -0.1757,-0.1757 q -0.05168,-0.28732 -0.2728513,-0.467154 -0.2191079,-0.179834 -0.522965,-0.179834 -0.3038572,0 -0.5229651,0.177767 -0.2191079,0.177766 -0.2728513,0.469221 z"
         id="path240" />
      <path
         d="m 12.031389,36.39405 v 2.420522 h 0.682128 q 0.06408,0 0.09095,0.02481 0.02687,0.02274 0.02687,0.06201 0,0.03721 -0.02687,0.06201 -0.02687,0.02481 -0.09095,0.02481 h -1.537889 q -0.06201,0 -0.08888,-0.02481 -0.02687,-0.0248 -0.02687,-0.06201 0,-0.03927 0.02687,-0.06201 0.02687,-0.02481 0.08888,-0.02481 h 0.682128 V 36.56975 h -0.500227 q -0.06201,0 -0.09095,-0.02481 -0.02687,-0.0248 -0.02687,-0.06408 0,-0.03721 0.02687,-0.06201 0.02687,-0.02481 0.09095,-0.02481 z"
         id="path242" />
      <path
         d="m 14.571801,36.39405 v 2.420522 h 0.682128 q 0.06408,0 0.09095,0.02481 0.02687,0.02274 0.02687,0.06201 0,0.03721 -0.02687,0.06201 -0.02687,0.02481 -0.09095,0.02481 H 13.71604 q -0.06201,0 -0.08888,-0.02481 -0.02687,-0.0248 -0.02687,-0.06201 0,-0.03927 0.02687,-0.06201 0.02687,-0.02481 0.08888,-0.02481 h 0.682128 V 36.56975 H 13.89794 q -0.06201,0 -0.09095,-0.02481 -0.02687,-0.0248 -0.02687,-0.06408 0,-0.03721 0.02687,-0.06201 0.02687,-0.02481 0.09095,-0.02481 z"
         id="path244" />
      <path
         d="m 17.994844,38.097304 q 0,0.396875 -0.285253,0.677994 -0.283187,0.28112 -0.684196,0.28112 -0.405143,0 -0.688329,-0.28112 -0.283187,-0.283186 -0.283187,-0.677994 0,-0.396875 0.283187,-0.677994 0.283186,-0.283187 0.688329,-0.283187 0.401009,0 0.684196,0.28112 0.285253,0.281119 0.285253,0.680061 z m -0.175699,0 q 0,-0.326595 -0.233578,-0.556038 -0.23151,-0.229443 -0.562239,-0.229443 -0.330729,0 -0.564306,0.23151 -0.23151,0.229443 -0.23151,0.553971 0,0.322461 0.23151,0.553971 0.233577,0.23151 0.564306,0.23151 0.330729,0 0.562239,-0.229443 0.233578,-0.23151 0.233578,-0.556038 z"
         id="path246" />
      <path
         d="m 19.528599,38.490045 h 0.07441 q 0.115755,0 0.198438,0.08268 0.08268,0.08062 0.08268,0.19637 0,0.119889 -0.08475,0.200504 -0.08268,0.08062 -0.196371,0.08062 h -0.07441 q -0.115755,0 -0.198437,-0.08062 -0.08268,-0.08268 -0.08268,-0.198437 0,-0.119889 0.08268,-0.200504 0.08475,-0.08061 0.198437,-0.08061 z"
         id="path248" />
      <path
         d="m 22.829688,37.373835 v -0.05788 q 0,-0.06408 0.0248,-0.09095 0.02481,-0.02687 0.06201,-0.02687 0.03927,0 0.06408,0.02687 0.0248,0.02687 0.0248,0.09095 v 0.392741 q -0.0021,0.06408 -0.02687,0.09095 -0.02274,0.02687 -0.06201,0.02687 -0.03514,0 -0.05994,-0.02274 -0.02274,-0.02481 -0.02687,-0.08062 -0.0124,-0.146761 -0.194304,-0.279053 -0.179833,-0.132291 -0.485758,-0.132291 -0.386539,0 -0.587043,0.241845 -0.200505,0.241846 -0.200505,0.553971 0,0.33693 0.221175,0.556038 0.221175,0.219108 0.572575,0.219108 0.202571,0 0.411344,-0.07441 0.210839,-0.07441 0.380338,-0.239778 0.04341,-0.04134 0.07648,-0.04134 0.03514,0 0.05788,0.0248 0.02481,0.02274 0.02481,0.05788 0,0.08888 -0.208773,0.225309 -0.33693,0.221175 -0.750341,0.221175 -0.419612,0 -0.690396,-0.26665 -0.268717,-0.268718 -0.268717,-0.680062 0,-0.419612 0.274918,-0.696597 0.276985,-0.276986 0.696598,-0.276986 0.398941,0 0.669726,0.237712 z"
         id="path250" />
    </g>
    <path
       id="rect835-7"
       style="fill:#ffffff;stroke:#000000;stroke-width:0.254"
       d="m 68.392012,8.8430243 h 16.256872 c 1.088674,0 1.965116,0.8764419 1.965116,1.9651167 v 21.616281 c 0,1.088675 -0.876442,1.965117 -1.965116,1.965117 H 68.392012 c -1.088675,0 -1.965117,-0.876442 -1.965117,-1.965117 V 10.808141 c 0,-1.0886748 0.876442,-1.9651167 1.965117,-1.9651167 z" />
    <path
       id="rect835-7-8"
       style="fill:#ffffff;stroke:#000000;stroke-width:0.254"
       d="m 127.67303,9.5576124 h 16.25687 c 1.08867,0 1.96511,0.8764416 1.96511,1.9651166 V 33.13901 c 0,1.088675 -0.87644,1.965117 -1.96511,1.965117 h -16.25687 c -1.08868,0 -1.96512,-0.876442 -1.96512,-1.965117 V 11.522729 c 0,-1.088675 0.87644,-1.9651166 1.96512,-1.9651166 z" />
    <path
       id="rect835-7-8-0"
       style="fill:#ffffff;stroke:#000000;stroke-width:0.254"
       d="m 187.48997,9.5576124 h 16.25688 c 1.08867,0 1.96511,0.8764416 1.96511,1.9651166 V 33.13901 c 0,1.088675 -0.87644,1.965117 -1.96511,1.965117 h -16.25688 c -1.08867,0 -1.96511,-0.876442 -1.96511,-1.965117 V 11.522729 c 0,-1.088675 0.87644,-1.9651166 1.96511,-1.9651166 z" />
    <path
       id="rect963"
       style="fill:#ededed;stroke:#000000;stroke-width:0.254"
       d="m 34.849702,16.792814 h 22.688163 c 1.088674,0 1.965116,0.876442 1.965116,1.965116 v 5.002117 c 0,1.088674 -0.876442,1.965116 -1.965116,1.965116 H 34.849702 c -1.088674,0 -1.965116,-0.876442 -1.965116,-1.965116 V 18.75793 c 0,-1.088674 0.876442,-1.965116 1.965116,-1.965116 z" />
    <path
       id="rect963-8"
       style="fill:#ededed;stroke:#000000;stroke-width:0.254"
       d="m 95.953733,16.614166 h 20.723047 c 1.08867,0 1.96512,0.876442 1.96512,1.965116 v 5.002117 c 0,1.088674 -0.87645,1.965116 -1.96512,1.965116 H 95.953733 c -1.088674,0 -1.965116,-0.876442 -1.965116,-1.965116 v -5.002117 c 0,-1.088674 0.876442,-1.965116 1.965116,-1.965116 z" />
    <path
       id="rect963-8-4"
       style="fill:#ededed;stroke:#000000;stroke-width:0.254"
       d="m 155.95878,16.792814 h 20.72305 c 1.08867,0 1.96512,0.876442 1.96512,1.965116 v 5.002117 c 0,1.088674 -0.87645,1.965116 -1.96512,1.965116 h -20.72305 c -1.08867,0 -1.96511,-0.876442 -1.96511,-1.965116 V 18.75793 c 0,-1.088674 0.87644,-1.965116 1.96511,-1.965116 z" />
    <g
       aria-label="a.out"
       id="text839-2"
       style="font-size:4.23333px;line-height:1.25;font-family:'Courier New';-inkscape-font-specification:'Courier New';text-align:center;text-anchor:middle;stroke-width:0.264583">
      <path
         d="m 190.4515,39.715237 v -0.250114 q -0.37827,0.318326 -0.80822,0.318326 -0.31213,0 -0.48783,-0.157096 -0.1757,-0.159163 -0.1757,-0.388606 0,-0.252181 0.23151,-0.440283 0.23152,-0.188102 0.67593,-0.188102 0.11989,0 0.26045,0.01654 0.14056,0.01447 0.30386,0.04754 v -0.28112 q 0,-0.142627 -0.13229,-0.248047 -0.13229,-0.105419 -0.39688,-0.105419 -0.20257,0 -0.56844,0.117822 -0.0661,0.02067 -0.0848,0.02067 -0.0331,0 -0.0579,-0.0248 -0.0227,-0.02481 -0.0227,-0.06201 0,-0.03514 0.0207,-0.05581 0.0289,-0.03101 0.23358,-0.08475 0.32246,-0.08682 0.48782,-0.08682 0.32866,0 0.51263,0.163297 0.18397,0.161231 0.18397,0.365869 v 1.149283 h 0.23151 q 0.0641,0 0.0909,0.02481 0.0269,0.02274 0.0269,0.06201 0,0.03721 -0.0269,0.06201 -0.0269,0.02481 -0.0909,0.02481 z m 0,-0.86403 q -0.12196,-0.03514 -0.25838,-0.05168 -0.13643,-0.01654 -0.28732,-0.01654 -0.37828,0 -0.59118,0.163297 -0.16123,0.121956 -0.16123,0.291455 0,0.157096 0.12195,0.264583 0.12403,0.107487 0.35967,0.107487 0.22531,0 0.41755,-0.08888 0.1943,-0.09095 0.39894,-0.28732 z"
         id="path259" />
      <path
         d="m 192.45654,39.217076 h 0.0744 q 0.11575,0 0.19843,0.08268 0.0827,0.08062 0.0827,0.196371 0,0.119889 -0.0848,0.200504 -0.0827,0.08062 -0.19637,0.08062 h -0.0744 q -0.11575,0 -0.19844,-0.08062 -0.0827,-0.08268 -0.0827,-0.198437 0,-0.119889 0.0827,-0.200505 0.0847,-0.08062 0.19844,-0.08062 z"
         id="path261" />
      <path
         d="m 196.00361,38.824336 q 0,0.396874 -0.28525,0.677994 -0.28319,0.281119 -0.6842,0.281119 -0.40514,0 -0.68833,-0.281119 -0.28319,-0.283187 -0.28319,-0.677994 0,-0.396875 0.28319,-0.677995 0.28319,-0.283186 0.68833,-0.283186 0.40101,0 0.6842,0.281119 0.28525,0.28112 0.28525,0.680062 z m -0.1757,0 q 0,-0.326595 -0.23358,-0.556038 -0.23151,-0.229443 -0.56224,-0.229443 -0.33073,0 -0.5643,0.23151 -0.23151,0.229443 -0.23151,0.553971 0,0.32246 0.23151,0.553971 0.23357,0.23151 0.5643,0.23151 0.33073,0 0.56224,-0.229443 0.23358,-0.231511 0.23358,-0.556038 z"
         id="path263" />
      <path
         d="m 198.16782,39.715237 v -0.254248 q -0.35554,0.32246 -0.76895,0.32246 -0.25425,0 -0.38654,-0.138492 -0.17156,-0.181901 -0.17156,-0.423747 v -1.120344 h -0.23358 q -0.062,0 -0.0889,-0.0248 -0.0269,-0.02481 -0.0269,-0.06408 0,-0.03721 0.0269,-0.06201 0.0269,-0.0248 0.0889,-0.0248 h 0.40721 v 1.296043 q 0,0.169499 0.10749,0.279053 0.10748,0.109554 0.26871,0.109554 0.42375,0 0.77722,-0.388607 v -1.120344 h -0.3204 q -0.062,0 -0.0889,-0.0248 -0.0269,-0.02481 -0.0269,-0.06408 0,-0.03721 0.0269,-0.06201 0.0269,-0.0248 0.0889,-0.0248 h 0.49403 v 1.616437 h 0.14676 q 0.062,0 0.0889,0.02481 0.0269,0.02274 0.0269,0.06201 0,0.03721 -0.0269,0.06201 -0.0269,0.02481 -0.0889,0.02481 z"
         id="path265" />
      <path
         d="m 199.75738,37.925167 h 0.94258 q 0.062,0 0.0889,0.0248 0.0269,0.02481 0.0269,0.06408 0,0.03721 -0.0269,0.06201 -0.0269,0.0248 -0.0889,0.0248 h -0.94258 v 1.155484 q 0,0.150895 0.11989,0.252181 0.12196,0.101286 0.35553,0.101286 0.1757,0 0.38034,-0.05168 0.20464,-0.05374 0.31833,-0.119889 0.0413,-0.02687 0.0682,-0.02687 0.0331,0 0.0579,0.02687 0.0248,0.02481 0.0248,0.05994 0,0.03101 -0.0269,0.05788 -0.0661,0.06821 -0.32246,0.148828 -0.25425,0.07855 -0.48782,0.07855 -0.30386,0 -0.48369,-0.142626 -0.17984,-0.142627 -0.17984,-0.384473 v -1.155484 h -0.32039 q -0.062,0 -0.0889,-0.0248 -0.0269,-0.02481 -0.0269,-0.06408 0,-0.03721 0.0269,-0.06201 0.0269,-0.0248 0.0889,-0.0248 h 0.32039 v -0.51263 q 0,-0.06201 0.0248,-0.08888 0.0248,-0.02687 0.062,-0.02687 0.0393,0 0.0641,0.02687 0.0248,0.02687 0.0248,0.08888 z"
         id="path267" />
    </g>
    <g
       aria-label="hello.o"
       id="text839-8"
       style="font-size:4.23333px;line-height:1.25;font-family:'Courier New';-inkscape-font-specification:'Courier New';text-align:center;text-anchor:middle;stroke-width:0.264583">
      <path
         d="m 127.44574,36.720619 v 1.068668 q 0.16537,-0.179834 0.31626,-0.252181 0.15297,-0.07441 0.34107,-0.07441 0.20257,0 0.34313,0.07235 0.14263,0.07028 0.23771,0.219108 0.0951,0.146761 0.0951,0.310058 v 1.076936 h 0.1943 q 0.0641,0 0.0889,0.02481 0.0269,0.02274 0.0269,0.06201 0,0.03721 -0.0269,0.06201 -0.0248,0.02481 -0.0889,0.02481 h -0.56431 q -0.0641,0 -0.0909,-0.02481 -0.0269,-0.02481 -0.0269,-0.06201 0,-0.03927 0.0269,-0.06201 0.0269,-0.02481 0.0909,-0.02481 h 0.19431 v -1.064534 q 0,-0.188102 -0.13643,-0.314192 -0.13436,-0.126091 -0.3762,-0.126091 -0.19017,0 -0.32453,0.09302 -0.0971,0.06615 -0.3204,0.312125 v 1.099674 h 0.19637 q 0.062,0 0.0889,0.02481 0.0269,0.02274 0.0269,0.06201 0,0.03721 -0.0269,0.06201 -0.0269,0.02481 -0.0889,0.02481 h -0.56637 q -0.062,0 -0.0889,-0.02481 -0.0269,-0.02481 -0.0269,-0.06201 0,-0.03927 0.0269,-0.06201 0.0269,-0.02481 0.0889,-0.02481 h 0.19637 v -2.244822 h -0.23358 q -0.062,0 -0.0889,-0.02481 -0.0269,-0.02481 -0.0269,-0.06408 0,-0.03721 0.0269,-0.06201 0.0269,-0.02481 0.0889,-0.02481 z"
         id="path270" />
      <path
         d="m 131.49717,38.46108 h -1.7694 q 0.0455,0.33693 0.28112,0.543635 0.23771,0.204639 0.58705,0.204639 0.1943,0 0.40721,-0.06408 0.2129,-0.06408 0.34726,-0.169499 0.0393,-0.03101 0.0682,-0.03101 0.0331,0 0.0579,0.02687 0.0248,0.02481 0.0248,0.05994 0,0.03514 -0.0331,0.06821 -0.0992,0.103353 -0.35346,0.194303 -0.25218,0.08888 -0.51883,0.08888 -0.44649,0 -0.74621,-0.291454 -0.29766,-0.293522 -0.29766,-0.709 0,-0.378272 0.27906,-0.649056 0.28112,-0.270784 0.69453,-0.270784 0.42581,0 0.70073,0.279052 0.27492,0.276986 0.27078,0.719336 z m -0.1757,-0.1757 q -0.0517,-0.287321 -0.27285,-0.467155 -0.21911,-0.179833 -0.52296,-0.179833 -0.30386,0 -0.52297,0.177766 -0.21911,0.177767 -0.27285,0.469222 z"
         id="path272" />
      <path
         d="m 133.18596,36.720619 v 2.420522 h 0.68213 q 0.0641,0 0.0909,0.02481 0.0269,0.02274 0.0269,0.06201 0,0.03721 -0.0269,0.06201 -0.0269,0.02481 -0.0909,0.02481 h -1.53789 q -0.062,0 -0.0889,-0.02481 -0.0269,-0.02481 -0.0269,-0.06201 0,-0.03927 0.0269,-0.06201 0.0269,-0.02481 0.0889,-0.02481 h 0.68213 v -2.244822 h -0.50023 q -0.062,0 -0.0909,-0.02481 -0.0269,-0.02481 -0.0269,-0.06408 0,-0.03721 0.0269,-0.06201 0.0269,-0.02481 0.0909,-0.02481 z"
         id="path274" />
      <path
         d="m 135.72637,36.720619 v 2.420522 h 0.68213 q 0.0641,0 0.0909,0.02481 0.0269,0.02274 0.0269,0.06201 0,0.03721 -0.0269,0.06201 -0.0269,0.02481 -0.0909,0.02481 h -1.53789 q -0.062,0 -0.0889,-0.02481 -0.0269,-0.02481 -0.0269,-0.06201 0,-0.03927 0.0269,-0.06201 0.0269,-0.02481 0.0889,-0.02481 h 0.68213 v -2.244822 h -0.50023 q -0.062,0 -0.091,-0.02481 -0.0269,-0.02481 -0.0269,-0.06408 0,-0.03721 0.0269,-0.06201 0.0269,-0.02481 0.091,-0.02481 z"
         id="path276" />
      <path
         d="m 139.14941,38.423873 q 0,0.396874 -0.28525,0.677994 -0.28319,0.281119 -0.6842,0.281119 -0.40514,0 -0.68833,-0.281119 -0.28318,-0.283187 -0.28318,-0.677994 0,-0.396875 0.28318,-0.677995 0.28319,-0.283186 0.68833,-0.283186 0.40101,0 0.6842,0.281119 0.28525,0.28112 0.28525,0.680062 z m -0.1757,0 q 0,-0.326595 -0.23357,-0.556038 -0.23151,-0.229443 -0.56224,-0.229443 -0.33073,0 -0.56431,0.23151 -0.23151,0.229443 -0.23151,0.553971 0,0.32246 0.23151,0.553971 0.23358,0.23151 0.56431,0.23151 0.33073,0 0.56224,-0.229443 0.23357,-0.231511 0.23357,-0.556038 z"
         id="path278" />
      <path
         d="m 140.68317,38.816613 h 0.0744 q 0.11576,0 0.19844,0.08268 0.0827,0.08062 0.0827,0.196371 0,0.119889 -0.0848,0.200504 -0.0827,0.08062 -0.19637,0.08062 h -0.0744 q -0.11576,0 -0.19844,-0.08062 -0.0827,-0.08268 -0.0827,-0.198437 0,-0.119889 0.0827,-0.200505 0.0847,-0.08062 0.19844,-0.08062 z"
         id="path280" />
      <path
         d="m 144.23024,38.423873 q 0,0.396874 -0.28526,0.677994 -0.28318,0.281119 -0.68419,0.281119 -0.40515,0 -0.68833,-0.281119 -0.28319,-0.283187 -0.28319,-0.677994 0,-0.396875 0.28319,-0.677995 0.28318,-0.283186 0.68833,-0.283186 0.40101,0 0.68419,0.281119 0.28526,0.28112 0.28526,0.680062 z m -0.1757,0 q 0,-0.326595 -0.23358,-0.556038 -0.23151,-0.229443 -0.56224,-0.229443 -0.33073,0 -0.56431,0.23151 -0.23151,0.229443 -0.23151,0.553971 0,0.32246 0.23151,0.553971 0.23358,0.23151 0.56431,0.23151 0.33073,0 0.56224,-0.229443 0.23358,-0.231511 0.23358,-0.556038 z"
         id="path282" />
    </g>
    <g
       aria-label="hello.tu"
       id="text839-3"
       style="font-size:4.23333px;line-height:1.25;font-family:'Courier New';-inkscape-font-specification:'Courier New';text-align:center;text-anchor:middle;stroke-width:0.264583">
      <path
         d="m 67.22204,36.184677 v 1.068667 q 0.165365,-0.179833 0.31626,-0.25218 0.152962,-0.07441 0.341064,-0.07441 0.202571,0 0.343131,0.07235 0.142627,0.07028 0.237711,0.219108 0.09508,0.14676 0.09508,0.310058 v 1.076936 h 0.194303 q 0.06408,0 0.08888,0.0248 0.02687,0.02274 0.02687,0.06201 0,0.03721 -0.02687,0.06201 -0.02481,0.0248 -0.08888,0.0248 h -0.564306 q -0.06408,0 -0.09095,-0.0248 -0.02687,-0.02481 -0.02687,-0.06201 0,-0.03927 0.02687,-0.06201 0.02687,-0.0248 0.09095,-0.0248 h 0.194303 v -1.064534 q 0,-0.188102 -0.136425,-0.314192 -0.134359,-0.126091 -0.376205,-0.126091 -0.190169,0 -0.324527,0.09302 -0.09715,0.06615 -0.320394,0.312125 v 1.099674 h 0.19637 q 0.06201,0 0.08888,0.0248 0.02687,0.02274 0.02687,0.06201 0,0.03721 -0.02687,0.06201 -0.02687,0.0248 -0.08888,0.0248 h -0.566373 q -0.06201,0 -0.08888,-0.0248 -0.02687,-0.02481 -0.02687,-0.06201 0,-0.03927 0.02687,-0.06201 0.02687,-0.0248 0.08888,-0.0248 h 0.19637 V 36.360376 H 66.81483 q -0.06201,0 -0.08888,-0.0248 -0.02687,-0.02481 -0.02687,-0.06408 0,-0.03721 0.02687,-0.06201 0.02687,-0.0248 0.08888,-0.0248 z"
         id="path285" />
      <path
         d="m 71.273469,37.925138 h -1.7694 q 0.04548,0.33693 0.28112,0.543635 0.237711,0.204639 0.587044,0.204639 0.194303,0 0.40721,-0.06408 0.212906,-0.06408 0.347265,-0.169499 0.03927,-0.03101 0.06821,-0.03101 0.03307,0 0.05788,0.02687 0.02481,0.02481 0.02481,0.05995 0,0.03514 -0.03307,0.06821 -0.09922,0.103352 -0.353466,0.194303 -0.252181,0.08888 -0.518831,0.08888 -0.446484,0 -0.746207,-0.291455 -0.297656,-0.293521 -0.297656,-0.709 0,-0.378271 0.279052,-0.649055 0.28112,-0.270784 0.694531,-0.270784 0.425813,0 0.700732,0.279052 0.274918,0.276986 0.270784,0.719336 z m -0.1757,-0.1757 q -0.05168,-0.287321 -0.272851,-0.467155 -0.219108,-0.179834 -0.522965,-0.179834 -0.303857,0 -0.522965,0.177767 -0.219108,0.177767 -0.272852,0.469222 z"
         id="path287" />
      <path
         d="m 72.962253,36.184677 v 2.420522 h 0.682129 q 0.06408,0 0.09095,0.0248 0.02687,0.02274 0.02687,0.06201 0,0.03721 -0.02687,0.06201 -0.02687,0.0248 -0.09095,0.0248 h -1.53789 q -0.06201,0 -0.08888,-0.0248 -0.02687,-0.02481 -0.02687,-0.06201 0,-0.03927 0.02687,-0.06201 0.02687,-0.0248 0.08888,-0.0248 h 0.682129 v -2.244823 h -0.500228 q -0.06201,0 -0.09095,-0.0248 -0.02687,-0.02481 -0.02687,-0.06408 0,-0.03721 0.02687,-0.06201 0.02687,-0.0248 0.09095,-0.0248 z"
         id="path289" />
      <path
         d="m 75.502665,36.184677 v 2.420522 h 0.682128 q 0.06408,0 0.09095,0.0248 0.02687,0.02274 0.02687,0.06201 0,0.03721 -0.02687,0.06201 -0.02687,0.0248 -0.09095,0.0248 h -1.537889 q -0.06201,0 -0.08888,-0.0248 -0.02687,-0.02481 -0.02687,-0.06201 0,-0.03927 0.02687,-0.06201 0.02687,-0.0248 0.08888,-0.0248 h 0.682128 v -2.244823 h -0.500227 q -0.06201,0 -0.09095,-0.0248 -0.02687,-0.02481 -0.02687,-0.06408 0,-0.03721 0.02687,-0.06201 0.02687,-0.0248 0.09095,-0.0248 z"
         id="path291" />
      <path
         d="m 78.925709,37.887931 q 0,0.396874 -0.285254,0.677994 -0.283187,0.281119 -0.684196,0.281119 -0.405142,0 -0.688329,-0.281119 -0.283187,-0.283187 -0.283187,-0.677994 0,-0.396875 0.283187,-0.677995 0.283187,-0.283186 0.688329,-0.283186 0.401009,0 0.684196,0.281119 0.285254,0.28112 0.285254,0.680062 z m -0.1757,0 q 0,-0.326595 -0.233577,-0.556038 -0.231511,-0.229444 -0.56224,-0.229444 -0.330728,0 -0.564306,0.231511 -0.23151,0.229443 -0.23151,0.553971 0,0.32246 0.23151,0.55397 0.233578,0.231511 0.564306,0.231511 0.330729,0 0.56224,-0.229444 0.233577,-0.23151 0.233577,-0.556037 z"
         id="path293" />
      <path
         d="m 80.459463,38.280671 h 0.07441 q 0.115756,0 0.198438,0.08268 0.08268,0.08062 0.08268,0.196371 0,0.119889 -0.08475,0.200504 -0.08268,0.08062 -0.196371,0.08062 h -0.07441 q -0.115755,0 -0.198437,-0.08062 -0.08268,-0.08268 -0.08268,-0.198437 0,-0.11989 0.08268,-0.200505 0.08475,-0.08062 0.198437,-0.08062 z"
         id="path295" />
      <path
         d="m 82.679482,36.988761 h 0.942577 q 0.06201,0 0.08888,0.02481 0.02687,0.02481 0.02687,0.06408 0,0.03721 -0.02687,0.06201 -0.02687,0.02481 -0.08888,0.02481 h -0.942577 v 1.155484 q 0,0.150895 0.119889,0.252181 0.121956,0.101286 0.355534,0.101286 0.175699,0 0.380338,-0.05168 0.204638,-0.05374 0.318326,-0.119889 0.04134,-0.02687 0.06821,-0.02687 0.03307,0 0.05788,0.02687 0.0248,0.02481 0.0248,0.05994 0,0.03101 -0.02687,0.05788 -0.06615,0.06821 -0.322461,0.148828 -0.254248,0.07855 -0.487825,0.07855 -0.303857,0 -0.483691,-0.142627 -0.179834,-0.142626 -0.179834,-0.384472 v -1.155484 h -0.320394 q -0.06201,0 -0.08888,-0.02481 -0.02687,-0.0248 -0.02687,-0.06408 0,-0.03721 0.02687,-0.06201 0.02687,-0.02481 0.08888,-0.02481 h 0.320394 v -0.512629 q 0,-0.06201 0.02481,-0.08888 0.0248,-0.02687 0.06201,-0.02687 0.03927,0 0.06408,0.02687 0.0248,0.02687 0.0248,0.08888 z"
         id="path297" />
      <path
         d="m 86.170738,38.778831 v -0.254247 q -0.355533,0.32246 -0.768944,0.32246 -0.254248,0 -0.38654,-0.138492 -0.171565,-0.181901 -0.171565,-0.423747 v -1.120344 h -0.233578 q -0.06201,0 -0.08888,-0.02481 -0.02687,-0.0248 -0.02687,-0.06408 0,-0.03721 0.02687,-0.06201 0.02687,-0.02481 0.08888,-0.02481 h 0.40721 v 1.296044 q 0,0.169499 0.107487,0.279053 0.107487,0.109554 0.268717,0.109554 0.423747,0 0.777213,-0.388607 v -1.120344 h -0.320393 q -0.06201,0 -0.08888,-0.02481 -0.02687,-0.0248 -0.02687,-0.06408 0,-0.03721 0.02687,-0.06201 0.02687,-0.02481 0.08888,-0.02481 h 0.494026 v 1.616438 h 0.146761 q 0.06201,0 0.08888,0.0248 0.02687,0.02274 0.02687,0.06201 0,0.03721 -0.02687,0.06201 -0.02687,0.0248 -0.08888,0.0248 z"
         id="path299" />
    </g>
    <g
       aria-label="preprocessor"
       id="text839-7"
       style="font-size:3.52778px;line-height:1.25;font-family:'Courier New';-inkscape-font-specification:'Courier New';text-align:center;text-anchor:middle;stroke-width:0.264583">
      <path
         d="m 34.00336,20.624751 v 0.26355 q 0.129191,-0.156752 0.27733,-0.23599 0.14814,-0.07924 0.349678,-0.07924 0.213596,0 0.394464,0.09991 0.180867,0.09991 0.279052,0.279053 0.09991,0.177422 0.09991,0.373793 0,0.311781 -0.223931,0.53399 -0.222209,0.220486 -0.547771,0.220486 -0.387573,0 -0.62873,-0.315226 v 0.87161 h 0.3514 q 0.05168,0 0.07407,0.01895 0.02239,0.02067 0.02239,0.0534 0,0.03101 -0.02239,0.05168 -0.02239,0.02067 -0.07407,0.02067 h -0.690742 q -0.05168,0 -0.07407,-0.02067 -0.02239,-0.01895 -0.02239,-0.05168 0,-0.03273 0.02239,-0.0534 0.02239,-0.01895 0.07407,-0.01895 h 0.194648 v -1.865521 h -0.194648 q -0.05168,0 -0.07407,-0.02067 -0.02239,-0.02067 -0.02239,-0.0534 0,-0.03101 0.02239,-0.05168 0.02239,-0.02067 0.07407,-0.02067 z m 1.254016,0.701077 q 0,-0.24977 -0.182591,-0.427192 -0.180867,-0.179145 -0.442695,-0.179145 -0.26355,0 -0.44614,0.179145 -0.18259,0.179145 -0.18259,0.427192 0,0.24977 0.18259,0.428915 0.18259,0.179145 0.44614,0.179145 0.260105,0 0.442695,-0.177423 0.182591,-0.179145 0.182591,-0.430637 z"
         id="path302" />
      <path
         d="m 36.492443,20.624751 v 0.36518 q 0.282498,-0.254937 0.422025,-0.327284 0.141249,-0.07407 0.260104,-0.07407 0.129192,0 0.239435,0.08785 0.111965,0.08613 0.111965,0.130914 0,0.03273 -0.02239,0.05512 -0.02067,0.02067 -0.0534,0.02067 -0.01723,0 -0.02928,-0.0052 -0.01206,-0.0069 -0.04479,-0.03962 -0.06029,-0.06029 -0.105076,-0.08268 -0.04479,-0.02239 -0.08785,-0.02239 -0.09474,0 -0.229099,0.07579 -0.132636,0.07579 -0.461643,0.370348 v 0.792373 h 0.640788 q 0.0534,0 0.07579,0.02067 0.02239,0.01895 0.02239,0.05168 0,0.03101 -0.02239,0.05168 -0.02239,0.02067 -0.07579,0.02067 h -1.135159 q -0.05168,0 -0.07407,-0.01895 -0.02239,-0.02067 -0.02239,-0.05168 0,-0.02928 0.02067,-0.04823 0.02239,-0.02067 0.07579,-0.02067 h 0.349677 v -1.205785 h -0.266995 q -0.05168,0 -0.07407,-0.02067 -0.02239,-0.02067 -0.02239,-0.0534 0,-0.03101 0.02067,-0.05168 0.02239,-0.02067 0.07579,-0.02067 z"
         id="path304" />
      <path
         d="m 39.56547,21.405065 h -1.474502 q 0.0379,0.280776 0.234267,0.453031 0.198093,0.170532 0.489204,0.170532 0.16192,0 0.339342,-0.0534 0.177423,-0.0534 0.289388,-0.141249 0.03273,-0.02584 0.05684,-0.02584 0.02756,0 0.04823,0.02239 0.02067,0.02067 0.02067,0.04995 0,0.02928 -0.02756,0.05684 -0.08268,0.08613 -0.294556,0.161919 -0.210151,0.07407 -0.43236,0.07407 -0.372071,0 -0.62184,-0.242879 -0.248047,-0.244602 -0.248047,-0.590835 0,-0.315226 0.232544,-0.54088 0.234267,-0.225654 0.578776,-0.225654 0.354845,0 0.583944,0.232544 0.229099,0.230822 0.225654,0.599447 z m -0.146416,-0.146416 q -0.04306,-0.239435 -0.227377,-0.389296 -0.18259,-0.149862 -0.435805,-0.149862 -0.253214,0 -0.435805,0.148139 -0.18259,0.148139 -0.227376,0.391019 z"
         id="path306" />
      <path
         d="m 40.354398,20.624751 v 0.26355 q 0.129191,-0.156752 0.27733,-0.23599 0.148139,-0.07924 0.349677,-0.07924 0.213596,0 0.394464,0.09991 0.180868,0.09991 0.279053,0.279053 0.09991,0.177422 0.09991,0.373793 0,0.311781 -0.223932,0.53399 -0.222208,0.220486 -0.54777,0.220486 -0.387574,0 -0.62873,-0.315226 v 0.87161 h 0.3514 q 0.05168,0 0.07407,0.01895 0.02239,0.02067 0.02239,0.0534 0,0.03101 -0.02239,0.05168 -0.02239,0.02067 -0.07407,0.02067 h -0.690743 q -0.05168,0 -0.07407,-0.02067 -0.02239,-0.01895 -0.02239,-0.05168 0,-0.03273 0.02239,-0.0534 0.02239,-0.01895 0.07407,-0.01895 h 0.194648 v -1.865521 h -0.194648 q -0.05168,0 -0.07407,-0.02067 -0.02239,-0.02067 -0.02239,-0.0534 0,-0.03101 0.02239,-0.05168 0.02239,-0.02067 0.07407,-0.02067 z m 1.254015,0.701077 q 0,-0.24977 -0.18259,-0.427192 -0.180868,-0.179145 -0.442695,-0.179145 -0.26355,0 -0.44614,0.179145 -0.18259,0.179145 -0.18259,0.427192 0,0.24977 0.18259,0.428915 0.18259,0.179145 0.44614,0.179145 0.260105,0 0.442695,-0.177423 0.18259,-0.179145 0.18259,-0.430637 z"
         id="path308" />
      <path
         d="m 42.843481,20.624751 v 0.36518 q 0.282498,-0.254937 0.422024,-0.327284 0.141249,-0.07407 0.260105,-0.07407 0.129191,0 0.239434,0.08785 0.111966,0.08613 0.111966,0.130914 0,0.03273 -0.02239,0.05512 -0.02067,0.02067 -0.0534,0.02067 -0.01723,0 -0.02928,-0.0052 -0.01206,-0.0069 -0.04479,-0.03962 -0.06029,-0.06029 -0.105075,-0.08268 -0.04479,-0.02239 -0.08785,-0.02239 -0.09474,0 -0.229099,0.07579 -0.132637,0.07579 -0.461643,0.370348 v 0.792373 h 0.640788 q 0.0534,0 0.07579,0.02067 0.02239,0.01895 0.02239,0.05168 0,0.03101 -0.02239,0.05168 -0.02239,0.02067 -0.07579,0.02067 h -1.13516 q -0.05168,0 -0.07407,-0.01895 -0.02239,-0.02067 -0.02239,-0.05168 0,-0.02928 0.02067,-0.04823 0.02239,-0.02067 0.07579,-0.02067 h 0.349678 v -1.205785 h -0.266996 q -0.05168,0 -0.07407,-0.02067 -0.02239,-0.02067 -0.02239,-0.0534 0,-0.03101 0.02067,-0.05168 0.02239,-0.02067 0.07579,-0.02067 z"
         id="path310" />
      <path
         d="m 45.942346,21.374059 q 0,0.33073 -0.237712,0.564996 -0.235989,0.234267 -0.570164,0.234267 -0.337619,0 -0.573609,-0.234267 -0.235989,-0.235989 -0.235989,-0.564996 0,-0.330729 0.235989,-0.564996 0.23599,-0.235989 0.573609,-0.235989 0.334175,0 0.570164,0.234267 0.237712,0.234266 0.237712,0.566718 z m -0.146417,0 q 0,-0.272162 -0.194648,-0.463365 -0.192926,-0.191203 -0.468533,-0.191203 -0.275608,0 -0.470256,0.192925 -0.192926,0.191203 -0.192926,0.461643 0,0.268718 0.192926,0.461644 0.194648,0.192925 0.470256,0.192925 0.275607,0 0.468533,-0.191203 0.194648,-0.192925 0.194648,-0.463366 z"
         id="path312" />
      <path
         d="m 47.854375,20.771167 v -0.04823 q 0,-0.0534 0.02067,-0.07579 0.02067,-0.02239 0.05168,-0.02239 0.03273,0 0.0534,0.02239 0.02067,0.02239 0.02067,0.07579 v 0.327284 q -0.0017,0.0534 -0.02239,0.07579 -0.01895,0.02239 -0.05168,0.02239 -0.02928,0 -0.04995,-0.01895 -0.01895,-0.02067 -0.02239,-0.06718 -0.01033,-0.122301 -0.161919,-0.232544 -0.149862,-0.110243 -0.404799,-0.110243 -0.322117,0 -0.489204,0.201538 -0.167088,0.201538 -0.167088,0.461643 0,0.280776 0.184313,0.463366 0.184313,0.18259 0.477146,0.18259 0.16881,0 0.342787,-0.06201 0.1757,-0.06201 0.316949,-0.199815 0.03617,-0.03445 0.06374,-0.03445 0.02928,0 0.04823,0.02067 0.02067,0.01895 0.02067,0.04823 0,0.07407 -0.173978,0.187757 -0.280775,0.184313 -0.625285,0.184313 -0.349677,0 -0.575331,-0.222209 -0.223932,-0.223931 -0.223932,-0.566718 0,-0.349678 0.229099,-0.580499 0.230822,-0.230822 0.580499,-0.230822 0.332452,0 0.558106,0.198093 z"
         id="path314" />
      <path
         d="m 50.150533,21.405065 h -1.474502 q 0.0379,0.280776 0.234267,0.453031 0.198093,0.170532 0.489204,0.170532 0.16192,0 0.339342,-0.0534 0.177423,-0.0534 0.289388,-0.141249 0.03273,-0.02584 0.05684,-0.02584 0.02756,0 0.04823,0.02239 0.02067,0.02067 0.02067,0.04995 0,0.02928 -0.02756,0.05684 -0.08268,0.08613 -0.294556,0.161919 -0.210151,0.07407 -0.43236,0.07407 -0.372071,0 -0.62184,-0.242879 -0.248047,-0.244602 -0.248047,-0.590835 0,-0.315226 0.232544,-0.54088 0.234266,-0.225654 0.578776,-0.225654 0.354845,0 0.583944,0.232544 0.229099,0.230822 0.225654,0.599447 z m -0.146416,-0.146416 q -0.04306,-0.239435 -0.227377,-0.389296 -0.18259,-0.149862 -0.435805,-0.149862 -0.253214,0 -0.435805,0.148139 -0.18259,0.148139 -0.227376,0.391019 z"
         id="path316" />
      <path
         d="m 51.962654,20.719491 q 0,-0.04995 0.02067,-0.07235 0.02067,-0.02239 0.05168,-0.02239 0.03273,0 0.0534,0.02239 0.02067,0.02239 0.02067,0.07579 v 0.248047 q 0,0.05168 -0.02067,0.07407 -0.02067,0.02239 -0.0534,0.02239 -0.02928,0 -0.04995,-0.01895 -0.01895,-0.01895 -0.02239,-0.06201 -0.01033,-0.103353 -0.106798,-0.170532 -0.141249,-0.09646 -0.373793,-0.09646 -0.242879,0 -0.377238,0.09818 -0.101631,0.07407 -0.101631,0.165365 0,0.103353 0.120579,0.172255 0.08268,0.04823 0.313504,0.07407 0.301446,0.03273 0.418579,0.07407 0.167087,0.06029 0.248047,0.167087 0.08268,0.106798 0.08268,0.230822 0,0.184312 -0.177422,0.329007 -0.177423,0.142971 -0.52021,0.142971 -0.342787,0 -0.561551,-0.173977 0,0.05857 -0.0069,0.07579 -0.0069,0.01722 -0.02584,0.02928 -0.01723,0.01206 -0.03962,0.01206 -0.03101,0 -0.05168,-0.02239 -0.02067,-0.02239 -0.02067,-0.07407 v -0.298001 q 0,-0.05168 0.01895,-0.07407 0.02067,-0.02239 0.0534,-0.02239 0.03101,0 0.05168,0.02239 0.02239,0.02067 0.02239,0.05684 0,0.07924 0.03962,0.132636 0.06029,0.08268 0.191203,0.137804 0.132637,0.0534 0.32384,0.0534 0.282498,0 0.420301,-0.105076 0.137804,-0.105075 0.137804,-0.222208 0,-0.134359 -0.139526,-0.215319 -0.141249,-0.08096 -0.411689,-0.10852 -0.268718,-0.02756 -0.385851,-0.07235 -0.117134,-0.04479 -0.18259,-0.134358 -0.06546,-0.08957 -0.06546,-0.192926 0,-0.186035 0.18259,-0.294556 0.18259,-0.110243 0.435805,-0.110243 0.299723,0 0.487481,0.146417 z"
         id="path318" />
      <path
         d="m 54.079666,20.719491 q 0,-0.04995 0.02067,-0.07235 0.02067,-0.02239 0.05168,-0.02239 0.03273,0 0.0534,0.02239 0.02067,0.02239 0.02067,0.07579 v 0.248047 q 0,0.05168 -0.02067,0.07407 -0.02067,0.02239 -0.0534,0.02239 -0.02928,0 -0.04995,-0.01895 -0.01895,-0.01895 -0.02239,-0.06201 -0.01034,-0.103353 -0.106798,-0.170532 -0.141249,-0.09646 -0.373793,-0.09646 -0.242879,0 -0.377238,0.09818 -0.101631,0.07407 -0.101631,0.165365 0,0.103353 0.120579,0.172255 0.08268,0.04823 0.313504,0.07407 0.301446,0.03273 0.418579,0.07407 0.167087,0.06029 0.248047,0.167087 0.08268,0.106798 0.08268,0.230822 0,0.184312 -0.177422,0.329007 -0.177423,0.142971 -0.52021,0.142971 -0.342787,0 -0.561551,-0.173977 0,0.05857 -0.0069,0.07579 -0.0069,0.01722 -0.02584,0.02928 -0.01723,0.01206 -0.03962,0.01206 -0.03101,0 -0.05168,-0.02239 -0.02067,-0.02239 -0.02067,-0.07407 v -0.298001 q 0,-0.05168 0.01895,-0.07407 0.02067,-0.02239 0.0534,-0.02239 0.03101,0 0.05168,0.02239 0.02239,0.02067 0.02239,0.05684 0,0.07924 0.03962,0.132636 0.06029,0.08268 0.191203,0.137804 0.132637,0.0534 0.32384,0.0534 0.282498,0 0.420301,-0.105076 0.137804,-0.105075 0.137804,-0.222208 0,-0.134359 -0.139526,-0.215319 -0.141249,-0.08096 -0.411689,-0.10852 -0.268718,-0.02756 -0.385851,-0.07235 -0.117134,-0.04479 -0.18259,-0.134358 -0.06546,-0.08957 -0.06546,-0.192926 0,-0.186035 0.18259,-0.294556 0.18259,-0.110243 0.435805,-0.110243 0.299723,0 0.487481,0.146417 z"
         id="path320" />
      <path
         d="m 56.527408,21.374059 q 0,0.33073 -0.237712,0.564996 -0.235989,0.234267 -0.570164,0.234267 -0.337619,0 -0.573609,-0.234267 -0.235989,-0.235989 -0.235989,-0.564996 0,-0.330729 0.235989,-0.564996 0.23599,-0.235989 0.573609,-0.235989 0.334175,0 0.570164,0.234267 0.237712,0.234266 0.237712,0.566718 z m -0.146417,0 q 0,-0.272162 -0.194648,-0.463365 -0.192926,-0.191203 -0.468533,-0.191203 -0.275608,0 -0.470256,0.192925 -0.192926,0.191203 -0.192926,0.461643 0,0.268718 0.192926,0.461644 0.194648,0.192925 0.470256,0.192925 0.275607,0 0.468533,-0.191203 0.194648,-0.192925 0.194648,-0.463366 z"
         id="path322" />
      <path
         d="m 57.662569,20.624751 v 0.36518 q 0.282498,-0.254937 0.422024,-0.327284 0.141249,-0.07407 0.260105,-0.07407 0.129191,0 0.239434,0.08785 0.111966,0.08613 0.111966,0.130914 0,0.03273 -0.02239,0.05512 -0.02067,0.02067 -0.0534,0.02067 -0.01723,0 -0.02928,-0.0052 -0.01206,-0.0069 -0.04479,-0.03962 -0.06029,-0.06029 -0.105075,-0.08268 -0.04479,-0.02239 -0.08785,-0.02239 -0.09474,0 -0.229099,0.07579 -0.132637,0.07579 -0.461643,0.370348 v 0.792373 h 0.640788 q 0.0534,0 0.07579,0.02067 0.02239,0.01895 0.02239,0.05168 0,0.03101 -0.02239,0.05168 -0.02239,0.02067 -0.07579,0.02067 h -1.13516 q -0.05168,0 -0.07407,-0.01895 -0.02239,-0.02067 -0.02239,-0.05168 0,-0.02928 0.02067,-0.04823 0.02239,-0.02067 0.07579,-0.02067 h 0.349678 v -1.205785 h -0.266996 q -0.05168,0 -0.07407,-0.02067 -0.02239,-0.02067 -0.02239,-0.0534 0,-0.03101 0.02067,-0.05168 0.02239,-0.02067 0.07579,-0.02067 z"
         id="path324" />
    </g>
    <g
       aria-label="compiler"
       id="text839-7-8"
       style="font-size:3.52778px;line-height:1.25;font-family:'Courier New';-inkscape-font-specification:'Courier New';text-align:center;text-anchor:middle;stroke-width:0.264583">
      <path
         d="m 99.425662,20.662033 v -0.04823 q 0,-0.0534 0.02067,-0.07579 0.02067,-0.02239 0.05168,-0.02239 0.03273,0 0.0534,0.02239 0.02067,0.02239 0.02067,0.07579 v 0.327285 q -0.0017,0.0534 -0.02239,0.07579 -0.01895,0.02239 -0.05168,0.02239 -0.02928,0 -0.04995,-0.01895 -0.01895,-0.02067 -0.02239,-0.06718 -0.01033,-0.122301 -0.161919,-0.232544 -0.149862,-0.110243 -0.404799,-0.110243 -0.322117,0 -0.489204,0.201538 -0.167087,0.201539 -0.167087,0.461643 0,0.280776 0.184312,0.463366 0.184313,0.18259 0.477146,0.18259 0.16881,0 0.342788,-0.06201 0.1757,-0.06201 0.316949,-0.199816 0.03617,-0.03445 0.06373,-0.03445 0.02928,0 0.04823,0.02067 0.02067,0.01895 0.02067,0.04823 0,0.07407 -0.173977,0.187758 -0.280776,0.184312 -0.625286,0.184312 -0.349677,0 -0.575331,-0.222208 -0.223931,-0.223932 -0.223931,-0.566719 0,-0.349677 0.229099,-0.580499 0.230821,-0.230821 0.580499,-0.230821 0.332452,0 0.558105,0.198093 z"
         id="path327" />
      <path
         d="m 101.74766,21.264925 q 0,0.330729 -0.23771,0.564996 -0.23599,0.234266 -0.57017,0.234266 -0.33762,0 -0.57361,-0.234266 -0.23599,-0.235989 -0.23599,-0.564996 0,-0.33073 0.23599,-0.564996 0.23599,-0.235989 0.57361,-0.235989 0.33418,0 0.57017,0.234266 0.23771,0.234267 0.23771,0.566719 z m -0.14642,0 q 0,-0.272163 -0.19465,-0.463366 -0.19292,-0.191203 -0.46853,-0.191203 -0.27561,0 -0.47026,0.192926 -0.19292,0.191203 -0.19292,0.461643 0,0.268717 0.19292,0.461643 0.19465,0.192925 0.47026,0.192925 0.27561,0 0.46853,-0.191203 0.19465,-0.192925 0.19465,-0.463365 z"
         id="path329" />
      <path
         d="m 102.39706,20.515616 v 0.146417 q 0.18431,-0.198093 0.37035,-0.198093 0.11196,0 0.19637,0.06029 0.0844,0.05857 0.14125,0.179145 0.0965,-0.120579 0.19464,-0.179145 0.0999,-0.06029 0.19982,-0.06029 0.15675,0 0.24977,0.10163 0.1223,0.130914 0.1223,0.285943 v 1.011136 h 0.1223 q 0.0517,0 0.0741,0.02067 0.0224,0.01895 0.0224,0.05168 0,0.03101 -0.0224,0.05168 -0.0224,0.02067 -0.0741,0.02067 h -0.26699 v -1.14205 q 0,-0.110243 -0.0672,-0.18259 -0.0672,-0.07235 -0.15503,-0.07235 -0.0792,0 -0.16709,0.06029 -0.0879,0.05857 -0.19981,0.232544 v 0.95946 h 0.12057 q 0.0517,0 0.0741,0.02067 0.0224,0.01895 0.0224,0.05168 0,0.03101 -0.0224,0.05168 -0.0224,0.02067 -0.0741,0.02067 h -0.26699 v -1.131714 q 0,-0.115411 -0.0689,-0.189481 -0.0672,-0.07579 -0.15159,-0.07579 -0.0775,0 -0.1533,0.04995 -0.10508,0.07062 -0.22049,0.242879 v 0.95946 h 0.1223 q 0.0517,0 0.0741,0.02067 0.0224,0.01895 0.0224,0.05168 0,0.03101 -0.0224,0.05168 -0.0224,0.02067 -0.0741,0.02067 h -0.3893 q -0.0517,0 -0.0741,-0.02067 -0.0224,-0.02067 -0.0224,-0.05168 0,-0.03273 0.0224,-0.05168 0.0224,-0.02067 0.0741,-0.02067 h 0.12231 v -1.200616 h -0.12231 q -0.0517,0 -0.0741,-0.02067 -0.0224,-0.02067 -0.0224,-0.0534 0,-0.03101 0.0224,-0.05168 0.0224,-0.02067 0.0741,-0.02067 z"
         id="path331" />
      <path
         d="m 104.62776,20.515616 v 0.26355 q 0.12919,-0.156752 0.27733,-0.235989 0.14814,-0.07924 0.34968,-0.07924 0.21359,0 0.39446,0.09991 0.18087,0.09991 0.27905,0.279053 0.0999,0.177423 0.0999,0.373793 0,0.311782 -0.22393,0.533991 -0.22221,0.220486 -0.54777,0.220486 -0.38757,0 -0.62873,-0.315227 v 0.87161 h 0.3514 q 0.0517,0 0.0741,0.01895 0.0224,0.02067 0.0224,0.0534 0,0.03101 -0.0224,0.05168 -0.0224,0.02067 -0.0741,0.02067 h -0.69074 q -0.0517,0 -0.0741,-0.02067 -0.0224,-0.01895 -0.0224,-0.05168 0,-0.03273 0.0224,-0.0534 0.0224,-0.01895 0.0741,-0.01895 h 0.19465 v -1.86552 h -0.19465 q -0.0517,0 -0.0741,-0.02067 -0.0224,-0.02067 -0.0224,-0.0534 0,-0.03101 0.0224,-0.05168 0.0224,-0.02067 0.0741,-0.02067 z m 1.25402,0.701077 q 0,-0.249769 -0.18259,-0.427192 -0.18087,-0.179145 -0.4427,-0.179145 -0.26355,0 -0.44614,0.179145 -0.18259,0.179145 -0.18259,0.427192 0,0.24977 0.18259,0.428915 0.18259,0.179145 0.44614,0.179145 0.26011,0 0.4427,-0.177422 0.18259,-0.179145 0.18259,-0.430638 z"
         id="path333" />
      <path
         d="m 107.36144,19.773197 v 0.373794 h -0.21359 v -0.373794 z m 0.005,0.742419 v 1.347033 h 0.56844 q 0.0534,0 0.0758,0.02067 0.0224,0.01895 0.0224,0.05168 0,0.03101 -0.0224,0.05168 -0.0224,0.02067 -0.0758,0.02067 h -1.28157 q -0.0517,0 -0.0741,-0.02067 -0.0224,-0.02067 -0.0224,-0.05168 0,-0.03273 0.0224,-0.05168 0.0224,-0.02067 0.0741,-0.02067 h 0.56844 v -1.200616 h -0.42203 q -0.0517,0 -0.0758,-0.02067 -0.0224,-0.02067 -0.0224,-0.05168 0,-0.03273 0.0224,-0.0534 0.0224,-0.02067 0.0758,-0.02067 z"
         id="path335" />
      <path
         d="m 109.48018,19.845544 v 2.017105 h 0.56844 q 0.0534,0 0.0758,0.02067 0.0224,0.01895 0.0224,0.05168 0,0.03101 -0.0224,0.05168 -0.0224,0.02067 -0.0758,0.02067 h -1.28158 q -0.0517,0 -0.0741,-0.02067 -0.0224,-0.02067 -0.0224,-0.05168 0,-0.03273 0.0224,-0.05168 0.0224,-0.02067 0.0741,-0.02067 h 0.56845 v -1.870688 h -0.41686 q -0.0517,0 -0.0758,-0.02067 -0.0224,-0.02067 -0.0224,-0.0534 0,-0.03101 0.0224,-0.05168 0.0224,-0.02067 0.0758,-0.02067 z"
         id="path337" />
      <path
         d="m 112.30688,21.295931 h -1.4745 q 0.0379,0.280775 0.23427,0.45303 0.19809,0.170532 0.4892,0.170532 0.16192,0 0.33934,-0.0534 0.17743,-0.0534 0.28939,-0.141249 0.0327,-0.02584 0.0568,-0.02584 0.0276,0 0.0482,0.02239 0.0207,0.02067 0.0207,0.04995 0,0.02928 -0.0276,0.05684 -0.0827,0.08613 -0.29456,0.16192 -0.21015,0.07407 -0.43236,0.07407 -0.37207,0 -0.62184,-0.242879 -0.24805,-0.244602 -0.24805,-0.590834 0,-0.315227 0.23255,-0.540881 0.23426,-0.225653 0.57877,-0.225653 0.35485,0 0.58395,0.232544 0.2291,0.230821 0.22565,0.599447 z m -0.14641,-0.146417 q -0.0431,-0.239434 -0.22738,-0.389296 -0.18259,-0.149862 -0.43581,-0.149862 -0.25321,0 -0.4358,0.148139 -0.18259,0.14814 -0.22738,0.391019 z"
         id="path339" />
      <path
         d="m 113.46788,20.515616 v 0.36518 q 0.2825,-0.254937 0.42203,-0.327284 0.14124,-0.07407 0.2601,-0.07407 0.12919,0 0.23943,0.08785 0.11197,0.08613 0.11197,0.130914 0,0.03273 -0.0224,0.05512 -0.0207,0.02067 -0.0534,0.02067 -0.0172,0 -0.0293,-0.0052 -0.0121,-0.0069 -0.0448,-0.03962 -0.0603,-0.06029 -0.10508,-0.08268 -0.0448,-0.02239 -0.0879,-0.02239 -0.0947,0 -0.2291,0.07579 -0.13263,0.07579 -0.46164,0.370348 v 0.792372 h 0.64079 q 0.0534,0 0.0758,0.02067 0.0224,0.01895 0.0224,0.05168 0,0.03101 -0.0224,0.05168 -0.0224,0.02067 -0.0758,0.02067 h -1.13516 q -0.0517,0 -0.0741,-0.01895 -0.0224,-0.02067 -0.0224,-0.05168 0,-0.02928 0.0207,-0.04823 0.0224,-0.02067 0.0758,-0.02067 h 0.34968 v -1.205784 h -0.267 q -0.0517,0 -0.0741,-0.02067 -0.0224,-0.02067 -0.0224,-0.0534 0,-0.03101 0.0207,-0.05168 0.0224,-0.02067 0.0758,-0.02067 z"
         id="path341" />
    </g>
    <g
       aria-label="linker"
       id="text839-7-9"
       style="font-size:3.52778px;line-height:1.25;font-family:'Courier New';-inkscape-font-specification:'Courier New';text-align:center;text-anchor:middle;stroke-width:0.264583">
      <path
         d="m 161.21613,20.024192 v 2.017105 h 0.56844 q 0.0534,0 0.0758,0.02067 0.0224,0.01895 0.0224,0.05168 0,0.03101 -0.0224,0.05168 -0.0224,0.02067 -0.0758,0.02067 H 160.503 q -0.0517,0 -0.0741,-0.02067 -0.0224,-0.02067 -0.0224,-0.05168 0,-0.03273 0.0224,-0.05168 0.0224,-0.02067 0.0741,-0.02067 h 0.56844 v -1.870688 h -0.41686 q -0.0517,0 -0.0758,-0.02067 -0.0224,-0.02067 -0.0224,-0.0534 0,-0.03101 0.0224,-0.05168 0.0224,-0.02067 0.0758,-0.02067 z"
         id="path344" />
      <path
         d="m 163.33142,19.951845 v 0.373794 h -0.21359 v -0.373794 z m 0.005,0.742419 v 1.347033 h 0.56844 q 0.0534,0 0.0758,0.02067 0.0224,0.01895 0.0224,0.05168 0,0.03101 -0.0224,0.05168 -0.0224,0.02067 -0.0758,0.02067 h -1.28158 q -0.0517,0 -0.0741,-0.02067 -0.0224,-0.02067 -0.0224,-0.05168 0,-0.03273 0.0224,-0.05168 0.0224,-0.02067 0.0741,-0.02067 h 0.56845 v -1.200616 h -0.42203 q -0.0517,0 -0.0758,-0.02067 -0.0224,-0.02067 -0.0224,-0.05168 0,-0.03273 0.0224,-0.0534 0.0224,-0.02067 0.0758,-0.02067 z"
         id="path346" />
      <path
         d="m 164.90928,20.694264 v 0.218764 q 0.15158,-0.153307 0.27388,-0.211874 0.1223,-0.05857 0.27561,-0.05857 0.16536,0 0.30145,0.07062 0.0965,0.05168 0.17397,0.172255 0.0792,0.118856 0.0792,0.244602 v 0.911228 h 0.1223 q 0.0517,0 0.0741,0.02067 0.0224,0.01895 0.0224,0.05168 0,0.03101 -0.0224,0.05168 -0.0224,0.02067 -0.0741,0.02067 h -0.38757 q -0.0534,0 -0.0758,-0.02067 -0.0224,-0.02067 -0.0224,-0.05168 0,-0.03273 0.0224,-0.05168 0.0224,-0.02067 0.0758,-0.02067 h 0.12058 v -0.887112 q 0,-0.153307 -0.11197,-0.258383 -0.11196,-0.106798 -0.29972,-0.106798 -0.14297,0 -0.24805,0.05857 -0.10508,0.05684 -0.29972,0.285943 v 0.907783 h 0.16364 q 0.0517,0 0.0741,0.02067 0.0224,0.01895 0.0224,0.05168 0,0.03101 -0.0224,0.05168 -0.0224,0.02067 -0.0741,0.02067 h -0.47198 q -0.0517,0 -0.0741,-0.02067 -0.0224,-0.02067 -0.0224,-0.05168 0,-0.03273 0.0224,-0.05168 0.0224,-0.02067 0.0741,-0.02067 h 0.16364 v -1.200616 h -0.1223 q -0.0517,0 -0.0741,-0.02067 -0.0224,-0.02067 -0.0224,-0.0534 0,-0.03101 0.0224,-0.05168 0.0224,-0.02067 0.0741,-0.02067 z"
         id="path348" />
      <path
         d="m 167.20027,21.541758 v 0.644233 h -0.33935 q -0.0517,0 -0.0741,-0.02067 -0.0224,-0.02067 -0.0224,-0.05168 0,-0.03273 0.0224,-0.05168 0.0224,-0.02067 0.0741,-0.02067 h 0.19465 v -1.870688 h -0.19465 q -0.0517,0 -0.0741,-0.02067 -0.0224,-0.02067 -0.0224,-0.0534 0,-0.03101 0.0224,-0.05168 0.0224,-0.02067 0.0741,-0.02067 h 0.33935 v 1.333253 l 0.61495,-0.516764 h -0.0741 q -0.0517,0 -0.0741,-0.02067 -0.0224,-0.02067 -0.0224,-0.05168 0,-0.03273 0.0224,-0.0534 0.0224,-0.02067 0.0741,-0.02067 h 0.46336 q 0.0534,0 0.0758,0.02067 0.0224,0.02067 0.0224,0.0534 0,0.03101 -0.0224,0.05168 -0.0224,0.02067 -0.0758,0.02067 h -0.16708 l -0.565,0.471978 0.71486,0.728638 h 0.16708 q 0.0534,0 0.0758,0.02067 0.0224,0.01895 0.0224,0.05168 0,0.03101 -0.0224,0.05168 -0.0224,0.02067 -0.0758,0.02067 h -0.46853 q -0.0517,0 -0.0741,-0.02067 -0.0224,-0.02067 -0.0224,-0.05168 0,-0.03273 0.0224,-0.05168 0.0224,-0.02067 0.0741,-0.02067 h 0.10163 l -0.62184,-0.639065 z"
         id="path350" />
      <path
         d="m 170.39387,21.474579 h -1.4745 q 0.0379,0.280775 0.23427,0.45303 0.19809,0.170532 0.4892,0.170532 0.16192,0 0.33934,-0.0534 0.17743,-0.0534 0.28939,-0.141249 0.0327,-0.02584 0.0568,-0.02584 0.0276,0 0.0482,0.02239 0.0207,0.02067 0.0207,0.04995 0,0.02928 -0.0276,0.05684 -0.0827,0.08613 -0.29456,0.16192 -0.21015,0.07407 -0.43236,0.07407 -0.37207,0 -0.62184,-0.242879 -0.24805,-0.244602 -0.24805,-0.590834 0,-0.315227 0.23255,-0.540881 0.23426,-0.225653 0.57877,-0.225653 0.35485,0 0.58395,0.232544 0.2291,0.230821 0.22565,0.599447 z m -0.14641,-0.146417 q -0.0431,-0.239434 -0.22738,-0.389296 -0.18259,-0.149862 -0.43581,-0.149862 -0.25321,0 -0.4358,0.148139 -0.18259,0.14814 -0.22738,0.391019 z"
         id="path352" />
      <path
         d="m 171.55487,20.694264 v 0.36518 q 0.2825,-0.254937 0.42202,-0.327284 0.14125,-0.07407 0.26011,-0.07407 0.12919,0 0.23943,0.08785 0.11197,0.08613 0.11197,0.130914 0,0.03273 -0.0224,0.05512 -0.0207,0.02067 -0.0534,0.02067 -0.0172,0 -0.0293,-0.0052 -0.012,-0.0069 -0.0448,-0.03962 -0.0603,-0.06029 -0.10508,-0.08268 -0.0448,-0.02239 -0.0879,-0.02239 -0.0947,0 -0.2291,0.07579 -0.13263,0.07579 -0.46164,0.370348 v 0.792372 h 0.64079 q 0.0534,0 0.0758,0.02067 0.0224,0.01895 0.0224,0.05168 0,0.03101 -0.0224,0.05168 -0.0224,0.02067 -0.0758,0.02067 h -1.13516 q -0.0517,0 -0.0741,-0.01895 -0.0224,-0.02067 -0.0224,-0.05168 0,-0.02928 0.0207,-0.04823 0.0224,-0.02067 0.0758,-0.02067 h 0.34968 v -1.205784 h -0.267 q -0.0517,0 -0.0741,-0.02067 -0.0224,-0.02067 -0.0224,-0.0534 0,-0.03101 0.0207,-0.05168 0.0224,-0.02067 0.0758,-0.02067 z"
         id="path354" />
    </g>
    <path
       id="rect963-8-4-0"
       style="fill:#ffffff;stroke:#000000;stroke-width:0.254"
       d="m 155.95878,31.546001 h 20.72305 c 1.08867,0 1.96512,0.876442 1.96512,1.965116 v 5.002117 c 0,1.088674 -0.87645,1.965116 -1.96512,1.965116 h -20.72305 c -1.08867,0 -1.96511,-0.876442 -1.96511,-1.965116 v -5.002117 c 0,-1.088674 0.87644,-1.965116 1.96511,-1.965116 z" />
    <g
       aria-label="libs"
       id="text839-7-9-3"
       style="font-size:3.52778px;line-height:1.25;font-family:'Courier New';-inkscape-font-specification:'Courier New';text-align:center;text-anchor:middle;stroke-width:0.264583">
      <path
         d="M 163.56816,35.143995 V 37.1611 h 0.56844 q 0.0534,0 0.0758,0.02067 0.0224,0.01895 0.0224,0.05168 0,0.03101 -0.0224,0.05168 -0.0224,0.02067 -0.0758,0.02067 h -1.28157 q -0.0517,0 -0.0741,-0.02067 -0.0224,-0.02067 -0.0224,-0.05168 0,-0.03273 0.0224,-0.05168 0.0224,-0.02067 0.0741,-0.02067 h 0.56844 v -1.870688 h -0.41686 q -0.0517,0 -0.0758,-0.02067 -0.0224,-0.02067 -0.0224,-0.0534 0,-0.03101 0.0224,-0.05168 0.0224,-0.02067 0.0758,-0.02067 z"
         id="path358" />
      <path
         d="m 165.68345,35.071648 v 0.373793 h -0.2136 v -0.373793 z m 0.005,0.742418 V 37.1611 h 0.56844 q 0.0534,0 0.0758,0.02067 0.0224,0.01895 0.0224,0.05168 0,0.03101 -0.0224,0.05168 -0.0224,0.02067 -0.0758,0.02067 h -1.28158 q -0.0517,0 -0.0741,-0.02067 -0.0224,-0.02067 -0.0224,-0.05168 0,-0.03273 0.0224,-0.05168 0.0224,-0.02067 0.0741,-0.02067 h 0.56844 v -1.200617 h -0.42202 q -0.0517,0 -0.0758,-0.02067 -0.0224,-0.02067 -0.0224,-0.05168 0,-0.03273 0.0224,-0.0534 0.0224,-0.02067 0.0758,-0.02067 z"
         id="path360" />
      <path
         d="m 167.18379,35.143995 v 0.95946 q 0.26183,-0.341065 0.63218,-0.341065 0.31695,0 0.5426,0.230822 0.22565,0.229099 0.22565,0.563273 0,0.33762 -0.2291,0.571886 -0.22737,0.234267 -0.53915,0.234267 -0.37896,0 -0.63218,-0.341065 v 0.284221 h -0.33934 q -0.0517,0 -0.0741,-0.02067 -0.0224,-0.02067 -0.0224,-0.05168 0,-0.03273 0.0224,-0.05168 0.0224,-0.02067 0.0741,-0.02067 h 0.19465 v -1.870688 h -0.19465 q -0.0517,0 -0.0741,-0.02067 -0.0224,-0.02067 -0.0224,-0.0534 0,-0.03101 0.0224,-0.05168 0.0224,-0.02067 0.0741,-0.02067 z m 1.25574,1.41938 q 0,-0.273885 -0.18776,-0.463365 -0.18776,-0.191203 -0.43925,-0.191203 -0.25149,0 -0.43925,0.191203 -0.18776,0.18948 -0.18776,0.463365 0,0.273885 0.18776,0.465088 0.18776,0.189481 0.43925,0.189481 0.25149,0 0.43925,-0.189481 0.18776,-0.191203 0.18776,-0.465088 z"
         id="path362" />
      <path
         d="m 170.324,35.908807 q 0,-0.04995 0.0207,-0.07235 0.0207,-0.02239 0.0517,-0.02239 0.0327,0 0.0534,0.02239 0.0207,0.02239 0.0207,0.07579 v 0.248047 q 0,0.05168 -0.0207,0.07407 -0.0207,0.02239 -0.0534,0.02239 -0.0293,0 -0.0499,-0.01895 -0.019,-0.01895 -0.0224,-0.06201 -0.0103,-0.103353 -0.1068,-0.170533 -0.14125,-0.09646 -0.37379,-0.09646 -0.24288,0 -0.37724,0.09818 -0.10163,0.07407 -0.10163,0.165365 0,0.103353 0.12058,0.172255 0.0827,0.04823 0.3135,0.07407 0.30145,0.03273 0.41858,0.07407 0.16709,0.06029 0.24805,0.167087 0.0827,0.106798 0.0827,0.230821 0,0.184313 -0.17742,0.329007 -0.17743,0.142972 -0.52021,0.142972 -0.34279,0 -0.56155,-0.173978 0,0.05857 -0.007,0.07579 -0.007,0.01722 -0.0258,0.02928 -0.0172,0.01206 -0.0396,0.01206 -0.031,0 -0.0517,-0.02239 -0.0207,-0.02239 -0.0207,-0.07407 V 36.91133 q 0,-0.05168 0.019,-0.07407 0.0207,-0.02239 0.0534,-0.02239 0.031,0 0.0517,0.02239 0.0224,0.02067 0.0224,0.05685 0,0.07924 0.0396,0.132636 0.0603,0.08268 0.1912,0.137804 0.13264,0.0534 0.32384,0.0534 0.2825,0 0.4203,-0.105076 0.1378,-0.105075 0.1378,-0.222209 0,-0.134358 -0.13952,-0.215318 -0.14125,-0.08096 -0.41169,-0.108521 -0.26872,-0.02756 -0.38585,-0.07235 -0.11714,-0.04479 -0.18259,-0.134359 -0.0655,-0.08957 -0.0655,-0.192925 0,-0.186035 0.18259,-0.294556 0.18259,-0.110243 0.43581,-0.110243 0.29972,0 0.48748,0.146417 z"
         id="path364" />
    </g>
    <path
       id="rect963-8-4-0-7"
       style="fill:#ffffff;stroke:#000000;stroke-width:0.254"
       d="m 35.070535,30.679089 h 20.723047 c 1.088674,0 1.965116,0.876441 1.965116,1.965115 v 5.002117 c 0,1.088674 -0.876442,1.965116 -1.965116,1.965116 H 35.070535 c -1.088674,0 -1.965116,-0.876442 -1.965116,-1.965116 v -5.002117 c 0,-1.088674 0.876442,-1.965115 1.965116,-1.965115 z" />
    <g
       aria-label="headers"
       id="text839-7-9-3-8"
       style="font-size:3.52778px;line-height:1.25;font-family:'Courier New';-inkscape-font-specification:'Courier New';text-align:center;text-anchor:middle;stroke-width:0.264583">
      <path
         d="m 38.9549,34.277082 v 0.890558 q 0.137804,-0.149862 0.26355,-0.210151 0.127469,-0.06201 0.284221,-0.06201 0.16881,0 0.285943,0.06029 0.118856,0.05857 0.198093,0.182591 0.07924,0.122301 0.07924,0.258382 v 0.897448 h 0.16192 q 0.0534,0 0.07407,0.02067 0.02239,0.01895 0.02239,0.05168 0,0.03101 -0.02239,0.05168 -0.02067,0.02067 -0.07407,0.02067 h -0.470256 q -0.0534,0 -0.07579,-0.02067 -0.02239,-0.02067 -0.02239,-0.05168 0,-0.03273 0.02239,-0.05168 0.02239,-0.02067 0.07579,-0.02067 h 0.16192 v -0.887113 q 0,-0.156752 -0.113689,-0.261827 -0.111965,-0.105076 -0.313503,-0.105076 -0.158475,0 -0.270441,0.07751 -0.08096,0.05512 -0.266995,0.260105 v 0.916396 h 0.163643 q 0.05168,0 0.07407,0.02067 0.02239,0.01895 0.02239,0.05168 0,0.03101 -0.02239,0.05168 -0.02239,0.02067 -0.07407,0.02067 h -0.471979 q -0.05168,0 -0.07407,-0.02067 -0.02239,-0.02067 -0.02239,-0.05168 0,-0.03273 0.02239,-0.05168 0.02239,-0.02067 0.07407,-0.02067 h 0.163642 v -1.870688 h -0.194648 q -0.05168,0 -0.07407,-0.02067 -0.02239,-0.02067 -0.02239,-0.0534 0,-0.03101 0.02239,-0.05168 0.02239,-0.02067 0.07407,-0.02067 z"
         id="path368" />
      <path
         d="m 42.331096,35.727468 h -1.474502 q 0.0379,0.280776 0.234267,0.453031 0.198093,0.170532 0.489204,0.170532 0.161919,0 0.339342,-0.0534 0.177422,-0.0534 0.289388,-0.141249 0.03273,-0.02584 0.05684,-0.02584 0.02756,0 0.04823,0.02239 0.02067,0.02067 0.02067,0.04995 0,0.02928 -0.02756,0.05684 -0.08268,0.08613 -0.294555,0.161919 -0.210151,0.07407 -0.43236,0.07407 -0.372071,0 -0.62184,-0.242879 -0.248047,-0.244602 -0.248047,-0.590835 0,-0.315226 0.232544,-0.54088 0.234266,-0.225654 0.578776,-0.225654 0.354845,0 0.583944,0.232544 0.229099,0.230822 0.225654,0.599447 z m -0.146417,-0.146416 q -0.04306,-0.239435 -0.227376,-0.389296 -0.18259,-0.149862 -0.435805,-0.149862 -0.253215,0 -0.435805,0.148139 -0.18259,0.148139 -0.227376,0.391019 z"
         id="path370" />
      <path
         d="m 44.081206,36.438881 v -0.208428 q -0.315227,0.265272 -0.673517,0.265272 -0.260105,0 -0.406521,-0.130914 -0.146417,-0.132636 -0.146417,-0.323839 0,-0.210151 0.192925,-0.366903 0.192926,-0.156752 0.563274,-0.156752 0.09991,0 0.217041,0.01378 0.117133,0.01206 0.253215,0.03962 V 35.33645 q 0,-0.118856 -0.110243,-0.206706 -0.110244,-0.08785 -0.33073,-0.08785 -0.16881,0 -0.473701,0.09819 -0.05512,0.01723 -0.07062,0.01723 -0.02756,0 -0.04823,-0.02067 -0.01895,-0.02067 -0.01895,-0.05168 0,-0.02928 0.01723,-0.04651 0.02411,-0.02584 0.194648,-0.07062 0.268717,-0.07235 0.406521,-0.07235 0.273886,0 0.427192,0.136082 0.153307,0.134358 0.153307,0.304891 v 0.957737 h 0.192926 q 0.0534,0 0.07579,0.02067 0.02239,0.01895 0.02239,0.05168 0,0.03101 -0.02239,0.05168 -0.02239,0.02067 -0.07579,0.02067 z m 0,-0.720026 q -0.101631,-0.02928 -0.215319,-0.04306 -0.113688,-0.01378 -0.239434,-0.01378 -0.315227,0 -0.492649,0.136082 -0.134359,0.10163 -0.134359,0.242879 0,0.130914 0.10163,0.220486 0.103353,0.08957 0.299724,0.08957 0.187758,0 0.347955,-0.07407 0.161919,-0.07579 0.332452,-0.239434 z"
         id="path372" />
      <path
         d="m 46.491051,34.277082 v 2.017105 h 0.192926 q 0.0534,0 0.07579,0.02067 0.02239,0.01895 0.02239,0.05168 0,0.03101 -0.02239,0.05168 -0.02239,0.02067 -0.07579,0.02067 h -0.339342 v -0.287666 q -0.251492,0.34451 -0.639066,0.34451 -0.19637,0 -0.377238,-0.103353 -0.179145,-0.105075 -0.284221,-0.298001 -0.103352,-0.192925 -0.103352,-0.397909 0,-0.206705 0.103352,-0.397908 0.105076,-0.192926 0.284221,-0.298001 0.180868,-0.105076 0.378961,-0.105076 0.37896,0 0.637343,0.34451 v -0.816488 h -0.192926 q -0.0534,0 -0.07579,-0.02067 -0.02239,-0.02067 -0.02239,-0.0534 0,-0.03101 0.02239,-0.05168 0.02239,-0.02067 0.07579,-0.02067 z m -0.146416,1.41938 q 0,-0.275607 -0.186035,-0.465088 -0.186036,-0.18948 -0.442696,-0.18948 -0.258382,0 -0.444417,0.18948 -0.186035,0.189481 -0.186035,0.465088 0,0.273886 0.186035,0.465089 0.186035,0.18948 0.444417,0.18948 0.25666,0 0.442696,-0.18948 0.186035,-0.191203 0.186035,-0.465089 z"
         id="path374" />
      <path
         d="m 48.682134,35.727468 h -1.474502 q 0.0379,0.280776 0.234266,0.453031 0.198094,0.170532 0.489204,0.170532 0.16192,0 0.339342,-0.0534 0.177423,-0.0534 0.289389,-0.141249 0.03273,-0.02584 0.05684,-0.02584 0.02756,0 0.04823,0.02239 0.02067,0.02067 0.02067,0.04995 0,0.02928 -0.02756,0.05684 -0.08268,0.08613 -0.294556,0.161919 -0.210151,0.07407 -0.43236,0.07407 -0.37207,0 -0.62184,-0.242879 -0.248047,-0.244602 -0.248047,-0.590835 0,-0.315226 0.232544,-0.54088 0.234267,-0.225654 0.578777,-0.225654 0.354845,0 0.583944,0.232544 0.229099,0.230822 0.225654,0.599447 z m -0.146417,-0.146416 q -0.04306,-0.239435 -0.227377,-0.389296 -0.18259,-0.149862 -0.435804,-0.149862 -0.253215,0 -0.435805,0.148139 -0.18259,0.148139 -0.227377,0.391019 z"
         id="path376" />
      <path
         d="m 49.843131,34.947154 v 0.36518 q 0.282498,-0.254937 0.422024,-0.327284 0.141249,-0.07407 0.260105,-0.07407 0.129191,0 0.239435,0.08785 0.111965,0.08613 0.111965,0.130914 0,0.03273 -0.02239,0.05512 -0.02067,0.02067 -0.0534,0.02067 -0.01723,0 -0.02928,-0.0052 -0.01206,-0.0069 -0.04479,-0.03962 -0.06029,-0.06029 -0.105076,-0.08268 -0.04479,-0.02239 -0.08785,-0.02239 -0.09474,0 -0.229099,0.07579 -0.132636,0.07579 -0.461643,0.370348 v 0.792373 h 0.640788 q 0.0534,0 0.07579,0.02067 0.02239,0.01895 0.02239,0.05168 0,0.03101 -0.02239,0.05168 -0.02239,0.02067 -0.07579,0.02067 h -1.13516 q -0.05168,0 -0.07407,-0.01895 -0.02239,-0.02067 -0.02239,-0.05168 0,-0.02928 0.02067,-0.04823 0.02239,-0.02067 0.07579,-0.02067 h 0.349678 V 35.09357 h -0.266995 q -0.05168,0 -0.07407,-0.02067 -0.02239,-0.02067 -0.02239,-0.0534 0,-0.03101 0.02067,-0.05168 0.02239,-0.02067 0.07579,-0.02067 z"
         id="path378" />
      <path
         d="m 52.611267,35.041894 q 0,-0.04995 0.02067,-0.07235 0.02067,-0.02239 0.05168,-0.02239 0.03273,0 0.0534,0.02239 0.02067,0.02239 0.02067,0.07579 v 0.248047 q 0,0.05168 -0.02067,0.07407 -0.02067,0.02239 -0.0534,0.02239 -0.02928,0 -0.04995,-0.01895 -0.01895,-0.01895 -0.02239,-0.06201 -0.01033,-0.103353 -0.106798,-0.170532 -0.141249,-0.09646 -0.373793,-0.09646 -0.242879,0 -0.377238,0.09819 -0.10163,0.07407 -0.10163,0.165365 0,0.103353 0.120578,0.172255 0.08268,0.04823 0.313504,0.07407 0.301446,0.03273 0.418579,0.07407 0.167088,0.06029 0.248047,0.167087 0.08268,0.106798 0.08268,0.230822 0,0.184312 -0.177423,0.329006 -0.177422,0.142972 -0.52021,0.142972 -0.342787,0 -0.56155,-0.173977 0,0.05857 -0.0069,0.07579 -0.0069,0.01723 -0.02584,0.02928 -0.01722,0.01206 -0.03962,0.01206 -0.03101,0 -0.05168,-0.02239 -0.02067,-0.02239 -0.02067,-0.07407 v -0.298001 q 0,-0.05168 0.01895,-0.07407 0.02067,-0.02239 0.0534,-0.02239 0.03101,0 0.05168,0.02239 0.02239,0.02067 0.02239,0.05684 0,0.07924 0.03962,0.132636 0.06029,0.08268 0.191203,0.137804 0.132636,0.0534 0.323839,0.0534 0.282498,0 0.420302,-0.105076 0.137804,-0.105075 0.137804,-0.222208 0,-0.134359 -0.139527,-0.215319 -0.141249,-0.08096 -0.411689,-0.108521 -0.268718,-0.02756 -0.385851,-0.07235 -0.117133,-0.04479 -0.18259,-0.134358 -0.06546,-0.08957 -0.06546,-0.192926 0,-0.186035 0.18259,-0.294556 0.18259,-0.110243 0.435805,-0.110243 0.299724,0 0.487481,0.146417 z"
         id="path380" />
    </g>
    <path
       style="fill:none;stroke:#000000;stroke-width:0.4;stroke-linecap:butt;stroke-linejoin:miter;stroke-miterlimit:4;stroke-dasharray:none;stroke-opacity:1;marker-end:url(#TriangleOutL)"
       d="m 25.401737,21.437635 h 4.673455"
       id="path1760"
       sodipodi:nodetypes="cc" />
    <path
       style="fill:none;stroke:#000000;stroke-width:0.4;stroke-linecap:butt;stroke-linejoin:miter;stroke-miterlimit:4;stroke-dasharray:none;stroke-opacity:1;marker-end:url(#TriangleOutL-3)"
       d="m 86.442076,21.2108 h 4.673455"
       id="path1760-3"
       sodipodi:nodetypes="cc" />
    <path
       style="fill:none;stroke:#000000;stroke-width:0.4;stroke-linecap:butt;stroke-linejoin:miter;stroke-miterlimit:4;stroke-dasharray:none;stroke-opacity:1;marker-end:url(#TriangleOutL-37)"
       d="m 118.59175,21.032153 h 4.67346"
       id="path1760-8"
       sodipodi:nodetypes="cc" />
    <path
       style="fill:none;stroke:#000000;stroke-width:0.4;stroke-linecap:butt;stroke-linejoin:miter;stroke-miterlimit:4;stroke-dasharray:none;stroke-opacity:1;marker-end:url(#TriangleOutL-1)"
       d="m 178.44526,20.674859 h 4.67345"
       id="path1760-9"
       sodipodi:nodetypes="cc" />
    <path
       style="fill:none;stroke:#000000;stroke-width:0.4;stroke-linecap:butt;stroke-linejoin:miter;stroke-miterlimit:4;stroke-dasharray:none;stroke-opacity:1;marker-end:url(#TriangleOutL-6)"
       d="m 145.93151,21.025379 h 4.67345"
       id="path1760-2"
       sodipodi:nodetypes="cc" />
    <path
       style="fill:none;stroke:#000000;stroke-width:0.4;stroke-linecap:butt;stroke-linejoin:miter;stroke-miterlimit:4;stroke-dasharray:none;stroke-opacity:1;marker-end:url(#TriangleOutL-8)"
       d="m 59.466386,21.389447 h 4.673455"
       id="path1760-95"
       sodipodi:nodetypes="cc" />
    <path
       style="fill:none;stroke:#000000;stroke-width:0.4;stroke-linecap:butt;stroke-linejoin:miter;stroke-miterlimit:4;stroke-dasharray:none;stroke-opacity:1;marker-end:url(#TriangleOutL-3-1)"
       d="M 45.432056,30.57922 V 27.870881"
       id="path1760-3-2"
       sodipodi:nodetypes="cc" />
    <path
       style="fill:none;stroke:#000000;stroke-width:0.4;stroke-linecap:butt;stroke-linejoin:miter;stroke-miterlimit:4;stroke-dasharray:none;stroke-opacity:1;marker-end:url(#TriangleOutL-3-1-1)"
       d="M 166.19739,31.204485 V 28.496146"
       id="path1760-3-2-2"
       sodipodi:nodetypes="cc" />
  </g>
</svg>
