<?xml version="1.0" encoding="UTF-8" standalone="no"?>
<!-- Created with Inkscape (http://www.inkscape.org/) -->

<svg
   width="177.74113mm"
   height="47.266388mm"
   viewBox="0 0 177.74114 47.266389"
   version="1.1"
   id="svg4170"
   inkscape:version="1.2.2 (b0a84865, 2022-12-01)"
   sodipodi:docname="elf.svg"
   xmlns:inkscape="http://www.inkscape.org/namespaces/inkscape"
   xmlns:sodipodi="http://sodipodi.sourceforge.net/DTD/sodipodi-0.dtd"
   xmlns="http://www.w3.org/2000/svg"
   xmlns:svg="http://www.w3.org/2000/svg">
  <sodipodi:namedview
     id="namedview4172"
     pagecolor="#ffffff"
     bordercolor="#000000"
     borderopacity="0.25"
     inkscape:showpageshadow="2"
     inkscape:pageopacity="0.0"
     inkscape:pagecheckerboard="0"
     inkscape:deskcolor="#d1d1d1"
     inkscape:document-units="mm"
     showgrid="false"
     inkscape:zoom="1.3262971"
     inkscape:cx="398.47785"
     inkscape:cy="174.92311"
     inkscape:window-width="1692"
     inkscape:window-height="890"
     inkscape:window-x="0"
     inkscape:window-y="38"
     inkscape:window-maximized="0"
     inkscape:current-layer="layer1"
     showguides="false" />
  <defs
     id="defs4167">
    <inkscape:path-effect
       effect="spiro"
       id="path-effect22202"
       is_visible="true"
       lpeversion="1" />
    <marker
       style="overflow:visible"
       id="marker22050"
       refX="0"
       refY="0"
       orient="auto"
       inkscape:stockid="Dot"
       markerWidth="5.6666665"
       markerHeight="5.6666665"
       viewBox="0 0 5.6666667 5.6666667"
       inkscape:isstock="true"
       inkscape:collect="always"
       preserveAspectRatio="xMidYMid">
      <path
         transform="scale(0.5)"
         style="fill:context-stroke;fill-rule:evenodd;stroke:context-stroke;stroke-width:1pt"
         d="M 5,0 C 5,2.76 2.76,5 0,5 -2.76,5 -5,2.76 -5,0 c 0,-2.76 2.3,-5 5,-5 2.76,0 5,2.24 5,5 z"
         id="path22048"
         sodipodi:nodetypes="sssss" />
    </marker>
    <marker
       style="overflow:visible"
       id="marker21968"
       refX="0"
       refY="0"
       orient="auto"
       inkscape:stockid="Dot"
       markerWidth="5.6666665"
       markerHeight="5.6666665"
       viewBox="0 0 5.6666667 5.6666667"
       inkscape:isstock="true"
       inkscape:collect="always"
       preserveAspectRatio="xMidYMid">
      <path
         transform="scale(0.5)"
         style="fill:context-stroke;fill-rule:evenodd;stroke:context-stroke;stroke-width:1pt"
         d="M 5,0 C 5,2.76 2.76,5 0,5 -2.76,5 -5,2.76 -5,0 c 0,-2.76 2.3,-5 5,-5 2.76,0 5,2.24 5,5 z"
         id="path21966"
         sodipodi:nodetypes="sssss" />
    </marker>
    <inkscape:path-effect
       effect="spiro"
       id="path-effect21842"
       is_visible="true"
       lpeversion="1" />
    <inkscape:path-effect
       effect="spiro"
       id="path-effect21830"
       is_visible="true"
       lpeversion="1" />
    <marker
       style="overflow:visible"
       id="TriangleStart"
       refX="0"
       refY="0"
       orient="auto-start-reverse"
       inkscape:stockid="TriangleStart"
       markerWidth="5.3244081"
       markerHeight="6.155385"
       viewBox="0 0 5.3244081 6.1553851"
       inkscape:isstock="true"
       inkscape:collect="always"
       preserveAspectRatio="xMidYMid">
      <path
         transform="scale(0.5)"
         style="fill:context-stroke;fill-rule:evenodd;stroke:context-stroke;stroke-width:1pt"
         d="M 5.77,0 -2.88,5 V -5 Z"
         id="path135" />
    </marker>
    <inkscape:path-effect
       effect="spiro"
       id="path-effect17874"
       is_visible="true"
       lpeversion="1" />
    <inkscape:path-effect
       effect="spiro"
       id="path-effect17870"
       is_visible="true"
       lpeversion="1" />
  </defs>
  <g
     inkscape:label="Layer 1"
     inkscape:groupmode="layer"
     id="layer1"
     transform="translate(-15.386588,-12.084491)">
    <path
       id="rect5873"
       style="opacity:0.8;fill:#ffffff;stroke:#000000;stroke-width:0.264583"
       d="M 15.51888,27.240587 H 192.99543 V 46.886824 H 15.51888 Z" />
    <path
       style="font-weight:bold;font-size:3.175px;font-family:'Roboto Mono';-inkscape-font-specification:'Roboto Mono Bold';opacity:0.8;stroke-width:0.264583"
       d="m 91.248546,37.860175 q 0,0.119372 0.08061,0.199987 0.08061,0.08062 0.218591,0.08062 0.136426,0 0.217041,-0.07906 0.08217,-0.08062 0.08217,-0.201538 0,-0.120923 -0.08061,-0.203089 -0.07906,-0.08216 -0.218592,-0.08216 -0.141076,0 -0.220141,0.08371 -0.07906,0.08217 -0.07906,0.201539 z m 3.112988,-1.652613 V 35.852545 H 92.54149 v 0.355017 h 0.68678 v 1.90221 h 0.437183 v -1.90221 z m 1.635559,0.913123 V 36.77652 h -0.927075 v -0.568958 h 1.079004 v -0.355017 h -1.516187 v 2.257227 h 1.520838 v -0.351917 h -1.083655 v -0.63717 z m 1.280542,-0.458887 -0.395325,-0.809253 h -0.508496 l 0.63407,1.119312 -0.651123,1.137915 h 0.514697 l 0.412378,-0.821656 0.413928,0.821656 h 0.508496 l -0.651123,-1.137915 0.635621,-1.119312 h -0.511597 z m 2.799825,-0.454236 v -0.355017 h -1.82004 v 0.355017 h 0.68678 v 1.90221 h 0.437183 v -1.90221 z"
       id="text8955-56"
       aria-label=".TEXT" />
    <path
       style="font-weight:bold;font-size:3.175px;font-family:'Roboto Mono';-inkscape-font-specification:'Roboto Mono Bold';opacity:0.8;stroke-width:0.264583"
       d="m 109.00544,37.679579 q 0,0.119373 0.0806,0.199988 0.0806,0.08062 0.21859,0.08062 0.13643,0 0.21704,-0.07906 0.0822,-0.08062 0.0822,-0.201538 0,-0.120923 -0.0806,-0.203088 -0.0791,-0.08217 -0.21859,-0.08217 -0.14107,0 -0.22014,0.08372 -0.0791,0.08217 -0.0791,0.201538 z m 2.22001,-0.593762 0.42478,0.843359 h 0.46664 v -0.02015 l -0.48524,-0.931727 q 0.093,-0.04186 0.16743,-0.09922 0.076,-0.05736 0.13023,-0.134876 0.0527,-0.07596 0.0806,-0.172082 0.0295,-0.09767 0.0295,-0.218592 0,-0.167431 -0.0589,-0.294555 -0.0574,-0.127124 -0.16433,-0.21239 -0.10852,-0.08527 -0.26045,-0.128675 -0.15193,-0.04496 -0.33952,-0.04496 h -0.75654 v 2.257226 h 0.43563 v -0.843359 z m -0.33021,-0.353467 v -0.706933 h 0.32091 q 0.0899,0 0.15968,0.0217 0.0698,0.0217 0.11783,0.06201 0.0543,0.04496 0.0806,0.114722 0.0279,0.06821 0.0279,0.15813 0,0.07441 -0.0217,0.134875 -0.0202,0.06046 -0.0605,0.10387 -0.0481,0.05426 -0.12557,0.08372 -0.076,0.0279 -0.17674,0.0279 z m 3.04478,0.234094 v -0.328662 q 0,-0.153479 -0.0295,-0.289904 -0.0279,-0.136426 -0.0822,-0.251148 -0.0496,-0.100769 -0.11938,-0.184485 -0.0682,-0.08372 -0.15968,-0.142627 -0.0915,-0.06201 -0.20619,-0.09457 -0.11317,-0.03411 -0.24339,-0.03411 -0.12868,0 -0.23875,0.03256 -0.11007,0.03256 -0.19843,0.09302 -0.0899,0.06201 -0.15968,0.148828 -0.0682,0.08682 -0.11628,0.193786 -0.0496,0.113172 -0.076,0.246497 -0.0248,0.133325 -0.0248,0.282153 v 0.328662 q 0,0.139527 0.0217,0.265101 0.0233,0.125573 0.0667,0.232543 0.0481,0.116272 0.11937,0.20929 0.0713,0.09147 0.16123,0.15658 0.0915,0.06201 0.20309,0.09612 0.11162,0.03411 0.2434,0.03411 0.12402,0 0.23099,-0.03101 0.10852,-0.02945 0.19844,-0.08371 0.0992,-0.06201 0.17673,-0.15503 0.0775,-0.09302 0.13023,-0.204638 0.0496,-0.111622 0.076,-0.241846 0.0264,-0.131775 0.0264,-0.277503 z m -0.44184,-0.331762 v 0.331762 q 0,0.08372 -0.009,0.161231 -0.008,0.07751 -0.0248,0.142627 -0.0217,0.08372 -0.0589,0.150378 -0.0357,0.06511 -0.0884,0.108521 -0.0419,0.03566 -0.0961,0.05426 -0.0543,0.0186 -0.11937,0.0186 -0.0682,0 -0.12247,-0.02015 -0.0527,-0.02015 -0.0946,-0.05736 -0.045,-0.04186 -0.0791,-0.108521 -0.0326,-0.06821 -0.0496,-0.150378 -0.0155,-0.06511 -0.0217,-0.141077 -0.006,-0.07596 -0.006,-0.15813 v -0.331762 q 0,-0.08682 0.006,-0.165882 0.008,-0.07906 0.0233,-0.145727 0.0202,-0.08682 0.0558,-0.151929 0.0372,-0.06511 0.0899,-0.10852 0.0388,-0.02946 0.0868,-0.04496 0.0496,-0.0155 0.11007,-0.0155 0.0636,0 0.11472,0.01705 0.0527,0.01705 0.0946,0.04806 0.0527,0.04186 0.0915,0.10852 0.0387,0.06511 0.062,0.148828 0.0186,0.06666 0.0263,0.145728 0.009,0.07751 0.009,0.164331 z m 0.76275,1.294494 h 0.60616 q 0.15038,0 0.28216,-0.03721 0.13332,-0.03721 0.24339,-0.10697 0.0946,-0.05891 0.17363,-0.145727 0.0791,-0.08837 0.13798,-0.192237 0.062,-0.116272 0.0961,-0.255798 0.0341,-0.139526 0.0341,-0.296106 v -0.186035 q 0,-0.162781 -0.0372,-0.306958 -0.0357,-0.144177 -0.10232,-0.26355 -0.0574,-0.09767 -0.13488,-0.179834 -0.076,-0.08372 -0.17363,-0.141077 -0.11162,-0.06976 -0.24805,-0.10697 -0.13642,-0.03876 -0.293,-0.03876 h -0.58446 z m 0.43873,-1.903759 h 0.14573 q 0.0791,0 0.14573,0.0186 0.0682,0.01705 0.12402,0.04961 0.0729,0.04341 0.12712,0.111622 0.0558,0.06821 0.0899,0.155029 0.0279,0.07286 0.0419,0.16123 0.0155,0.08682 0.0155,0.184485 v 0.189136 q 0,0.10387 -0.0155,0.193787 -0.0139,0.08837 -0.0419,0.16123 -0.0341,0.08372 -0.0822,0.147278 -0.0465,0.06201 -0.10542,0.102319 -0.0574,0.03876 -0.12713,0.05891 -0.0698,0.02015 -0.15038,0.02015 h -0.16743 z m 2.58589,1.43247 0.13177,0.471289 h 0.45889 l -0.72554,-2.257226 h -0.39532 l -0.73949,2.257226 h 0.45889 l 0.13332,-0.471289 z m -0.57051,-0.37052 0.2372,-0.830957 0.23099,0.830957 z m 3.02462,-1.0604 V 35.67195 h -1.82004 v 0.355017 h 0.68678 v 1.902209 h 0.43718 v -1.902209 z m 1.35651,1.43092 0.13177,0.471289 h 0.45889 l -0.72554,-2.257226 h -0.39532 l -0.73949,2.257226 h 0.45889 l 0.13332,-0.471289 z m -0.57051,-0.37052 0.2372,-0.830957 0.23099,0.830957 z"
       id="text8955-56-0"
       aria-label=".RODATA" />
    <path
       style="font-weight:bold;font-size:3.175px;font-family:'Roboto Mono';-inkscape-font-specification:'Roboto Mono Bold';opacity:0.8;stroke-width:0.264583"
       d="m 128.07899,37.695082 q 0,0.119373 0.0806,0.199988 0.0806,0.08062 0.21859,0.08062 0.13642,0 0.21704,-0.07906 0.0822,-0.08062 0.0822,-0.201538 0,-0.120923 -0.0806,-0.203088 -0.0791,-0.08217 -0.21859,-0.08217 -0.14108,0 -0.22014,0.08372 -0.0791,0.08217 -0.0791,0.201538 z m 1.44487,0.249597 h 0.60617 q 0.15038,0 0.28215,-0.03721 0.13333,-0.03721 0.2434,-0.10697 0.0946,-0.05891 0.17363,-0.145728 0.0791,-0.08837 0.13798,-0.192236 0.062,-0.116272 0.0961,-0.255798 0.0341,-0.139527 0.0341,-0.296106 v -0.186035 q 0,-0.162781 -0.0372,-0.306958 -0.0357,-0.144178 -0.10232,-0.26355 -0.0574,-0.09767 -0.13487,-0.179834 -0.076,-0.08372 -0.17363,-0.141077 -0.11163,-0.06976 -0.24805,-0.10697 -0.13643,-0.03876 -0.29301,-0.03876 h -0.58446 z m 0.43874,-1.903759 h 0.14572 q 0.0791,0 0.14573,0.0186 0.0682,0.01705 0.12402,0.04961 0.0729,0.04341 0.12713,0.111622 0.0558,0.06821 0.0899,0.155029 0.0279,0.07286 0.0418,0.16123 0.0155,0.08682 0.0155,0.184485 v 0.189136 q 0,0.103869 -0.0155,0.193786 -0.0139,0.08837 -0.0418,0.161231 -0.0341,0.08372 -0.0822,0.147278 -0.0465,0.06201 -0.10542,0.102319 -0.0574,0.03876 -0.12712,0.05891 -0.0698,0.02015 -0.15038,0.02015 h -0.16743 z m 2.58588,1.43247 0.13178,0.471289 h 0.45889 l -0.72554,-2.257226 h -0.39533 l -0.73949,2.257226 h 0.45889 l 0.13333,-0.471289 z m -0.5705,-0.37052 0.23719,-0.830957 0.231,0.830957 z m 3.02462,-1.0604 v -0.355017 h -1.82005 v 0.355017 h 0.68678 v 1.902209 h 0.43719 V 36.04247 Z m 1.3565,1.43092 0.13178,0.471289 h 0.45889 l -0.72554,-2.257226 h -0.39533 l -0.73949,2.257226 h 0.45889 l 0.13333,-0.471289 z m -0.5705,-0.37052 0.23719,-0.830957 0.231,0.830957 z"
       id="text8955-56-0-6"
       aria-label=".DATA" />
    <path
       style="opacity:0.8;fill:#ffffff;stroke:#000000;stroke-width:0.264583;stroke-opacity:1"
       d="M 45.680694,27.240587 V 47.051922"
       id="path5987"
       sodipodi:nodetypes="cc" />
    <path
       style="opacity:0.8;fill:#ffffff;stroke:#000000;stroke-width:0.264583;stroke-opacity:1"
       d="M 68.964042,27.240587 V 47.051922"
       id="path6715"
       sodipodi:nodetypes="cc" />
    <path
       style="opacity:0.8;fill:#ffffff;stroke:#000000;stroke-width:0.264583;stroke-opacity:1"
       d="M 88.014054,27.240587 V 47.051922"
       id="path6717"
       sodipodi:nodetypes="cc" />
    <path
       style="opacity:0.8;fill:#ffffff;stroke:#000000;stroke-width:0.264583;stroke-opacity:1"
       d="M 105.47659,27.240587 V 47.051922"
       id="path6719"
       sodipodi:nodetypes="cc" />
    <path
       style="opacity:0.8;fill:#ffffff;stroke:#000000;stroke-width:0.264583;stroke-opacity:1"
       d="M 125.05588,27.240587 V 47.051922"
       id="path6721"
       sodipodi:nodetypes="cc" />
    <path
       style="font-weight:bold;font-size:3.175px;font-family:'Roboto Mono';-inkscape-font-specification:'Roboto Mono Bold';opacity:0.8;stroke-width:0.264583"
       d="M 24.870471,35.992076 V 35.647911 H 23.943396 V 35.078954 H 25.0224 v -0.355018 h -1.516187 v 2.257227 h 1.520838 v -0.351916 h -1.083655 v -0.637171 z m 0.982886,0.637171 v -1.905311 h -0.437183 v 2.257227 h 1.494483 v -0.351916 z m 2.871142,-0.582911 V 35.69287 h -0.967382 v -0.613916 h 1.088305 v -0.355018 h -1.525488 v 2.257227 h 0.437183 v -0.934827 z m 3.867981,0.934827 v -2.257227 h -0.430981 v 0.925525 h -0.638721 v -0.925525 h -0.432532 v 2.257227 h 0.432532 v -0.978235 h 0.638721 v 0.978235 z m 1.804541,-0.989087 v -0.344165 h -0.927075 v -0.568957 h 1.079004 v -0.355018 h -1.516186 v 2.257227 h 1.520837 v -0.351916 h -1.083655 v -0.637171 z m 1.626257,0.517798 0.131775,0.471289 h 0.458887 l -0.725537,-2.257227 h -0.395325 l -0.73949,2.257227 h 0.458887 L 35.3458,36.509874 Z m -0.570507,-0.37052 0.237194,-0.830957 0.230994,0.830957 z m 1.356507,0.841809 h 0.606164 q 0.150378,0 0.282153,-0.03721 0.133326,-0.03721 0.243396,-0.10697 0.09457,-0.05891 0.173633,-0.145728 0.07906,-0.08837 0.137976,-0.192236 0.06201,-0.116272 0.09612,-0.255798 0.03411,-0.139527 0.03411,-0.296106 v -0.186036 q 0,-0.16278 -0.03721,-0.306958 -0.03566,-0.144177 -0.102319,-0.263549 -0.05736,-0.09767 -0.134876,-0.179834 -0.07596,-0.08372 -0.173633,-0.141077 -0.111621,-0.06976 -0.248047,-0.10697 -0.136425,-0.03876 -0.293005,-0.03876 h -0.58446 z m 0.438732,-1.90376 h 0.145728 q 0.07906,0 0.145728,0.0186 0.06821,0.01705 0.124023,0.04961 0.07286,0.04341 0.127124,0.111621 0.05581,0.06821 0.08992,0.15503 0.0279,0.07286 0.04186,0.16123 0.0155,0.08682 0.0155,0.184485 v 0.189136 q 0,0.103869 -0.0155,0.193786 -0.01395,0.08837 -0.04186,0.161231 -0.03411,0.08372 -0.08217,0.147278 -0.04651,0.06201 -0.105419,0.102319 -0.05736,0.03876 -0.127125,0.05891 -0.06976,0.02015 -0.150378,0.02015 H 37.24801 Z m 2.864941,0.914673 v -0.344165 h -0.927075 v -0.568957 h 1.079004 v -0.355018 h -1.516186 v 2.257227 h 1.520837 v -0.351916 h -1.083655 v -0.637171 z m 1.282093,0.145728 0.424781,0.843359 h 0.466638 v -0.02015 l -0.485242,-0.931726 q 0.09302,-0.04186 0.167432,-0.09922 0.07596,-0.05736 0.130224,-0.134875 0.05271,-0.07596 0.08062,-0.172083 0.02945,-0.09767 0.02945,-0.218591 0,-0.167432 -0.05891,-0.294556 -0.05736,-0.127124 -0.164331,-0.21239 -0.108521,-0.08527 -0.260449,-0.128674 -0.151929,-0.04496 -0.339514,-0.04496 H 40.6292 v 2.257227 h 0.435632 v -0.843359 z m -0.330212,-0.353467 v -0.706934 h 0.320911 q 0.08992,0 0.15968,0.0217 0.06976,0.0217 0.117822,0.06201 0.05426,0.04496 0.08061,0.114722 0.02791,0.06821 0.02791,0.15813 0,0.07441 -0.0217,0.134875 -0.02015,0.06046 -0.06046,0.10387 -0.04806,0.05426 -0.125574,0.08372 -0.07596,0.02791 -0.176733,0.02791 z"
       id="text8955"
       aria-label="ELF HEADER" />
    <path
       style="font-weight:bold;font-size:3.88056px;font-family:'Roboto Mono';-inkscape-font-specification:'Roboto Mono Bold';opacity:0.8;stroke-width:0.264583"
       d="m 39.503019,19.366161 v -2.328715 h -0.534335 v 2.758836 h 1.826592 v -0.430121 z m 1.875857,-2.328715 v 0.430121 h 0.524861 v 1.900489 h -0.524861 v 0.428226 h 1.595425 v -0.428226 h -0.538124 v -1.900489 h 0.538124 v -0.430121 z m 4.030249,2.758836 V 17.037446 H 44.87479 l -0.0019,1.771643 -0.761711,-1.771643 h -0.53623 v 2.758836 h 0.53623 V 18.01706 l 0.767396,1.779222 z m 1.332048,-1.133093 0.682129,1.133093 h 0.632865 L 47.093606,18.2577 48.022061,17.037446 h -0.651813 l -0.670761,0.92656 -0.250114,0.337275 v -1.263835 h -0.534335 v 2.758836 h 0.534335 v -0.812871 z m 1.623847,-1.625743 v 0.430121 h 0.524861 v 1.900489 H 48.36502 v 0.428226 h 1.595426 v -0.428226 h -0.538125 v -1.900489 h 0.538125 v -0.430121 z m 4.030249,2.758836 v -2.758836 h -0.534335 l -0.0019,1.771643 -0.761711,-1.771643 h -0.53623 v 2.758836 h 0.53623 V 18.01706 l 0.767396,1.779222 z m 2.406402,-0.322117 -0.0019,-1.087618 h -0.987194 v 0.397909 h 0.456648 l -0.0019,0.500229 q -0.02084,0.02463 -0.06253,0.04737 -0.03979,0.02084 -0.09284,0.0379 -0.05306,0.01705 -0.113689,0.02653 -0.06063,0.0095 -0.123162,0.0095 -0.102319,-0.0019 -0.183796,-0.03221 -0.07958,-0.03221 -0.140216,-0.09285 -0.036,-0.036 -0.06632,-0.08148 -0.02842,-0.04737 -0.05116,-0.102319 -0.036,-0.09474 -0.05684,-0.217903 -0.01895,-0.123162 -0.01895,-0.272852 v -0.37896 q 0,-0.119373 0.01326,-0.221693 0.01516,-0.102319 0.04169,-0.18569 0.03411,-0.108004 0.08527,-0.187586 0.05305,-0.07958 0.117478,-0.128847 0.04926,-0.036 0.106109,-0.05495 0.05684,-0.01895 0.117478,-0.01895 0.111793,0 0.191375,0.03032 0.08148,0.02842 0.134531,0.08716 0.04737,0.05305 0.0739,0.130741 0.02842,0.07769 0.04169,0.178112 h 0.519177 q -0.02084,-0.198955 -0.08906,-0.358118 -0.06632,-0.159164 -0.185691,-0.270957 -0.119373,-0.109899 -0.293695,-0.168638 -0.172427,-0.05874 -0.405488,-0.05874 -0.151584,0 -0.28801,0.04169 -0.136426,0.04169 -0.252009,0.123162 -0.09853,0.072 -0.181902,0.170533 -0.08148,0.09853 -0.144005,0.221692 -0.06632,0.13832 -0.102319,0.308853 -0.036,0.168637 -0.036,0.365697 v 0.375171 q 0,0.206534 0.036,0.382751 0.0379,0.176217 0.109899,0.316432 0.06253,0.126952 0.151584,0.225482 0.09095,0.09853 0.200849,0.166743 0.111794,0.06632 0.24443,0.100425 0.134531,0.036 0.286116,0.036 0.174322,0 0.325906,-0.03221 0.151584,-0.03221 0.274747,-0.08527 0.121267,-0.05116 0.210323,-0.115583 0.08906,-0.06442 0.140215,-0.126952 z m 3.404964,0.322117 h 0.541914 l 0.835609,-2.758836 h -0.587389 l -0.469912,1.800065 -0.05116,0.187585 -0.04737,-0.185691 -0.468016,-1.801959 h -0.58739 z m 1.801959,-2.758836 v 0.430121 h 0.524861 v 1.900489 h -0.524861 v 0.428226 h 1.595425 v -0.428226 h -0.538124 v -1.900489 h 0.538124 v -0.430121 z m 3.908981,1.54995 V 18.16675 h -1.133093 v -0.695393 h 1.318784 v -0.433911 h -1.853119 v 2.758836 h 1.858804 v -0.430121 h -1.324469 v -0.778765 z m 0.810978,1.208886 h 0.481281 l 0.231166,-1.489317 0.02084,-0.140215 0.02084,0.140215 0.240641,1.489317 h 0.48128 l 0.382751,-2.758836 h -0.48886 l -0.187586,1.546161 -0.01326,0.115583 -0.01705,-0.113688 -0.231166,-1.548056 h -0.380856 l -0.217902,1.536687 -0.01705,0.113688 -0.01326,-0.108004 -0.183796,-1.542371 h -0.486965 z"
       id="text8955-3"
       aria-label="LINKING VIEW" />
    <path
       style="font-weight:bold;font-size:3.88056px;font-family:'Roboto Mono';-inkscape-font-specification:'Roboto Mono Bold';opacity:0.8;stroke-width:0.264583"
       d="m 156.21543,53.94849 v -0.420647 h -1.13309 V 52.83245 h 1.31879 v -0.43391 h -1.85312 v 2.758835 h 1.8588 v -0.43012 h -1.32447 V 53.94849 Z m 1.56511,-0.560862 -0.48317,-0.989088 h -0.6215 l 0.77498,1.368049 -0.79582,1.390786 h 0.62907 l 0.50402,-1.004246 0.50592,1.004246 h 0.62149 l -0.79582,-1.390786 0.77687,-1.368049 h -0.62528 z m 3.09232,0.560862 v -0.420647 h -1.13309 V 52.83245 h 1.31879 v -0.43391 h -1.85312 v 2.758835 h 1.8588 v -0.43012 h -1.32447 V 53.94849 Z m 2.54662,0.344854 h -0.53244 q -0.008,0.125058 -0.0417,0.214113 -0.0341,0.08906 -0.0928,0.1459 -0.0587,0.05684 -0.14211,0.08337 -0.0834,0.02653 -0.18759,0.02653 -0.0777,0 -0.14211,-0.01705 -0.0625,-0.01895 -0.11368,-0.05684 -0.0474,-0.03411 -0.0853,-0.08527 -0.036,-0.05116 -0.0625,-0.117478 -0.0379,-0.09664 -0.0568,-0.225481 -0.0171,-0.130742 -0.0171,-0.29559 v -0.375171 q 0,-0.121268 0.0114,-0.225482 0.0114,-0.106109 0.036,-0.19327 0.0322,-0.111793 0.0853,-0.195165 0.055,-0.08527 0.13264,-0.130741 0.0455,-0.02653 0.0985,-0.03979 0.0549,-0.01326 0.11747,-0.01326 0.11748,0 0.20085,0.03221 0.0853,0.03032 0.14211,0.09095 0.0549,0.06253 0.0834,0.155374 0.0303,0.09285 0.0379,0.216008 h 0.53055 q -0.0189,-0.216008 -0.0909,-0.388435 -0.072,-0.172427 -0.19706,-0.2918 -0.12506,-0.119372 -0.30317,-0.183796 -0.17622,-0.06442 -0.4036,-0.06442 -0.15348,0 -0.28801,0.03979 -0.13263,0.0379 -0.24443,0.109898 -0.12505,0.08527 -0.22358,0.208429 -0.0985,0.123162 -0.15917,0.280431 -0.0531,0.128847 -0.0796,0.280431 -0.0265,0.14969 -0.0265,0.316433 v 0.371381 q 0,0.178112 0.0284,0.337275 0.0303,0.159164 0.0853,0.2918 0.0568,0.132637 0.13832,0.242535 0.0834,0.109899 0.18948,0.187586 0.11559,0.08337 0.25959,0.128847 0.1459,0.04358 0.31643,0.04358 0.21601,0 0.39412,-0.06253 0.17812,-0.06442 0.30696,-0.181902 0.12885,-0.117477 0.20464,-0.28422 0.0777,-0.166743 0.0909,-0.375172 z m 2.25103,-1.894804 h -0.52865 l -0.002,1.828486 q -0.002,0.134531 -0.0284,0.236851 -0.0265,0.102319 -0.0796,0.170532 -0.0493,0.06632 -0.12506,0.100425 -0.0739,0.03221 -0.17053,0.03221 -0.089,0 -0.15727,-0.03032 -0.0682,-0.03221 -0.11558,-0.09474 -0.0512,-0.06821 -0.0777,-0.172427 -0.0246,-0.104214 -0.0265,-0.242535 l -0.002,-1.828486 h -0.53244 l -0.002,1.828486 q 0,0.231166 0.0644,0.413068 0.0663,0.180006 0.18569,0.303168 0.11937,0.123163 0.28611,0.187586 0.16864,0.06442 0.37707,0.06442 0.22169,0 0.39412,-0.06442 0.17432,-0.06442 0.29559,-0.18948 0.11937,-0.123163 0.1819,-0.303169 0.0644,-0.180007 0.0644,-0.411173 z m 2.51819,0.43391 v -0.43391 h -2.2245 v 0.43391 h 0.8394 v 2.324925 h 0.53434 V 52.83245 Z m 0.41876,-0.43391 v 0.43012 h 0.52486 v 1.900489 h -0.52486 v 0.428226 h 1.59542 v -0.428226 h -0.53812 V 52.82866 h 0.53812 v -0.43012 z m 4.13636,1.582162 v -0.401699 q 0,-0.187586 -0.036,-0.354328 -0.0341,-0.166743 -0.10042,-0.306959 -0.0606,-0.123162 -0.1459,-0.225482 -0.0834,-0.102319 -0.19517,-0.174322 -0.11179,-0.07579 -0.252,-0.115583 -0.13832,-0.04169 -0.29749,-0.04169 -0.15727,0 -0.2918,0.03979 -0.13453,0.03979 -0.24253,0.113688 -0.1099,0.07579 -0.19517,0.181901 -0.0834,0.106109 -0.14211,0.236851 -0.0606,0.13832 -0.0928,0.301274 -0.0303,0.162953 -0.0303,0.344854 v 0.401699 q 0,0.170532 0.0265,0.324011 0.0284,0.153479 0.0815,0.284221 0.0587,0.14211 0.1459,0.255799 0.0872,0.111793 0.19706,0.191375 0.1118,0.07579 0.24822,0.117478 0.13643,0.04169 0.29749,0.04169 0.15158,0 0.28232,-0.0379 0.13264,-0.036 0.24254,-0.102319 0.12126,-0.07579 0.216,-0.189481 0.0948,-0.113688 0.15917,-0.250114 0.0606,-0.136426 0.0928,-0.295589 0.0322,-0.161059 0.0322,-0.33917 z m -0.54002,-0.405489 v 0.405489 q 0,0.102319 -0.0114,0.197059 -0.009,0.09474 -0.0303,0.174322 -0.0265,0.10232 -0.072,0.183796 -0.0436,0.07958 -0.10801,0.132637 -0.0512,0.04358 -0.11747,0.06632 -0.0663,0.02274 -0.1459,0.02274 -0.0834,0 -0.14969,-0.02463 -0.0644,-0.02463 -0.11559,-0.07011 -0.0549,-0.05116 -0.0966,-0.132636 -0.0398,-0.08337 -0.0606,-0.183796 -0.0189,-0.07958 -0.0265,-0.172427 -0.008,-0.09285 -0.008,-0.19327 v -0.405489 q 0,-0.106109 0.008,-0.202744 0.009,-0.09663 0.0284,-0.178111 0.0246,-0.106109 0.0682,-0.185691 0.0455,-0.07958 0.1099,-0.132636 0.0474,-0.036 0.10611,-0.05495 0.0606,-0.01895 0.13453,-0.01895 0.0777,0 0.14022,0.02084 0.0644,0.02084 0.11558,0.05874 0.0644,0.05116 0.11179,0.132636 0.0474,0.07958 0.0758,0.181902 0.0227,0.08148 0.0322,0.178111 0.0114,0.09474 0.0114,0.200849 z m 2.76262,1.582162 V 52.39854 h -0.53433 l -0.002,1.771642 -0.76171,-1.771642 h -0.53623 v 2.758835 h 0.53623 v -1.779221 l 0.7674,1.779221 z m 3.48265,0 h 0.54191 l 0.83561,-2.758835 h -0.58739 l -0.46991,1.800064 -0.0512,0.187586 -0.0474,-0.185691 -0.46801,-1.801959 h -0.58739 z m 1.80196,-2.758835 v 0.43012 h 0.52486 v 1.900489 h -0.52486 v 0.428226 h 1.59543 v -0.428226 h -0.53813 V 52.82866 h 0.53813 v -0.43012 z m 3.90898,1.54995 v -0.420647 h -1.13309 V 52.83245 h 1.31878 v -0.43391 h -1.85312 v 2.758835 h 1.85881 v -0.43012 h -1.32447 V 53.94849 Z m 0.81098,1.208885 h 0.48128 l 0.23117,-1.489316 0.0208,-0.140216 0.0208,0.140216 0.24064,1.489316 h 0.48128 l 0.38275,-2.758835 h -0.48886 l -0.18758,1.54616 -0.0133,0.115583 -0.0171,-0.113688 -0.23117,-1.548055 h -0.38085 l -0.2179,1.536686 -0.0171,0.113689 -0.0133,-0.108004 -0.1838,-1.542371 h -0.48696 z"
       id="text8955-3-5"
       aria-label="EXECUTION VIEW" />
    <g
       id="text8955-5"
       style="font-size:3.175px;text-align:center;text-anchor:middle;opacity:0.8;fill:#ffffff;stroke:#000000;stroke-width:0.264583"
       aria-label="SECTIONS&#10;TABLE">
      <path
         style="font-weight:bold;font-family:'Roboto Mono';-inkscape-font-specification:'Roboto Mono Bold';fill:#000000;stroke:none"
         d="m 173.95007,35.704624 q 0,0.06046 -0.0248,0.111621 -0.0248,0.04961 -0.0713,0.08527 -0.0465,0.03566 -0.11472,0.05581 -0.0667,0.02015 -0.15348,0.02015 -0.0977,0 -0.17984,-0.0217 -0.0806,-0.0217 -0.13797,-0.06821 -0.0589,-0.04651 -0.0915,-0.119373 -0.0326,-0.07286 -0.0357,-0.175183 h -0.42788 q 0,0.175183 0.0667,0.305408 0.0682,0.130224 0.18448,0.226343 0.12247,0.09767 0.28681,0.148828 0.16588,0.04961 0.33486,0.04961 0.17208,0 0.31781,-0.04031 0.14573,-0.04186 0.25115,-0.122473 0.10542,-0.07906 0.16433,-0.193786 0.0605,-0.116272 0.0605,-0.2651 0,-0.172083 -0.0791,-0.303858 -0.0791,-0.131775 -0.21239,-0.230993 -0.0884,-0.06046 -0.19378,-0.106971 -0.10542,-0.04651 -0.2217,-0.07906 -0.10852,-0.02945 -0.19533,-0.06356 -0.0853,-0.03411 -0.14573,-0.07596 -0.0605,-0.04031 -0.093,-0.09147 -0.031,-0.05116 -0.031,-0.114722 0,-0.06046 0.0232,-0.111621 0.0248,-0.05271 0.0713,-0.09147 0.0465,-0.03721 0.11318,-0.05736 0.0682,-0.0217 0.15503,-0.0217 0.0946,0 0.16433,0.02635 0.0713,0.0248 0.11937,0.06976 0.0465,0.04651 0.0698,0.110071 0.0248,0.06356 0.0279,0.139526 h 0.42478 q 0,-0.151929 -0.0589,-0.279053 -0.0589,-0.127124 -0.16433,-0.220141 -0.10542,-0.09147 -0.2527,-0.142627 -0.14573,-0.05116 -0.32246,-0.05116 -0.17054,0 -0.31626,0.04496 -0.14573,0.04341 -0.2527,0.125573 -0.10697,0.08217 -0.16743,0.198438 -0.0605,0.116272 -0.0605,0.258899 0,0.124023 0.045,0.229443 0.0465,0.10542 0.13643,0.192236 0.0899,0.08682 0.23099,0.159681 0.14263,0.07286 0.33022,0.124023 0.12092,0.03256 0.20153,0.07131 0.0822,0.03721 0.13333,0.08217 0.0496,0.04651 0.0698,0.09922 0.0217,0.05271 0.0217,0.113171 z m 2.12235,-0.399975 v -0.344165 h -0.92708 v -0.568958 h 1.07901 v -0.355017 h -1.51619 v 2.257227 h 1.52084 v -0.351917 h -1.08366 v -0.63717 z m 2.08359,0.282153 h -0.43563 q -0.006,0.102319 -0.0341,0.175183 -0.0279,0.07286 -0.076,0.119373 -0.0481,0.04651 -0.11627,0.06821 -0.0682,0.0217 -0.15348,0.0217 -0.0636,0 -0.11627,-0.01395 -0.0512,-0.0155 -0.093,-0.04651 -0.0388,-0.0279 -0.0698,-0.06976 -0.0295,-0.04186 -0.0512,-0.09612 -0.031,-0.07906 -0.0465,-0.184485 -0.014,-0.10697 -0.014,-0.241846 v -0.306958 q 0,-0.09922 0.009,-0.184485 0.009,-0.08682 0.0294,-0.15813 0.0264,-0.09147 0.0698,-0.15968 0.045,-0.06976 0.10853,-0.10697 0.0372,-0.0217 0.0806,-0.03256 0.045,-0.01085 0.0961,-0.01085 0.0961,0 0.16433,0.02636 0.0698,0.02481 0.11627,0.07441 0.045,0.05116 0.0682,0.127124 0.0248,0.07596 0.031,0.176733 h 0.43408 q -0.0155,-0.176733 -0.0744,-0.31781 -0.0589,-0.141076 -0.16123,-0.238745 -0.10232,-0.09767 -0.24805,-0.150378 -0.14418,-0.05271 -0.33021,-0.05271 -0.12558,0 -0.23565,0.03256 -0.10852,0.03101 -0.19998,0.08992 -0.10232,0.06976 -0.18294,0.170532 -0.0806,0.100769 -0.13022,0.229444 -0.0434,0.105419 -0.0651,0.229443 -0.0217,0.122473 -0.0217,0.258899 v 0.303857 q 0,0.145728 0.0232,0.275952 0.0248,0.130225 0.0698,0.238745 0.0465,0.108521 0.11317,0.198438 0.0682,0.08992 0.15503,0.153479 0.0946,0.06821 0.21239,0.10542 0.11937,0.03566 0.2589,0.03566 0.17673,0 0.32246,-0.05116 0.14573,-0.05271 0.25115,-0.148828 0.10542,-0.09612 0.16743,-0.232544 0.0636,-0.136426 0.0744,-0.306958 z m 1.99678,-1.195276 v -0.355017 h -1.82004 v 0.355017 h 0.68678 v 1.90221 h 0.43718 v -1.90221 z m 0.34261,-0.355017 v 0.351916 h 0.42944 v 1.554944 h -0.42944 v 0.350367 h 1.30535 v -0.350367 h -0.44028 v -1.554944 h 0.44028 v -0.351916 z m 3.38429,1.294495 v -0.328663 q 0,-0.153479 -0.0294,-0.289904 -0.0279,-0.136426 -0.0822,-0.251148 -0.0496,-0.100769 -0.11937,-0.184485 -0.0682,-0.08371 -0.15968,-0.142627 -0.0915,-0.06201 -0.20619,-0.09457 -0.11317,-0.03411 -0.2434,-0.03411 -0.12867,0 -0.23874,0.03256 -0.11007,0.03256 -0.19844,0.09302 -0.0899,0.06201 -0.15968,0.148828 -0.0682,0.08682 -0.11627,0.193787 -0.0496,0.113171 -0.076,0.246496 -0.0248,0.133325 -0.0248,0.282153 v 0.328663 q 0,0.139526 0.0217,0.2651 0.0232,0.125573 0.0667,0.232544 0.0481,0.116272 0.11937,0.209289 0.0713,0.09147 0.16123,0.15658 0.0915,0.06201 0.20309,0.09612 0.11162,0.03411 0.2434,0.03411 0.12402,0 0.23099,-0.03101 0.10852,-0.02946 0.19844,-0.08372 0.0992,-0.06201 0.17673,-0.15503 0.0775,-0.09302 0.13022,-0.204638 0.0496,-0.111621 0.076,-0.241846 0.0264,-0.131775 0.0264,-0.277502 z m -0.44183,-0.331763 v 0.331763 q 0,0.08371 -0.009,0.16123 -0.008,0.07751 -0.0248,0.142627 -0.0217,0.08372 -0.0589,0.150378 -0.0357,0.06511 -0.0884,0.108521 -0.0419,0.03566 -0.0961,0.05426 -0.0543,0.0186 -0.11937,0.0186 -0.0682,0 -0.12248,-0.02015 -0.0527,-0.02015 -0.0946,-0.05736 -0.045,-0.04186 -0.0791,-0.10852 -0.0326,-0.06821 -0.0496,-0.150379 -0.0155,-0.06511 -0.0217,-0.141077 -0.006,-0.07596 -0.006,-0.158129 v -0.331763 q 0,-0.08682 0.006,-0.165881 0.008,-0.07906 0.0232,-0.145728 0.0202,-0.08682 0.0558,-0.151929 0.0372,-0.06511 0.0899,-0.10852 0.0388,-0.02946 0.0868,-0.04496 0.0496,-0.0155 0.11007,-0.0155 0.0636,0 0.11473,0.01705 0.0527,0.01705 0.0946,0.04806 0.0527,0.04186 0.0915,0.10852 0.0388,0.06511 0.062,0.148828 0.0186,0.06666 0.0264,0.145728 0.009,0.07751 0.009,0.164331 z m 2.26033,1.294495 V 34.036509 H 185.261 l -0.002,1.449524 -0.62321,-1.449524 h -0.43874 v 2.257227 h 0.43874 V 34.83801 l 0.62786,1.455726 z m 1.58905,-0.589112 q 0,0.06046 -0.0248,0.111621 -0.0248,0.04961 -0.0713,0.08527 -0.0465,0.03566 -0.11472,0.05581 -0.0667,0.02015 -0.15348,0.02015 -0.0977,0 -0.17983,-0.0217 -0.0806,-0.0217 -0.13798,-0.06821 -0.0589,-0.04651 -0.0915,-0.119373 -0.0326,-0.07286 -0.0357,-0.175183 h -0.42788 q 0,0.175183 0.0667,0.305408 0.0682,0.130224 0.18448,0.226343 0.12247,0.09767 0.28681,0.148828 0.16588,0.04961 0.33486,0.04961 0.17208,0 0.31781,-0.04031 0.14573,-0.04186 0.25115,-0.122473 0.10542,-0.07906 0.16433,-0.193786 0.0605,-0.116272 0.0605,-0.2651 0,-0.172083 -0.0791,-0.303858 -0.0791,-0.131775 -0.21239,-0.230993 -0.0884,-0.06046 -0.19378,-0.106971 -0.10542,-0.04651 -0.22169,-0.07906 -0.10853,-0.02945 -0.19534,-0.06356 -0.0853,-0.03411 -0.14573,-0.07596 -0.0605,-0.04031 -0.093,-0.09147 -0.031,-0.05116 -0.031,-0.114722 0,-0.06046 0.0233,-0.111621 0.0248,-0.05271 0.0713,-0.09147 0.0465,-0.03721 0.11317,-0.05736 0.0682,-0.0217 0.15503,-0.0217 0.0946,0 0.16433,0.02635 0.0713,0.0248 0.11937,0.06976 0.0465,0.04651 0.0698,0.110071 0.0248,0.06356 0.0279,0.139526 h 0.42478 q 0,-0.151929 -0.0589,-0.279053 -0.0589,-0.127124 -0.16433,-0.220141 -0.10542,-0.09147 -0.2527,-0.142627 -0.14573,-0.05116 -0.32246,-0.05116 -0.17053,0 -0.31626,0.04496 -0.14573,0.04341 -0.2527,0.125573 -0.10697,0.08217 -0.16743,0.198438 -0.0605,0.116272 -0.0605,0.258899 0,0.124023 0.045,0.229443 0.0465,0.10542 0.13642,0.192236 0.0899,0.08682 0.23099,0.159681 0.14263,0.07286 0.33022,0.124023 0.12092,0.03256 0.20154,0.07131 0.0822,0.03721 0.13332,0.08217 0.0496,0.04651 0.0698,0.09922 0.0217,0.05271 0.0217,0.113171 z"
         id="path1" />
      <path
         style="font-weight:bold;font-family:'Roboto Mono';-inkscape-font-specification:'Roboto Mono Bold';fill:#000000;stroke:none"
         d="m 177.29482,38.3909 v -0.355017 h -1.82004 V 38.3909 h 0.68678 v 1.902209 h 0.43718 V 38.3909 Z m 1.35651,1.43092 0.13178,0.471289 h 0.45888 l -0.72553,-2.257226 h -0.39533 l -0.73949,2.257226 h 0.45889 l 0.13332,-0.471289 z m -0.57051,-0.37052 0.2372,-0.830957 0.23099,0.830957 z m 1.36271,0.841809 h 0.82321 q 0.18603,0 0.33486,-0.04186 0.14883,-0.04186 0.2527,-0.125574 0.10387,-0.08372 0.15968,-0.207739 0.0558,-0.124024 0.0558,-0.286805 0,-0.08527 -0.0233,-0.164331 -0.0217,-0.08062 -0.0682,-0.148828 -0.045,-0.06356 -0.11162,-0.111621 -0.0651,-0.04806 -0.17673,-0.07906 v -0.0015 q 0.0574,-0.0217 0.10387,-0.05271 0.0481,-0.03101 0.0853,-0.06821 0.0682,-0.06821 0.10232,-0.15813 0.0357,-0.09147 0.0372,-0.193786 0,-0.15813 -0.0589,-0.274402 -0.0574,-0.116272 -0.16433,-0.192237 -0.10697,-0.07596 -0.2589,-0.113171 -0.15038,-0.03721 -0.33487,-0.03721 h -0.75809 z m 0.43718,-0.995288 h 0.40618 q 0.0915,0.0016 0.15813,0.02481 0.0667,0.02325 0.10852,0.06666 0.0419,0.04186 0.0605,0.102319 0.0202,0.06046 0.0202,0.136426 0,0.07286 -0.0264,0.131775 -0.0248,0.05891 -0.0744,0.100769 -0.045,0.03721 -0.11318,0.05891 -0.0667,0.0217 -0.15192,0.0217 h -0.38758 z m 0,-0.314709 V 38.3909 h 0.32246 q 0.10542,0.0015 0.18294,0.02325 0.0791,0.0217 0.12557,0.06976 0.0357,0.03411 0.0527,0.08527 0.0186,0.05116 0.0186,0.119372 0,0.06511 -0.0217,0.116272 -0.0202,0.05116 -0.0589,0.08682 -0.0465,0.04496 -0.12247,0.06821 -0.076,0.0217 -0.17519,0.02325 z m 1.93787,0.958081 v -1.90531 h -0.43718 v 2.257226 h 1.49448 v -0.351916 z m 2.82773,-0.63717 v -0.344165 h -0.92707 V 38.3909 h 1.079 v -0.355017 h -1.51618 v 2.257226 h 1.52083 v -0.351916 h -1.08365 v -0.63717 z"
         id="path2" />
    </g>
    <g
       id="text8955-5-8"
       style="font-size:3.175px;text-align:center;text-anchor:middle;opacity:0.8;fill:#ffffff;stroke:#000000;stroke-width:0.264583"
       aria-label="SEGMENTS&#10;TABLE">
      <path
         style="font-weight:bold;font-family:'Roboto Mono';-inkscape-font-specification:'Roboto Mono Bold';fill:#000000;stroke:none"
         d="m 51.281141,35.206638 q 0,0.06046 -0.02481,0.111621 -0.0248,0.04961 -0.07131,0.08527 -0.04651,0.03566 -0.114722,0.05581 -0.06666,0.02015 -0.153479,0.02015 -0.09767,0 -0.179834,-0.0217 -0.08061,-0.0217 -0.137976,-0.06821 -0.05891,-0.04651 -0.09147,-0.119373 -0.03256,-0.07286 -0.03566,-0.175183 h -0.427881 q 0,0.175183 0.06666,0.305408 0.06821,0.130225 0.184485,0.226343 0.122473,0.09767 0.286804,0.148828 0.165881,0.04961 0.334863,0.04961 0.172083,0 0.31781,-0.04031 0.145728,-0.04186 0.251148,-0.122474 0.10542,-0.07906 0.164331,-0.193786 0.06046,-0.116272 0.06046,-0.2651 0,-0.172083 -0.07906,-0.303858 -0.07906,-0.131775 -0.21239,-0.230993 -0.08837,-0.06046 -0.193787,-0.106971 -0.105419,-0.04651 -0.221691,-0.07906 -0.108521,-0.02946 -0.195337,-0.06356 -0.08527,-0.03411 -0.145728,-0.07596 -0.06046,-0.04031 -0.09302,-0.09147 -0.03101,-0.05116 -0.03101,-0.114722 0,-0.06046 0.02325,-0.111621 0.02481,-0.05271 0.07131,-0.09147 0.04651,-0.03721 0.113171,-0.05736 0.06821,-0.0217 0.155029,-0.0217 0.09457,0 0.164331,0.02636 0.07131,0.02481 0.119373,0.06976 0.04651,0.04651 0.06976,0.110071 0.02481,0.06356 0.0279,0.139526 h 0.424781 q 0,-0.151928 -0.05891,-0.279053 -0.05891,-0.127124 -0.164331,-0.220141 -0.10542,-0.09147 -0.252697,-0.142627 -0.145728,-0.05116 -0.322461,-0.05116 -0.170533,0 -0.31626,0.04496 -0.145728,0.04341 -0.252698,0.125574 -0.10697,0.08217 -0.167431,0.198437 -0.06046,0.116272 -0.06046,0.258899 0,0.124023 0.04496,0.229443 0.04651,0.10542 0.136425,0.192237 0.08992,0.08682 0.230994,0.15968 0.142627,0.07286 0.330212,0.124023 0.120923,0.03256 0.201539,0.07131 0.08217,0.03721 0.133325,0.08216 0.04961,0.04651 0.06976,0.09922 0.0217,0.05271 0.0217,0.113171 z m 2.122351,-0.399975 V 34.462498 H 52.476417 V 33.89354 h 1.079004 v -0.355017 h -1.516187 v 2.257227 h 1.520838 v -0.351917 h -1.083655 v -0.63717 z m 2.068091,0.725537 -0.0016,-0.889868 H 54.66233 v 0.325561 h 0.373621 l -0.0016,0.409278 q -0.01705,0.02015 -0.05116,0.03876 -0.03256,0.01705 -0.07596,0.03101 -0.04341,0.01395 -0.09302,0.0217 -0.04961,0.0078 -0.100769,0.0078 -0.08372,-0.0015 -0.150379,-0.02635 -0.06511,-0.02636 -0.114722,-0.07596 -0.02945,-0.02946 -0.05426,-0.06666 -0.02325,-0.03876 -0.04186,-0.08371 -0.02945,-0.07751 -0.04651,-0.178284 -0.0155,-0.100769 -0.0155,-0.223242 v -0.310059 q 0,-0.09767 0.01085,-0.181384 0.0124,-0.08372 0.03411,-0.151929 0.02791,-0.08837 0.06976,-0.153479 0.04341,-0.06511 0.09612,-0.10542 0.04031,-0.02945 0.08682,-0.04496 0.04651,-0.0155 0.09612,-0.0155 0.09147,0 0.15658,0.0248 0.06666,0.02325 0.11007,0.07131 0.03876,0.04341 0.06046,0.10697 0.02325,0.06356 0.03411,0.145728 h 0.424781 q -0.01705,-0.162781 -0.07286,-0.293006 -0.05426,-0.130224 -0.151929,-0.221692 -0.09767,-0.08992 -0.240295,-0.137976 -0.141077,-0.04806 -0.331763,-0.04806 -0.124023,0 -0.235645,0.03411 -0.111621,0.03411 -0.206189,0.100769 -0.08061,0.05891 -0.148828,0.139526 -0.06666,0.08061 -0.117822,0.181384 -0.05426,0.113172 -0.08372,0.252698 -0.02946,0.137976 -0.02946,0.299207 v 0.306958 q 0,0.168982 0.02946,0.313159 0.03101,0.144177 0.08992,0.258899 0.05116,0.103869 0.124024,0.184485 0.07441,0.08061 0.164331,0.136425 0.09147,0.05426 0.199988,0.08217 0.11007,0.02946 0.234094,0.02946 0.142627,0 0.26665,-0.02636 0.124024,-0.02636 0.224793,-0.06976 0.09922,-0.04186 0.172082,-0.09457 0.07286,-0.05271 0.114722,-0.103869 z m 0.888318,-1.993677 h -0.541053 v 2.257227 h 0.399976 v -0.668177 l -0.0186,-1.013891 0.2651,0.937927 h 0.215491 l 0.296106,-0.979785 -0.0186,1.055749 v 0.668177 h 0.399975 v -2.257227 h -0.541052 l -0.243396,0.84801 z m 2.759521,1.26814 V 34.462498 H 58.192347 V 33.89354 h 1.079004 v -0.355017 h -1.516187 v 2.257227 h 1.520838 v -0.351917 h -1.083655 v -0.63717 z m 2.004529,0.989087 v -2.257227 h -0.437183 l -0.0016,1.449524 L 60.062,33.538523 H 59.623267 V 35.79575 H 60.062 v -1.455725 l 0.627869,1.455725 z m 2.075842,-1.90221 v -0.355017 h -1.820044 v 0.355017 h 0.68678 v 1.90221 h 0.437182 v -1.90221 z m 1.418519,1.313098 q 0,0.06046 -0.02481,0.111621 -0.02481,0.04961 -0.07131,0.08527 -0.04651,0.03566 -0.114721,0.05581 -0.06666,0.02015 -0.153479,0.02015 -0.09767,0 -0.179834,-0.0217 -0.08061,-0.0217 -0.137976,-0.06821 -0.05891,-0.04651 -0.09147,-0.119373 -0.03256,-0.07286 -0.03566,-0.175183 h -0.427881 q 0,0.175183 0.06666,0.305408 0.06821,0.130225 0.184485,0.226343 0.122473,0.09767 0.286804,0.148828 0.165882,0.04961 0.334864,0.04961 0.172082,0 0.31781,-0.04031 0.145727,-0.04186 0.251147,-0.122474 0.10542,-0.07906 0.164331,-0.193786 0.06046,-0.116272 0.06046,-0.2651 0,-0.172083 -0.07906,-0.303858 -0.07906,-0.131775 -0.21239,-0.230993 -0.08837,-0.06046 -0.193787,-0.106971 -0.10542,-0.04651 -0.221692,-0.07906 -0.10852,-0.02946 -0.195337,-0.06356 -0.08527,-0.03411 -0.145727,-0.07596 -0.06046,-0.04031 -0.09302,-0.09147 -0.03101,-0.05116 -0.03101,-0.114722 0,-0.06046 0.02325,-0.111621 0.0248,-0.05271 0.07131,-0.09147 0.04651,-0.03721 0.113172,-0.05736 0.06821,-0.0217 0.155029,-0.0217 0.09457,0 0.164331,0.02636 0.07131,0.02481 0.119372,0.06976 0.04651,0.04651 0.06976,0.110071 0.0248,0.06356 0.02791,0.139526 h 0.42478 q 0,-0.151928 -0.05891,-0.279053 -0.05891,-0.127124 -0.164331,-0.220141 -0.10542,-0.09147 -0.252698,-0.142627 -0.145727,-0.05116 -0.322461,-0.05116 -0.170532,0 -0.316259,0.04496 -0.145728,0.04341 -0.252698,0.125574 -0.10697,0.08217 -0.167432,0.198437 -0.06046,0.116272 -0.06046,0.258899 0,0.124023 0.04496,0.229443 0.04651,0.10542 0.136426,0.192237 0.08992,0.08682 0.230994,0.15968 0.142627,0.07286 0.330212,0.124023 0.120923,0.03256 0.201538,0.07131 0.08217,0.03721 0.133325,0.08216 0.04961,0.04651 0.06976,0.09922 0.0217,0.05271 0.0217,0.113171 z"
         id="path3" />
      <path
         style="font-weight:bold;font-family:'Roboto Mono';-inkscape-font-specification:'Roboto Mono Bold';fill:#000000;stroke:none"
         d="m 54.625898,37.892914 v -0.355017 h -1.820044 v 0.355017 h 0.68678 v 1.90221 h 0.437182 v -1.90221 z m 1.356506,1.430921 0.131775,0.471289 h 0.458887 l -0.725537,-2.257227 h -0.395325 l -0.73949,2.257227 h 0.458887 l 0.133325,-0.471289 z m -0.570507,-0.37052 0.237194,-0.830957 0.230994,0.830957 z m 1.362707,0.841809 h 0.823206 q 0.186035,0 0.334863,-0.04186 0.148828,-0.04186 0.252698,-0.125574 0.103869,-0.08372 0.15968,-0.207739 0.05581,-0.124024 0.05581,-0.286804 0,-0.08527 -0.02325,-0.164332 -0.0217,-0.08062 -0.06821,-0.148828 -0.04496,-0.06356 -0.111621,-0.111621 -0.06511,-0.04806 -0.176733,-0.07906 v -0.0016 q 0.05736,-0.0217 0.103869,-0.05271 0.04806,-0.03101 0.08527,-0.06821 0.06821,-0.06821 0.10232,-0.15813 0.03566,-0.09147 0.03721,-0.193786 0,-0.15813 -0.05891,-0.274402 -0.05736,-0.116272 -0.164331,-0.192236 -0.106971,-0.07597 -0.258899,-0.113172 -0.150379,-0.03721 -0.334864,-0.03721 h -0.758093 z m 0.437183,-0.995288 h 0.406176 q 0.09147,0.0016 0.15813,0.0248 0.06666,0.02325 0.108521,0.06666 0.04186,0.04186 0.06046,0.102319 0.02015,0.06046 0.02015,0.136426 0,0.07286 -0.02636,0.131775 -0.02481,0.05891 -0.07441,0.100769 -0.04496,0.03721 -0.113171,0.05891 -0.06666,0.0217 -0.151929,0.0217 h -0.387573 z m 0,-0.31471 v -0.592212 h 0.322461 q 0.10542,0.0016 0.182934,0.02325 0.07906,0.0217 0.125574,0.06976 0.03566,0.03411 0.05271,0.08527 0.0186,0.05116 0.0186,0.119372 0,0.06511 -0.0217,0.116272 -0.02015,0.05116 -0.05891,0.08682 -0.04651,0.04496 -0.122473,0.06821 -0.07596,0.0217 -0.175183,0.02325 z m 1.937866,0.958081 v -1.90531 H 58.71247 v 2.257227 h 1.494483 v -0.351917 z m 2.827734,-0.63717 v -0.344165 h -0.927075 v -0.568958 h 1.079004 v -0.355017 h -1.516187 v 2.257227 h 1.520838 v -0.351917 h -1.083655 v -0.63717 z"
         id="path4" />
    </g>
    <path
       style="opacity:0.8;fill:#ffffff;stroke:#000000;stroke-width:0.264583;stroke-dasharray:0.264583, 0.529166;stroke-dashoffset:0;stroke-opacity:1"
       d="M 152.22084,26.910398 V 46.721733"
       id="path10598"
       sodipodi:nodetypes="cc" />
    <path
       style="opacity:0.8;fill:#ffffff;stroke:#000000;stroke-width:0.264583;stroke-opacity:1"
       d="M 167.91865,27.240587 V 47.051922"
       id="path10600"
       sodipodi:nodetypes="cc" />
    <path
       style="opacity:0.8;fill:#ffffff;stroke:#000000;stroke-width:0.264583;stroke-opacity:1"
       d="M 141.98932,27.240587 V 47.051922"
       id="path10680"
       sodipodi:nodetypes="cc" />
    <path
       style="opacity:0.8;fill:none;fill-opacity:1;stroke:#000000;stroke-width:0.264999;stroke-dasharray:none;stroke-dashoffset:0;stroke-opacity:1;marker-end:url(#TriangleStart)"
       d="m 172.06123,26.084925 v -5.448117 h -38.6321 v 5.283023"
       id="path21729"
       sodipodi:nodetypes="cccc" />
    <path
       style="opacity:0.8;fill:none;fill-opacity:1;stroke:#000000;stroke-width:0.264999;stroke-dasharray:none;stroke-dashoffset:0;stroke-opacity:1;marker-end:url(#TriangleStart)"
       d="m 176.64917,26.084925 v -9.410384 h -64.38684 v 9.24529"
       id="path21800"
       sodipodi:nodetypes="cccc" />
    <path
       style="opacity:0.8;fill:none;fill-opacity:1;stroke:#000000;stroke-width:0.264999;stroke-dasharray:none;stroke-dashoffset:0;stroke-opacity:1;marker-end:url(#TriangleStart)"
       d="M 180.58541,26.084925 V 12.216991 H 96.387251 v 13.70284"
       id="path21804"
       sodipodi:nodetypes="cccc" />
    <path
       style="opacity:0.8;fill:none;fill-opacity:1;stroke:#000000;stroke-width:0.264999;stroke-dasharray:none;stroke-dashoffset:0;stroke-opacity:1;marker-end:url(#TriangleStart)"
       d="m 63.406364,51.128461 v 5.448117 h 42.099086 v -5.283023"
       id="path21816"
       sodipodi:nodetypes="cccc" />
    <path
       style="opacity:0.8;fill:none;fill-opacity:1;stroke:#000000;stroke-width:0.264999;stroke-dasharray:none;stroke-dashoffset:0;stroke-opacity:1;marker-end:url(#TriangleStart)"
       d="m 56.947472,51.293555 -0.165095,7.924534 76.603993,-0.165094 0.16509,-7.75944"
       id="path21822"
       sodipodi:nodetypes="cccc" />
    <path
       style="opacity:0.8;fill:none;fill-opacity:1;stroke:#000000;stroke-width:0.258515;stroke-dasharray:none;stroke-dashoffset:0;stroke-opacity:1;marker-start:url(#marker22050);marker-end:url(#marker21968)"
       d="M 88.489743,49.588055 141.81488,49.422786"
       id="path21828"
       sodipodi:nodetypes="cc" />
    <path
       id="path22274"
       style="opacity:1;stroke:#000000;stroke-width:0.264999"
       d="m 125.77029,49.586594 a 0.63578117,0.63578117 0 0 1 -0.63578,0.635781 0.63578117,0.63578117 0 0 1 -0.63578,-0.635781 0.63578117,0.63578117 0 0 1 0.63578,-0.635782 0.63578117,0.63578117 0 0 1 0.63578,0.635782 z" />
  </g>
</svg>
