<?xml version="1.0" encoding="UTF-8" standalone="no"?>
<svg
   width="208.74045mm"
   height="108.59467mm"
   viewBox="0 0 208.74045 108.59467"
   version="1.1"
   id="svg8"
   inkscape:version="1.2.2 (b0a84865, 2022-12-01)"
   sodipodi:docname="multi_driver.svg"
   xmlns:inkscape="http://www.inkscape.org/namespaces/inkscape"
   xmlns:sodipodi="http://sodipodi.sourceforge.net/DTD/sodipodi-0.dtd"
   xmlns="http://www.w3.org/2000/svg"
   xmlns:svg="http://www.w3.org/2000/svg"
   xmlns:rdf="http://www.w3.org/1999/02/22-rdf-syntax-ns#"
   xmlns:cc="http://creativecommons.org/ns#"
   xmlns:dc="http://purl.org/dc/elements/1.1/">
  <defs
     id="defs2">
    <marker
       style="overflow:visible"
       id="TriangleStart"
       refX="0"
       refY="0"
       orient="auto-start-reverse"
       inkscape:stockid="TriangleStart"
       markerWidth="8.3240004"
       markerHeight="9.6231213"
       viewBox="0 0 5.3244081 6.1553851"
       inkscape:isstock="true"
       inkscape:collect="always"
       preserveAspectRatio="xMidYMid">
      <path
         transform="scale(0.5)"
         style="fill:context-stroke;fill-rule:evenodd;stroke:context-stroke;stroke-width:1pt"
         d="M 5.77,0 -2.88,5 V -5 Z"
         id="path135" />
    </marker>
    <marker
       style="overflow:visible"
       id="TriangleStart-3"
       refX="0"
       refY="0"
       orient="auto-start-reverse"
       inkscape:stockid="TriangleStart"
       markerWidth="8.3240004"
       markerHeight="9.6231213"
       viewBox="0 0 5.3244081 6.1553851"
       inkscape:isstock="true"
       inkscape:collect="always"
       preserveAspectRatio="xMidYMid">
      <path
         transform="scale(0.5)"
         style="fill:context-stroke;fill-rule:evenodd;stroke:context-stroke;stroke-width:1pt"
         d="M 5.77,0 -2.88,5 V -5 Z"
         id="path135-5" />
    </marker>
    <marker
       style="overflow:visible"
       id="TriangleStart-3-6"
       refX="0"
       refY="0"
       orient="auto-start-reverse"
       inkscape:stockid="TriangleStart"
       markerWidth="8.3240004"
       markerHeight="9.6231213"
       viewBox="0 0 5.3244081 6.1553851"
       inkscape:isstock="true"
       inkscape:collect="always"
       preserveAspectRatio="xMidYMid">
      <path
         transform="scale(0.5)"
         style="fill:context-stroke;fill-rule:evenodd;stroke:context-stroke;stroke-width:1pt"
         d="M 5.77,0 -2.88,5 V -5 Z"
         id="path135-5-6" />
    </marker>
    <marker
       style="overflow:visible"
       id="TriangleStart-3-4"
       refX="0"
       refY="0"
       orient="auto-start-reverse"
       inkscape:stockid="TriangleStart"
       markerWidth="8.3240004"
       markerHeight="9.6231213"
       viewBox="0 0 5.3244081 6.1553851"
       inkscape:isstock="true"
       inkscape:collect="always"
       preserveAspectRatio="xMidYMid">
      <path
         transform="scale(0.5)"
         style="fill:context-stroke;fill-rule:evenodd;stroke:context-stroke;stroke-width:1pt"
         d="M 5.77,0 -2.88,5 V -5 Z"
         id="path135-5-1" />
    </marker>
    <marker
       style="overflow:visible"
       id="TriangleStart-3-1"
       refX="0"
       refY="0"
       orient="auto-start-reverse"
       inkscape:stockid="TriangleStart"
       markerWidth="8.3240004"
       markerHeight="9.6231213"
       viewBox="0 0 5.3244081 6.1553851"
       inkscape:isstock="true"
       inkscape:collect="always"
       preserveAspectRatio="xMidYMid">
      <path
         transform="scale(0.5)"
         style="fill:context-stroke;fill-rule:evenodd;stroke:context-stroke;stroke-width:1pt"
         d="M 5.77,0 -2.88,5 V -5 Z"
         id="path135-5-2" />
    </marker>
    <marker
       style="overflow:visible"
       id="TriangleStart-3-8"
       refX="0"
       refY="0"
       orient="auto-start-reverse"
       inkscape:stockid="TriangleStart"
       markerWidth="8.3240004"
       markerHeight="9.6231213"
       viewBox="0 0 5.3244081 6.1553851"
       inkscape:isstock="true"
       inkscape:collect="always"
       preserveAspectRatio="xMidYMid">
      <path
         transform="scale(0.5)"
         style="fill:context-stroke;fill-rule:evenodd;stroke:context-stroke;stroke-width:1pt"
         d="M 5.77,0 -2.88,5 V -5 Z"
         id="path135-5-3" />
    </marker>
    <marker
       style="overflow:visible"
       id="TriangleStart-3-46"
       refX="0"
       refY="0"
       orient="auto-start-reverse"
       inkscape:stockid="TriangleStart"
       markerWidth="8.3240004"
       markerHeight="9.6231213"
       viewBox="0 0 5.3244081 6.1553851"
       inkscape:isstock="true"
       inkscape:collect="always"
       preserveAspectRatio="xMidYMid">
      <path
         transform="scale(0.5)"
         style="fill:context-stroke;fill-rule:evenodd;stroke:context-stroke;stroke-width:1pt"
         d="M 5.77,0 -2.88,5 V -5 Z"
         id="path135-5-9" />
    </marker>
    <marker
       style="overflow:visible"
       id="TriangleStart-6"
       refX="0"
       refY="0"
       orient="auto-start-reverse"
       inkscape:stockid="TriangleStart"
       markerWidth="8.3240004"
       markerHeight="9.6231213"
       viewBox="0 0 5.3244081 6.1553851"
       inkscape:isstock="true"
       inkscape:collect="always"
       preserveAspectRatio="xMidYMid">
      <path
         transform="scale(0.5)"
         style="fill:context-stroke;fill-rule:evenodd;stroke:context-stroke;stroke-width:1pt"
         d="M 5.77,0 -2.88,5 V -5 Z"
         id="path135-4" />
    </marker>
  </defs>
  <sodipodi:namedview
     id="base"
     pagecolor="#ffffff"
     bordercolor="#666666"
     borderopacity="1.0"
     inkscape:pageopacity="0.0"
     inkscape:pageshadow="2"
     inkscape:zoom="1.4810403"
     inkscape:cx="370.68539"
     inkscape:cy="203.23552"
     inkscape:document-units="mm"
     inkscape:current-layer="layer1"
     inkscape:document-rotation="0"
     showgrid="false"
     inkscape:window-width="1631"
     inkscape:window-height="1008"
     inkscape:window-x="0"
     inkscape:window-y="38"
     inkscape:window-maximized="0"
     fit-margin-top="0"
     fit-margin-left="0"
     fit-margin-right="0"
     fit-margin-bottom="0"
     inkscape:showpageshadow="2"
     inkscape:pagecheckerboard="0"
     inkscape:deskcolor="#d1d1d1" />
  <metadata
     id="metadata5">
    <rdf:RDF>
      <cc:Work
         rdf:about="">
        <dc:format>image/svg+xml</dc:format>
        <dc:type
           rdf:resource="http://purl.org/dc/dcmitype/StillImage" />
        <dc:title />
      </cc:Work>
    </rdf:RDF>
  </metadata>
  <g
     inkscape:label="Layer 1"
     inkscape:groupmode="layer"
     id="layer1"
     transform="translate(0.04880307,-4.3134526)">
    <path
       id="rect835"
       style="fill:#ffffff;stroke:#000000;stroke-width:0.254"
       d="M 6.9943275,8.9770098 H 23.2512 c 1.088674,0 1.965116,0.8764419 1.965116,1.9651162 v 21.616282 c 0,1.088674 -0.876442,1.965116 -1.965116,1.965116 H 6.9943275 c -1.0886745,0 -1.9651165,-0.876442 -1.9651165,-1.965116 V 10.942126 c 0,-1.0886743 0.876442,-1.9651162 1.9651165,-1.9651162 z" />
    <g
       aria-label="hello.c"
       id="text839"
       style="font-size:4.23333px;line-height:1.25;font-family:'Roboto Mono';-inkscape-font-specification:'Roboto Mono';text-align:center;text-anchor:middle;stroke-width:0.264583">
      <path
         d="M 6.3345841,37.084447 V 35.813208 H 5.9521788 v 3.174997 h 0.3824053 v -1.624706 q 0.041341,-0.06614 0.093018,-0.119889 0.053743,-0.05581 0.1157551,-0.09715 0.078548,-0.05374 0.1715656,-0.08268 0.093018,-0.02894 0.1963703,-0.02894 0.1260904,-0.0021 0.223242,0.03514 0.097152,0.03514 0.1612303,0.107487 0.059945,0.06615 0.09095,0.167432 0.031006,0.09922 0.031006,0.23151 v 1.411799 H 7.8001265 V 37.58054 q 0,-0.225309 -0.05581,-0.388606 Q 7.6905725,37.026569 7.5892868,36.919082 7.4880011,36.811595 7.3433072,36.761986 7.2006804,36.71031 7.0249807,36.71031 q -0.1343587,0.0021 -0.2542479,0.03927 -0.1178221,0.03721 -0.2170408,0.109554 -0.062012,0.04341 -0.1178222,0.101285 -0.05581,0.05581 -0.1012857,0.124024 z"
         id="path238" />
      <path
         d="m 9.4806426,39.029546 q 0.3265948,0 0.5477694,-0.130224 0.223242,-0.132292 0.334863,-0.301791 l -0.233577,-0.1819 q -0.10542,0.136425 -0.2645831,0.219107 -0.1591632,0.08268 -0.3638017,0.08268 -0.1550292,0 -0.2831866,-0.05788 -0.1281575,-0.05788 -0.2191079,-0.159163 -0.088883,-0.09508 -0.1405598,-0.219108 -0.049609,-0.124023 -0.064079,-0.287321 v -0.01447 h 1.5978338 v -0.171566 q 0,-0.233577 -0.05994,-0.434081 -0.05788,-0.200505 -0.177766,-0.349333 -0.11989,-0.146761 -0.3017904,-0.229443 -0.1798338,-0.08475 -0.4216793,-0.08475 -0.1922362,0 -0.3762041,0.07855 -0.1819009,0.07855 -0.3245278,0.225309 -0.1446938,0.148828 -0.2315102,0.363802 -0.086816,0.212906 -0.086816,0.483691 v 0.08682 q 0,0.233577 0.078548,0.432015 0.078548,0.198437 0.2191079,0.343131 0.1405598,0.144694 0.33693,0.225309 0.1984374,0.08062 0.4340817,0.08062 z m -0.049609,-2.005044 q 0.1467609,0 0.2521808,0.05374 0.1074868,0.05374 0.1777667,0.140559 0.07028,0.08682 0.109554,0.206706 0.039274,0.117822 0.039274,0.221175 v 0.0186 H 8.8067825 q 0.022738,-0.155029 0.078548,-0.272851 0.057878,-0.119889 0.1405598,-0.202571 0.082682,-0.08062 0.186035,-0.121957 0.1033528,-0.04341 0.2191079,-0.04341 z"
         id="path240" />
      <path
         d="m 11.092946,35.813208 v 0.332796 h 0.760676 v 2.511472 h -0.760676 v 0.330729 h 1.872752 v -0.330729 h -0.72967 v -2.844268 z"
         id="path242" />
      <path
         d="m 13.633357,35.813208 v 0.332796 h 0.760677 v 2.511472 h -0.760677 v 0.330729 h 1.872753 v -0.330729 h -0.729671 v -2.844268 z"
         id="path244" />
      <path
         d="m 16.006337,37.849257 v 0.04548 q 0,0.241845 0.07028,0.448551 0.07028,0.206705 0.202571,0.359667 0.130225,0.152962 0.318327,0.239779 0.190169,0.08682 0.42788,0.08682 0.235645,0 0.423747,-0.08682 0.188102,-0.08682 0.320393,-0.239779 0.130225,-0.152962 0.200505,-0.359667 0.07028,-0.206706 0.07028,-0.448551 v -0.04548 q 0,-0.241845 -0.07028,-0.448551 -0.07028,-0.208772 -0.200505,-0.361734 -0.132291,-0.152963 -0.32246,-0.239779 -0.188102,-0.08888 -0.425814,-0.08888 -0.235644,0 -0.423746,0.08888 -0.188102,0.08682 -0.318327,0.239779 -0.132291,0.152962 -0.202571,0.361734 -0.07028,0.206706 -0.07028,0.448551 z m 0.382405,0.04548 v -0.04548 q 0,-0.163297 0.03927,-0.312125 0.03927,-0.150895 0.119889,-0.264583 0.07855,-0.113688 0.196371,-0.179834 0.117822,-0.06821 0.276985,-0.06821 0.159163,0 0.276986,0.06821 0.119889,0.06615 0.200504,0.179834 0.07855,0.113688 0.117822,0.264583 0.04134,0.148828 0.04134,0.312125 v 0.04548 q 0,0.165364 -0.03927,0.316259 -0.03927,0.148828 -0.117822,0.262516 -0.08061,0.113688 -0.200504,0.179834 -0.117823,0.06615 -0.274919,0.06615 -0.159163,0 -0.279052,-0.06615 -0.119889,-0.06615 -0.198438,-0.179834 -0.08062,-0.113688 -0.119889,-0.262516 -0.03927,-0.150895 -0.03927,-0.316259 z"
         id="path246" />
      <path
         d="m 19.319827,38.740158 q 0,0.11989 0.07441,0.204639 0.07648,0.08268 0.225309,0.08268 0.146761,0 0.225309,-0.08268 0.07855,-0.08268 0.07855,-0.204639 0,-0.124023 -0.07855,-0.208772 -0.07648,-0.08682 -0.225309,-0.08682 -0.150895,0 -0.225309,0.08682 -0.07441,0.08682 -0.07441,0.208772 z"
         id="path248" />
      <path
         d="m 22.147559,38.719488 q -0.179834,0 -0.30179,-0.07028 -0.119889,-0.07235 -0.192236,-0.188102 -0.07441,-0.113688 -0.107487,-0.256315 -0.03101,-0.144694 -0.03101,-0.291455 v -0.08682 q 0,-0.144694 0.03101,-0.287321 0.03307,-0.142627 0.107487,-0.258382 0.07441,-0.113688 0.194303,-0.183968 0.121957,-0.07235 0.299723,-0.07235 0.115755,0 0.214974,0.03927 0.101286,0.03927 0.173633,0.107487 0.07235,0.06821 0.113688,0.159163 0.04341,0.08888 0.04547,0.19017 h 0.361735 q 0,-0.169499 -0.06821,-0.318327 -0.06821,-0.148828 -0.188102,-0.258382 -0.121956,-0.107487 -0.289388,-0.169499 -0.165364,-0.06408 -0.363802,-0.06408 -0.254248,0 -0.444417,0.09095 -0.190169,0.09095 -0.316259,0.243913 -0.128158,0.155029 -0.192236,0.3576 -0.06408,0.202572 -0.06408,0.423747 v 0.08682 q 0,0.223242 0.06408,0.425814 0.06408,0.200504 0.192236,0.353466 0.12609,0.155029 0.316259,0.24598 0.190169,0.09095 0.444417,0.09095 0.177767,0 0.341064,-0.05995 0.163298,-0.06201 0.289388,-0.165364 0.126091,-0.101286 0.200505,-0.235644 0.07648,-0.136426 0.07855,-0.285254 h -0.361735 q -0.0021,0.09302 -0.04961,0.173633 -0.04548,0.07855 -0.121957,0.136425 -0.07648,0.05994 -0.175699,0.09302 -0.09715,0.03307 -0.200505,0.03307 z"
         id="path250" />
    </g>
    <path
       id="rect835-7"
       style="fill:#ffffff;stroke:#000000;stroke-width:0.254"
       d="m 68.392012,8.9770098 h 16.256872 c 1.088674,0 1.965116,0.8764419 1.965116,1.9651162 v 21.616282 c 0,1.088674 -0.876442,1.965116 -1.965116,1.965116 H 68.392012 c -1.088675,0 -1.965117,-0.876442 -1.965117,-1.965116 V 10.942126 c 0,-1.0886743 0.876442,-1.9651162 1.965117,-1.9651162 z" />
    <path
       id="rect835-7-8-0"
       style="fill:#ffffff;stroke:#000000;stroke-width:0.254"
       d="m 186.95404,44.708313 h 16.25687 c 1.08868,0 1.96512,0.876442 1.96512,1.965116 v 21.616282 c 0,1.088675 -0.87644,1.965116 -1.96512,1.965116 h -16.25687 c -1.08868,0 -1.96512,-0.876441 -1.96512,-1.965116 V 46.673429 c 0,-1.088674 0.87644,-1.965116 1.96512,-1.965116 z" />
    <path
       id="rect963"
       style="fill:#ffffff;stroke:#000000;stroke-width:0.254"
       d="m 34.989324,17.284094 h 20.723047 c 1.088674,0 1.965115,0.876442 1.965115,1.965116 v 5.002116 c 0,1.088674 -0.876441,1.965116 -1.965115,1.965116 H 34.989324 c -1.088674,0 -1.965116,-0.876442 -1.965116,-1.965116 V 19.24921 c 0,-1.088674 0.876442,-1.965116 1.965116,-1.965116 z" />
    <path
       id="rect963-8"
       style="fill:#ffffff;stroke:#000000;stroke-width:0.254"
       d="m 125.05786,53.015396 h 20.72305 c 1.08867,0 1.96511,0.876442 1.96511,1.965116 v 5.002116 c 0,1.088675 -0.87644,1.965116 -1.96511,1.965116 h -20.72305 c -1.08868,0 -1.96512,-0.876441 -1.96512,-1.965116 v -5.002116 c 0,-1.088674 0.87644,-1.965116 1.96512,-1.965116 z" />
    <g
       aria-label="a.out"
       id="text839-2"
       style="font-size:4.23333px;line-height:1.25;font-family:'Roboto Mono';-inkscape-font-specification:'Roboto Mono';text-align:center;text-anchor:middle;stroke-width:0.264583">
      <path
         d="m 190.51144,77.815269 h 0.39894 v -0.03307 q -0.0372,-0.09302 -0.0579,-0.217041 -0.0207,-0.126091 -0.0207,-0.237712 v -1.039729 q 0,-0.188102 -0.0682,-0.328661 -0.0682,-0.14056 -0.18603,-0.235645 -0.11989,-0.09302 -0.28319,-0.138492 -0.1633,-0.04754 -0.35346,-0.04754 -0.20878,0 -0.37414,0.05788 -0.1633,0.05788 -0.27699,0.150895 -0.11575,0.09508 -0.17776,0.212907 -0.06,0.117822 -0.062,0.239778 h 0.38448 q 0,-0.07028 0.0331,-0.134359 0.0351,-0.06615 0.0971,-0.113688 0.062,-0.04754 0.1509,-0.07648 0.0909,-0.02894 0.20463,-0.02894 0.12196,0 0.21911,0.03101 0.0992,0.03101 0.16743,0.08682 0.0682,0.05788 0.10542,0.138492 0.0372,0.08062 0.0372,0.181901 v 0.1757 h -0.41754 q -0.23358,0 -0.42375,0.04547 -0.1881,0.04547 -0.32246,0.136426 -0.13436,0.09302 -0.20877,0.23151 -0.0724,0.138493 -0.0724,0.322461 0,0.14056 0.0537,0.262516 0.0558,0.119889 0.1571,0.206705 0.0992,0.08888 0.24184,0.14056 0.1447,0.05168 0.32247,0.05168 0.10955,0 0.2067,-0.02274 0.0971,-0.02274 0.18397,-0.06201 0.0848,-0.03927 0.15503,-0.09095 0.0723,-0.05168 0.13022,-0.109554 0.006,0.07028 0.0186,0.136426 0.0145,0.06408 0.0372,0.107486 z m -0.67592,-0.291454 q -0.11163,0 -0.19637,-0.02894 -0.0848,-0.02894 -0.14056,-0.08062 -0.0558,-0.04961 -0.0848,-0.11989 -0.0269,-0.07028 -0.0269,-0.152962 0,-0.08682 0.031,-0.155029 0.0331,-0.06821 0.0951,-0.117822 0.0868,-0.07028 0.23358,-0.103353 0.14883,-0.03514 0.34727,-0.03514 h 0.35553 v 0.452685 q -0.0331,0.06615 -0.091,0.128158 -0.0579,0.05994 -0.13642,0.107487 -0.0806,0.04754 -0.17777,0.07648 -0.0971,0.02894 -0.20877,0.02894 z"
         id="path257" />
      <path
         d="m 192.24777,77.567223 q 0,0.119889 0.0744,0.204638 0.0765,0.08268 0.22531,0.08268 0.14676,0 0.22531,-0.08268 0.0786,-0.08268 0.0786,-0.204638 0,-0.124024 -0.0786,-0.208773 -0.0765,-0.08682 -0.22531,-0.08682 -0.15089,0 -0.22531,0.08682 -0.0744,0.08682 -0.0744,0.208773 z"
         id="path259" />
      <path
         d="m 194.0151,76.676322 v 0.04547 q 0,0.241846 0.0703,0.448551 0.0703,0.206706 0.20257,0.359668 0.13023,0.152962 0.31833,0.239778 0.19017,0.08682 0.42788,0.08682 0.23564,0 0.42375,-0.08682 0.1881,-0.08682 0.32039,-0.239778 0.13022,-0.152962 0.2005,-0.359668 0.0703,-0.206705 0.0703,-0.448551 v -0.04547 q 0,-0.241846 -0.0703,-0.448551 -0.0703,-0.208773 -0.2005,-0.361735 -0.13229,-0.152962 -0.32246,-0.239778 -0.1881,-0.08888 -0.42581,-0.08888 -0.23565,0 -0.42375,0.08888 -0.1881,0.08682 -0.31833,0.239778 -0.13229,0.152962 -0.20257,0.361735 -0.0703,0.206705 -0.0703,0.448551 z m 0.38241,0.04547 v -0.04547 q 0,-0.163298 0.0393,-0.312126 0.0393,-0.150895 0.11989,-0.264583 0.0786,-0.113688 0.19637,-0.179833 0.11782,-0.06821 0.27699,-0.06821 0.15916,0 0.27698,0.06821 0.11989,0.06614 0.20051,0.179833 0.0785,0.113688 0.11782,0.264583 0.0413,0.148828 0.0413,0.312126 v 0.04547 q 0,0.165365 -0.0393,0.31626 -0.0393,0.148828 -0.11783,0.262516 -0.0806,0.113688 -0.2005,0.179833 -0.11782,0.06615 -0.27492,0.06615 -0.15916,0 -0.27905,-0.06615 -0.11989,-0.06615 -0.19844,-0.179833 -0.0806,-0.113688 -0.11989,-0.262516 -0.0393,-0.150895 -0.0393,-0.31626 z"
         id="path261" />
      <path
         d="m 198.13681,77.815269 h 0.34727 v -2.236554 h -0.38448 v 1.604035 q -0.031,0.07235 -0.0785,0.134359 -0.0455,0.05994 -0.10749,0.103353 -0.0744,0.05374 -0.1757,0.08475 -0.10129,0.02894 -0.22944,0.02894 -0.10956,0 -0.19431,-0.02894 -0.0827,-0.02894 -0.14056,-0.101286 -0.0579,-0.07028 -0.0868,-0.190169 -0.0289,-0.119889 -0.0289,-0.30179 v -1.333251 h -0.38241 v 1.329117 q 0,0.250114 0.0538,0.429948 0.0558,0.177766 0.15709,0.293522 0.10129,0.115755 0.24391,0.171565 0.14263,0.05374 0.31833,0.05374 0.21911,0 0.38654,-0.09095 0.16743,-0.09302 0.27905,-0.258382 z"
         id="path263" />
      <path
         d="m 200.10878,75.037147 h -0.38447 v 0.541568 h -0.58704 v 0.295589 h 0.58704 v 1.215429 q 0,0.206706 0.0537,0.353466 0.0558,0.144694 0.1509,0.235645 0.0951,0.09302 0.22324,0.136425 0.13022,0.04134 0.27905,0.04134 0.0889,0 0.17777,-0.0083 0.0909,-0.0083 0.17156,-0.0248 0.0806,-0.01447 0.14883,-0.03514 0.0682,-0.02274 0.11576,-0.05168 l -0.0538,-0.270784 q -0.0351,0.0083 -0.0909,0.02067 -0.0537,0.01033 -0.11575,0.02067 -0.0641,0.01033 -0.13023,0.0186 -0.0661,0.0062 -0.12815,0.0062 -0.0848,0 -0.16123,-0.02067 -0.0744,-0.02067 -0.1323,-0.07235 -0.0579,-0.04961 -0.0909,-0.134358 -0.0331,-0.08475 -0.0331,-0.214974 v -1.215429 h 0.85163 v -0.295589 h -0.85163 z"
         id="path265" />
    </g>
    <g
       aria-label="hello.o"
       id="text839-3"
       style="font-size:4.23333px;line-height:1.25;font-family:'Roboto Mono';-inkscape-font-specification:'Roboto Mono';text-align:center;text-anchor:middle;stroke-width:0.264583">
      <path
         d="m 69.064821,37.40424 v -1.271239 h -0.382405 v 3.174998 h 0.382405 v -1.624706 q 0.04134,-0.06615 0.09302,-0.119889 0.05374,-0.05581 0.115755,-0.09715 0.07855,-0.05374 0.171565,-0.08268 0.09302,-0.02894 0.196371,-0.02894 0.12609,-0.0021 0.223242,0.03514 0.09715,0.03514 0.16123,0.107487 0.05994,0.06615 0.09095,0.167431 0.03101,0.09922 0.03101,0.231511 v 1.411799 h 0.382405 v -1.407665 q 0,-0.225309 -0.05581,-0.388607 -0.05374,-0.165364 -0.155029,-0.272851 -0.101286,-0.107487 -0.24598,-0.157096 -0.142627,-0.05168 -0.318326,-0.05168 -0.134359,0.0021 -0.254248,0.03927 -0.117822,0.03721 -0.217041,0.109554 -0.06201,0.04341 -0.117822,0.101286 -0.05581,0.05581 -0.101286,0.124023 z"
         id="path268" />
      <path
         d="m 72.21088,39.34934 q 0.326594,0 0.547769,-0.130225 0.223242,-0.132291 0.334863,-0.30179 l -0.233577,-0.181901 q -0.10542,0.136426 -0.264583,0.219108 -0.159163,0.08268 -0.363802,0.08268 -0.155029,0 -0.283186,-0.05788 -0.128158,-0.05788 -0.219108,-0.159163 -0.08888,-0.09509 -0.14056,-0.219108 -0.04961,-0.124024 -0.06408,-0.287321 v -0.01447 h 1.597834 V 38.12771 q 0,-0.233577 -0.05994,-0.434082 -0.05788,-0.200504 -0.177767,-0.349332 -0.119889,-0.146761 -0.30179,-0.229443 -0.179834,-0.08475 -0.42168,-0.08475 -0.192236,0 -0.376204,0.07855 -0.181901,0.07855 -0.324528,0.225309 -0.144693,0.148828 -0.23151,0.363801 -0.08682,0.212907 -0.08682,0.483691 v 0.08682 q 0,0.233577 0.07855,0.432014 0.07855,0.198438 0.219108,0.343132 0.14056,0.144693 0.33693,0.225309 0.198437,0.08061 0.434082,0.08061 z m -0.04961,-2.005044 q 0.146761,0 0.252181,0.05374 0.107487,0.05374 0.177767,0.14056 0.07028,0.08682 0.109554,0.206706 0.03927,0.117822 0.03927,0.221175 v 0.0186 H 71.53702 q 0.02274,-0.155029 0.07855,-0.272851 0.05788,-0.119889 0.140559,-0.202572 0.08268,-0.08061 0.186035,-0.121956 0.103353,-0.04341 0.219108,-0.04341 z"
         id="path270" />
      <path
         d="m 73.823183,36.133001 v 0.332796 h 0.760676 v 2.511473 h -0.760676 v 0.330729 h 1.872752 V 38.97727 h -0.72967 v -2.844269 z"
         id="path272" />
      <path
         d="m 76.363594,36.133001 v 0.332796 h 0.760677 v 2.511473 h -0.760677 v 0.330729 h 1.872753 V 38.97727 h -0.729671 v -2.844269 z"
         id="path274" />
      <path
         d="m 78.736574,38.169051 v 0.04547 q 0,0.241846 0.07028,0.448551 0.07028,0.206706 0.202571,0.359668 0.130225,0.152962 0.318327,0.239778 0.190169,0.08682 0.42788,0.08682 0.235645,0 0.423747,-0.08682 0.188102,-0.08682 0.320393,-0.239778 0.130225,-0.152962 0.200505,-0.359668 0.07028,-0.206705 0.07028,-0.448551 v -0.04547 q 0,-0.241845 -0.07028,-0.448551 -0.07028,-0.208773 -0.200505,-0.361735 -0.132291,-0.152962 -0.32246,-0.239778 -0.188102,-0.08888 -0.425814,-0.08888 -0.235644,0 -0.423746,0.08888 -0.188102,0.08682 -0.318327,0.239778 -0.132291,0.152962 -0.202571,0.361735 -0.07028,0.206706 -0.07028,0.448551 z m 0.382405,0.04547 v -0.04547 q 0,-0.163297 0.03927,-0.312125 0.03927,-0.150895 0.119889,-0.264583 0.07855,-0.113689 0.196371,-0.179834 0.117822,-0.06821 0.276985,-0.06821 0.159163,0 0.276986,0.06821 0.119889,0.06614 0.200504,0.179834 0.07855,0.113688 0.117822,0.264583 0.04134,0.148828 0.04134,0.312125 v 0.04547 q 0,0.165365 -0.03927,0.31626 -0.03927,0.148828 -0.117822,0.262516 -0.08061,0.113688 -0.200504,0.179834 -0.117823,0.06615 -0.274919,0.06615 -0.159163,0 -0.279052,-0.06615 -0.119889,-0.06615 -0.198438,-0.179834 -0.08062,-0.113688 -0.119889,-0.262516 -0.03927,-0.150895 -0.03927,-0.31626 z"
         id="path276" />
      <path
         d="m 82.050064,39.059952 q 0,0.119889 0.07441,0.204638 0.07648,0.08268 0.225309,0.08268 0.146761,0 0.225309,-0.08268 0.07855,-0.08268 0.07855,-0.204638 0,-0.124023 -0.07855,-0.208773 -0.07648,-0.08682 -0.225309,-0.08682 -0.150895,0 -0.225309,0.08682 -0.07441,0.08682 -0.07441,0.208773 z"
         id="path278" />
      <path
         d="m 83.817397,38.169051 v 0.04547 q 0,0.241846 0.07028,0.448551 0.07028,0.206706 0.202571,0.359668 0.130225,0.152962 0.318327,0.239778 0.190169,0.08682 0.42788,0.08682 0.235645,0 0.423747,-0.08682 0.188102,-0.08682 0.320393,-0.239778 0.130225,-0.152962 0.200505,-0.359668 0.07028,-0.206705 0.07028,-0.448551 v -0.04547 q 0,-0.241845 -0.07028,-0.448551 -0.07028,-0.208773 -0.200505,-0.361735 -0.132291,-0.152962 -0.32246,-0.239778 -0.188103,-0.08888 -0.425814,-0.08888 -0.235644,0 -0.423746,0.08888 -0.188102,0.08682 -0.318327,0.239778 -0.132291,0.152962 -0.202571,0.361735 -0.07028,0.206706 -0.07028,0.448551 z m 0.382405,0.04547 v -0.04547 q 0,-0.163297 0.03927,-0.312125 0.03927,-0.150895 0.119889,-0.264583 0.07855,-0.113689 0.196371,-0.179834 0.117822,-0.06821 0.276985,-0.06821 0.159163,0 0.276986,0.06821 0.119889,0.06614 0.200504,0.179834 0.07855,0.113688 0.117822,0.264583 0.04134,0.148828 0.04134,0.312125 v 0.04547 q 0,0.165365 -0.03927,0.31626 -0.03927,0.148828 -0.117822,0.262516 -0.08061,0.113688 -0.200504,0.179834 -0.117823,0.06615 -0.274919,0.06615 -0.159163,0 -0.279052,-0.06615 -0.11989,-0.06615 -0.198438,-0.179834 -0.08061,-0.113688 -0.119889,-0.262516 -0.03927,-0.150895 -0.03927,-0.31626 z"
         id="path280" />
    </g>
    <path
       id="rect835-8"
       style="fill:#ffffff;stroke:#000000;stroke-width:0.254"
       d="M 6.7834272,44.708313 H 23.040299 c 1.088675,0 1.965117,0.876442 1.965117,1.965116 v 21.616282 c 0,1.088675 -0.876442,1.965116 -1.965117,1.965116 H 6.7834272 c -1.0886745,0 -1.9651165,-0.876441 -1.9651165,-1.965116 V 46.673429 c 0,-1.088674 0.876442,-1.965116 1.9651165,-1.965116 z" />
    <g
       aria-label="foo.cpp"
       id="text839-4"
       style="font-size:4.23333px;line-height:1.25;font-family:'Roboto Mono';-inkscape-font-specification:'Roboto Mono';text-align:center;text-anchor:middle;stroke-width:0.264583">
      <path
         d="M 6.3117811,75.07917 H 6.6962534 V 73.138205 H 7.5582156 V 72.842616 H 6.6962534 V 72.68552 q 0,-0.14056 0.03514,-0.24598 0.037207,-0.10542 0.1074868,-0.171565 0.066146,-0.06408 0.1653645,-0.09509 0.1012857,-0.03307 0.2315102,-0.03307 0.1281575,0 0.2397785,0.02274 0.113688,0.02067 0.1984373,0.04961 l 0.045475,-0.316259 q -0.053743,-0.01447 -0.1054198,-0.02481 -0.051676,-0.0124 -0.1033528,-0.02274 -0.078548,-0.01447 -0.1591633,-0.02274 -0.080615,-0.01033 -0.1632974,-0.01033 -0.1984373,0 -0.3596676,0.05581 -0.1612304,0.05581 -0.2749184,0.165364 -0.1157551,0.109554 -0.1798339,0.272852 -0.062012,0.16123 -0.062012,0.376204 v 0.157096 H 5.6957985 v 0.295589 h 0.6159826 z"
         id="path284" />
      <path
         d="m 8.1741981,73.940223 v 0.04547 q 0,0.241845 0.07028,0.448551 0.07028,0.206705 0.2025714,0.359668 0.1302245,0.152962 0.3183266,0.239778 0.1901691,0.08682 0.4278805,0.08682 0.2356443,0 0.4237464,-0.08682 0.188102,-0.08682 0.3203936,-0.239778 0.1302245,-0.152963 0.2005045,-0.359668 0.07028,-0.206706 0.07028,-0.448551 v -0.04547 q 0,-0.241846 -0.07028,-0.448551 -0.07028,-0.208773 -0.2005045,-0.361735 -0.1322916,-0.152962 -0.3224607,-0.239779 -0.188102,-0.08888 -0.4258134,-0.08888 -0.2356444,0 -0.4237464,0.08888 -0.1881021,0.08682 -0.3183266,0.239779 -0.1322915,0.152962 -0.2025714,0.361735 -0.07028,0.206705 -0.07028,0.448551 z m 0.3824053,0.04547 v -0.04547 q 0,-0.163298 0.039274,-0.312126 0.039274,-0.150895 0.1198892,-0.264583 0.078548,-0.113688 0.1963703,-0.179834 0.1178222,-0.06821 0.2769855,-0.06821 0.1591632,0 0.2769854,0.06821 0.1198892,0.06615 0.2005044,0.179834 0.078548,0.113688 0.1178222,0.264583 0.041341,0.148828 0.041341,0.312126 v 0.04547 q 0,0.165364 -0.039274,0.316259 -0.039274,0.148828 -0.1178221,0.262516 -0.080615,0.113688 -0.2005044,0.179834 -0.1178222,0.06615 -0.2749184,0.06615 -0.1591633,0 -0.2790525,-0.06615 -0.1198892,-0.06615 -0.1984374,-0.179834 -0.080615,-0.113688 -0.1198892,-0.262516 -0.039274,-0.150895 -0.039274,-0.316259 z"
         id="path286" />
      <path
         d="m 10.714609,73.940223 v 0.04547 q 0,0.241845 0.07028,0.448551 0.07028,0.206705 0.202572,0.359668 0.130224,0.152962 0.318326,0.239778 0.190169,0.08682 0.427881,0.08682 0.235644,0 0.423746,-0.08682 0.188102,-0.08682 0.320394,-0.239778 0.130224,-0.152963 0.200504,-0.359668 0.07028,-0.206706 0.07028,-0.448551 v -0.04547 q 0,-0.241846 -0.07028,-0.448551 -0.07028,-0.208773 -0.200504,-0.361735 -0.132292,-0.152962 -0.322461,-0.239779 -0.188102,-0.08888 -0.425813,-0.08888 -0.235645,0 -0.423747,0.08888 -0.188102,0.08682 -0.318326,0.239779 -0.132292,0.152962 -0.202572,0.361735 -0.07028,0.206705 -0.07028,0.448551 z m 0.382406,0.04547 v -0.04547 q 0,-0.163298 0.03927,-0.312126 0.03927,-0.150895 0.119889,-0.264583 0.07855,-0.113688 0.19637,-0.179834 0.117822,-0.06821 0.276986,-0.06821 0.159163,0 0.276985,0.06821 0.119889,0.06615 0.200504,0.179834 0.07855,0.113688 0.117823,0.264583 0.04134,0.148828 0.04134,0.312126 v 0.04547 q 0,0.165364 -0.03927,0.316259 -0.03927,0.148828 -0.117823,0.262516 -0.08061,0.113688 -0.200504,0.179834 -0.117822,0.06615 -0.274918,0.06615 -0.159164,0 -0.279053,-0.06615 -0.119889,-0.06615 -0.198437,-0.179834 -0.08061,-0.113688 -0.119889,-0.262516 -0.03927,-0.150895 -0.03927,-0.316259 z"
         id="path288" />
      <path
         d="m 14.0281,74.831124 q 0,0.119889 0.07441,0.204638 0.07648,0.08268 0.225309,0.08268 0.146761,0 0.225309,-0.08268 0.07855,-0.08268 0.07855,-0.204638 0,-0.124024 -0.07855,-0.208773 -0.07648,-0.08682 -0.225309,-0.08682 -0.150895,0 -0.225309,0.08682 -0.07441,0.08682 -0.07441,0.208773 z"
         id="path290" />
      <path
         d="m 16.855831,74.810453 q -0.179834,0 -0.30179,-0.07028 -0.119889,-0.07235 -0.192236,-0.188102 -0.07441,-0.113688 -0.107487,-0.256315 -0.03101,-0.144694 -0.03101,-0.291455 v -0.08682 q 0,-0.144694 0.03101,-0.287321 0.03307,-0.142627 0.107487,-0.258382 0.07441,-0.113688 0.194303,-0.183968 0.121957,-0.07235 0.299723,-0.07235 0.115755,0 0.214974,0.03928 0.101286,0.03927 0.173633,0.107486 0.07235,0.06821 0.113688,0.159164 0.04341,0.08888 0.04547,0.190169 h 0.361735 q 0,-0.169499 -0.06821,-0.318327 -0.06821,-0.148828 -0.188102,-0.258382 -0.121956,-0.107487 -0.289388,-0.169498 -0.165364,-0.06408 -0.363802,-0.06408 -0.254248,0 -0.444417,0.09095 -0.190169,0.09095 -0.316259,0.243913 -0.128158,0.155029 -0.192236,0.357601 -0.06408,0.202571 -0.06408,0.423746 v 0.08682 q 0,0.223242 0.06408,0.425814 0.06408,0.200504 0.192236,0.353466 0.12609,0.155029 0.316259,0.24598 0.190169,0.09095 0.444417,0.09095 0.177767,0 0.341064,-0.05994 0.163298,-0.06201 0.289388,-0.165365 0.126091,-0.101285 0.200505,-0.235644 0.07648,-0.136426 0.07855,-0.285254 h -0.361735 q -0.0021,0.09302 -0.04961,0.173633 -0.04548,0.07855 -0.121957,0.136426 -0.07648,0.05994 -0.175699,0.09302 -0.09715,0.03307 -0.200505,0.03307 z"
         id="path292" />
      <path
         d="m 18.441263,75.939065 h 0.382405 v -1.074869 q 0.04134,0.04548 0.08888,0.08475 0.04754,0.03721 0.101286,0.06821 0.08888,0.04961 0.198437,0.07648 0.111621,0.02687 0.239779,0.02687 0.210839,0 0.374137,-0.08682 0.165364,-0.08682 0.276985,-0.239778 0.111621,-0.152963 0.169499,-0.359668 0.05788,-0.208773 0.05788,-0.448551 v -0.04341 q 0,-0.250114 -0.05788,-0.458887 -0.05788,-0.210839 -0.169499,-0.361734 -0.111621,-0.150895 -0.276985,-0.235645 -0.165365,-0.08475 -0.380338,-0.08475 -0.121957,0 -0.229444,0.02687 -0.105419,0.0248 -0.192236,0.07441 -0.06201,0.03307 -0.115755,0.08061 -0.05374,0.04547 -0.09922,0.103353 l -0.0186,-0.243913 h -0.349332 z m 1.506883,-1.996775 v 0.04341 q 0,0.163297 -0.03721,0.312125 -0.03514,0.148828 -0.109554,0.262516 -0.07441,0.113688 -0.190169,0.181901 -0.115755,0.06615 -0.274918,0.06615 -0.09922,0 -0.181901,-0.02481 -0.08061,-0.0248 -0.146761,-0.06821 -0.05788,-0.03721 -0.103353,-0.09095 -0.04547,-0.05374 -0.08061,-0.115755 v -1.076936 q 0.03927,-0.07028 0.09095,-0.128157 0.05168,-0.05788 0.117823,-0.09715 0.05994,-0.03927 0.134358,-0.05994 0.07648,-0.02067 0.165365,-0.02067 0.16123,0 0.276985,0.06615 0.115755,0.06615 0.192236,0.177766 0.07441,0.113688 0.109554,0.262516 0.03721,0.146761 0.03721,0.310059 z"
         id="path294" />
      <path
         d="m 20.981675,75.939065 h 0.382405 v -1.074869 q 0.04134,0.04548 0.08888,0.08475 0.04754,0.03721 0.101286,0.06821 0.08888,0.04961 0.198437,0.07648 0.111621,0.02687 0.239779,0.02687 0.210839,0 0.374137,-0.08682 0.165364,-0.08682 0.276985,-0.239778 0.111621,-0.152963 0.169499,-0.359668 0.05788,-0.208773 0.05788,-0.448551 v -0.04341 q 0,-0.250114 -0.05788,-0.458887 -0.05788,-0.210839 -0.169499,-0.361734 -0.111621,-0.150895 -0.276985,-0.235645 -0.165365,-0.08475 -0.380338,-0.08475 -0.121957,0 -0.229444,0.02687 -0.105419,0.0248 -0.192236,0.07441 -0.06201,0.03307 -0.115755,0.08061 -0.05374,0.04547 -0.09922,0.103353 l -0.0186,-0.243913 h -0.349332 z m 1.506883,-1.996775 v 0.04341 q 0,0.163297 -0.03721,0.312125 -0.03514,0.148828 -0.109554,0.262516 -0.07441,0.113688 -0.190169,0.181901 -0.115755,0.06615 -0.274918,0.06615 -0.09922,0 -0.181901,-0.02481 -0.08061,-0.0248 -0.146761,-0.06821 -0.05788,-0.03721 -0.103353,-0.09095 -0.04547,-0.05374 -0.08061,-0.115755 v -1.076936 q 0.03927,-0.07028 0.09095,-0.128157 0.05168,-0.05788 0.117822,-0.09715 0.05994,-0.03927 0.134359,-0.05994 0.07648,-0.02067 0.165365,-0.02067 0.16123,0 0.276985,0.06615 0.115755,0.06615 0.192236,0.177766 0.07441,0.113688 0.109554,0.262516 0.03721,0.146761 0.03721,0.310059 z"
         id="path296" />
    </g>
    <path
       id="rect835-7-8"
       style="fill:#ffffff;stroke:#000000;stroke-width:0.254"
       d="m 68.181112,44.708313 h 16.256872 c 1.088675,0 1.965117,0.876442 1.965117,1.965116 v 21.616282 c 0,1.088675 -0.876442,1.965116 -1.965117,1.965116 H 68.181112 c -1.088674,0 -1.965116,-0.876441 -1.965116,-1.965116 V 46.673429 c 0,-1.088674 0.876442,-1.965116 1.965116,-1.965116 z" />
    <path
       id="rect963-5"
       style="fill:#ffffff;stroke:#000000;stroke-width:0.254"
       d="m 34.989324,53.015396 h 20.723047 c 1.088674,0 1.965115,0.876442 1.965115,1.965116 v 5.002116 c 0,1.088675 -0.876441,1.965116 -1.965115,1.965116 H 34.989324 c -1.088674,0 -1.965116,-0.876441 -1.965116,-1.965116 v -5.002116 c 0,-1.088674 0.876442,-1.965116 1.965116,-1.965116 z" />
    <g
       aria-label="foo.o"
       id="text839-3-2"
       style="font-size:4.23333px;line-height:1.25;font-family:'Roboto Mono';-inkscape-font-specification:'Roboto Mono';text-align:center;text-anchor:middle;stroke-width:0.264583">
      <path
         d="m 71.053276,74.869797 h 0.384472 v -1.940965 h 0.861962 v -0.295589 h -0.861962 v -0.157097 q 0,-0.140559 0.03514,-0.245979 0.03721,-0.10542 0.107487,-0.171566 0.06614,-0.06408 0.165364,-0.09508 0.101286,-0.03307 0.23151,-0.03307 0.128158,0 0.239779,0.02274 0.113688,0.02067 0.198437,0.04961 l 0.04547,-0.31626 q -0.05374,-0.01447 -0.105419,-0.0248 -0.05168,-0.0124 -0.103353,-0.02274 -0.07855,-0.01447 -0.159164,-0.02274 -0.08061,-0.01034 -0.163297,-0.01034 -0.198437,0 -0.359668,0.05581 -0.16123,0.05581 -0.274918,0.165364 -0.115755,0.109554 -0.179834,0.272851 -0.06201,0.161231 -0.06201,0.376204 v 0.157097 h -0.615983 v 0.295589 h 0.615983 z"
         id="path301" />
      <path
         d="m 72.915693,73.730849 v 0.04547 q 0,0.241846 0.07028,0.448551 0.07028,0.206706 0.202572,0.359668 0.130224,0.152962 0.318326,0.239779 0.19017,0.08682 0.427881,0.08682 0.235644,0 0.423746,-0.08682 0.188102,-0.08682 0.320394,-0.239779 0.130224,-0.152962 0.200504,-0.359668 0.07028,-0.206705 0.07028,-0.448551 v -0.04547 q 0,-0.241845 -0.07028,-0.448551 -0.07028,-0.208773 -0.200504,-0.361735 -0.132292,-0.152962 -0.322461,-0.239778 -0.188102,-0.08888 -0.425813,-0.08888 -0.235645,0 -0.423747,0.08888 -0.188102,0.08682 -0.318326,0.239778 -0.132292,0.152962 -0.202572,0.361735 -0.07028,0.206706 -0.07028,0.448551 z m 0.382405,0.04547 v -0.04547 q 0,-0.163297 0.03927,-0.312125 0.03927,-0.150895 0.119889,-0.264583 0.07855,-0.113688 0.19637,-0.179834 0.117823,-0.06821 0.276986,-0.06821 0.159163,0 0.276985,0.06821 0.119889,0.06615 0.200505,0.179834 0.07855,0.113688 0.117822,0.264583 0.04134,0.148828 0.04134,0.312125 v 0.04547 q 0,0.165365 -0.03927,0.31626 -0.03927,0.148828 -0.117822,0.262516 -0.08061,0.113688 -0.200505,0.179834 -0.117822,0.06615 -0.274918,0.06615 -0.159163,0 -0.279053,-0.06615 -0.119889,-0.06615 -0.198437,-0.179834 -0.08062,-0.113688 -0.119889,-0.262516 -0.03927,-0.150895 -0.03927,-0.31626 z"
         id="path303" />
      <path
         d="m 75.456104,73.730849 v 0.04547 q 0,0.241846 0.07028,0.448551 0.07028,0.206706 0.202571,0.359668 0.130225,0.152962 0.318327,0.239779 0.190169,0.08682 0.42788,0.08682 0.235645,0 0.423747,-0.08682 0.188102,-0.08682 0.320393,-0.239779 0.130225,-0.152962 0.200505,-0.359668 0.07028,-0.206705 0.07028,-0.448551 v -0.04547 q 0,-0.241845 -0.07028,-0.448551 -0.07028,-0.208773 -0.200505,-0.361735 -0.132291,-0.152962 -0.32246,-0.239778 -0.188103,-0.08888 -0.425814,-0.08888 -0.235644,0 -0.423746,0.08888 -0.188102,0.08682 -0.318327,0.239778 -0.132291,0.152962 -0.202571,0.361735 -0.07028,0.206706 -0.07028,0.448551 z m 0.382405,0.04547 v -0.04547 q 0,-0.163297 0.03927,-0.312125 0.03927,-0.150895 0.119889,-0.264583 0.07855,-0.113688 0.196371,-0.179834 0.117822,-0.06821 0.276985,-0.06821 0.159163,0 0.276986,0.06821 0.119889,0.06615 0.200504,0.179834 0.07855,0.113688 0.117822,0.264583 0.04134,0.148828 0.04134,0.312125 v 0.04547 q 0,0.165365 -0.03927,0.31626 -0.03927,0.148828 -0.117822,0.262516 -0.08062,0.113688 -0.200504,0.179834 -0.117823,0.06615 -0.274919,0.06615 -0.159163,0 -0.279052,-0.06615 -0.11989,-0.06615 -0.198438,-0.179834 -0.08061,-0.113688 -0.119889,-0.262516 -0.03927,-0.150895 -0.03927,-0.31626 z"
         id="path305" />
      <path
         d="m 78.769594,74.62175 q 0,0.119889 0.07441,0.204639 0.07648,0.08268 0.225309,0.08268 0.146761,0 0.225309,-0.08268 0.07855,-0.08268 0.07855,-0.204639 0,-0.124023 -0.07855,-0.208773 -0.07648,-0.08682 -0.225309,-0.08682 -0.150895,0 -0.225309,0.08682 -0.07441,0.08682 -0.07441,0.208773 z"
         id="path307" />
      <path
         d="m 80.536926,73.730849 v 0.04547 q 0,0.241846 0.07028,0.448551 0.07028,0.206706 0.202572,0.359668 0.130224,0.152962 0.318326,0.239779 0.190169,0.08682 0.427881,0.08682 0.235644,0 0.423746,-0.08682 0.188102,-0.08682 0.320394,-0.239779 0.130224,-0.152962 0.200504,-0.359668 0.07028,-0.206705 0.07028,-0.448551 v -0.04547 q 0,-0.241845 -0.07028,-0.448551 -0.07028,-0.208773 -0.200504,-0.361735 -0.132292,-0.152962 -0.322461,-0.239778 -0.188102,-0.08888 -0.425813,-0.08888 -0.235645,0 -0.423747,0.08888 -0.188102,0.08682 -0.318326,0.239778 -0.132292,0.152962 -0.202572,0.361735 -0.07028,0.206706 -0.07028,0.448551 z m 0.382406,0.04547 v -0.04547 q 0,-0.163297 0.03927,-0.312125 0.03927,-0.150895 0.119889,-0.264583 0.07855,-0.113688 0.19637,-0.179834 0.117822,-0.06821 0.276986,-0.06821 0.159163,0 0.276985,0.06821 0.119889,0.06615 0.200504,0.179834 0.07855,0.113688 0.117823,0.264583 0.04134,0.148828 0.04134,0.312125 v 0.04547 q 0,0.165365 -0.03927,0.31626 -0.03927,0.148828 -0.117823,0.262516 -0.08061,0.113688 -0.200504,0.179834 -0.117822,0.06615 -0.274918,0.06615 -0.159164,0 -0.279053,-0.06615 -0.119889,-0.06615 -0.198437,-0.179834 -0.08062,-0.113688 -0.119889,-0.262516 -0.03927,-0.150895 -0.03927,-0.31626 z"
         id="path309" />
    </g>
    <path
       id="rect835-8-3"
       style="fill:#ffffff;stroke:#000000;stroke-width:0.254"
       d="M 6.6047802,79.546844 H 22.861652 c 1.088675,0 1.965117,0.876442 1.965117,1.965117 v 21.616279 c 0,1.08868 -0.876442,1.96512 -1.965117,1.96512 H 6.6047802 c -1.0886745,0 -1.9651165,-0.87644 -1.9651165,-1.96512 V 81.511961 c 0,-1.088675 0.876442,-1.965117 1.9651165,-1.965117 z" />
    <g
       aria-label="bar.m"
       id="text839-4-9"
       style="font-size:4.23333px;line-height:1.25;font-family:'Roboto Mono';-inkscape-font-specification:'Roboto Mono';text-align:center;text-anchor:middle;stroke-width:0.264583">
      <path
         d="m 9.998527,108.46456 v -0.0434 q 0,-0.1757 -0.028939,-0.3328 -0.028939,-0.15916 -0.084749,-0.28939 -0.053743,-0.11575 -0.1240233,-0.20877 -0.07028,-0.0951 -0.1591633,-0.16123 -0.099219,-0.0703 -0.2211749,-0.10955 -0.1219563,-0.0393 -0.2666502,-0.0393 -0.1157551,0 -0.2149738,0.0227 -0.099219,0.0227 -0.1819009,0.0661 -0.066146,0.0351 -0.1240233,0.0847 -0.057878,0.0476 -0.1054198,0.10749 v -1.17822 H 8.1051041 v 3.175 h 0.3513994 l 0.018603,-0.25425 q 0.037207,0.0475 0.078548,0.0868 0.041341,0.0393 0.086816,0.0723 0.095085,0.0661 0.2129067,0.10129 0.1198892,0.0351 0.2645831,0.0351 0.1260904,0 0.2335773,-0.031 0.1095539,-0.031 0.2005044,-0.0868 0.1260904,-0.0806 0.2149737,-0.20258 0.09095,-0.12402 0.146761,-0.27905 0.041341,-0.11782 0.062012,-0.25218 0.022738,-0.13642 0.022738,-0.28319 z m -0.3824053,-0.0434 v 0.0434 q 0,0.0992 -0.012402,0.19431 -0.012402,0.0951 -0.039274,0.17776 -0.033073,0.10956 -0.088883,0.19844 -0.05581,0.0889 -0.1384927,0.14676 -0.062012,0.0455 -0.1405598,0.0703 -0.078548,0.0227 -0.1736327,0.0227 -0.099219,0 -0.1819008,-0.0248 -0.082682,-0.0269 -0.148828,-0.0744 -0.066146,-0.0475 -0.1178222,-0.10955 -0.049609,-0.0641 -0.086816,-0.1385 v -0.97771 q 0.03514,-0.0744 0.084749,-0.13643 0.051676,-0.0641 0.1178222,-0.11162 0.064079,-0.0455 0.1467609,-0.0703 0.082682,-0.0269 0.1819009,-0.0269 0.09095,0 0.1653645,0.0207 0.074414,0.0207 0.1343586,0.0579 0.086816,0.0517 0.1467609,0.14262 0.059945,0.091 0.097152,0.20051 0.026872,0.0889 0.039274,0.19017 0.014469,0.0992 0.014469,0.20464 z"
         id="path313" />
      <path
         d="m 12.113125,109.55804 h 0.398941 v -0.0331 q -0.03721,-0.093 -0.05788,-0.21704 -0.02067,-0.12609 -0.02067,-0.23771 v -1.03973 q 0,-0.1881 -0.06821,-0.32866 -0.06821,-0.14056 -0.186035,-0.23564 -0.11989,-0.093 -0.283187,-0.1385 -0.163297,-0.0475 -0.353467,-0.0475 -0.208772,0 -0.374137,0.0579 -0.163297,0.0579 -0.276985,0.15089 -0.115755,0.0951 -0.177767,0.21291 -0.05994,0.11782 -0.06201,0.23978 h 0.384473 q 0,-0.0703 0.03307,-0.13436 0.03514,-0.0661 0.09715,-0.11369 0.06201,-0.0475 0.150895,-0.0765 0.09095,-0.0289 0.204639,-0.0289 0.121956,0 0.219108,0.031 0.09922,0.031 0.167431,0.0868 0.06821,0.0579 0.10542,0.13849 0.03721,0.0806 0.03721,0.1819 v 0.1757 h -0.417545 q -0.233577,0 -0.423747,0.0455 -0.188102,0.0455 -0.32246,0.13643 -0.134359,0.093 -0.208773,0.23151 -0.07235,0.13849 -0.07235,0.32246 0,0.14056 0.05374,0.26252 0.05581,0.11989 0.157096,0.2067 0.09922,0.0889 0.241845,0.14056 0.144694,0.0517 0.322461,0.0517 0.109554,0 0.206706,-0.0227 0.09715,-0.0227 0.183968,-0.062 0.08475,-0.0393 0.155029,-0.0909 0.07235,-0.0517 0.130224,-0.10956 0.0062,0.0703 0.0186,0.13643 0.01447,0.0641 0.03721,0.10749 z m -0.675927,-0.29146 q -0.111621,0 -0.196371,-0.0289 -0.08475,-0.0289 -0.140559,-0.0806 -0.05581,-0.0496 -0.08475,-0.11989 -0.02687,-0.0703 -0.02687,-0.15296 0,-0.0868 0.03101,-0.15503 0.03307,-0.0682 0.09508,-0.11782 0.08682,-0.0703 0.233577,-0.10336 0.148828,-0.0351 0.347266,-0.0351 h 0.355533 v 0.45269 q -0.03307,0.0661 -0.09095,0.12816 -0.05788,0.0599 -0.136426,0.10748 -0.08061,0.0475 -0.177767,0.0765 -0.09715,0.0289 -0.208772,0.0289 z"
         id="path315" />
      <path
         d="m 14.649402,107.28014 q -0.243913,0 -0.436149,0.10749 -0.190169,0.10542 -0.326595,0.28939 l -0.0021,-0.0558 -0.01654,-0.29973 h -0.363802 v 2.23656 h 0.384472 v -1.43454 q 0.03721,-0.10335 0.09302,-0.18603 0.05788,-0.0847 0.134359,-0.14263 0.08475,-0.0661 0.198437,-0.0992 0.113688,-0.0351 0.254248,-0.0351 0.109554,0 0.208772,0.0124 0.101286,0.0103 0.212907,0.0351 l 0.05168,-0.37413 q -0.05788,-0.0248 -0.173632,-0.0393 -0.113688,-0.0145 -0.219108,-0.0145 z"
         id="path317" />
      <path
         d="m 16.389863,109.30999 q 0,0.11989 0.07441,0.20464 0.07648,0.0827 0.225309,0.0827 0.146761,0 0.225309,-0.0827 0.07855,-0.0827 0.07855,-0.20464 0,-0.12402 -0.07855,-0.20877 -0.07648,-0.0868 -0.225309,-0.0868 -0.150895,0 -0.225309,0.0868 -0.07441,0.0868 -0.07441,0.20877 z"
         id="path319" />
      <path
         d="M 18.440382,107.32148 H 18.09725 v 2.23656 h 0.363802 v -1.77974 q 0.0124,-0.0331 0.03101,-0.062 0.02067,-0.0289 0.04754,-0.0517 0.03514,-0.0289 0.08475,-0.0434 0.05168,-0.0165 0.119889,-0.0165 0.06201,0 0.107487,0.0165 0.04754,0.0145 0.07855,0.0475 0.03307,0.0351 0.04754,0.0889 0.01654,0.0537 0.01654,0.12402 v 1.67639 h 0.363801 v -1.67432 q 0,-0.0124 0,-0.0207 0,-0.0103 0,-0.0207 0.0062,-0.0517 0.02481,-0.093 0.0186,-0.0434 0.05168,-0.0765 0.03307,-0.031 0.08268,-0.0496 0.04961,-0.0186 0.117822,-0.0186 0.06408,0 0.111621,0.0165 0.04961,0.0165 0.08268,0.0496 0.03101,0.0351 0.04754,0.0889 0.01654,0.0537 0.01654,0.12402 v 1.67432 h 0.363802 v -1.67018 q 0,-0.16123 -0.03721,-0.27906 -0.03721,-0.11989 -0.107487,-0.1943 -0.06408,-0.0662 -0.157097,-0.0992 -0.09302,-0.0351 -0.208772,-0.0351 -0.08475,0.002 -0.157096,0.0227 -0.07028,0.0207 -0.128158,0.0558 -0.04547,0.031 -0.08475,0.0724 -0.03927,0.0413 -0.06821,0.0889 -0.02274,-0.0517 -0.05581,-0.093 -0.03101,-0.0413 -0.07028,-0.0703 -0.05374,-0.0372 -0.126091,-0.0558 -0.07028,-0.0207 -0.159163,-0.0207 -0.157096,0.002 -0.268717,0.0682 -0.109554,0.0662 -0.177767,0.18397 z"
         id="path321" />
    </g>
    <path
       id="rect835-7-8-9"
       style="fill:#ffffff;stroke:#000000;stroke-width:0.254"
       d="m 68.002462,79.546844 h 16.256873 c 1.088674,0 1.965116,0.876442 1.965116,1.965117 v 21.616279 c 0,1.08868 -0.876442,1.96512 -1.965116,1.96512 H 68.002462 c -1.088674,0 -1.965116,-0.87644 -1.965116,-1.96512 V 81.511961 c 0,-1.088675 0.876442,-1.965117 1.965116,-1.965117 z" />
    <path
       id="rect963-5-9"
       style="fill:#ffffff;stroke:#000000;stroke-width:0.254"
       d="m 34.989324,87.853928 h 20.723047 c 1.088674,0 1.965115,0.876441 1.965115,1.965116 v 5.002116 c 0,1.088674 -0.876441,1.965116 -1.965115,1.965116 H 34.989324 c -1.088674,0 -1.965116,-0.876442 -1.965116,-1.965116 v -5.002116 c 0,-1.088675 0.876442,-1.965116 1.965116,-1.965116 z" />
    <g
       aria-label="bar.o"
       id="text839-3-2-2"
       style="font-size:4.23333px;line-height:1.25;font-family:'Roboto Mono';-inkscape-font-specification:'Roboto Mono';text-align:center;text-anchor:middle;stroke-width:0.264583">
      <path
         d="m 72.199608,108.25519 v -0.0434 q 0,-0.1757 -0.02894,-0.33279 -0.02894,-0.15917 -0.08475,-0.28939 -0.05374,-0.11576 -0.124023,-0.20877 -0.07028,-0.0951 -0.159163,-0.16123 -0.09922,-0.0703 -0.221175,-0.10956 -0.121957,-0.0393 -0.266651,-0.0393 -0.115755,0 -0.214973,0.0227 -0.09922,0.0227 -0.181901,0.0661 -0.06615,0.0351 -0.124024,0.0847 -0.05788,0.0475 -0.105419,0.10749 v -1.17822 h -0.382406 v 3.17499 h 0.3514 l 0.0186,-0.25424 q 0.03721,0.0475 0.07855,0.0868 0.04134,0.0393 0.08682,0.0724 0.09508,0.0661 0.212906,0.10128 0.11989,0.0351 0.264584,0.0351 0.12609,0 0.233577,-0.031 0.109554,-0.031 0.200504,-0.0868 0.126091,-0.0806 0.214974,-0.20257 0.09095,-0.12402 0.146761,-0.27905 0.04134,-0.11782 0.06201,-0.25218 0.02274,-0.13643 0.02274,-0.28319 z m -0.382405,-0.0434 v 0.0434 q 0,0.0992 -0.0124,0.1943 -0.0124,0.0951 -0.03927,0.17777 -0.03307,0.10955 -0.08888,0.19844 -0.05581,0.0889 -0.138493,0.14676 -0.06201,0.0455 -0.140559,0.0703 -0.07855,0.0227 -0.173633,0.0227 -0.09922,0 -0.181901,-0.0248 -0.08268,-0.0269 -0.148828,-0.0744 -0.06615,-0.0475 -0.117822,-0.10956 -0.04961,-0.0641 -0.08682,-0.13849 v -0.97772 q 0.03514,-0.0744 0.08475,-0.13642 0.05168,-0.0641 0.117822,-0.11162 0.06408,-0.0455 0.146761,-0.0703 0.08268,-0.0269 0.181901,-0.0269 0.09095,0 0.165364,0.0207 0.07441,0.0207 0.134359,0.0579 0.08682,0.0517 0.146761,0.14263 0.05994,0.0909 0.09715,0.20051 0.02687,0.0889 0.03927,0.19016 0.01447,0.0992 0.01447,0.20464 z"
         id="path326" />
      <path
         d="m 74.314206,109.34866 h 0.398942 v -0.0331 q -0.03721,-0.093 -0.05788,-0.21704 -0.02067,-0.12609 -0.02067,-0.23771 v -1.03973 q 0,-0.1881 -0.06821,-0.32866 -0.06821,-0.14056 -0.186035,-0.23565 -0.119889,-0.093 -0.283187,-0.13849 -0.163297,-0.0475 -0.353466,-0.0475 -0.208773,0 -0.374137,0.0579 -0.163298,0.0579 -0.276986,0.15089 -0.115755,0.0951 -0.177767,0.21291 -0.05994,0.11782 -0.06201,0.23978 h 0.384472 q 0,-0.0703 0.03307,-0.13436 0.03514,-0.0661 0.09715,-0.11369 0.06201,-0.0475 0.150895,-0.0765 0.09095,-0.0289 0.204638,-0.0289 0.121956,0 0.219108,0.031 0.09922,0.031 0.167432,0.0868 0.06821,0.0579 0.105419,0.13849 0.03721,0.0806 0.03721,0.18191 v 0.17569 h -0.417545 q -0.233577,0 -0.423746,0.0455 -0.188102,0.0455 -0.322461,0.13643 -0.134359,0.093 -0.208773,0.23151 -0.07235,0.13849 -0.07235,0.32246 0,0.14056 0.05374,0.26251 0.05581,0.11989 0.157096,0.20671 0.09922,0.0889 0.241846,0.14056 0.144694,0.0517 0.32246,0.0517 0.109554,0 0.206706,-0.0227 0.09715,-0.0227 0.183968,-0.062 0.08475,-0.0393 0.155029,-0.091 0.07235,-0.0517 0.130225,-0.10955 0.0062,0.0703 0.0186,0.13643 0.01447,0.0641 0.03721,0.10748 z m -0.675927,-0.29145 q -0.111621,0 -0.19637,-0.0289 -0.08475,-0.0289 -0.14056,-0.0806 -0.05581,-0.0496 -0.08475,-0.11988 -0.02687,-0.0703 -0.02687,-0.15297 0,-0.0868 0.03101,-0.15503 0.03307,-0.0682 0.09508,-0.11782 0.08682,-0.0703 0.233577,-0.10335 0.148828,-0.0351 0.347266,-0.0351 h 0.355533 v 0.45268 q -0.03307,0.0662 -0.09095,0.12816 -0.05788,0.06 -0.136426,0.10749 -0.08061,0.0475 -0.177767,0.0765 -0.09715,0.0289 -0.208772,0.0289 z"
         id="path328" />
      <path
         d="m 76.850483,107.07077 q -0.243912,0 -0.436149,0.10748 -0.190169,0.10542 -0.326594,0.28939 l -0.0021,-0.0558 -0.01654,-0.29972 h -0.363802 v 2.23655 h 0.384473 v -1.43453 q 0.03721,-0.10336 0.09302,-0.18604 0.05788,-0.0847 0.134359,-0.14263 0.08475,-0.0661 0.198437,-0.0992 0.113688,-0.0351 0.254248,-0.0351 0.109554,0 0.208773,0.0124 0.101285,0.0103 0.212906,0.0351 l 0.05168,-0.37414 q -0.05788,-0.0248 -0.173633,-0.0393 -0.113688,-0.0145 -0.219108,-0.0145 z"
         id="path330" />
      <path
         d="m 78.590944,109.10062 q 0,0.11989 0.07441,0.20464 0.07648,0.0827 0.225309,0.0827 0.146761,0 0.225309,-0.0827 0.07855,-0.0827 0.07855,-0.20464 0,-0.12403 -0.07855,-0.20878 -0.07648,-0.0868 -0.225309,-0.0868 -0.150895,0 -0.225309,0.0868 -0.07441,0.0868 -0.07441,0.20878 z"
         id="path332" />
      <path
         d="m 80.358276,108.20972 v 0.0455 q 0,0.24185 0.07028,0.44855 0.07028,0.20671 0.202572,0.35967 0.130224,0.15296 0.318326,0.23978 0.190169,0.0868 0.427881,0.0868 0.235644,0 0.423746,-0.0868 0.188102,-0.0868 0.320394,-0.23978 0.130224,-0.15296 0.200504,-0.35967 0.07028,-0.2067 0.07028,-0.44855 v -0.0455 q 0,-0.24185 -0.07028,-0.44856 -0.07028,-0.20877 -0.200504,-0.36173 -0.132292,-0.15296 -0.322461,-0.23978 -0.188102,-0.0889 -0.425813,-0.0889 -0.235645,0 -0.423747,0.0889 -0.188102,0.0868 -0.318326,0.23978 -0.132292,0.15296 -0.202572,0.36173 -0.07028,0.20671 -0.07028,0.44856 z m 0.382406,0.0455 v -0.0455 q 0,-0.1633 0.03927,-0.31213 0.03927,-0.15089 0.119889,-0.26458 0.07855,-0.11369 0.19637,-0.17984 0.117822,-0.0682 0.276986,-0.0682 0.159163,0 0.276985,0.0682 0.119889,0.0661 0.200504,0.17984 0.07855,0.11369 0.117823,0.26458 0.04134,0.14883 0.04134,0.31213 v 0.0455 q 0,0.16537 -0.03927,0.31626 -0.03927,0.14883 -0.117822,0.26252 -0.08062,0.11368 -0.200505,0.17983 -0.117822,0.0661 -0.274918,0.0661 -0.159164,0 -0.279053,-0.0661 -0.119889,-0.0662 -0.198437,-0.17983 -0.08061,-0.11369 -0.119889,-0.26252 -0.03927,-0.15089 -0.03927,-0.31626 z"
         id="path334" />
    </g>
    <path
       style="fill:#000000;stroke:#000000;stroke-width:0.265;stroke-dasharray:none;stroke-opacity:1;marker-end:url(#TriangleStart)"
       d="M 89.269785,57.481569 H 119.2099"
       id="path395" />
    <path
       style="fill:#000000;stroke:#000000;stroke-width:0.265;stroke-dasharray:none;stroke-opacity:1;marker-end:url(#TriangleStart-6)"
       d="m 150.01457,57.578855 h 29.94011"
       id="path395-8" />
    <path
       style="fill:#000000;stroke:#000000;stroke-width:0.265;stroke-dasharray:none;stroke-opacity:1;marker-end:url(#TriangleStart-3)"
       d="m 59.080128,57.481569 h 4.966527"
       id="path395-9"
       sodipodi:nodetypes="cc" />
    <path
       style="fill:#000000;stroke:#000000;stroke-width:0.265;stroke-dasharray:none;stroke-opacity:1;marker-end:url(#TriangleStart-3-6)"
       d="m 59.080128,21.750267 h 4.966527"
       id="path395-9-2"
       sodipodi:nodetypes="cc" />
    <path
       style="fill:#000000;stroke:#000000;stroke-width:0.265;stroke-dasharray:none;stroke-opacity:1;marker-end:url(#TriangleStart-3-4)"
       d="m 59.080128,92.320098 h 4.966527"
       id="path395-9-9"
       sodipodi:nodetypes="cc" />
    <path
       style="fill:#000000;stroke:#000000;stroke-width:0.265;stroke-dasharray:none;stroke-opacity:1;marker-end:url(#TriangleStart-3-1)"
       d="m 25.851795,92.320098 h 4.966527"
       id="path395-9-96"
       sodipodi:nodetypes="cc" />
    <path
       style="fill:#000000;stroke:#000000;stroke-width:0.265;stroke-dasharray:none;stroke-opacity:1;marker-end:url(#TriangleStart-3-8)"
       d="m 25.851795,57.481569 h 4.966527"
       id="path395-9-3"
       sodipodi:nodetypes="cc" />
    <path
       style="fill:#000000;stroke:#000000;stroke-width:0.265;stroke-dasharray:none;stroke-opacity:1;marker-end:url(#TriangleStart-3-46)"
       d="m 25.851795,21.750267 h 4.966527"
       id="path395-9-94"
       sodipodi:nodetypes="cc" />
    <g
       aria-label="compiler"
       id="text839-7-8"
       style="font-size:3.52778px;line-height:1.25;font-family:'Roboto Mono';-inkscape-font-specification:'Roboto Mono';text-align:center;text-anchor:middle;stroke-width:0.264583">
      <path
         d="m 38.023122,22.438426 q -0.149861,0 -0.251492,-0.05857 -0.09991,-0.06029 -0.160197,-0.156752 -0.06201,-0.09474 -0.08957,-0.213596 -0.02584,-0.120578 -0.02584,-0.242879 v -0.07235 q 0,-0.120579 0.02584,-0.239434 0.02756,-0.118856 0.08957,-0.215319 0.06201,-0.09474 0.16192,-0.153307 0.10163,-0.06029 0.249769,-0.06029 0.09646,0 0.179146,0.03273 0.0844,0.03273 0.144694,0.08957 0.06029,0.05684 0.09474,0.132636 0.03617,0.07407 0.0379,0.158475 h 0.301446 q 0,-0.141249 -0.05684,-0.265273 -0.05684,-0.124023 -0.156752,-0.215318 -0.10163,-0.08957 -0.241157,-0.141249 -0.137804,-0.0534 -0.303169,-0.0534 -0.211873,0 -0.370348,0.07579 -0.158474,0.07579 -0.26355,0.20326 -0.106798,0.129192 -0.160197,0.298001 -0.0534,0.16881 -0.0534,0.353123 v 0.07235 q 0,0.186035 0.0534,0.354845 0.0534,0.167087 0.160197,0.294556 0.105076,0.129191 0.26355,0.204983 0.158475,0.07579 0.370348,0.07579 0.14814,0 0.284221,-0.04995 0.136081,-0.05168 0.241157,-0.137804 0.105075,-0.0844 0.167087,-0.19637 0.06373,-0.113688 0.06546,-0.237712 h -0.301446 q -0.0017,0.07752 -0.04134,0.144694 -0.0379,0.06546 -0.101631,0.113688 -0.06373,0.04995 -0.146416,0.07752 -0.08096,0.02756 -0.167088,0.02756 z"
         id="path337" />
      <path
         d="m 39.256467,21.713233 v 0.0379 q 0,0.201538 0.05857,0.373793 0.05857,0.172255 0.16881,0.299724 0.10852,0.127468 0.265272,0.199815 0.158475,0.07235 0.356568,0.07235 0.196371,0 0.353123,-0.07235 0.156751,-0.07235 0.266995,-0.199815 0.10852,-0.127469 0.167087,-0.299724 0.05857,-0.172255 0.05857,-0.373793 v -0.0379 q 0,-0.201538 -0.05857,-0.373793 -0.05857,-0.173978 -0.167087,-0.301446 -0.110244,-0.127469 -0.268718,-0.199816 -0.156752,-0.07407 -0.354845,-0.07407 -0.196371,0 -0.353123,0.07407 -0.156752,0.07235 -0.265272,0.199816 -0.110243,0.127468 -0.16881,0.301446 -0.05857,0.172255 -0.05857,0.373793 z m 0.318672,0.0379 v -0.0379 q 0,-0.136081 0.03273,-0.260105 0.03273,-0.125746 0.09991,-0.220486 0.06546,-0.09474 0.163642,-0.149862 0.09819,-0.05684 0.230822,-0.05684 0.132636,0 0.230821,0.05684 0.09991,0.05512 0.167088,0.149862 0.06546,0.09474 0.09818,0.220486 0.03445,0.124024 0.03445,0.260105 v 0.0379 q 0,0.137804 -0.03273,0.26355 -0.03273,0.124023 -0.09819,0.218764 -0.06718,0.09474 -0.167087,0.149861 -0.09819,0.05512 -0.229099,0.05512 -0.132636,0 -0.232544,-0.05512 -0.09991,-0.05512 -0.165365,-0.149861 -0.06718,-0.09474 -0.09991,-0.218764 -0.03273,-0.125746 -0.03273,-0.26355 z"
         id="path339" />
      <path
         d="m 41.609469,20.798559 h -0.285943 v 1.863798 h 0.303169 v -1.483114 q 0.01034,-0.02756 0.02584,-0.05168 0.01723,-0.02412 0.03962,-0.04306 0.02928,-0.02412 0.07062,-0.03617 0.04306,-0.01378 0.09991,-0.01378 0.05168,0 0.08957,0.01378 0.03962,0.01206 0.06546,0.03962 0.02756,0.02928 0.03962,0.07407 0.01378,0.04479 0.01378,0.103353 v 1.396987 h 0.303169 v -1.395264 q 0,-0.01034 0,-0.01723 0,-0.0086 0,-0.01722 0.0052,-0.04306 0.02067,-0.07751 0.0155,-0.03617 0.04306,-0.06373 0.02756,-0.02584 0.0689,-0.04134 0.04134,-0.0155 0.09819,-0.0155 0.0534,0 0.09302,0.01378 0.04134,0.01378 0.0689,0.04134 0.02584,0.02928 0.03962,0.07407 0.01378,0.04479 0.01378,0.103353 v 1.395264 h 0.303169 v -1.391819 q 0,-0.134359 -0.03101,-0.232544 -0.03101,-0.09991 -0.08957,-0.16192 -0.0534,-0.05512 -0.130914,-0.08268 -0.07751,-0.02928 -0.173977,-0.02928 -0.07062,0.0017 -0.130914,0.01895 -0.05857,0.01722 -0.106798,0.04651 -0.0379,0.02584 -0.07062,0.06029 -0.03273,0.03445 -0.05684,0.07407 -0.01895,-0.04306 -0.04651,-0.07751 -0.02584,-0.03445 -0.05857,-0.05857 -0.04479,-0.03101 -0.105075,-0.04651 -0.05857,-0.01723 -0.132637,-0.01723 -0.130913,0.0017 -0.223931,0.05684 -0.0913,0.05512 -0.148139,0.153306 z"
         id="path341" />
      <path
         d="m 43.578342,23.378938 h 0.318672 v -0.895726 q 0.03445,0.0379 0.07407,0.07062 0.03962,0.03101 0.0844,0.05684 0.07407,0.04134 0.165365,0.06373 0.09302,0.02239 0.199816,0.02239 0.1757,0 0.311781,-0.07235 0.137804,-0.07235 0.230822,-0.199815 0.09302,-0.127469 0.141249,-0.299724 0.04823,-0.173977 0.04823,-0.373793 v -0.03617 q 0,-0.208428 -0.04823,-0.382405 -0.04823,-0.1757 -0.141249,-0.301446 -0.09302,-0.125747 -0.230822,-0.196371 -0.137804,-0.07062 -0.316949,-0.07062 -0.10163,0 -0.191203,0.02239 -0.08785,0.02067 -0.160197,0.06201 -0.05168,0.02756 -0.09646,0.06718 -0.04479,0.0379 -0.08268,0.08613 l -0.0155,-0.203261 h -0.291111 z m 1.255739,-1.663983 v 0.03617 q 0,0.136081 -0.03101,0.260105 -0.02928,0.124023 -0.0913,0.218764 -0.06201,0.09474 -0.158475,0.151584 -0.09646,0.05512 -0.229099,0.05512 -0.08268,0 -0.151584,-0.02067 -0.06718,-0.02067 -0.122301,-0.05684 -0.04823,-0.03101 -0.08613,-0.07579 -0.0379,-0.04479 -0.06718,-0.09646 v -0.897448 q 0.03273,-0.05857 0.07579,-0.106798 0.04306,-0.04823 0.09819,-0.08096 0.04995,-0.03273 0.111966,-0.04995 0.06373,-0.01723 0.137804,-0.01723 0.134359,0 0.230822,0.05512 0.09646,0.05512 0.160197,0.148139 0.06201,0.09474 0.0913,0.218764 0.03101,0.122301 0.03101,0.258382 z"
         id="path343" />
      <path
         d="m 45.747031,20.798559 v 0.277331 h 0.633898 v 1.31086 h -0.633898 v 0.275607 h 1.56063 V 22.38675 h -0.60806 v -1.588191 z m 0.592557,-0.489203 q 0,0.07751 0.04651,0.129191 0.04823,0.05168 0.144694,0.05168 0.09474,0 0.142972,-0.05168 0.04823,-0.05168 0.04823,-0.129191 0,-0.04306 -0.01378,-0.07924 -0.01378,-0.03617 -0.04134,-0.06029 -0.02239,-0.02239 -0.05684,-0.03445 -0.03445,-0.01378 -0.07924,-0.01378 -0.04479,0 -0.08096,0.01378 -0.03445,0.01206 -0.05684,0.03445 -0.02756,0.02584 -0.04134,0.06201 -0.01206,0.03617 -0.01206,0.07752 z"
         id="path345" />
      <path
         d="m 47.864043,20.016522 v 0.277331 h 0.633898 v 2.092897 h -0.633898 v 0.275607 h 1.56063 V 22.38675 h -0.60806 v -2.370228 z"
         id="path347" />
      <path
         d="m 50.754481,22.696808 q 0.272163,0 0.456475,-0.10852 0.186036,-0.110243 0.279053,-0.251492 l -0.194648,-0.151585 q -0.08785,0.113689 -0.220486,0.18259 -0.132636,0.0689 -0.303169,0.0689 -0.129191,0 -0.235989,-0.04823 -0.106798,-0.04823 -0.18259,-0.132636 -0.07407,-0.07924 -0.117133,-0.18259 -0.04134,-0.103353 -0.0534,-0.239435 v -0.01206 h 1.33153 v -0.142971 q 0,-0.194648 -0.04995,-0.361735 -0.04823,-0.167088 -0.148139,-0.291111 -0.09991,-0.122301 -0.251492,-0.191203 -0.149862,-0.07062 -0.3514,-0.07062 -0.160197,0 -0.313504,0.06546 -0.151585,0.06546 -0.27044,0.187758 -0.120579,0.124024 -0.192926,0.303169 -0.07235,0.177422 -0.07235,0.403076 v 0.07235 q 0,0.194648 0.06546,0.360013 0.06546,0.165365 0.18259,0.285943 0.117133,0.120578 0.280776,0.187758 0.165364,0.06718 0.361735,0.06718 z m -0.04134,-1.670872 q 0.122301,0 0.210151,0.04479 0.08957,0.04479 0.148139,0.117134 0.05857,0.07235 0.0913,0.172254 0.03273,0.09819 0.03273,0.184313 v 0.0155 H 50.19293 q 0.01895,-0.129191 0.06546,-0.227376 0.04823,-0.09991 0.117133,-0.16881 0.0689,-0.06718 0.155029,-0.101631 0.08613,-0.03617 0.182591,-0.03617 z"
         id="path349" />
      <path
         d="m 53.269403,20.764108 q -0.203261,0 -0.363458,0.08957 -0.158475,0.08785 -0.272163,0.241157 l -0.0017,-0.04651 -0.01378,-0.24977 h -0.303168 v 1.863798 h 0.320394 v -1.195449 q 0.03101,-0.08613 0.07751,-0.155029 0.04823,-0.07062 0.111966,-0.118856 0.07062,-0.05512 0.165365,-0.08268 0.09474,-0.02928 0.211873,-0.02928 0.0913,0 0.173978,0.01034 0.0844,0.0086 0.177422,0.02928 l 0.04306,-0.311781 q -0.04823,-0.02067 -0.144694,-0.03273 -0.09474,-0.01206 -0.18259,-0.01206 z"
         id="path351" />
    </g>
    <g
       aria-label="compiler"
       id="text839-7-8-8"
       style="font-size:3.52778px;line-height:1.25;font-family:'Roboto Mono';-inkscape-font-specification:'Roboto Mono';text-align:center;text-anchor:middle;stroke-width:0.264583">
      <path
         d="m 38.023122,58.16973 q -0.149861,0 -0.251492,-0.05857 -0.09991,-0.06029 -0.160197,-0.156751 -0.06201,-0.09474 -0.08957,-0.213597 -0.02584,-0.120578 -0.02584,-0.242879 v -0.07235 q 0,-0.120578 0.02584,-0.239434 0.02756,-0.118856 0.08957,-0.215319 0.06201,-0.09474 0.16192,-0.153307 0.10163,-0.06029 0.249769,-0.06029 0.09646,0 0.179146,0.03273 0.0844,0.03273 0.144694,0.08957 0.06029,0.05684 0.09474,0.132636 0.03617,0.07407 0.0379,0.158475 h 0.301446 q 0,-0.141249 -0.05684,-0.265273 -0.05684,-0.124023 -0.156752,-0.215318 -0.10163,-0.08957 -0.241157,-0.141249 -0.137804,-0.0534 -0.303169,-0.0534 -0.211873,0 -0.370348,0.07579 -0.158474,0.07579 -0.26355,0.203261 -0.106798,0.129191 -0.160197,0.298001 -0.0534,0.168809 -0.0534,0.353122 v 0.07235 q 0,0.186035 0.0534,0.354845 0.0534,0.167087 0.160197,0.294556 0.105076,0.129191 0.26355,0.204983 0.158475,0.07579 0.370348,0.07579 0.14814,0 0.284221,-0.04995 0.136081,-0.05168 0.241157,-0.137804 0.105075,-0.08441 0.167087,-0.196371 0.06373,-0.113688 0.06546,-0.237712 h -0.301446 q -0.0017,0.07751 -0.04134,0.144694 -0.0379,0.06546 -0.101631,0.113689 -0.06373,0.04995 -0.146416,0.07751 -0.08096,0.02756 -0.167088,0.02756 z"
         id="path354" />
      <path
         d="m 39.256467,57.444537 v 0.0379 q 0,0.201538 0.05857,0.373793 0.05857,0.172255 0.16881,0.299724 0.10852,0.127468 0.265272,0.199815 0.158475,0.07235 0.356568,0.07235 0.196371,0 0.353123,-0.07235 0.156751,-0.07235 0.266995,-0.199815 0.10852,-0.127469 0.167087,-0.299724 0.05857,-0.172255 0.05857,-0.373793 v -0.0379 q 0,-0.201538 -0.05857,-0.373793 -0.05857,-0.173977 -0.167087,-0.301446 -0.110244,-0.127469 -0.268718,-0.199816 -0.156752,-0.07407 -0.354845,-0.07407 -0.196371,0 -0.353123,0.07407 -0.156752,0.07235 -0.265272,0.199816 -0.110243,0.127469 -0.16881,0.301446 -0.05857,0.172255 -0.05857,0.373793 z m 0.318672,0.0379 v -0.0379 q 0,-0.136081 0.03273,-0.260105 0.03273,-0.125746 0.09991,-0.220486 0.06546,-0.09474 0.163642,-0.149862 0.09819,-0.05684 0.230822,-0.05684 0.132636,0 0.230821,0.05684 0.09991,0.05512 0.167088,0.149862 0.06546,0.09474 0.09818,0.220486 0.03445,0.124024 0.03445,0.260105 v 0.0379 q 0,0.137804 -0.03273,0.26355 -0.03273,0.124024 -0.09819,0.218764 -0.06718,0.09474 -0.167087,0.149862 -0.09819,0.05512 -0.229099,0.05512 -0.132636,0 -0.232544,-0.05512 -0.09991,-0.05512 -0.165365,-0.149862 -0.06718,-0.09474 -0.09991,-0.218764 -0.03273,-0.125746 -0.03273,-0.26355 z"
         id="path356" />
      <path
         d="m 41.609469,56.529864 h -0.285943 v 1.863797 h 0.303169 v -1.483114 q 0.01034,-0.02756 0.02584,-0.05168 0.01723,-0.02412 0.03962,-0.04306 0.02928,-0.02412 0.07062,-0.03617 0.04306,-0.01378 0.09991,-0.01378 0.05168,0 0.08957,0.01378 0.03962,0.01206 0.06546,0.03962 0.02756,0.02928 0.03962,0.07407 0.01378,0.04479 0.01378,0.103353 v 1.396987 h 0.303169 v -1.395264 q 0,-0.01033 0,-0.01723 0,-0.0086 0,-0.01723 0.0052,-0.04306 0.02067,-0.07751 0.0155,-0.03617 0.04306,-0.06373 0.02756,-0.02584 0.0689,-0.04134 0.04134,-0.0155 0.09819,-0.0155 0.0534,0 0.09302,0.01378 0.04134,0.01378 0.0689,0.04134 0.02584,0.02928 0.03962,0.07407 0.01378,0.04479 0.01378,0.103353 v 1.395264 h 0.303169 v -1.391819 q 0,-0.134359 -0.03101,-0.232544 -0.03101,-0.09991 -0.08957,-0.16192 -0.0534,-0.05512 -0.130914,-0.08268 -0.07751,-0.02928 -0.173977,-0.02928 -0.07062,0.0017 -0.130914,0.01895 -0.05857,0.01722 -0.106798,0.04651 -0.0379,0.02584 -0.07062,0.06029 -0.03273,0.03445 -0.05684,0.07407 -0.01895,-0.04306 -0.04651,-0.07751 -0.02584,-0.03445 -0.05857,-0.05857 -0.04479,-0.03101 -0.105075,-0.04651 -0.05857,-0.01723 -0.132637,-0.01723 -0.130913,0.0017 -0.223931,0.05684 -0.0913,0.05512 -0.148139,0.153307 z"
         id="path358" />
      <path
         d="m 43.578342,59.110242 h 0.318672 v -0.895726 q 0.03445,0.0379 0.07407,0.07062 0.03962,0.03101 0.0844,0.05684 0.07407,0.04134 0.165365,0.06373 0.09302,0.02239 0.199816,0.02239 0.1757,0 0.311781,-0.07235 0.137804,-0.07235 0.230822,-0.199815 0.09302,-0.127469 0.141249,-0.299724 0.04823,-0.173977 0.04823,-0.373793 v -0.03617 q 0,-0.208429 -0.04823,-0.382406 -0.04823,-0.1757 -0.141249,-0.301446 -0.09302,-0.125746 -0.230822,-0.196371 -0.137804,-0.07062 -0.316949,-0.07062 -0.10163,0 -0.191203,0.02239 -0.08785,0.02067 -0.160197,0.06201 -0.05168,0.02756 -0.09646,0.06718 -0.04479,0.0379 -0.08268,0.08613 l -0.0155,-0.20326 h -0.291111 z m 1.255739,-1.663982 v 0.03617 q 0,0.136082 -0.03101,0.260105 -0.02928,0.124024 -0.0913,0.218764 -0.06201,0.09474 -0.158475,0.151584 -0.09646,0.05512 -0.229099,0.05512 -0.08268,0 -0.151584,-0.02067 -0.06718,-0.02067 -0.122301,-0.05684 -0.04823,-0.03101 -0.08613,-0.07579 -0.0379,-0.04479 -0.06718,-0.09646 V 57.02079 q 0.03273,-0.05857 0.07579,-0.106798 0.04306,-0.04823 0.09819,-0.08096 0.04995,-0.03273 0.111966,-0.04995 0.06373,-0.01723 0.137804,-0.01723 0.134359,0 0.230822,0.05512 0.09646,0.05512 0.160197,0.14814 0.06201,0.09474 0.0913,0.218763 0.03101,0.122301 0.03101,0.258383 z"
         id="path360" />
      <path
         d="m 45.747031,56.529864 v 0.27733 h 0.633898 v 1.31086 h -0.633898 v 0.275607 h 1.56063 v -0.275607 h -0.60806 v -1.58819 z m 0.592557,-0.489204 q 0,0.07751 0.04651,0.129191 0.04823,0.05168 0.144694,0.05168 0.09474,0 0.142972,-0.05168 0.04823,-0.05168 0.04823,-0.129191 0,-0.04306 -0.01378,-0.07924 -0.01378,-0.03617 -0.04134,-0.06029 -0.02239,-0.02239 -0.05684,-0.03445 -0.03445,-0.01378 -0.07924,-0.01378 -0.04479,0 -0.08096,0.01378 -0.03445,0.01206 -0.05684,0.03445 -0.02756,0.02584 -0.04134,0.06201 -0.01206,0.03617 -0.01206,0.07752 z"
         id="path362" />
      <path
         d="m 47.864043,55.747826 v 0.277331 h 0.633898 v 2.092897 h -0.633898 v 0.275607 h 1.56063 v -0.275607 h -0.60806 v -2.370228 z"
         id="path364" />
      <path
         d="m 50.754481,58.428112 q 0.272163,0 0.456475,-0.10852 0.186036,-0.110243 0.279053,-0.251492 l -0.194648,-0.151585 q -0.08785,0.113689 -0.220486,0.182591 -0.132636,0.0689 -0.303169,0.0689 -0.129191,0 -0.235989,-0.04823 -0.106798,-0.04823 -0.18259,-0.132636 -0.07407,-0.07924 -0.117133,-0.18259 -0.04134,-0.103353 -0.0534,-0.239435 v -0.01206 h 1.33153 v -0.142972 q 0,-0.194648 -0.04995,-0.361735 -0.04823,-0.167087 -0.148139,-0.291111 -0.09991,-0.122301 -0.251492,-0.191203 -0.149862,-0.07062 -0.3514,-0.07062 -0.160197,0 -0.313504,0.06546 -0.151585,0.06546 -0.27044,0.187757 -0.120579,0.124024 -0.192926,0.303169 -0.07235,0.177422 -0.07235,0.403076 v 0.07235 q 0,0.194648 0.06546,0.360013 0.06546,0.165365 0.18259,0.285943 0.117133,0.120579 0.280776,0.187758 0.165364,0.06718 0.361735,0.06718 z M 50.71314,56.75724 q 0.122301,0 0.210151,0.04479 0.08957,0.04479 0.148139,0.117134 0.05857,0.07235 0.0913,0.172255 0.03273,0.09819 0.03273,0.184312 v 0.0155 H 50.19293 q 0.01895,-0.129191 0.06546,-0.227376 0.04823,-0.09991 0.117133,-0.16881 0.0689,-0.06718 0.155029,-0.10163 0.08613,-0.03617 0.182591,-0.03617 z"
         id="path366" />
      <path
         d="m 53.269403,56.495413 q -0.203261,0 -0.363458,0.08957 -0.158475,0.08785 -0.272163,0.241157 l -0.0017,-0.04651 -0.01378,-0.249769 h -0.303168 v 1.863797 h 0.320394 v -1.195448 q 0.03101,-0.08613 0.07751,-0.15503 0.04823,-0.07062 0.111966,-0.118856 0.07062,-0.05512 0.165365,-0.08268 0.09474,-0.02928 0.211873,-0.02928 0.0913,0 0.173978,0.01033 0.0844,0.0086 0.177422,0.02928 l 0.04306,-0.311781 q -0.04823,-0.02067 -0.144694,-0.03273 -0.09474,-0.01206 -0.18259,-0.01206 z"
         id="path368" />
    </g>
    <g
       aria-label="compiler"
       id="text839-7-8-2"
       style="font-size:3.52778px;line-height:1.25;font-family:'Roboto Mono';-inkscape-font-specification:'Roboto Mono';text-align:center;text-anchor:middle;stroke-width:0.264583">
      <path
         d="m 38.023122,93.008262 q -0.149861,0 -0.251492,-0.05857 -0.09991,-0.06029 -0.160197,-0.156752 -0.06201,-0.09474 -0.08957,-0.213596 -0.02584,-0.120578 -0.02584,-0.242879 v -0.07235 q 0,-0.120579 0.02584,-0.239435 0.02756,-0.118856 0.08957,-0.215318 0.06201,-0.09474 0.16192,-0.153307 0.10163,-0.06029 0.249769,-0.06029 0.09646,0 0.179146,0.03273 0.0844,0.03273 0.144694,0.08957 0.06029,0.05684 0.09474,0.132636 0.03617,0.07407 0.0379,0.158474 h 0.301446 q 0,-0.141249 -0.05684,-0.265272 -0.05684,-0.124024 -0.156752,-0.215319 -0.10163,-0.08957 -0.241157,-0.141249 -0.137804,-0.0534 -0.303169,-0.0534 -0.211873,0 -0.370348,0.07579 -0.158474,0.07579 -0.26355,0.203261 -0.106798,0.129191 -0.160197,0.298001 -0.0534,0.16881 -0.0534,0.353123 v 0.07235 q 0,0.186035 0.0534,0.354845 0.0534,0.167087 0.160197,0.294556 0.105076,0.129191 0.26355,0.204983 0.158475,0.07579 0.370348,0.07579 0.14814,0 0.284221,-0.04995 0.136081,-0.05168 0.241157,-0.137804 0.105075,-0.08441 0.167087,-0.19637 0.06373,-0.113689 0.06546,-0.237712 h -0.301446 q -0.0017,0.07752 -0.04134,0.144694 -0.0379,0.06546 -0.101631,0.113688 -0.06373,0.04995 -0.146416,0.07751 -0.08096,0.02756 -0.167088,0.02756 z"
         id="path371" />
      <path
         d="m 39.256467,92.283069 v 0.0379 q 0,0.201538 0.05857,0.373793 0.05857,0.172255 0.16881,0.299723 0.10852,0.127469 0.265272,0.199816 0.158475,0.07235 0.356568,0.07235 0.196371,0 0.353123,-0.07235 0.156751,-0.07235 0.266995,-0.199816 0.10852,-0.127468 0.167087,-0.299723 0.05857,-0.172255 0.05857,-0.373793 v -0.0379 q 0,-0.201539 -0.05857,-0.373794 -0.05857,-0.173977 -0.167087,-0.301446 -0.110244,-0.127468 -0.268718,-0.199815 -0.156752,-0.07407 -0.354845,-0.07407 -0.196371,0 -0.353123,0.07407 -0.156752,0.07235 -0.265272,0.199815 -0.110243,0.127469 -0.16881,0.301446 -0.05857,0.172255 -0.05857,0.373794 z m 0.318672,0.0379 v -0.0379 q 0,-0.136082 0.03273,-0.260105 0.03273,-0.125746 0.09991,-0.220487 0.06546,-0.09474 0.163642,-0.149861 0.09819,-0.05684 0.230822,-0.05684 0.132636,0 0.230821,0.05684 0.09991,0.05512 0.167088,0.149861 0.06546,0.09474 0.09818,0.220487 0.03445,0.124023 0.03445,0.260105 v 0.0379 q 0,0.137804 -0.03273,0.26355 -0.03273,0.124023 -0.09819,0.218763 -0.06718,0.09474 -0.167087,0.149862 -0.09819,0.05512 -0.229099,0.05512 -0.132636,0 -0.232544,-0.05512 -0.09991,-0.05512 -0.165365,-0.149862 -0.06718,-0.09474 -0.09991,-0.218763 -0.03273,-0.125746 -0.03273,-0.26355 z"
         id="path373" />
      <path
         d="m 41.609469,91.368395 h -0.285943 v 1.863798 h 0.303169 v -1.483115 q 0.01034,-0.02756 0.02584,-0.05168 0.01723,-0.02412 0.03962,-0.04306 0.02928,-0.02411 0.07062,-0.03617 0.04306,-0.01378 0.09991,-0.01378 0.05168,0 0.08957,0.01378 0.03962,0.01206 0.06546,0.03962 0.02756,0.02928 0.03962,0.07407 0.01378,0.04479 0.01378,0.103353 v 1.396987 h 0.303169 v -1.395265 q 0,-0.01033 0,-0.01722 0,-0.0086 0,-0.01723 0.0052,-0.04306 0.02067,-0.07751 0.0155,-0.03617 0.04306,-0.06374 0.02756,-0.02584 0.0689,-0.04134 0.04134,-0.0155 0.09819,-0.0155 0.0534,0 0.09302,0.01378 0.04134,0.01378 0.0689,0.04134 0.02584,0.02928 0.03962,0.07407 0.01378,0.04479 0.01378,0.103353 v 1.395265 h 0.303169 v -1.391819 q 0,-0.134359 -0.03101,-0.232545 -0.03101,-0.09991 -0.08957,-0.161919 -0.0534,-0.05512 -0.130914,-0.08268 -0.07751,-0.02928 -0.173977,-0.02928 -0.07062,0.0017 -0.130914,0.01895 -0.05857,0.01723 -0.106798,0.04651 -0.0379,0.02584 -0.07062,0.06029 -0.03273,0.03445 -0.05684,0.07407 -0.01895,-0.04306 -0.04651,-0.07752 -0.02584,-0.03445 -0.05857,-0.05857 -0.04479,-0.031 -0.105075,-0.04651 -0.05857,-0.01723 -0.132637,-0.01723 -0.130913,0.0017 -0.223931,0.05684 -0.0913,0.05512 -0.148139,0.153307 z"
         id="path375" />
      <path
         d="m 43.578342,93.948773 h 0.318672 v -0.895725 q 0.03445,0.0379 0.07407,0.07062 0.03962,0.03101 0.0844,0.05684 0.07407,0.04134 0.165365,0.06373 0.09302,0.02239 0.199816,0.02239 0.1757,0 0.311781,-0.07235 0.137804,-0.07235 0.230822,-0.199816 0.09302,-0.127468 0.141249,-0.299723 0.04823,-0.173978 0.04823,-0.373793 v -0.03617 q 0,-0.208428 -0.04823,-0.382406 -0.04823,-0.1757 -0.141249,-0.301446 -0.09302,-0.125746 -0.230822,-0.19637 -0.137804,-0.07062 -0.316949,-0.07062 -0.10163,0 -0.191203,0.02239 -0.08785,0.02067 -0.160197,0.06201 -0.05168,0.02756 -0.09646,0.06718 -0.04479,0.0379 -0.08268,0.08613 l -0.0155,-0.203261 h -0.291111 z m 1.255739,-1.663982 v 0.03617 q 0,0.136081 -0.03101,0.260105 -0.02928,0.124023 -0.0913,0.218763 -0.06201,0.09474 -0.158475,0.151585 -0.09646,0.05512 -0.229099,0.05512 -0.08268,0 -0.151584,-0.02067 -0.06718,-0.02067 -0.122301,-0.05684 -0.04823,-0.031 -0.08613,-0.07579 -0.0379,-0.04479 -0.06718,-0.09646 v -0.897448 q 0.03273,-0.05857 0.07579,-0.106798 0.04306,-0.04823 0.09819,-0.08096 0.04995,-0.03273 0.111966,-0.04995 0.06373,-0.01723 0.137804,-0.01723 0.134359,0 0.230822,0.05512 0.09646,0.05512 0.160197,0.148139 0.06201,0.09474 0.0913,0.218764 0.03101,0.122301 0.03101,0.258382 z"
         id="path377" />
      <path
         d="m 45.747031,91.368395 v 0.27733 h 0.633898 v 1.31086 h -0.633898 v 0.275608 h 1.56063 v -0.275608 h -0.60806 v -1.58819 z m 0.592557,-0.489204 q 0,0.07751 0.04651,0.129191 0.04823,0.05168 0.144694,0.05168 0.09474,0 0.142972,-0.05168 0.04823,-0.05168 0.04823,-0.129191 0,-0.04306 -0.01378,-0.07924 -0.01378,-0.03617 -0.04134,-0.06029 -0.02239,-0.02239 -0.05684,-0.03445 -0.03445,-0.01378 -0.07924,-0.01378 -0.04479,0 -0.08096,0.01378 -0.03445,0.01206 -0.05684,0.03445 -0.02756,0.02584 -0.04134,0.06201 -0.01206,0.03617 -0.01206,0.07751 z"
         id="path379" />
      <path
         d="m 47.864043,90.586358 v 0.27733 h 0.633898 v 2.092897 h -0.633898 v 0.275608 h 1.56063 v -0.275608 h -0.60806 v -2.370227 z"
         id="path381" />
      <path
         d="m 50.754481,93.266644 q 0.272163,0 0.456475,-0.108521 0.186036,-0.110243 0.279053,-0.251492 l -0.194648,-0.151584 q -0.08785,0.113688 -0.220486,0.18259 -0.132636,0.0689 -0.303169,0.0689 -0.129191,0 -0.235989,-0.04823 -0.106798,-0.04823 -0.18259,-0.132637 -0.07407,-0.07924 -0.117133,-0.18259 -0.04134,-0.103353 -0.0534,-0.239434 v -0.01206 h 1.33153 v -0.142971 q 0,-0.194648 -0.04995,-0.361736 -0.04823,-0.167087 -0.148139,-0.29111 -0.09991,-0.122301 -0.251492,-0.191203 -0.149862,-0.07062 -0.3514,-0.07062 -0.160197,0 -0.313504,0.06546 -0.151585,0.06546 -0.27044,0.187758 -0.120579,0.124023 -0.192926,0.303168 -0.07235,0.177423 -0.07235,0.403077 v 0.07235 q 0,0.194648 0.06546,0.360013 0.06546,0.165364 0.18259,0.285943 0.117133,0.120578 0.280776,0.187758 0.165364,0.06718 0.361735,0.06718 z m -0.04134,-1.670872 q 0.122301,0 0.210151,0.04479 0.08957,0.04479 0.148139,0.117133 0.05857,0.07235 0.0913,0.172255 0.03273,0.09819 0.03273,0.184313 v 0.0155 H 50.19293 q 0.01895,-0.129191 0.06546,-0.227377 0.04823,-0.09991 0.117133,-0.16881 0.0689,-0.06718 0.155029,-0.10163 0.08613,-0.03617 0.182591,-0.03617 z"
         id="path383" />
      <path
         d="m 53.269403,91.333944 q -0.203261,0 -0.363458,0.08957 -0.158475,0.08785 -0.272163,0.241157 l -0.0017,-0.04651 -0.01378,-0.24977 h -0.303168 v 1.863798 h 0.320394 v -1.195449 q 0.03101,-0.08613 0.07751,-0.155029 0.04823,-0.07063 0.111966,-0.118856 0.07062,-0.05512 0.165365,-0.08268 0.09474,-0.02928 0.211873,-0.02928 0.0913,0 0.173978,0.01033 0.0844,0.0086 0.177422,0.02928 l 0.04306,-0.311782 q -0.04823,-0.02067 -0.144694,-0.03273 -0.09474,-0.01206 -0.18259,-0.01206 z"
         id="path385" />
    </g>
    <g
       aria-label="linker"
       id="text839-7-9"
       style="font-size:3.52778px;line-height:1.25;font-family:'Roboto Mono';-inkscape-font-specification:'Roboto Mono';text-align:center;text-anchor:middle;stroke-width:0.264583">
      <path
         d="m 129.36462,56.095532 v 0.277331 h 0.6339 v 2.092897 h -0.6339 v 0.275607 h 1.56063 V 58.46576 h -0.60806 v -2.370228 z"
         id="path388" />
      <path
         d="M 131.48163,56.877569 V 57.1549 h 0.6339 v 1.31086 h -0.6339 v 0.275607 h 1.56063 V 58.46576 h -0.60806 v -1.588191 z m 0.59256,-0.489203 q 0,0.07751 0.0465,0.129191 0.0482,0.05168 0.14469,0.05168 0.0947,0 0.14298,-0.05168 0.0482,-0.05168 0.0482,-0.129191 0,-0.04306 -0.0138,-0.07924 -0.0138,-0.03617 -0.0413,-0.06029 -0.0224,-0.02239 -0.0568,-0.03445 -0.0344,-0.01378 -0.0792,-0.01378 -0.0448,0 -0.081,0.01378 -0.0344,0.01206 -0.0568,0.03445 -0.0276,0.02584 -0.0413,0.06201 -0.0121,0.03617 -0.0121,0.07751 z"
         id="path390" />
      <path
         d="m 133.54869,58.741367 h 0.31867 v -1.336698 q 0.0327,-0.06029 0.0758,-0.110243 0.0448,-0.04995 0.0965,-0.08785 0.0637,-0.04306 0.13953,-0.06718 0.0758,-0.02584 0.16364,-0.02584 0.10163,0 0.17914,0.02411 0.0792,0.02412 0.13436,0.07752 0.0534,0.0534 0.081,0.139527 0.0276,0.08613 0.0276,0.21015 v 1.176501 h 0.31867 v -1.183391 q 0,-0.186035 -0.0465,-0.320394 -0.0448,-0.136081 -0.1292,-0.223931 -0.0844,-0.08785 -0.20498,-0.129191 -0.11886,-0.04134 -0.26527,-0.04134 -0.10852,0.0017 -0.20671,0.03273 -0.0965,0.02928 -0.17914,0.0844 -0.0551,0.03617 -0.10508,0.08613 -0.0482,0.04823 -0.0896,0.106798 l -0.0224,-0.275608 h -0.28595 z"
         id="path392" />
      <path
         d="m 136.22381,57.87148 0.68385,0.869887 h 0.4048 l -0.86989,-1.086928 0.75448,-0.77687 h -0.38757 l -0.61151,0.613228 -0.20843,0.223931 v -1.619196 h -0.32039 v 2.645835 h 0.32039 v -0.644233 z"
         id="path394" />
      <path
         d="m 138.6061,58.775818 q 0.27216,0 0.45647,-0.10852 0.18604,-0.110243 0.27905,-0.251492 l -0.19464,-0.151585 q -0.0879,0.113689 -0.22049,0.18259 -0.13264,0.0689 -0.30317,0.0689 -0.12919,0 -0.23599,-0.04823 -0.1068,-0.04823 -0.18259,-0.132636 -0.0741,-0.07924 -0.11713,-0.18259 -0.0413,-0.103353 -0.0534,-0.239435 v -0.01206 h 1.33153 v -0.142971 q 0,-0.194648 -0.0499,-0.361735 -0.0482,-0.167088 -0.14814,-0.291111 -0.0999,-0.122301 -0.25149,-0.191203 -0.14987,-0.07062 -0.3514,-0.07062 -0.1602,0 -0.31351,0.06546 -0.15158,0.06546 -0.27044,0.187758 -0.12058,0.124024 -0.19292,0.303169 -0.0724,0.177422 -0.0724,0.403076 v 0.07235 q 0,0.194648 0.0655,0.360013 0.0654,0.165365 0.18259,0.285943 0.11713,0.120579 0.28077,0.187758 0.16537,0.06718 0.36174,0.06718 z m -0.0413,-1.670872 q 0.1223,0 0.21015,0.04479 0.0896,0.04479 0.14814,0.117134 0.0586,0.07235 0.0913,0.172254 0.0327,0.09819 0.0327,0.184313 v 0.0155 h -1.00252 q 0.0189,-0.129191 0.0655,-0.227376 0.0482,-0.09991 0.11714,-0.16881 0.0689,-0.06718 0.15502,-0.101631 0.0861,-0.03617 0.1826,-0.03617 z"
         id="path396" />
      <path
         d="m 141.12102,56.843119 q -0.20326,0 -0.36346,0.08957 -0.15848,0.08785 -0.27216,0.241157 l -0.002,-0.04651 -0.0138,-0.24977 h -0.30316 v 1.863798 h 0.32039 v -1.195449 q 0.031,-0.08613 0.0775,-0.155029 0.0482,-0.07062 0.11197,-0.118856 0.0706,-0.05512 0.16536,-0.08268 0.0947,-0.02928 0.21188,-0.02928 0.0913,0 0.17398,0.01034 0.0844,0.0086 0.17742,0.02928 l 0.0431,-0.311781 q -0.0482,-0.02067 -0.14469,-0.03273 -0.0947,-0.01206 -0.18259,-0.01206 z"
         id="path398" />
    </g>
    <path
       style="fill:#000000;stroke:#000000;stroke-width:0.265;stroke-dasharray:none;stroke-opacity:1;marker-end:url(#TriangleStart)"
       d="M 89.269785,22.02738 119.5672,49.53901"
       id="path1531"
       sodipodi:nodetypes="cc" />
    <path
       style="fill:#000000;stroke:#000000;stroke-width:0.265;stroke-dasharray:none;stroke-opacity:1;marker-end:url(#TriangleStart)"
       d="M 89.269785,91.877424 119.38855,66.152263"
       id="path1580"
       sodipodi:nodetypes="cc" />
  </g>
</svg>
