<?xml version="1.0" encoding="UTF-8" standalone="no"?>
<svg
   width="208.74045mm"
   height="108.59467mm"
   viewBox="0 0 208.74045 108.59467"
   version="1.1"
   id="svg8"
   inkscape:version="1.2.2 (b0a84865, 2022-12-01)"
   sodipodi:docname="multi_driver.svg"
   xmlns:inkscape="http://www.inkscape.org/namespaces/inkscape"
   xmlns:sodipodi="http://sodipodi.sourceforge.net/DTD/sodipodi-0.dtd"
   xmlns="http://www.w3.org/2000/svg"
   xmlns:svg="http://www.w3.org/2000/svg"
   xmlns:rdf="http://www.w3.org/1999/02/22-rdf-syntax-ns#"
   xmlns:cc="http://creativecommons.org/ns#"
   xmlns:dc="http://purl.org/dc/elements/1.1/">
  <defs
     id="defs2">
    <marker
       style="overflow:visible"
       id="TriangleStart"
       refX="0"
       refY="0"
       orient="auto-start-reverse"
       inkscape:stockid="TriangleStart"
       markerWidth="8.3240004"
       markerHeight="9.6231213"
       viewBox="0 0 5.3244081 6.1553851"
       inkscape:isstock="true"
       inkscape:collect="always"
       preserveAspectRatio="xMidYMid">
      <path
         transform="scale(0.5)"
         style="fill:context-stroke;fill-rule:evenodd;stroke:context-stroke;stroke-width:1pt"
         d="M 5.77,0 -2.88,5 V -5 Z"
         id="path135" />
    </marker>
    <marker
       style="overflow:visible"
       id="TriangleStart-3"
       refX="0"
       refY="0"
       orient="auto-start-reverse"
       inkscape:stockid="TriangleStart"
       markerWidth="8.3240004"
       markerHeight="9.6231213"
       viewBox="0 0 5.3244081 6.1553851"
       inkscape:isstock="true"
       inkscape:collect="always"
       preserveAspectRatio="xMidYMid">
      <path
         transform="scale(0.5)"
         style="fill:context-stroke;fill-rule:evenodd;stroke:context-stroke;stroke-width:1pt"
         d="M 5.77,0 -2.88,5 V -5 Z"
         id="path135-5" />
    </marker>
    <marker
       style="overflow:visible"
       id="TriangleStart-3-6"
       refX="0"
       refY="0"
       orient="auto-start-reverse"
       inkscape:stockid="TriangleStart"
       markerWidth="8.3240004"
       markerHeight="9.6231213"
       viewBox="0 0 5.3244081 6.1553851"
       inkscape:isstock="true"
       inkscape:collect="always"
       preserveAspectRatio="xMidYMid">
      <path
         transform="scale(0.5)"
         style="fill:context-stroke;fill-rule:evenodd;stroke:context-stroke;stroke-width:1pt"
         d="M 5.77,0 -2.88,5 V -5 Z"
         id="path135-5-6" />
    </marker>
    <marker
       style="overflow:visible"
       id="TriangleStart-3-4"
       refX="0"
       refY="0"
       orient="auto-start-reverse"
       inkscape:stockid="TriangleStart"
       markerWidth="8.3240004"
       markerHeight="9.6231213"
       viewBox="0 0 5.3244081 6.1553851"
       inkscape:isstock="true"
       inkscape:collect="always"
       preserveAspectRatio="xMidYMid">
      <path
         transform="scale(0.5)"
         style="fill:context-stroke;fill-rule:evenodd;stroke:context-stroke;stroke-width:1pt"
         d="M 5.77,0 -2.88,5 V -5 Z"
         id="path135-5-1" />
    </marker>
    <marker
       style="overflow:visible"
       id="TriangleStart-3-1"
       refX="0"
       refY="0"
       orient="auto-start-reverse"
       inkscape:stockid="TriangleStart"
       markerWidth="8.3240004"
       markerHeight="9.6231213"
       viewBox="0 0 5.3244081 6.1553851"
       inkscape:isstock="true"
       inkscape:collect="always"
       preserveAspectRatio="xMidYMid">
      <path
         transform="scale(0.5)"
         style="fill:context-stroke;fill-rule:evenodd;stroke:context-stroke;stroke-width:1pt"
         d="M 5.77,0 -2.88,5 V -5 Z"
         id="path135-5-2" />
    </marker>
    <marker
       style="overflow:visible"
       id="TriangleStart-3-8"
       refX="0"
       refY="0"
       orient="auto-start-reverse"
       inkscape:stockid="TriangleStart"
       markerWidth="8.3240004"
       markerHeight="9.6231213"
       viewBox="0 0 5.3244081 6.1553851"
       inkscape:isstock="true"
       inkscape:collect="always"
       preserveAspectRatio="xMidYMid">
      <path
         transform="scale(0.5)"
         style="fill:context-stroke;fill-rule:evenodd;stroke:context-stroke;stroke-width:1pt"
         d="M 5.77,0 -2.88,5 V -5 Z"
         id="path135-5-3" />
    </marker>
    <marker
       style="overflow:visible"
       id="TriangleStart-3-46"
       refX="0"
       refY="0"
       orient="auto-start-reverse"
       inkscape:stockid="TriangleStart"
       markerWidth="8.3240004"
       markerHeight="9.6231213"
       viewBox="0 0 5.3244081 6.1553851"
       inkscape:isstock="true"
       inkscape:collect="always"
       preserveAspectRatio="xMidYMid">
      <path
         transform="scale(0.5)"
         style="fill:context-stroke;fill-rule:evenodd;stroke:context-stroke;stroke-width:1pt"
         d="M 5.77,0 -2.88,5 V -5 Z"
         id="path135-5-9" />
    </marker>
    <marker
       style="overflow:visible"
       id="TriangleStart-6"
       refX="0"
       refY="0"
       orient="auto-start-reverse"
       inkscape:stockid="TriangleStart"
       markerWidth="8.3240004"
       markerHeight="9.6231213"
       viewBox="0 0 5.3244081 6.1553851"
       inkscape:isstock="true"
       inkscape:collect="always"
       preserveAspectRatio="xMidYMid">
      <path
         transform="scale(0.5)"
         style="fill:context-stroke;fill-rule:evenodd;stroke:context-stroke;stroke-width:1pt"
         d="M 5.77,0 -2.88,5 V -5 Z"
         id="path135-4" />
    </marker>
  </defs>
  <sodipodi:namedview
     id="base"
     pagecolor="#ffffff"
     bordercolor="#666666"
     borderopacity="1.0"
     inkscape:pageopacity="0.0"
     inkscape:pageshadow="2"
     inkscape:zoom="1.4810403"
     inkscape:cx="329.49812"
     inkscape:cy="184.32989"
     inkscape:document-units="mm"
     inkscape:current-layer="layer1"
     inkscape:document-rotation="0"
     showgrid="false"
     inkscape:window-width="1631"
     inkscape:window-height="1008"
     inkscape:window-x="0"
     inkscape:window-y="38"
     inkscape:window-maximized="0"
     fit-margin-top="0"
     fit-margin-left="0"
     fit-margin-right="0"
     fit-margin-bottom="0"
     inkscape:showpageshadow="2"
     inkscape:pagecheckerboard="0"
     inkscape:deskcolor="#d1d1d1" />
  <metadata
     id="metadata5">
    <rdf:RDF>
      <cc:Work
         rdf:about="">
        <dc:format>image/svg+xml</dc:format>
        <dc:type
           rdf:resource="http://purl.org/dc/dcmitype/StillImage" />
        <dc:title />
      </cc:Work>
    </rdf:RDF>
  </metadata>
  <g
     inkscape:label="Layer 1"
     inkscape:groupmode="layer"
     id="layer1"
     transform="translate(0.04880307,-4.3134526)">
    <path
       id="rect835"
       style="fill:#ffffff;stroke:#000000;stroke-width:0.254"
       d="M 6.9943275,8.9770098 H 23.2512 c 1.088674,0 1.965116,0.8764419 1.965116,1.9651162 v 21.616282 c 0,1.088674 -0.876442,1.965116 -1.965116,1.965116 H 6.9943275 c -1.0886745,0 -1.9651165,-0.876442 -1.9651165,-1.965116 V 10.942126 c 0,-1.0886743 0.876442,-1.9651162 1.9651165,-1.9651162 z" />
    <g
       aria-label="hello.c"
       id="text839"
       style="font-size:4.23333px;line-height:1.25;font-family:'Courier New';-inkscape-font-specification:'Courier New';text-align:center;text-anchor:middle;stroke-width:0.264583">
      <path
         d="m 6.2911759,36.39405 v 1.068668 q 0.1653645,-0.179834 0.3162595,-0.252181 0.1529621,-0.07441 0.3410642,-0.07441 0.2025714,0 0.3431312,0.07235 0.1426269,0.07028 0.2377114,0.219108 0.095085,0.146761 0.095085,0.310058 v 1.076936 H 7.81873 q 0.064079,0 0.088883,0.02481 0.026872,0.02274 0.026872,0.06201 0,0.03721 -0.026872,0.06201 -0.024805,0.02481 -0.088883,0.02481 H 7.2544238 q -0.064079,0 -0.09095,-0.02481 -0.026872,-0.0248 -0.026872,-0.06201 0,-0.03927 0.026872,-0.06201 0.026872,-0.02481 0.09095,-0.02481 H 7.448727 v -1.064533 q 0,-0.188102 -0.1364256,-0.314193 -0.1343586,-0.12609 -0.3762041,-0.12609 -0.1901691,0 -0.3245278,0.09302 -0.097152,0.06615 -0.3203936,0.312126 v 1.099673 h 0.1963703 q 0.062012,0 0.088883,0.02481 0.026872,0.02274 0.026872,0.06201 0,0.03721 -0.026872,0.06201 -0.026872,0.02481 -0.088883,0.02481 H 5.921173 q -0.062012,0 -0.088883,-0.02481 -0.026872,-0.0248 -0.026872,-0.06201 0,-0.03927 0.026872,-0.06201 0.026872,-0.02481 0.088883,-0.02481 H 6.1175433 V 36.56975 H 5.883966 q -0.062012,0 -0.088883,-0.02481 -0.026872,-0.0248 -0.026872,-0.06408 0,-0.03721 0.026872,-0.06201 0.026872,-0.02481 0.088883,-0.02481 z"
         id="path238" />
      <path
         d="M 10.342605,38.134511 H 8.5732052 q 0.045475,0.33693 0.2811196,0.543636 0.2377114,0.204638 0.5870438,0.204638 0.1943032,0 0.4072099,-0.06408 0.2129065,-0.06408 0.3472655,-0.169498 0.03927,-0.03101 0.06821,-0.03101 0.03307,0 0.05788,0.02687 0.0248,0.0248 0.0248,0.05994 0,0.03514 -0.03307,0.06821 -0.09922,0.103353 -0.3534665,0.194303 -0.2521808,0.08888 -0.5188309,0.08888 -0.446484,0 -0.7462071,-0.291455 -0.297656,-0.293522 -0.297656,-0.709 0,-0.378271 0.2790525,-0.649056 0.2811196,-0.270784 0.6945307,-0.270784 0.4258134,0 0.7007313,0.279053 0.274919,0.276985 0.270785,0.719335 z m -0.1757,-0.1757 q -0.05168,-0.28732 -0.2728513,-0.467154 -0.2191079,-0.179834 -0.522965,-0.179834 -0.3038572,0 -0.5229651,0.177767 -0.2191079,0.177766 -0.2728513,0.469221 z"
         id="path240" />
      <path
         d="m 12.031389,36.39405 v 2.420522 h 0.682128 q 0.06408,0 0.09095,0.02481 0.02687,0.02274 0.02687,0.06201 0,0.03721 -0.02687,0.06201 -0.02687,0.02481 -0.09095,0.02481 h -1.537889 q -0.06201,0 -0.08888,-0.02481 -0.02687,-0.0248 -0.02687,-0.06201 0,-0.03927 0.02687,-0.06201 0.02687,-0.02481 0.08888,-0.02481 h 0.682128 V 36.56975 h -0.500227 q -0.06201,0 -0.09095,-0.02481 -0.02687,-0.0248 -0.02687,-0.06408 0,-0.03721 0.02687,-0.06201 0.02687,-0.02481 0.09095,-0.02481 z"
         id="path242" />
      <path
         d="m 14.571801,36.39405 v 2.420522 h 0.682128 q 0.06408,0 0.09095,0.02481 0.02687,0.02274 0.02687,0.06201 0,0.03721 -0.02687,0.06201 -0.02687,0.02481 -0.09095,0.02481 H 13.71604 q -0.06201,0 -0.08888,-0.02481 -0.02687,-0.0248 -0.02687,-0.06201 0,-0.03927 0.02687,-0.06201 0.02687,-0.02481 0.08888,-0.02481 h 0.682128 V 36.56975 H 13.89794 q -0.06201,0 -0.09095,-0.02481 -0.02687,-0.0248 -0.02687,-0.06408 0,-0.03721 0.02687,-0.06201 0.02687,-0.02481 0.09095,-0.02481 z"
         id="path244" />
      <path
         d="m 17.994844,38.097304 q 0,0.396875 -0.285253,0.677994 -0.283187,0.28112 -0.684196,0.28112 -0.405143,0 -0.688329,-0.28112 -0.283187,-0.283186 -0.283187,-0.677994 0,-0.396875 0.283187,-0.677994 0.283186,-0.283187 0.688329,-0.283187 0.401009,0 0.684196,0.28112 0.285253,0.281119 0.285253,0.680061 z m -0.175699,0 q 0,-0.326595 -0.233578,-0.556038 -0.23151,-0.229443 -0.562239,-0.229443 -0.330729,0 -0.564306,0.23151 -0.23151,0.229443 -0.23151,0.553971 0,0.322461 0.23151,0.553971 0.233577,0.23151 0.564306,0.23151 0.330729,0 0.562239,-0.229443 0.233578,-0.23151 0.233578,-0.556038 z"
         id="path246" />
      <path
         d="m 19.528599,38.490045 h 0.07441 q 0.115755,0 0.198438,0.08268 0.08268,0.08062 0.08268,0.19637 0,0.119889 -0.08475,0.200504 -0.08268,0.08062 -0.196371,0.08062 h -0.07441 q -0.115755,0 -0.198437,-0.08062 -0.08268,-0.08268 -0.08268,-0.198437 0,-0.119889 0.08268,-0.200504 0.08475,-0.08061 0.198437,-0.08061 z"
         id="path248" />
      <path
         d="m 22.829688,37.373835 v -0.05788 q 0,-0.06408 0.0248,-0.09095 0.02481,-0.02687 0.06201,-0.02687 0.03927,0 0.06408,0.02687 0.0248,0.02687 0.0248,0.09095 v 0.392741 q -0.0021,0.06408 -0.02687,0.09095 -0.02274,0.02687 -0.06201,0.02687 -0.03514,0 -0.05994,-0.02274 -0.02274,-0.02481 -0.02687,-0.08062 -0.0124,-0.146761 -0.194304,-0.279053 -0.179833,-0.132291 -0.485758,-0.132291 -0.386539,0 -0.587043,0.241845 -0.200505,0.241846 -0.200505,0.553971 0,0.33693 0.221175,0.556038 0.221175,0.219108 0.572575,0.219108 0.202571,0 0.411344,-0.07441 0.210839,-0.07441 0.380338,-0.239778 0.04341,-0.04134 0.07648,-0.04134 0.03514,0 0.05788,0.0248 0.02481,0.02274 0.02481,0.05788 0,0.08888 -0.208773,0.225309 -0.33693,0.221175 -0.750341,0.221175 -0.419612,0 -0.690396,-0.26665 -0.268717,-0.268718 -0.268717,-0.680062 0,-0.419612 0.274918,-0.696597 0.276985,-0.276986 0.696598,-0.276986 0.398941,0 0.669726,0.237712 z"
         id="path250" />
    </g>
    <path
       id="rect835-7"
       style="fill:#ffffff;stroke:#000000;stroke-width:0.254"
       d="m 68.392012,8.9770098 h 16.256872 c 1.088674,0 1.965116,0.8764419 1.965116,1.9651162 v 21.616282 c 0,1.088674 -0.876442,1.965116 -1.965116,1.965116 H 68.392012 c -1.088675,0 -1.965117,-0.876442 -1.965117,-1.965116 V 10.942126 c 0,-1.0886743 0.876442,-1.9651162 1.965117,-1.9651162 z" />
    <path
       id="rect835-7-8-0"
       style="fill:#ffffff;stroke:#000000;stroke-width:0.254"
       d="m 186.95404,44.708313 h 16.25687 c 1.08868,0 1.96512,0.876442 1.96512,1.965116 v 21.616282 c 0,1.088675 -0.87644,1.965116 -1.96512,1.965116 h -16.25687 c -1.08868,0 -1.96512,-0.876441 -1.96512,-1.965116 V 46.673429 c 0,-1.088674 0.87644,-1.965116 1.96512,-1.965116 z" />
    <path
       id="rect963"
       style="fill:#ffffff;stroke:#000000;stroke-width:0.254"
       d="m 34.989324,17.284094 h 20.723047 c 1.088674,0 1.965115,0.876442 1.965115,1.965116 v 5.002116 c 0,1.088674 -0.876441,1.965116 -1.965115,1.965116 H 34.989324 c -1.088674,0 -1.965116,-0.876442 -1.965116,-1.965116 V 19.24921 c 0,-1.088674 0.876442,-1.965116 1.965116,-1.965116 z" />
    <path
       id="rect963-8"
       style="fill:#ffffff;stroke:#000000;stroke-width:0.254"
       d="m 125.05786,53.015396 h 20.72305 c 1.08867,0 1.96511,0.876442 1.96511,1.965116 v 5.002116 c 0,1.088675 -0.87644,1.965116 -1.96511,1.965116 h -20.72305 c -1.08868,0 -1.96512,-0.876441 -1.96512,-1.965116 v -5.002116 c 0,-1.088674 0.87644,-1.965116 1.96512,-1.965116 z" />
    <g
       aria-label="a.out"
       id="text839-2"
       style="font-size:4.23333px;line-height:1.25;font-family:'Courier New';-inkscape-font-specification:'Courier New';text-align:center;text-anchor:middle;stroke-width:0.264583">
      <path
         d="m 190.4515,77.815269 v -0.250113 q -0.37827,0.318326 -0.80822,0.318326 -0.31213,0 -0.48783,-0.157096 -0.1757,-0.159163 -0.1757,-0.388606 0,-0.252181 0.23151,-0.440283 0.23152,-0.188102 0.67593,-0.188102 0.11989,0 0.26045,0.01654 0.14056,0.01447 0.30386,0.04754 v -0.281119 q 0,-0.142627 -0.13229,-0.248047 -0.13229,-0.10542 -0.39688,-0.10542 -0.20257,0 -0.56844,0.117823 -0.0661,0.02067 -0.0848,0.02067 -0.0331,0 -0.0579,-0.02481 -0.0227,-0.0248 -0.0227,-0.06201 0,-0.03514 0.0207,-0.05581 0.0289,-0.03101 0.23358,-0.08475 0.32246,-0.08682 0.48782,-0.08682 0.32866,0 0.51263,0.163297 0.18397,0.16123 0.18397,0.365869 v 1.149283 h 0.23151 q 0.0641,0 0.0909,0.0248 0.0269,0.02274 0.0269,0.06201 0,0.03721 -0.0269,0.06201 -0.0269,0.0248 -0.0909,0.0248 z m 0,-0.864029 q -0.12196,-0.03514 -0.25838,-0.05168 -0.13643,-0.01654 -0.28732,-0.01654 -0.37828,0 -0.59118,0.163298 -0.16123,0.121956 -0.16123,0.291455 0,0.157096 0.12195,0.264583 0.12403,0.107487 0.35967,0.107487 0.22531,0 0.41755,-0.08888 0.1943,-0.09095 0.39894,-0.28732 z"
         id="path257" />
      <path
         d="m 192.45654,77.317109 h 0.0744 q 0.11575,0 0.19843,0.08268 0.0827,0.08062 0.0827,0.196371 0,0.119889 -0.0848,0.200504 -0.0827,0.08061 -0.19637,0.08061 h -0.0744 q -0.11575,0 -0.19844,-0.08061 -0.0827,-0.08268 -0.0827,-0.198437 0,-0.11989 0.0827,-0.200505 0.0847,-0.08061 0.19844,-0.08061 z"
         id="path259" />
      <path
         d="m 196.00361,76.924369 q 0,0.396874 -0.28525,0.677994 -0.28319,0.281119 -0.6842,0.281119 -0.40514,0 -0.68833,-0.281119 -0.28319,-0.283187 -0.28319,-0.677994 0,-0.396875 0.28319,-0.677995 0.28319,-0.283186 0.68833,-0.283186 0.40101,0 0.6842,0.281119 0.28525,0.28112 0.28525,0.680062 z m -0.1757,0 q 0,-0.326595 -0.23358,-0.556038 -0.23151,-0.229444 -0.56224,-0.229444 -0.33073,0 -0.5643,0.231511 -0.23151,0.229443 -0.23151,0.553971 0,0.32246 0.23151,0.55397 0.23357,0.231511 0.5643,0.231511 0.33073,0 0.56224,-0.229444 0.23358,-0.23151 0.23358,-0.556037 z"
         id="path261" />
      <path
         d="m 198.16782,77.815269 v -0.254247 q -0.35554,0.32246 -0.76895,0.32246 -0.25425,0 -0.38654,-0.138492 -0.17156,-0.181901 -0.17156,-0.423747 v -1.120344 h -0.23358 q -0.062,0 -0.0889,-0.02481 -0.0269,-0.0248 -0.0269,-0.06408 0,-0.03721 0.0269,-0.06201 0.0269,-0.02481 0.0889,-0.02481 h 0.40721 v 1.296044 q 0,0.169499 0.10749,0.279053 0.10748,0.109554 0.26871,0.109554 0.42375,0 0.77722,-0.388607 v -1.120344 h -0.3204 q -0.062,0 -0.0889,-0.02481 -0.0269,-0.0248 -0.0269,-0.06408 0,-0.03721 0.0269,-0.06201 0.0269,-0.02481 0.0889,-0.02481 h 0.49403 v 1.616438 h 0.14676 q 0.062,0 0.0889,0.0248 0.0269,0.02274 0.0269,0.06201 0,0.03721 -0.0269,0.06201 -0.0269,0.0248 -0.0889,0.0248 z"
         id="path263" />
      <path
         d="m 199.75738,76.025199 h 0.94258 q 0.062,0 0.0889,0.02481 0.0269,0.02481 0.0269,0.06408 0,0.03721 -0.0269,0.06201 -0.0269,0.02481 -0.0889,0.02481 h -0.94258 v 1.155484 q 0,0.150895 0.11989,0.252181 0.12196,0.101286 0.35553,0.101286 0.1757,0 0.38034,-0.05168 0.20464,-0.05374 0.31833,-0.119889 0.0413,-0.02687 0.0682,-0.02687 0.0331,0 0.0579,0.02687 0.0248,0.02481 0.0248,0.05994 0,0.031 -0.0269,0.05788 -0.0661,0.06821 -0.32246,0.148828 -0.25425,0.07855 -0.48782,0.07855 -0.30386,0 -0.48369,-0.142627 -0.17984,-0.142626 -0.17984,-0.384472 v -1.155484 h -0.32039 q -0.062,0 -0.0889,-0.02481 -0.0269,-0.0248 -0.0269,-0.06408 0,-0.03721 0.0269,-0.06201 0.0269,-0.02481 0.0889,-0.02481 h 0.32039 V 75.51257 q 0,-0.06201 0.0248,-0.08888 0.0248,-0.02687 0.062,-0.02687 0.0393,0 0.0641,0.02687 0.0248,0.02687 0.0248,0.08888 z"
         id="path265" />
    </g>
    <g
       aria-label="hello.o"
       id="text839-3"
       style="font-size:4.23333px;line-height:1.25;font-family:'Courier New';-inkscape-font-specification:'Courier New';text-align:center;text-anchor:middle;stroke-width:0.264583">
      <path
         d="m 69.021413,36.713844 v 1.068668 q 0.165364,-0.179834 0.316259,-0.252181 0.152963,-0.07441 0.341065,-0.07441 0.202571,0 0.343131,0.07235 0.142627,0.07028 0.237711,0.219108 0.09508,0.146761 0.09508,0.310058 v 1.076936 h 0.194303 q 0.06408,0 0.08888,0.02481 0.02687,0.02274 0.02687,0.06201 0,0.03721 -0.02687,0.06201 -0.0248,0.02481 -0.08888,0.02481 h -0.564306 q -0.06408,0 -0.09095,-0.02481 -0.02687,-0.02481 -0.02687,-0.06201 0,-0.03927 0.02687,-0.06201 0.02687,-0.02481 0.09095,-0.02481 h 0.194303 v -1.064534 q 0,-0.188102 -0.136426,-0.314192 -0.134358,-0.12609 -0.376204,-0.12609 -0.190169,0 -0.324527,0.09302 -0.09715,0.06615 -0.320394,0.312125 v 1.099674 h 0.19637 q 0.06201,0 0.08888,0.02481 0.02687,0.02274 0.02687,0.06201 0,0.03721 -0.02687,0.06201 -0.02687,0.02481 -0.08888,0.02481 H 68.65141 q -0.06201,0 -0.08888,-0.02481 -0.02687,-0.02481 -0.02687,-0.06201 0,-0.03927 0.02687,-0.06201 0.02687,-0.02481 0.08888,-0.02481 h 0.19637 v -2.244822 h -0.233577 q -0.06201,0 -0.08888,-0.02481 -0.02687,-0.02481 -0.02687,-0.06408 0,-0.03721 0.02687,-0.06201 0.02687,-0.02481 0.08888,-0.02481 z"
         id="path268" />
      <path
         d="m 73.072842,38.454305 h -1.7694 q 0.04547,0.33693 0.28112,0.543635 0.237711,0.204639 0.587044,0.204639 0.194303,0 0.40721,-0.06408 0.212906,-0.06408 0.347265,-0.169498 0.03927,-0.03101 0.06821,-0.03101 0.03307,0 0.05788,0.02687 0.02481,0.02481 0.02481,0.05994 0,0.03514 -0.03307,0.06821 -0.09922,0.103353 -0.353466,0.194303 -0.252181,0.08888 -0.518831,0.08888 -0.446484,0 -0.746207,-0.291454 -0.297656,-0.293522 -0.297656,-0.709 0,-0.378272 0.279052,-0.649056 0.28112,-0.270784 0.694531,-0.270784 0.425813,0 0.700732,0.279052 0.274918,0.276986 0.270784,0.719336 z m -0.1757,-0.1757 q -0.05168,-0.287321 -0.272851,-0.467155 -0.219108,-0.179833 -0.522965,-0.179833 -0.303857,0 -0.522965,0.177766 -0.219108,0.177767 -0.272852,0.469222 z"
         id="path270" />
      <path
         d="m 74.761626,36.713844 v 2.420522 h 0.682128 q 0.06408,0 0.09095,0.02481 0.02687,0.02274 0.02687,0.06201 0,0.03721 -0.02687,0.06201 -0.02687,0.02481 -0.09095,0.02481 h -1.537889 q -0.06201,0 -0.08888,-0.02481 -0.02687,-0.02481 -0.02687,-0.06201 0,-0.03927 0.02687,-0.06201 0.02687,-0.02481 0.08888,-0.02481 h 0.682128 v -2.244822 h -0.500227 q -0.06201,0 -0.09095,-0.02481 -0.02687,-0.02481 -0.02687,-0.06408 0,-0.03721 0.02687,-0.06201 0.02687,-0.02481 0.09095,-0.02481 z"
         id="path272" />
      <path
         d="m 77.302038,36.713844 v 2.420522 h 0.682128 q 0.06408,0 0.09095,0.02481 0.02687,0.02274 0.02687,0.06201 0,0.03721 -0.02687,0.06201 -0.02687,0.02481 -0.09095,0.02481 h -1.537889 q -0.06201,0 -0.08888,-0.02481 -0.02687,-0.02481 -0.02687,-0.06201 0,-0.03927 0.02687,-0.06201 0.02687,-0.02481 0.08888,-0.02481 h 0.682128 v -2.244822 h -0.500228 q -0.06201,0 -0.09095,-0.02481 -0.02687,-0.02481 -0.02687,-0.06408 0,-0.03721 0.02687,-0.06201 0.02687,-0.02481 0.09095,-0.02481 z"
         id="path274" />
      <path
         d="m 80.725081,38.417098 q 0,0.396874 -0.285253,0.677994 -0.283187,0.281119 -0.684196,0.281119 -0.405143,0 -0.688329,-0.281119 -0.283187,-0.283187 -0.283187,-0.677994 0,-0.396875 0.283187,-0.677995 0.283186,-0.283186 0.688329,-0.283186 0.401009,0 0.684196,0.281119 0.285253,0.28112 0.285253,0.680062 z m -0.175699,0 q 0,-0.326595 -0.233578,-0.556038 -0.23151,-0.229443 -0.562239,-0.229443 -0.330729,0 -0.564306,0.23151 -0.23151,0.229443 -0.23151,0.553971 0,0.32246 0.23151,0.553971 0.233577,0.23151 0.564306,0.23151 0.330729,0 0.562239,-0.229443 0.233578,-0.231511 0.233578,-0.556038 z"
         id="path276" />
      <path
         d="m 82.258836,38.809838 h 0.07441 q 0.115755,0 0.198438,0.08268 0.08268,0.08062 0.08268,0.196371 0,0.119889 -0.08475,0.200504 -0.08268,0.08062 -0.196371,0.08062 h -0.07441 q -0.115755,0 -0.198437,-0.08062 -0.08268,-0.08268 -0.08268,-0.198437 0,-0.119889 0.08268,-0.200505 0.08475,-0.08062 0.198437,-0.08062 z"
         id="path278" />
      <path
         d="m 85.805904,38.417098 q 0,0.396874 -0.285253,0.677994 -0.283187,0.281119 -0.684196,0.281119 -0.405143,0 -0.688329,-0.281119 -0.283187,-0.283187 -0.283187,-0.677994 0,-0.396875 0.283187,-0.677995 0.283186,-0.283186 0.688329,-0.283186 0.401009,0 0.684196,0.281119 0.285253,0.28112 0.285253,0.680062 z m -0.175699,0 q 0,-0.326595 -0.233578,-0.556038 -0.23151,-0.229443 -0.562239,-0.229443 -0.330729,0 -0.564306,0.23151 -0.23151,0.229443 -0.23151,0.553971 0,0.32246 0.23151,0.553971 0.233577,0.23151 0.564306,0.23151 0.330729,0 0.562239,-0.229443 0.233578,-0.231511 0.233578,-0.556038 z"
         id="path280" />
    </g>
    <path
       id="rect835-8"
       style="fill:#ffffff;stroke:#000000;stroke-width:0.254"
       d="M 6.7834272,44.708313 H 23.040299 c 1.088675,0 1.965117,0.876442 1.965117,1.965116 v 21.616282 c 0,1.088675 -0.876442,1.965116 -1.965117,1.965116 H 6.7834272 c -1.0886745,0 -1.9651165,-0.876441 -1.9651165,-1.965116 V 46.673429 c 0,-1.088674 0.876442,-1.965116 1.9651165,-1.965116 z" />
    <g
       aria-label="foo.cpp"
       id="text839-4"
       style="font-size:4.23333px;line-height:1.25;font-family:'Courier New';-inkscape-font-specification:'Courier New';text-align:center;text-anchor:middle;stroke-width:0.264583">
      <path
         d="m 6.5370901,73.4648 v 1.440738 h 0.7627435 q 0.062012,0 0.088883,0.0248 0.026872,0.02274 0.026872,0.06201 0,0.03721 -0.026872,0.06201 -0.026872,0.0248 -0.088883,0.0248 H 5.9417781 q -0.062012,0 -0.088883,-0.0248 -0.026872,-0.02481 -0.026872,-0.06201 0,-0.03927 0.026872,-0.06201 0.026872,-0.0248 0.088883,-0.0248 H 6.3613904 V 73.4648 H 5.9851863 q -0.062012,0 -0.088883,-0.02481 -0.026872,-0.0248 -0.026872,-0.06408 0,-0.03721 0.026872,-0.06201 0.026872,-0.02481 0.088883,-0.02481 h 0.3762041 v -0.262516 q 0,-0.219108 0.1777668,-0.380338 0.1777668,-0.16123 0.4712887,-0.16123 0.2459796,0 0.5250321,0.04547 0.1054198,0.01654 0.1260904,0.03927 0.022738,0.02274 0.022738,0.05994 0,0.03721 -0.024805,0.06201 -0.024805,0.02274 -0.066146,0.02274 -0.016536,0 -0.055811,-0.0062 -0.3121254,-0.04754 -0.5270991,-0.04754 -0.2273762,0 -0.3513995,0.111621 -0.1219563,0.111621 -0.1219563,0.254248 V 73.2891 H 7.349443 q 0.062012,0 0.088883,0.02481 0.026872,0.0248 0.026872,0.06408 0,0.03721 -0.026872,0.06201 -0.026872,0.02481 -0.088883,0.02481 z"
         id="path284" />
      <path
         d="m 10.162706,74.188269 q 0,0.396875 -0.2852541,0.677995 -0.2831866,0.281119 -0.6841954,0.281119 -0.4051429,0 -0.6883295,-0.281119 -0.2831866,-0.283187 -0.2831866,-0.677995 0,-0.396874 0.2831866,-0.677994 0.2831866,-0.283187 0.6883295,-0.283187 0.4010088,0 0.6841954,0.28112 0.2852541,0.28112 0.2852541,0.680061 z m -0.1757002,0 q 0,-0.326594 -0.2335773,-0.556038 -0.2315102,-0.229443 -0.5622391,-0.229443 -0.3307289,0 -0.5643061,0.23151 -0.2315103,0.229444 -0.2315103,0.553971 0,0.322461 0.2315103,0.553971 0.2335772,0.23151 0.5643061,0.23151 0.3307289,0 0.5622391,-0.229443 0.2335773,-0.23151 0.2335773,-0.556038 z"
         id="path286" />
      <path
         d="m 12.703117,74.188269 q 0,0.396875 -0.285254,0.677995 -0.283187,0.281119 -0.684195,0.281119 -0.405143,0 -0.68833,-0.281119 -0.283186,-0.283187 -0.283186,-0.677995 0,-0.396874 0.283186,-0.677994 0.283187,-0.283187 0.68833,-0.283187 0.401008,0 0.684195,0.28112 0.285254,0.28112 0.285254,0.680061 z m -0.1757,0 q 0,-0.326594 -0.233577,-0.556038 -0.23151,-0.229443 -0.562239,-0.229443 -0.330729,0 -0.564307,0.23151 -0.23151,0.229444 -0.23151,0.553971 0,0.322461 0.23151,0.553971 0.233578,0.23151 0.564307,0.23151 0.330729,0 0.562239,-0.229443 0.233577,-0.23151 0.233577,-0.556038 z"
         id="path288" />
      <path
         d="m 14.236872,74.58101 h 0.07441 q 0.115755,0 0.198438,0.08268 0.08268,0.08062 0.08268,0.19637 0,0.11989 -0.08475,0.200505 -0.08268,0.08061 -0.19637,0.08061 h -0.07441 q -0.115755,0 -0.198437,-0.08061 -0.08268,-0.08268 -0.08268,-0.198438 0,-0.119889 0.08268,-0.200504 0.08475,-0.08061 0.198437,-0.08061 z"
         id="path290" />
      <path
         d="m 17.53796,73.4648 v -0.05788 q 0,-0.06408 0.0248,-0.09095 0.0248,-0.02687 0.06201,-0.02687 0.03927,0 0.06408,0.02687 0.0248,0.02687 0.0248,0.09095 v 0.392741 q -0.0021,0.06408 -0.02687,0.09095 -0.02274,0.02687 -0.06201,0.02687 -0.03514,0 -0.05994,-0.02274 -0.02274,-0.0248 -0.02687,-0.08061 -0.0124,-0.146761 -0.194304,-0.279052 -0.179833,-0.132292 -0.485758,-0.132292 -0.386539,0 -0.587043,0.241846 -0.200505,0.241845 -0.200505,0.553971 0,0.33693 0.221175,0.556038 0.221175,0.219107 0.572575,0.219107 0.202571,0 0.411344,-0.07441 0.210839,-0.07441 0.380338,-0.239778 0.04341,-0.04134 0.07648,-0.04134 0.03514,0 0.05788,0.02481 0.02481,0.02274 0.02481,0.05788 0,0.08888 -0.208773,0.225309 -0.33693,0.221175 -0.750341,0.221175 -0.419612,0 -0.690396,-0.26665 -0.268717,-0.268717 -0.268717,-0.680061 0,-0.419613 0.274918,-0.696598 0.276985,-0.276986 0.696598,-0.276986 0.398941,0 0.669726,0.237712 z"
         id="path292" />
      <path
         d="m 18.699645,73.2891 v 0.31626 q 0.155029,-0.188102 0.332796,-0.283187 0.177766,-0.09509 0.419612,-0.09509 0.256315,0 0.473356,0.11989 0.21704,0.119889 0.334863,0.334863 0.119889,0.212906 0.119889,0.448551 0,0.374137 -0.268717,0.640787 -0.266651,0.264583 -0.657324,0.264583 -0.465088,0 -0.754475,-0.378271 v 1.04593 h 0.421679 q 0.06201,0 0.08888,0.02274 0.02687,0.0248 0.02687,0.06408 0,0.03721 -0.02687,0.06201 -0.02687,0.02481 -0.08888,0.02481 h -0.828889 q -0.06201,0 -0.08888,-0.02481 -0.02687,-0.02274 -0.02687,-0.06201 0,-0.03927 0.02687,-0.06408 0.02687,-0.02274 0.08888,-0.02274 h 0.233577 V 73.4648 h -0.233577 q -0.06201,0 -0.08888,-0.02481 -0.02687,-0.0248 -0.02687,-0.06408 0,-0.03721 0.02687,-0.06201 0.02687,-0.02481 0.08888,-0.02481 z m 1.504816,0.841292 q 0,-0.299723 -0.219108,-0.51263 -0.217041,-0.214974 -0.531233,-0.214974 -0.31626,0 -0.535368,0.214974 -0.219107,0.214974 -0.219107,0.51263 0,0.299723 0.219107,0.514697 0.219108,0.214973 0.535368,0.214973 0.312125,0 0.531233,-0.212906 0.219108,-0.214974 0.219108,-0.516764 z"
         id="path294" />
      <path
         d="m 21.240057,73.2891 v 0.31626 q 0.155029,-0.188102 0.332795,-0.283187 0.177767,-0.09509 0.419613,-0.09509 0.256315,0 0.473355,0.11989 0.217041,0.119889 0.334863,0.334863 0.11989,0.212906 0.11989,0.448551 0,0.374137 -0.268718,0.640787 -0.26665,0.264583 -0.657323,0.264583 -0.465088,0 -0.754475,-0.378271 v 1.04593 h 0.421679 q 0.06201,0 0.08888,0.02274 0.02687,0.0248 0.02687,0.06408 0,0.03721 -0.02687,0.06201 -0.02687,0.02481 -0.08888,0.02481 h -0.828889 q -0.06201,0 -0.08888,-0.02481 -0.02687,-0.02274 -0.02687,-0.06201 0,-0.03927 0.02687,-0.06408 0.02687,-0.02274 0.08888,-0.02274 h 0.233577 V 73.4648 h -0.233577 q -0.06201,0 -0.08888,-0.02481 -0.02687,-0.0248 -0.02687,-0.06408 0,-0.03721 0.02687,-0.06201 0.02687,-0.02481 0.08888,-0.02481 z m 1.504816,0.841292 q 0,-0.299723 -0.219108,-0.51263 -0.217041,-0.214974 -0.531233,-0.214974 -0.31626,0 -0.535368,0.214974 -0.219107,0.214974 -0.219107,0.51263 0,0.299723 0.219107,0.514697 0.219108,0.214973 0.535368,0.214973 0.312125,0 0.531233,-0.212906 0.219108,-0.214974 0.219108,-0.516764 z"
         id="path296" />
    </g>
    <path
       id="rect835-7-8"
       style="fill:#ffffff;stroke:#000000;stroke-width:0.254"
       d="m 68.181112,44.708313 h 16.256872 c 1.088675,0 1.965117,0.876442 1.965117,1.965116 v 21.616282 c 0,1.088675 -0.876442,1.965116 -1.965117,1.965116 H 68.181112 c -1.088674,0 -1.965116,-0.876441 -1.965116,-1.965116 V 46.673429 c 0,-1.088674 0.876442,-1.965116 1.965116,-1.965116 z" />
    <path
       id="rect963-5"
       style="fill:#ffffff;stroke:#000000;stroke-width:0.254"
       d="m 34.989324,53.015396 h 20.723047 c 1.088674,0 1.965115,0.876442 1.965115,1.965116 v 5.002116 c 0,1.088675 -0.876441,1.965116 -1.965115,1.965116 H 34.989324 c -1.088674,0 -1.965116,-0.876441 -1.965116,-1.965116 v -5.002116 c 0,-1.088674 0.876442,-1.965116 1.965116,-1.965116 z" />
    <g
       aria-label="foo.o"
       id="text839-3-2"
       style="font-size:4.23333px;line-height:1.25;font-family:'Courier New';-inkscape-font-specification:'Courier New';text-align:center;text-anchor:middle;stroke-width:0.264583">
      <path
         d="m 71.278585,73.255426 v 1.440738 h 0.762743 q 0.06201,0 0.08888,0.02481 0.02687,0.02274 0.02687,0.06201 0,0.03721 -0.02687,0.06201 -0.02687,0.02481 -0.08888,0.02481 h -1.358055 q -0.06201,0 -0.08888,-0.02481 -0.02687,-0.02481 -0.02687,-0.06201 0,-0.03927 0.02687,-0.06201 0.02687,-0.02481 0.08888,-0.02481 h 0.419612 v -1.440738 h -0.376204 q -0.06201,0 -0.08888,-0.0248 -0.02687,-0.02481 -0.02687,-0.06408 0,-0.03721 0.02687,-0.06201 0.02687,-0.0248 0.08888,-0.0248 h 0.376204 v -0.262516 q 0,-0.219108 0.177767,-0.380339 0.177766,-0.16123 0.471288,-0.16123 0.24598,0 0.525032,0.04547 0.10542,0.01654 0.126091,0.03927 0.02274,0.02274 0.02274,0.05994 0,0.03721 -0.0248,0.06201 -0.02481,0.02274 -0.06615,0.02274 -0.01654,0 -0.05581,-0.0062 -0.312125,-0.04754 -0.527099,-0.04754 -0.227376,0 -0.351399,0.111621 -0.121956,0.111621 -0.121956,0.254248 v 0.262516 h 0.812352 q 0.06201,0 0.08888,0.0248 0.02687,0.02481 0.02687,0.06408 0,0.03721 -0.02687,0.06201 -0.02687,0.0248 -0.08888,0.0248 z"
         id="path301" />
      <path
         d="m 74.9042,73.978896 q 0,0.396874 -0.285254,0.677994 -0.283186,0.28112 -0.684195,0.28112 -0.405143,0 -0.68833,-0.28112 -0.283186,-0.283187 -0.283186,-0.677994 0,-0.396875 0.283186,-0.677994 0.283187,-0.283187 0.68833,-0.283187 0.401009,0 0.684195,0.28112 0.285254,0.281119 0.285254,0.680061 z m -0.1757,0 q 0,-0.326595 -0.233577,-0.556038 -0.23151,-0.229443 -0.562239,-0.229443 -0.330729,0 -0.564306,0.23151 -0.231511,0.229443 -0.231511,0.553971 0,0.32246 0.231511,0.553971 0.233577,0.23151 0.564306,0.23151 0.330729,0 0.562239,-0.229443 0.233577,-0.23151 0.233577,-0.556038 z"
         id="path303" />
      <path
         d="m 77.444611,73.978896 q 0,0.396874 -0.285253,0.677994 -0.283187,0.28112 -0.684196,0.28112 -0.405143,0 -0.688329,-0.28112 -0.283187,-0.283187 -0.283187,-0.677994 0,-0.396875 0.283187,-0.677994 0.283186,-0.283187 0.688329,-0.283187 0.401009,0 0.684196,0.28112 0.285253,0.281119 0.285253,0.680061 z m -0.175699,0 q 0,-0.326595 -0.233578,-0.556038 -0.23151,-0.229443 -0.562239,-0.229443 -0.330729,0 -0.564306,0.23151 -0.23151,0.229443 -0.23151,0.553971 0,0.32246 0.23151,0.553971 0.233577,0.23151 0.564306,0.23151 0.330729,0 0.562239,-0.229443 0.233578,-0.23151 0.233578,-0.556038 z"
         id="path305" />
      <path
         d="m 78.978367,74.371636 h 0.07441 q 0.115755,0 0.198437,0.08268 0.08268,0.08062 0.08268,0.19637 0,0.119889 -0.08475,0.200504 -0.08268,0.08062 -0.19637,0.08062 h -0.07441 q -0.115755,0 -0.198438,-0.08062 -0.08268,-0.08268 -0.08268,-0.198437 0,-0.119889 0.08268,-0.200504 0.08475,-0.08062 0.198438,-0.08062 z"
         id="path307" />
      <path
         d="m 82.525434,73.978896 q 0,0.396874 -0.285254,0.677994 -0.283187,0.28112 -0.684195,0.28112 -0.405143,0 -0.68833,-0.28112 -0.283186,-0.283187 -0.283186,-0.677994 0,-0.396875 0.283186,-0.677994 0.283187,-0.283187 0.68833,-0.283187 0.401008,0 0.684195,0.28112 0.285254,0.281119 0.285254,0.680061 z m -0.1757,0 q 0,-0.326595 -0.233577,-0.556038 -0.231511,-0.229443 -0.562239,-0.229443 -0.330729,0 -0.564307,0.23151 -0.23151,0.229443 -0.23151,0.553971 0,0.32246 0.23151,0.553971 0.233578,0.23151 0.564307,0.23151 0.330728,0 0.562239,-0.229443 0.233577,-0.23151 0.233577,-0.556038 z"
         id="path309" />
    </g>
    <path
       id="rect835-8-3"
       style="fill:#ffffff;stroke:#000000;stroke-width:0.254"
       d="M 6.6047802,79.546844 H 22.861652 c 1.088675,0 1.965117,0.876442 1.965117,1.965117 v 21.616279 c 0,1.08868 -0.876442,1.96512 -1.965117,1.96512 H 6.6047802 c -1.0886745,0 -1.9651165,-0.87644 -1.9651165,-1.96512 V 81.511961 c 0,-1.088675 0.876442,-1.965117 1.9651165,-1.965117 z" />
    <g
       aria-label="bar.m"
       id="text839-4-9"
       style="font-size:4.23333px;line-height:1.25;font-family:'Courier New';-inkscape-font-specification:'Courier New';text-align:center;text-anchor:middle;stroke-width:0.264583">
      <path
         d="m 8.3593519,106.96388 v 1.15135 q 0.3141925,-0.40927 0.7586094,-0.40927 0.3803382,0 0.6511225,0.27698 0.2707842,0.27492 0.2707842,0.67593 0,0.40514 -0.2749183,0.68626 -0.2728513,0.28112 -0.6469884,0.28112 -0.4547522,0 -0.7586094,-0.40928 v 0.34107 H 7.952142 q -0.062012,0 -0.088883,-0.0248 -0.026872,-0.0248 -0.026872,-0.062 0,-0.0393 0.026872,-0.062 0.026872,-0.0248 0.088883,-0.0248 h 0.2335772 v -2.24482 H 7.952142 q -0.062012,0 -0.088883,-0.0248 -0.026872,-0.0248 -0.026872,-0.0641 0,-0.0372 0.026872,-0.062 0.026872,-0.0248 0.088883,-0.0248 z m 1.5068835,1.70326 q 0,-0.32867 -0.225309,-0.55604 -0.2253091,-0.22945 -0.5270992,-0.22945 -0.3017901,0 -0.5270992,0.22945 -0.225309,0.22737 -0.225309,0.55604 0,0.32866 0.225309,0.5581 0.2253091,0.22738 0.5270992,0.22738 0.3017901,0 0.5270992,-0.22738 0.225309,-0.22944 0.225309,-0.5581 z"
         id="path313" />
      <path
         d="m 12.05318,109.55804 v -0.25012 q -0.378271,0.31833 -0.808219,0.31833 -0.312125,0 -0.487825,-0.1571 -0.175699,-0.15916 -0.175699,-0.3886 0,-0.25218 0.23151,-0.44029 0.23151,-0.1881 0.675927,-0.1881 0.119889,0 0.260449,0.0165 0.14056,0.0145 0.303857,0.0475 v -0.28112 q 0,-0.14263 -0.132291,-0.24805 -0.132292,-0.10542 -0.396875,-0.10542 -0.202572,0 -0.56844,0.11783 -0.06615,0.0207 -0.08475,0.0207 -0.03307,0 -0.05788,-0.0248 -0.02274,-0.0248 -0.02274,-0.062 0,-0.0351 0.02067,-0.0558 0.02894,-0.031 0.233577,-0.0847 0.322461,-0.0868 0.487825,-0.0868 0.328662,0 0.51263,0.16329 0.183968,0.16123 0.183968,0.36587 v 1.14928 h 0.23151 q 0.06408,0 0.09095,0.0248 0.02687,0.0227 0.02687,0.062 0,0.0372 -0.02687,0.062 -0.02687,0.0248 -0.09095,0.0248 z m 0,-0.86403 q -0.121956,-0.0351 -0.258382,-0.0517 -0.136425,-0.0165 -0.287321,-0.0165 -0.378271,0 -0.591177,0.1633 -0.161231,0.12196 -0.161231,0.29146 0,0.15709 0.121957,0.26458 0.124023,0.10749 0.359667,0.10749 0.225309,0 0.417545,-0.0889 0.194304,-0.091 0.398942,-0.28732 z"
         id="path315" />
      <path
         d="m 13.886658,107.76797 v 0.43821 q 0.338997,-0.30592 0.506429,-0.39274 0.169499,-0.0889 0.312125,-0.0889 0.15503,0 0.287321,0.10542 0.134359,0.10335 0.134359,0.15709 0,0.0393 -0.02687,0.0661 -0.02481,0.0248 -0.06408,0.0248 -0.02067,0 -0.03514,-0.006 -0.01447,-0.008 -0.05374,-0.0475 -0.07235,-0.0724 -0.126091,-0.0992 -0.05374,-0.0269 -0.105419,-0.0269 -0.113688,0 -0.274919,0.091 -0.159163,0.0909 -0.553971,0.44442 v 0.95084 h 0.768945 q 0.06408,0 0.09095,0.0248 0.02687,0.0227 0.02687,0.062 0,0.0372 -0.02687,0.062 -0.02687,0.0248 -0.09095,0.0248 h -1.36219 q -0.06201,0 -0.08888,-0.0227 -0.02687,-0.0248 -0.02687,-0.062 0,-0.0351 0.02481,-0.0579 0.02687,-0.0248 0.09095,-0.0248 h 0.419613 v -1.44694 h -0.320394 q -0.06201,0 -0.08888,-0.0248 -0.02687,-0.0248 -0.02687,-0.0641 0,-0.0372 0.0248,-0.062 0.02687,-0.0248 0.09095,-0.0248 z"
         id="path317" />
      <path
         d="m 16.598635,109.05988 h 0.07441 q 0.115756,0 0.198438,0.0827 0.08268,0.0806 0.08268,0.19637 0,0.11989 -0.08475,0.2005 -0.08268,0.0806 -0.196371,0.0806 h -0.07441 q -0.115755,0 -0.198437,-0.0806 -0.08268,-0.0827 -0.08268,-0.19843 0,-0.11989 0.08268,-0.20051 0.08475,-0.0806 0.198437,-0.0806 z"
         id="path319" />
      <path
         d="m 18.384571,107.76797 v 0.1757 q 0.221175,-0.23771 0.444417,-0.23771 0.134359,0 0.235644,0.0723 0.101286,0.0703 0.169499,0.21498 0.115755,-0.1447 0.233577,-0.21498 0.11989,-0.0723 0.239779,-0.0723 0.188102,0 0.299723,0.12195 0.146761,0.1571 0.146761,0.34313 v 1.21336 h 0.146761 q 0.06201,0 0.08888,0.0248 0.02687,0.0227 0.02687,0.062 0,0.0372 -0.02687,0.062 -0.02687,0.0248 -0.08888,0.0248 h -0.320394 v -1.37046 q 0,-0.13229 -0.08061,-0.21911 -0.08062,-0.0868 -0.186035,-0.0868 -0.09509,0 -0.200504,0.0724 -0.10542,0.0703 -0.239779,0.27905 v 1.15135 h 0.144694 q 0.06201,0 0.08888,0.0248 0.02687,0.0227 0.02687,0.062 0,0.0372 -0.02687,0.062 -0.02687,0.0248 -0.08888,0.0248 h -0.320394 v -1.35806 q 0,-0.13849 -0.08268,-0.22737 -0.08061,-0.091 -0.181901,-0.091 -0.09302,0 -0.183968,0.06 -0.12609,0.0847 -0.264583,0.29145 v 1.15135 h 0.146761 q 0.06201,0 0.08888,0.0248 0.02687,0.0227 0.02687,0.062 0,0.0372 -0.02687,0.062 -0.02687,0.0248 -0.08888,0.0248 h -0.467154 q -0.06201,0 -0.08888,-0.0248 -0.02687,-0.0248 -0.02687,-0.062 0,-0.0393 0.02687,-0.062 0.02687,-0.0248 0.08888,-0.0248 h 0.146761 v -1.44073 h -0.146761 q -0.06201,0 -0.08888,-0.0248 -0.02687,-0.0248 -0.02687,-0.0641 0,-0.0372 0.02687,-0.062 0.02687,-0.0248 0.08888,-0.0248 z"
         id="path321" />
    </g>
    <path
       id="rect835-7-8-9"
       style="fill:#ffffff;stroke:#000000;stroke-width:0.254"
       d="m 68.002462,79.546844 h 16.256873 c 1.088674,0 1.965116,0.876442 1.965116,1.965117 v 21.616279 c 0,1.08868 -0.876442,1.96512 -1.965116,1.96512 H 68.002462 c -1.088674,0 -1.965116,-0.87644 -1.965116,-1.96512 V 81.511961 c 0,-1.088675 0.876442,-1.965117 1.965116,-1.965117 z" />
    <path
       id="rect963-5-9"
       style="fill:#ffffff;stroke:#000000;stroke-width:0.254"
       d="m 34.989324,87.853928 h 20.723047 c 1.088674,0 1.965115,0.876441 1.965115,1.965116 v 5.002116 c 0,1.088674 -0.876441,1.965116 -1.965115,1.965116 H 34.989324 c -1.088674,0 -1.965116,-0.876442 -1.965116,-1.965116 v -5.002116 c 0,-1.088675 0.876442,-1.965116 1.965116,-1.965116 z" />
    <g
       aria-label="bar.o"
       id="text839-3-2-2"
       style="font-size:4.23333px;line-height:1.25;font-family:'Courier New';-inkscape-font-specification:'Courier New';text-align:center;text-anchor:middle;stroke-width:0.264583">
      <path
         d="m 70.560433,106.75451 v 1.15135 q 0.314193,-0.40928 0.75861,-0.40928 0.380338,0 0.651122,0.27699 0.270784,0.27492 0.270784,0.67592 0,0.40515 -0.274918,0.68627 -0.272851,0.28112 -0.646988,0.28112 -0.454753,0 -0.75861,-0.40928 v 0.34106 h -0.40721 q -0.06201,0 -0.08888,-0.0248 -0.02687,-0.0248 -0.02687,-0.062 0,-0.0393 0.02687,-0.062 0.02687,-0.0248 0.08888,-0.0248 h 0.233578 v -2.24482 h -0.233578 q -0.06201,0 -0.08888,-0.0248 -0.02687,-0.0248 -0.02687,-0.0641 0,-0.0372 0.02687,-0.062 0.02687,-0.0248 0.08888,-0.0248 z m 1.506884,1.70325 q 0,-0.32866 -0.225309,-0.55604 -0.225309,-0.22944 -0.5271,-0.22944 -0.30179,0 -0.527099,0.22944 -0.225309,0.22738 -0.225309,0.55604 0,0.32866 0.225309,0.55811 0.225309,0.22737 0.527099,0.22737 0.301791,0 0.5271,-0.22737 0.225309,-0.22945 0.225309,-0.55811 z"
         id="path326" />
      <path
         d="m 74.254261,109.34866 v -0.25011 q -0.378271,0.31833 -0.808218,0.31833 -0.312126,0 -0.487825,-0.1571 -0.1757,-0.15916 -0.1757,-0.38861 0,-0.25218 0.23151,-0.44028 0.23151,-0.1881 0.675927,-0.1881 0.119889,0 0.260449,0.0165 0.14056,0.0145 0.303857,0.0475 v -0.28112 q 0,-0.14263 -0.132291,-0.24805 -0.132292,-0.10542 -0.396875,-0.10542 -0.202571,0 -0.56844,0.11782 -0.06615,0.0207 -0.08475,0.0207 -0.03307,0 -0.05788,-0.0248 -0.02274,-0.0248 -0.02274,-0.062 0,-0.0351 0.02067,-0.0558 0.02894,-0.031 0.233577,-0.0847 0.322461,-0.0868 0.487825,-0.0868 0.328662,0 0.51263,0.1633 0.183968,0.16123 0.183968,0.36587 v 1.14928 h 0.23151 q 0.06408,0 0.09095,0.0248 0.02687,0.0227 0.02687,0.062 0,0.0372 -0.02687,0.062 -0.02687,0.0248 -0.09095,0.0248 z m 0,-0.86403 q -0.121956,-0.0351 -0.258382,-0.0517 -0.136425,-0.0165 -0.28732,-0.0165 -0.378271,0 -0.591178,0.1633 -0.16123,0.12195 -0.16123,0.29145 0,0.1571 0.121956,0.26459 0.124023,0.10748 0.359667,0.10748 0.22531,0 0.417546,-0.0889 0.194303,-0.0909 0.398941,-0.28732 z"
         id="path328" />
      <path
         d="m 76.08774,107.55859 v 0.43822 q 0.338997,-0.30593 0.506428,-0.39274 0.169499,-0.0889 0.312126,-0.0889 0.155029,0 0.28732,0.10541 0.134359,0.10336 0.134359,0.1571 0,0.0393 -0.02687,0.0662 -0.0248,0.0248 -0.06408,0.0248 -0.02067,0 -0.03514,-0.006 -0.01447,-0.008 -0.05374,-0.0475 -0.07235,-0.0724 -0.12609,-0.0992 -0.05374,-0.0269 -0.10542,-0.0269 -0.113688,0 -0.274918,0.0909 -0.159164,0.091 -0.553971,0.44442 v 0.95084 h 0.768944 q 0.06408,0 0.09095,0.0248 0.02687,0.0227 0.02687,0.062 0,0.0372 -0.02687,0.062 -0.02687,0.0248 -0.09095,0.0248 h -1.362189 q -0.06201,0 -0.08888,-0.0227 -0.02687,-0.0248 -0.02687,-0.062 0,-0.0351 0.0248,-0.0579 0.02687,-0.0248 0.09095,-0.0248 h 0.419612 v -1.44694 h -0.320394 q -0.06201,0 -0.08888,-0.0248 -0.02687,-0.0248 -0.02687,-0.0641 0,-0.0372 0.02481,-0.062 0.02687,-0.0248 0.09095,-0.0248 z"
         id="path330" />
      <path
         d="m 78.799717,108.8505 h 0.07441 q 0.115755,0 0.198437,0.0827 0.08268,0.0806 0.08268,0.19637 0,0.11988 -0.08475,0.2005 -0.08268,0.0806 -0.19637,0.0806 h -0.07441 q -0.115755,0 -0.198438,-0.0806 -0.08268,-0.0827 -0.08268,-0.19844 0,-0.11989 0.08268,-0.2005 0.08475,-0.0806 0.198438,-0.0806 z"
         id="path332" />
      <path
         d="m 82.346784,108.45776 q 0,0.39688 -0.285254,0.678 -0.283186,0.28112 -0.684195,0.28112 -0.405143,0 -0.68833,-0.28112 -0.283186,-0.28319 -0.283186,-0.678 0,-0.39687 0.283186,-0.67799 0.283187,-0.28319 0.68833,-0.28319 0.401009,0 0.684195,0.28112 0.285254,0.28112 0.285254,0.68006 z m -0.1757,0 q 0,-0.32659 -0.233577,-0.55604 -0.23151,-0.22944 -0.562239,-0.22944 -0.330729,0 -0.564306,0.23151 -0.231511,0.22944 -0.231511,0.55397 0,0.32246 0.231511,0.55397 0.233577,0.23151 0.564306,0.23151 0.330729,0 0.562239,-0.22944 0.233577,-0.23151 0.233577,-0.55604 z"
         id="path334" />
    </g>
    <path
       style="fill:#000000;stroke:#000000;stroke-width:0.265;stroke-dasharray:none;stroke-opacity:1;marker-end:url(#TriangleStart)"
       d="M 89.269785,57.481569 H 119.2099"
       id="path395" />
    <path
       style="fill:#000000;stroke:#000000;stroke-width:0.265;stroke-dasharray:none;stroke-opacity:1;marker-end:url(#TriangleStart-6)"
       d="m 150.01457,57.578855 h 29.94011"
       id="path395-8" />
    <path
       style="fill:#000000;stroke:#000000;stroke-width:0.265;stroke-dasharray:none;stroke-opacity:1;marker-end:url(#TriangleStart-3)"
       d="m 59.080128,57.481569 h 4.966527"
       id="path395-9"
       sodipodi:nodetypes="cc" />
    <path
       style="fill:#000000;stroke:#000000;stroke-width:0.265;stroke-dasharray:none;stroke-opacity:1;marker-end:url(#TriangleStart-3-6)"
       d="m 59.080128,21.750267 h 4.966527"
       id="path395-9-2"
       sodipodi:nodetypes="cc" />
    <path
       style="fill:#000000;stroke:#000000;stroke-width:0.265;stroke-dasharray:none;stroke-opacity:1;marker-end:url(#TriangleStart-3-4)"
       d="m 59.080128,92.320098 h 4.966527"
       id="path395-9-9"
       sodipodi:nodetypes="cc" />
    <path
       style="fill:#000000;stroke:#000000;stroke-width:0.265;stroke-dasharray:none;stroke-opacity:1;marker-end:url(#TriangleStart-3-1)"
       d="m 25.851795,92.320098 h 4.966527"
       id="path395-9-96"
       sodipodi:nodetypes="cc" />
    <path
       style="fill:#000000;stroke:#000000;stroke-width:0.265;stroke-dasharray:none;stroke-opacity:1;marker-end:url(#TriangleStart-3-8)"
       d="m 25.851795,57.481569 h 4.966527"
       id="path395-9-3"
       sodipodi:nodetypes="cc" />
    <path
       style="fill:#000000;stroke:#000000;stroke-width:0.265;stroke-dasharray:none;stroke-opacity:1;marker-end:url(#TriangleStart-3-46)"
       d="m 25.851795,21.750267 h 4.966527"
       id="path395-9-94"
       sodipodi:nodetypes="cc" />
    <g
       aria-label="compiler"
       id="text839-7-8"
       style="font-size:3.52778px;line-height:1.25;font-family:'Courier New';-inkscape-font-specification:'Courier New';text-align:center;text-anchor:middle;stroke-width:0.264583">
      <path
         d="m 38.591564,21.317047 v -0.04823 q 0,-0.0534 0.02067,-0.07579 0.02067,-0.02239 0.05168,-0.02239 0.03273,0 0.0534,0.02239 0.02067,0.02239 0.02067,0.07579 V 21.5961 q -0.0017,0.0534 -0.02239,0.07579 -0.01895,0.02239 -0.05168,0.02239 -0.02928,0 -0.04995,-0.01895 -0.01895,-0.02067 -0.02239,-0.06718 -0.01034,-0.122301 -0.16192,-0.232544 -0.149862,-0.110243 -0.404799,-0.110243 -0.322117,0 -0.489204,0.201538 -0.167087,0.201539 -0.167087,0.461644 0,0.280775 0.184313,0.463365 0.184312,0.18259 0.477146,0.18259 0.168809,0 0.342787,-0.06201 0.1757,-0.06201 0.316949,-0.199816 0.03617,-0.03445 0.06373,-0.03445 0.02928,0 0.04823,0.02067 0.02067,0.01895 0.02067,0.04823 0,0.07407 -0.173977,0.187758 -0.280776,0.184312 -0.625286,0.184312 -0.349677,0 -0.575331,-0.222208 -0.223931,-0.223932 -0.223931,-0.566719 0,-0.349677 0.229099,-0.580499 0.230821,-0.230821 0.580499,-0.230821 0.332452,0 0.558106,0.198093 z"
         id="path337" />
      <path
         d="m 40.913559,21.919939 q 0,0.330729 -0.237711,0.564996 -0.23599,0.234266 -0.570164,0.234266 -0.33762,0 -0.573609,-0.234266 -0.235989,-0.235989 -0.235989,-0.564996 0,-0.33073 0.235989,-0.564996 0.235989,-0.235989 0.573609,-0.235989 0.334174,0 0.570164,0.234266 0.237711,0.234267 0.237711,0.566719 z m -0.146416,0 q 0,-0.272163 -0.194648,-0.463366 -0.192926,-0.191203 -0.468534,-0.191203 -0.275607,0 -0.470255,0.192926 -0.192926,0.191203 -0.192926,0.461643 0,0.268717 0.192926,0.461643 0.194648,0.192925 0.470255,0.192925 0.275608,0 0.468534,-0.191203 0.194648,-0.192925 0.194648,-0.463365 z"
         id="path339" />
      <path
         d="m 41.56296,21.17063 v 0.146417 q 0.184313,-0.198093 0.370348,-0.198093 0.111966,0 0.196371,0.06029 0.0844,0.05857 0.141249,0.179145 0.09646,-0.120579 0.194648,-0.179145 0.09991,-0.06029 0.199816,-0.06029 0.156752,0 0.249769,0.10163 0.122301,0.130914 0.122301,0.285943 v 1.011136 h 0.122301 q 0.05168,0 0.07407,0.02067 0.02239,0.01895 0.02239,0.05168 0,0.03101 -0.02239,0.05168 -0.02239,0.02067 -0.07407,0.02067 h -0.266995 v -1.14205 q 0,-0.110243 -0.06718,-0.18259 -0.06718,-0.07235 -0.15503,-0.07235 -0.07924,0 -0.167087,0.06029 -0.08785,0.05857 -0.199816,0.232545 v 0.959459 h 0.120579 q 0.05168,0 0.07407,0.02067 0.02239,0.01895 0.02239,0.05168 0,0.03101 -0.02239,0.05168 -0.02239,0.02067 -0.07407,0.02067 H 42.15724 v -1.131714 q 0,-0.115411 -0.0689,-0.189481 -0.06718,-0.07579 -0.151585,-0.07579 -0.07751,0 -0.153306,0.04995 -0.105076,0.07062 -0.220487,0.24288 v 0.959459 h 0.122301 q 0.05168,0 0.07407,0.02067 0.02239,0.01895 0.02239,0.05168 0,0.03101 -0.02239,0.05168 -0.02239,0.02067 -0.07407,0.02067 h -0.389296 q -0.05168,0 -0.07407,-0.02067 -0.02239,-0.02067 -0.02239,-0.05168 0,-0.03273 0.02239,-0.05168 0.02239,-0.02067 0.07407,-0.02067 h 0.122301 v -1.200616 h -0.122301 q -0.05168,0 -0.07407,-0.02067 -0.02239,-0.02067 -0.02239,-0.0534 0,-0.03101 0.02239,-0.05168 0.02239,-0.02067 0.07407,-0.02067 z"
         id="path341" />
      <path
         d="m 43.793661,21.17063 v 0.26355 q 0.129191,-0.156752 0.27733,-0.235989 0.14814,-0.07924 0.349678,-0.07924 0.213596,0 0.394463,0.09991 0.180868,0.09991 0.279053,0.279053 0.09991,0.177423 0.09991,0.373793 0,0.311782 -0.223931,0.533991 -0.222209,0.220486 -0.547771,0.220486 -0.387573,0 -0.62873,-0.315227 v 0.87161 h 0.3514 q 0.05168,0 0.07407,0.01895 0.02239,0.02067 0.02239,0.0534 0,0.03101 -0.02239,0.05168 -0.02239,0.02067 -0.07407,0.02067 h -0.690742 q -0.05168,0 -0.07407,-0.02067 -0.02239,-0.01895 -0.02239,-0.05168 0,-0.03273 0.02239,-0.0534 0.02239,-0.01895 0.07407,-0.01895 h 0.194648 v -1.86552 h -0.194648 q -0.05168,0 -0.07407,-0.02067 -0.02239,-0.02067 -0.02239,-0.0534 0,-0.03101 0.02239,-0.05168 0.02239,-0.02067 0.07407,-0.02067 z m 1.254016,0.701077 q 0,-0.249769 -0.182591,-0.427192 -0.180867,-0.179145 -0.442695,-0.179145 -0.26355,0 -0.44614,0.179145 -0.18259,0.179145 -0.18259,0.427192 0,0.24977 0.18259,0.428915 0.18259,0.179145 0.44614,0.179145 0.260105,0 0.442695,-0.177422 0.182591,-0.179145 0.182591,-0.430638 z"
         id="path343" />
      <path
         d="m 46.527346,20.428211 v 0.373794 H 46.31375 v -0.373794 z m 0.0052,0.742419 v 1.347033 h 0.568441 q 0.0534,0 0.07579,0.02067 0.02239,0.01895 0.02239,0.05168 0,0.03101 -0.02239,0.05168 -0.02239,0.02067 -0.07579,0.02067 h -1.281577 q -0.05168,0 -0.07407,-0.02067 -0.02239,-0.02067 -0.02239,-0.05168 0,-0.03273 0.02239,-0.05168 0.02239,-0.02067 0.07407,-0.02067 h 0.568442 v -1.200616 h -0.422025 q -0.05168,0 -0.07579,-0.02067 -0.02239,-0.02067 -0.02239,-0.05168 0,-0.03273 0.02239,-0.0534 0.02239,-0.02067 0.07579,-0.02067 z"
         id="path345" />
      <path
         d="m 48.646081,20.500559 v 2.017104 h 0.568441 q 0.0534,0 0.07579,0.02067 0.02239,0.01895 0.02239,0.05168 0,0.03101 -0.02239,0.05168 -0.02239,0.02067 -0.07579,0.02067 h -1.281577 q -0.05168,0 -0.07407,-0.02067 -0.02239,-0.02067 -0.02239,-0.05168 0,-0.03273 0.02239,-0.05168 0.02239,-0.02067 0.07407,-0.02067 h 0.568441 V 20.646975 H 48.08453 q -0.05168,0 -0.07579,-0.02067 -0.02239,-0.02067 -0.02239,-0.0534 0,-0.03101 0.02239,-0.05168 0.02239,-0.02067 0.07579,-0.02067 z"
         id="path347" />
      <path
         d="m 51.472784,21.950945 h -1.474502 q 0.0379,0.280775 0.234267,0.45303 0.198093,0.170532 0.489203,0.170532 0.16192,0 0.339343,-0.0534 0.177422,-0.0534 0.289388,-0.141249 0.03273,-0.02584 0.05684,-0.02584 0.02756,0 0.04823,0.02239 0.02067,0.02067 0.02067,0.04995 0,0.02928 -0.02756,0.05684 -0.08268,0.08613 -0.294556,0.16192 -0.210151,0.07407 -0.43236,0.07407 -0.37207,0 -0.62184,-0.242879 -0.248047,-0.244602 -0.248047,-0.590834 0,-0.315227 0.232544,-0.540881 0.234267,-0.225653 0.578777,-0.225653 0.354845,0 0.583944,0.232544 0.229099,0.230821 0.225654,0.599447 z M 51.326367,21.804528 Q 51.283303,21.565094 51.098991,21.415232 50.9164,21.26537 50.663186,21.26537 q -0.253215,0 -0.435805,0.148139 -0.18259,0.14814 -0.227377,0.391019 z"
         id="path349" />
      <path
         d="m 52.633782,21.17063 v 0.36518 q 0.282498,-0.254937 0.422025,-0.327284 0.141249,-0.07407 0.260104,-0.07407 0.129192,0 0.239435,0.08785 0.111965,0.08613 0.111965,0.130914 0,0.03273 -0.02239,0.05512 -0.02067,0.02067 -0.0534,0.02067 -0.01722,0 -0.02928,-0.0052 -0.01206,-0.0069 -0.04479,-0.03962 -0.06029,-0.06029 -0.105076,-0.08268 -0.04479,-0.02239 -0.08785,-0.02239 -0.09474,0 -0.229099,0.07579 -0.132636,0.07579 -0.461643,0.370348 v 0.792372 h 0.640788 q 0.0534,0 0.07579,0.02067 0.02239,0.01895 0.02239,0.05168 0,0.03101 -0.02239,0.05168 -0.02239,0.02067 -0.07579,0.02067 h -1.135159 q -0.05168,0 -0.07407,-0.01895 -0.02239,-0.02067 -0.02239,-0.05168 0,-0.02928 0.02067,-0.04823 0.02239,-0.02067 0.07579,-0.02067 h 0.349677 v -1.205784 h -0.266995 q -0.05168,0 -0.07407,-0.02067 -0.02239,-0.02067 -0.02239,-0.0534 0,-0.03101 0.02067,-0.05168 0.02239,-0.02067 0.07579,-0.02067 z"
         id="path351" />
    </g>
    <g
       aria-label="compiler"
       id="text839-7-8-8"
       style="font-size:3.52778px;line-height:1.25;font-family:'Courier New';-inkscape-font-specification:'Courier New';text-align:center;text-anchor:middle;stroke-width:0.264583">
      <path
         d="m 38.591564,57.048351 v -0.04823 q 0,-0.0534 0.02067,-0.07579 0.02067,-0.02239 0.05168,-0.02239 0.03273,0 0.0534,0.02239 0.02067,0.02239 0.02067,0.07579 v 0.327285 q -0.0017,0.0534 -0.02239,0.07579 -0.01895,0.02239 -0.05168,0.02239 -0.02928,0 -0.04995,-0.01895 -0.01895,-0.02067 -0.02239,-0.06718 -0.01034,-0.122301 -0.16192,-0.232544 -0.149862,-0.110244 -0.404799,-0.110244 -0.322117,0 -0.489204,0.201539 -0.167087,0.201538 -0.167087,0.461643 0,0.280775 0.184313,0.463365 0.184312,0.182591 0.477146,0.182591 0.168809,0 0.342787,-0.06201 0.1757,-0.06201 0.316949,-0.199816 0.03617,-0.03445 0.06373,-0.03445 0.02928,0 0.04823,0.02067 0.02067,0.01895 0.02067,0.04823 0,0.07407 -0.173977,0.187758 -0.280776,0.184313 -0.625286,0.184313 -0.349677,0 -0.575331,-0.222209 -0.223931,-0.223932 -0.223931,-0.566719 0,-0.349677 0.229099,-0.580499 0.230821,-0.230821 0.580499,-0.230821 0.332452,0 0.558106,0.198093 z"
         id="path354" />
      <path
         d="m 40.913559,57.651243 q 0,0.330729 -0.237711,0.564996 -0.23599,0.234267 -0.570164,0.234267 -0.33762,0 -0.573609,-0.234267 -0.235989,-0.235989 -0.235989,-0.564996 0,-0.330729 0.235989,-0.564996 0.235989,-0.235989 0.573609,-0.235989 0.334174,0 0.570164,0.234266 0.237711,0.234267 0.237711,0.566719 z m -0.146416,0 q 0,-0.272163 -0.194648,-0.463366 -0.192926,-0.191203 -0.468534,-0.191203 -0.275607,0 -0.470255,0.192926 -0.192926,0.191203 -0.192926,0.461643 0,0.268718 0.192926,0.461643 0.194648,0.192926 0.470255,0.192926 0.275608,0 0.468534,-0.191203 0.194648,-0.192926 0.194648,-0.463366 z"
         id="path356" />
      <path
         d="m 41.56296,56.901934 v 0.146417 q 0.184313,-0.198093 0.370348,-0.198093 0.111966,0 0.196371,0.06029 0.0844,0.05857 0.141249,0.179145 0.09646,-0.120578 0.194648,-0.179145 0.09991,-0.06029 0.199816,-0.06029 0.156752,0 0.249769,0.10163 0.122301,0.130914 0.122301,0.285943 v 1.011136 h 0.122301 q 0.05168,0 0.07407,0.02067 0.02239,0.01895 0.02239,0.05168 0,0.03101 -0.02239,0.05168 -0.02239,0.02067 -0.07407,0.02067 h -0.266995 v -1.142049 q 0,-0.110244 -0.06718,-0.182591 -0.06718,-0.07235 -0.15503,-0.07235 -0.07924,0 -0.167087,0.06029 -0.08785,0.05857 -0.199816,0.232544 v 0.959459 h 0.120579 q 0.05168,0 0.07407,0.02067 0.02239,0.01895 0.02239,0.05168 0,0.03101 -0.02239,0.05168 -0.02239,0.02067 -0.07407,0.02067 H 42.15724 v -1.131714 q 0,-0.115411 -0.0689,-0.18948 -0.06718,-0.07579 -0.151585,-0.07579 -0.07751,0 -0.153306,0.04995 -0.105076,0.07062 -0.220487,0.24288 v 0.959459 h 0.122301 q 0.05168,0 0.07407,0.02067 0.02239,0.01895 0.02239,0.05168 0,0.03101 -0.02239,0.05168 -0.02239,0.02067 -0.07407,0.02067 h -0.389296 q -0.05168,0 -0.07407,-0.02067 -0.02239,-0.02067 -0.02239,-0.05168 0,-0.03273 0.02239,-0.05168 0.02239,-0.02067 0.07407,-0.02067 h 0.122301 v -1.200616 h -0.122301 q -0.05168,0 -0.07407,-0.02067 -0.02239,-0.02067 -0.02239,-0.0534 0,-0.03101 0.02239,-0.05168 0.02239,-0.02067 0.07407,-0.02067 z"
         id="path358" />
      <path
         d="m 43.793661,56.901934 v 0.26355 q 0.129191,-0.156752 0.27733,-0.235989 0.14814,-0.07924 0.349678,-0.07924 0.213596,0 0.394463,0.09991 0.180868,0.09991 0.279053,0.279052 0.09991,0.177423 0.09991,0.373794 0,0.311781 -0.223931,0.53399 -0.222209,0.220486 -0.547771,0.220486 -0.387573,0 -0.62873,-0.315226 v 0.871609 h 0.3514 q 0.05168,0 0.07407,0.01895 0.02239,0.02067 0.02239,0.0534 0,0.03101 -0.02239,0.05168 -0.02239,0.02067 -0.07407,0.02067 h -0.690742 q -0.05168,0 -0.07407,-0.02067 -0.02239,-0.01895 -0.02239,-0.05168 0,-0.03273 0.02239,-0.0534 0.02239,-0.01895 0.07407,-0.01895 h 0.194648 v -1.86552 h -0.194648 q -0.05168,0 -0.07407,-0.02067 -0.02239,-0.02067 -0.02239,-0.0534 0,-0.03101 0.02239,-0.05168 0.02239,-0.02067 0.07407,-0.02067 z m 1.254016,0.701078 q 0,-0.24977 -0.182591,-0.427193 -0.180867,-0.179145 -0.442695,-0.179145 -0.26355,0 -0.44614,0.179145 -0.18259,0.179146 -0.18259,0.427193 0,0.249769 0.18259,0.428914 0.18259,0.179145 0.44614,0.179145 0.260105,0 0.442695,-0.177422 0.182591,-0.179145 0.182591,-0.430637 z"
         id="path360" />
      <path
         d="m 46.527346,56.159516 v 0.373793 H 46.31375 v -0.373793 z m 0.0052,0.742418 v 1.347033 h 0.568441 q 0.0534,0 0.07579,0.02067 0.02239,0.01895 0.02239,0.05168 0,0.03101 -0.02239,0.05168 -0.02239,0.02067 -0.07579,0.02067 h -1.281577 q -0.05168,0 -0.07407,-0.02067 -0.02239,-0.02067 -0.02239,-0.05168 0,-0.03273 0.02239,-0.05168 0.02239,-0.02067 0.07407,-0.02067 h 0.568442 v -1.200616 h -0.422025 q -0.05168,0 -0.07579,-0.02067 -0.02239,-0.02067 -0.02239,-0.05168 0,-0.03273 0.02239,-0.0534 0.02239,-0.02067 0.07579,-0.02067 z"
         id="path362" />
      <path
         d="m 48.646081,56.231863 v 2.017104 h 0.568441 q 0.0534,0 0.07579,0.02067 0.02239,0.01895 0.02239,0.05168 0,0.03101 -0.02239,0.05168 -0.02239,0.02067 -0.07579,0.02067 h -1.281577 q -0.05168,0 -0.07407,-0.02067 -0.02239,-0.02067 -0.02239,-0.05168 0,-0.03273 0.02239,-0.05168 0.02239,-0.02067 0.07407,-0.02067 h 0.568441 V 56.378279 H 48.08453 q -0.05168,0 -0.07579,-0.02067 -0.02239,-0.02067 -0.02239,-0.0534 0,-0.03101 0.02239,-0.05168 0.02239,-0.02067 0.07579,-0.02067 z"
         id="path364" />
      <path
         d="m 51.472784,57.682249 h -1.474502 q 0.0379,0.280775 0.234267,0.45303 0.198093,0.170533 0.489203,0.170533 0.16192,0 0.339343,-0.0534 0.177422,-0.0534 0.289388,-0.141249 0.03273,-0.02584 0.05684,-0.02584 0.02756,0 0.04823,0.02239 0.02067,0.02067 0.02067,0.04995 0,0.02928 -0.02756,0.05684 -0.08268,0.08613 -0.294556,0.16192 -0.210151,0.07407 -0.43236,0.07407 -0.37207,0 -0.62184,-0.24288 -0.248047,-0.244602 -0.248047,-0.590834 0,-0.315226 0.232544,-0.54088 0.234267,-0.225654 0.578777,-0.225654 0.354845,0 0.583944,0.232544 0.229099,0.230821 0.225654,0.599447 z m -0.146417,-0.146417 q -0.04306,-0.239434 -0.227376,-0.389296 -0.182591,-0.149862 -0.435805,-0.149862 -0.253215,0 -0.435805,0.14814 -0.18259,0.148139 -0.227377,0.391018 z"
         id="path366" />
      <path
         d="m 52.633782,56.901934 v 0.365181 q 0.282498,-0.254938 0.422025,-0.327285 0.141249,-0.07407 0.260104,-0.07407 0.129192,0 0.239435,0.08785 0.111965,0.08613 0.111965,0.130913 0,0.03273 -0.02239,0.05512 -0.02067,0.02067 -0.0534,0.02067 -0.01722,0 -0.02928,-0.0052 -0.01206,-0.0069 -0.04479,-0.03962 -0.06029,-0.06029 -0.105076,-0.08268 -0.04479,-0.02239 -0.08785,-0.02239 -0.09474,0 -0.229099,0.07579 -0.132636,0.07579 -0.461643,0.370348 v 0.792372 h 0.640788 q 0.0534,0 0.07579,0.02067 0.02239,0.01895 0.02239,0.05168 0,0.03101 -0.02239,0.05168 -0.02239,0.02067 -0.07579,0.02067 h -1.135159 q -0.05168,0 -0.07407,-0.01895 -0.02239,-0.02067 -0.02239,-0.05168 0,-0.02928 0.02067,-0.04823 0.02239,-0.02067 0.07579,-0.02067 h 0.349677 v -1.205784 h -0.266995 q -0.05168,0 -0.07407,-0.02067 -0.02239,-0.02067 -0.02239,-0.0534 0,-0.03101 0.02067,-0.05168 0.02239,-0.02067 0.07579,-0.02067 z"
         id="path368" />
    </g>
    <g
       aria-label="compiler"
       id="text839-7-8-2"
       style="font-size:3.52778px;line-height:1.25;font-family:'Courier New';-inkscape-font-specification:'Courier New';text-align:center;text-anchor:middle;stroke-width:0.264583">
      <path
         d="m 38.591564,91.886882 v -0.04823 q 0,-0.0534 0.02067,-0.07579 0.02067,-0.02239 0.05168,-0.02239 0.03273,0 0.0534,0.02239 0.02067,0.02239 0.02067,0.07579 v 0.327284 q -0.0017,0.0534 -0.02239,0.07579 -0.01895,0.02239 -0.05168,0.02239 -0.02928,0 -0.04995,-0.01895 -0.01895,-0.02067 -0.02239,-0.06718 -0.01034,-0.122301 -0.16192,-0.232544 -0.149862,-0.110243 -0.404799,-0.110243 -0.322117,0 -0.489204,0.201538 -0.167087,0.201538 -0.167087,0.461643 0,0.280776 0.184313,0.463366 0.184312,0.18259 0.477146,0.18259 0.168809,0 0.342787,-0.06201 0.1757,-0.06201 0.316949,-0.199815 0.03617,-0.03445 0.06373,-0.03445 0.02928,0 0.04823,0.02067 0.02067,0.01895 0.02067,0.04823 0,0.07407 -0.173977,0.187757 -0.280776,0.184313 -0.625286,0.184313 -0.349677,0 -0.575331,-0.222209 -0.223931,-0.223931 -0.223931,-0.566718 0,-0.349678 0.229099,-0.580499 0.230821,-0.230822 0.580499,-0.230822 0.332452,0 0.558106,0.198093 z"
         id="path371" />
      <path
         d="m 40.913559,92.489774 q 0,0.33073 -0.237711,0.564996 -0.23599,0.234267 -0.570164,0.234267 -0.33762,0 -0.573609,-0.234267 -0.235989,-0.235989 -0.235989,-0.564996 0,-0.330729 0.235989,-0.564996 0.235989,-0.235989 0.573609,-0.235989 0.334174,0 0.570164,0.234267 0.237711,0.234267 0.237711,0.566718 z m -0.146416,0 q 0,-0.272162 -0.194648,-0.463365 -0.192926,-0.191203 -0.468534,-0.191203 -0.275607,0 -0.470255,0.192925 -0.192926,0.191203 -0.192926,0.461643 0,0.268718 0.192926,0.461644 0.194648,0.192925 0.470255,0.192925 0.275608,0 0.468534,-0.191203 0.194648,-0.192925 0.194648,-0.463366 z"
         id="path373" />
      <path
         d="m 41.56296,91.740466 v 0.146416 q 0.184313,-0.198093 0.370348,-0.198093 0.111966,0 0.196371,0.06029 0.0844,0.05857 0.141249,0.179146 0.09646,-0.120579 0.194648,-0.179146 0.09991,-0.06029 0.199816,-0.06029 0.156752,0 0.249769,0.101631 0.122301,0.130913 0.122301,0.285943 v 1.011136 h 0.122301 q 0.05168,0 0.07407,0.02067 0.02239,0.01895 0.02239,0.05168 0,0.03101 -0.02239,0.05168 -0.02239,0.02067 -0.07407,0.02067 h -0.266995 v -1.14205 q 0,-0.110243 -0.06718,-0.18259 -0.06718,-0.07235 -0.15503,-0.07235 -0.07924,0 -0.167087,0.06029 -0.08785,0.05857 -0.199816,0.232544 v 0.95946 h 0.120579 q 0.05168,0 0.07407,0.02067 0.02239,0.01895 0.02239,0.05168 0,0.03101 -0.02239,0.05168 -0.02239,0.02067 -0.07407,0.02067 H 42.15724 v -1.131715 q 0,-0.11541 -0.0689,-0.18948 -0.06718,-0.07579 -0.151585,-0.07579 -0.07751,0 -0.153306,0.04995 -0.105076,0.07062 -0.220487,0.242879 v 0.95946 h 0.122301 q 0.05168,0 0.07407,0.02067 0.02239,0.01895 0.02239,0.05168 0,0.03101 -0.02239,0.05168 -0.02239,0.02067 -0.07407,0.02067 h -0.389296 q -0.05168,0 -0.07407,-0.02067 -0.02239,-0.02067 -0.02239,-0.05168 0,-0.03273 0.02239,-0.05168 0.02239,-0.02067 0.07407,-0.02067 h 0.122301 v -1.200617 h -0.122301 q -0.05168,0 -0.07407,-0.02067 -0.02239,-0.02067 -0.02239,-0.0534 0,-0.03101 0.02239,-0.05168 0.02239,-0.02067 0.07407,-0.02067 z"
         id="path375" />
      <path
         d="m 43.793661,91.740466 v 0.26355 q 0.129191,-0.156752 0.27733,-0.23599 0.14814,-0.07924 0.349678,-0.07924 0.213596,0 0.394463,0.09991 0.180868,0.09991 0.279053,0.279053 0.09991,0.177422 0.09991,0.373793 0,0.311781 -0.223931,0.53399 -0.222209,0.220486 -0.547771,0.220486 -0.387573,0 -0.62873,-0.315226 v 0.87161 h 0.3514 q 0.05168,0 0.07407,0.01895 0.02239,0.02067 0.02239,0.0534 0,0.03101 -0.02239,0.05168 -0.02239,0.02067 -0.07407,0.02067 h -0.690742 q -0.05168,0 -0.07407,-0.02067 -0.02239,-0.01895 -0.02239,-0.05168 0,-0.03273 0.02239,-0.0534 0.02239,-0.01895 0.07407,-0.01895 h 0.194648 v -1.865521 h -0.194648 q -0.05168,0 -0.07407,-0.02067 -0.02239,-0.02067 -0.02239,-0.0534 0,-0.03101 0.02239,-0.05168 0.02239,-0.02067 0.07407,-0.02067 z m 1.254016,0.701077 q 0,-0.24977 -0.182591,-0.427192 -0.180867,-0.179145 -0.442695,-0.179145 -0.26355,0 -0.44614,0.179145 -0.18259,0.179145 -0.18259,0.427192 0,0.24977 0.18259,0.428915 0.18259,0.179145 0.44614,0.179145 0.260105,0 0.442695,-0.177423 0.182591,-0.179145 0.182591,-0.430637 z"
         id="path377" />
      <path
         d="M 46.527346,90.998047 V 91.37184 H 46.31375 v -0.373793 z m 0.0052,0.742419 v 1.347033 h 0.568441 q 0.0534,0 0.07579,0.02067 0.02239,0.01895 0.02239,0.05168 0,0.03101 -0.02239,0.05168 -0.02239,0.02067 -0.07579,0.02067 h -1.281577 q -0.05168,0 -0.07407,-0.02067 -0.02239,-0.02067 -0.02239,-0.05168 0,-0.03273 0.02239,-0.05168 0.02239,-0.02067 0.07407,-0.02067 h 0.568442 v -1.200617 h -0.422025 q -0.05168,0 -0.07579,-0.02067 -0.02239,-0.02067 -0.02239,-0.05168 0,-0.03273 0.02239,-0.0534 0.02239,-0.02067 0.07579,-0.02067 z"
         id="path379" />
      <path
         d="m 48.646081,91.070394 v 2.017105 h 0.568441 q 0.0534,0 0.07579,0.02067 0.02239,0.01895 0.02239,0.05168 0,0.03101 -0.02239,0.05168 -0.02239,0.02067 -0.07579,0.02067 h -1.281577 q -0.05168,0 -0.07407,-0.02067 -0.02239,-0.02067 -0.02239,-0.05168 0,-0.03273 0.02239,-0.05168 0.02239,-0.02067 0.07407,-0.02067 h 0.568441 V 91.216811 H 48.08453 q -0.05168,0 -0.07579,-0.02067 -0.02239,-0.02067 -0.02239,-0.0534 0,-0.03101 0.02239,-0.05168 0.02239,-0.02067 0.07579,-0.02067 z"
         id="path381" />
      <path
         d="m 51.472784,92.52078 h -1.474502 q 0.0379,0.280776 0.234267,0.453031 0.198093,0.170532 0.489203,0.170532 0.16192,0 0.339343,-0.0534 0.177422,-0.0534 0.289388,-0.141249 0.03273,-0.02584 0.05684,-0.02584 0.02756,0 0.04823,0.02239 0.02067,0.02067 0.02067,0.04995 0,0.02928 -0.02756,0.05684 -0.08268,0.08613 -0.294556,0.16192 -0.210151,0.07407 -0.43236,0.07407 -0.37207,0 -0.62184,-0.242879 -0.248047,-0.244602 -0.248047,-0.590835 0,-0.315226 0.232544,-0.54088 0.234267,-0.225654 0.578777,-0.225654 0.354845,0 0.583944,0.232544 0.229099,0.230822 0.225654,0.599447 z m -0.146417,-0.146416 q -0.04306,-0.239435 -0.227376,-0.389296 -0.182591,-0.149862 -0.435805,-0.149862 -0.253215,0 -0.435805,0.148139 -0.18259,0.148139 -0.227377,0.391019 z"
         id="path383" />
      <path
         d="m 52.633782,91.740466 v 0.36518 q 0.282498,-0.254937 0.422025,-0.327284 0.141249,-0.07407 0.260104,-0.07407 0.129192,0 0.239435,0.08785 0.111965,0.08613 0.111965,0.130914 0,0.03273 -0.02239,0.05512 -0.02067,0.02067 -0.0534,0.02067 -0.01722,0 -0.02928,-0.0052 -0.01206,-0.0069 -0.04479,-0.03962 -0.06029,-0.06029 -0.105076,-0.08268 -0.04479,-0.02239 -0.08785,-0.02239 -0.09474,0 -0.229099,0.07579 -0.132636,0.07579 -0.461643,0.370348 v 0.792373 h 0.640788 q 0.0534,0 0.07579,0.02067 0.02239,0.01895 0.02239,0.05168 0,0.03101 -0.02239,0.05168 -0.02239,0.02067 -0.07579,0.02067 h -1.135159 q -0.05168,0 -0.07407,-0.01895 -0.02239,-0.02067 -0.02239,-0.05168 0,-0.02928 0.02067,-0.04823 0.02239,-0.02067 0.07579,-0.02067 h 0.349677 v -1.205785 h -0.266995 q -0.05168,0 -0.07407,-0.02067 -0.02239,-0.02067 -0.02239,-0.0534 0,-0.03101 0.02067,-0.05168 0.02239,-0.02067 0.07579,-0.02067 z"
         id="path385" />
    </g>
    <g
       aria-label="linker"
       id="text839-7-9"
       style="font-size:3.52778px;line-height:1.25;font-family:'Courier New';-inkscape-font-specification:'Courier New';text-align:center;text-anchor:middle;stroke-width:0.264583">
      <path
         d="m 130.14666,56.579569 v 2.017104 h 0.56844 q 0.0534,0 0.0758,0.02067 0.0224,0.01895 0.0224,0.05168 0,0.03101 -0.0224,0.05168 -0.0224,0.02067 -0.0758,0.02067 h -1.28158 q -0.0517,0 -0.0741,-0.02067 -0.0224,-0.02067 -0.0224,-0.05168 0,-0.03273 0.0224,-0.05168 0.0224,-0.02067 0.0741,-0.02067 h 0.56844 v -1.870688 h -0.41685 q -0.0517,0 -0.0758,-0.02067 -0.0224,-0.02067 -0.0224,-0.0534 0,-0.03101 0.0224,-0.05168 0.0224,-0.02067 0.0758,-0.02067 z"
         id="path388" />
      <path
         d="m 132.26195,56.507221 v 0.373794 h -0.2136 v -0.373794 z m 0.005,0.742419 v 1.347033 h 0.56844 q 0.0534,0 0.0758,0.02067 0.0224,0.01895 0.0224,0.05168 0,0.03101 -0.0224,0.05168 -0.0224,0.02067 -0.0758,0.02067 h -1.28158 q -0.0517,0 -0.0741,-0.02067 -0.0224,-0.02067 -0.0224,-0.05168 0,-0.03273 0.0224,-0.05168 0.0224,-0.02067 0.0741,-0.02067 h 0.56844 v -1.200616 h -0.42202 q -0.0517,0 -0.0758,-0.02067 -0.0224,-0.02067 -0.0224,-0.05168 0,-0.03273 0.0224,-0.0534 0.0224,-0.02067 0.0758,-0.02067 z"
         id="path390" />
      <path
         d="m 133.8398,57.24964 v 0.218764 q 0.15159,-0.153307 0.27389,-0.211874 0.1223,-0.05857 0.27561,-0.05857 0.16536,0 0.30144,0.07062 0.0965,0.05168 0.17398,0.172255 0.0792,0.118856 0.0792,0.244602 v 0.911228 h 0.1223 q 0.0517,0 0.0741,0.02067 0.0224,0.01895 0.0224,0.05168 0,0.03101 -0.0224,0.05168 -0.0224,0.02067 -0.0741,0.02067 h -0.38758 q -0.0534,0 -0.0758,-0.02067 -0.0224,-0.02067 -0.0224,-0.05168 0,-0.03273 0.0224,-0.05168 0.0224,-0.02067 0.0758,-0.02067 h 0.12058 v -0.887112 q 0,-0.153307 -0.11196,-0.258383 -0.11197,-0.106798 -0.29973,-0.106798 -0.14297,0 -0.24804,0.05857 -0.10508,0.05684 -0.29973,0.285943 v 0.907783 h 0.16365 q 0.0517,0 0.0741,0.02067 0.0224,0.01895 0.0224,0.05168 0,0.03101 -0.0224,0.05168 -0.0224,0.02067 -0.0741,0.02067 h -0.47198 q -0.0517,0 -0.0741,-0.02067 -0.0224,-0.02067 -0.0224,-0.05168 0,-0.03273 0.0224,-0.05168 0.0224,-0.02067 0.0741,-0.02067 h 0.16364 v -1.200616 h -0.1223 q -0.0517,0 -0.0741,-0.02067 -0.0224,-0.02067 -0.0224,-0.0534 0,-0.03101 0.0224,-0.05168 0.0224,-0.02067 0.0741,-0.02067 z"
         id="path392" />
      <path
         d="m 136.13079,58.097134 v 0.644233 h -0.33934 q -0.0517,0 -0.0741,-0.02067 -0.0224,-0.02067 -0.0224,-0.05168 0,-0.03273 0.0224,-0.05168 0.0224,-0.02067 0.0741,-0.02067 h 0.19465 v -1.870688 h -0.19465 q -0.0517,0 -0.0741,-0.02067 -0.0224,-0.02067 -0.0224,-0.0534 0,-0.03101 0.0224,-0.05168 0.0224,-0.02067 0.0741,-0.02067 h 0.33934 v 1.333252 l 0.61495,-0.516764 h -0.0741 q -0.0517,0 -0.0741,-0.02067 -0.0224,-0.02067 -0.0224,-0.05168 0,-0.03273 0.0224,-0.0534 0.0224,-0.02067 0.0741,-0.02067 h 0.46337 q 0.0534,0 0.0758,0.02067 0.0224,0.02067 0.0224,0.0534 0,0.03101 -0.0224,0.05168 -0.0224,0.02067 -0.0758,0.02067 h -0.16709 l -0.56499,0.471978 0.71485,0.728638 h 0.16709 q 0.0534,0 0.0758,0.02067 0.0224,0.01895 0.0224,0.05168 0,0.03101 -0.0224,0.05168 -0.0224,0.02067 -0.0758,0.02067 h -0.46853 q -0.0517,0 -0.0741,-0.02067 -0.0224,-0.02067 -0.0224,-0.05168 0,-0.03273 0.0224,-0.05168 0.0224,-0.02067 0.0741,-0.02067 h 0.10163 l -0.62184,-0.639065 z"
         id="path394" />
      <path
         d="m 139.3244,58.029955 h -1.4745 q 0.0379,0.280775 0.23426,0.45303 0.1981,0.170532 0.48921,0.170532 0.16192,0 0.33934,-0.0534 0.17742,-0.0534 0.28939,-0.141249 0.0327,-0.02584 0.0568,-0.02584 0.0276,0 0.0482,0.02239 0.0207,0.02067 0.0207,0.04995 0,0.02928 -0.0276,0.05684 -0.0827,0.08613 -0.29455,0.16192 -0.21015,0.07407 -0.43236,0.07407 -0.37207,0 -0.62184,-0.242879 -0.24805,-0.244602 -0.24805,-0.590834 0,-0.315227 0.23254,-0.540881 0.23427,-0.225653 0.57878,-0.225653 0.35485,0 0.58395,0.232544 0.22909,0.230821 0.22565,0.599447 z m -0.14642,-0.146417 q -0.0431,-0.239434 -0.22737,-0.389296 -0.18259,-0.149862 -0.43581,-0.149862 -0.25321,0 -0.4358,0.148139 -0.18259,0.14814 -0.22738,0.391019 z"
         id="path396" />
      <path
         d="m 140.4854,57.24964 v 0.36518 q 0.28249,-0.254937 0.42202,-0.327284 0.14125,-0.07407 0.26011,-0.07407 0.12919,0 0.23943,0.08785 0.11197,0.08613 0.11197,0.130914 0,0.03273 -0.0224,0.05512 -0.0207,0.02067 -0.0534,0.02067 -0.0172,0 -0.0293,-0.0052 -0.0121,-0.0069 -0.0448,-0.03962 -0.0603,-0.06029 -0.10507,-0.08268 -0.0448,-0.02239 -0.0879,-0.02239 -0.0947,0 -0.2291,0.07579 -0.13264,0.07579 -0.46164,0.370348 v 0.792372 h 0.64078 q 0.0534,0 0.0758,0.02067 0.0224,0.01895 0.0224,0.05168 0,0.03101 -0.0224,0.05168 -0.0224,0.02067 -0.0758,0.02067 h -1.13515 q -0.0517,0 -0.0741,-0.01895 -0.0224,-0.02067 -0.0224,-0.05168 0,-0.02928 0.0207,-0.04823 0.0224,-0.02067 0.0758,-0.02067 h 0.34967 v -1.205784 h -0.26699 q -0.0517,0 -0.0741,-0.02067 -0.0224,-0.02067 -0.0224,-0.0534 0,-0.03101 0.0207,-0.05168 0.0224,-0.02067 0.0758,-0.02067 z"
         id="path398" />
    </g>
    <path
       style="fill:#000000;stroke:#000000;stroke-width:0.265;stroke-dasharray:none;stroke-opacity:1;marker-end:url(#TriangleStart)"
       d="M 89.269785,22.02738 119.5672,49.53901"
       id="path1531"
       sodipodi:nodetypes="cc" />
    <path
       style="fill:#000000;stroke:#000000;stroke-width:0.265;stroke-dasharray:none;stroke-opacity:1;marker-end:url(#TriangleStart)"
       d="M 89.269785,91.877424 119.38855,66.152263"
       id="path1580"
       sodipodi:nodetypes="cc" />
  </g>
</svg>
