<?xml version="1.0" encoding="UTF-8" standalone="no"?>
<!-- Created with Inkscape (http://www.inkscape.org/) -->

<svg
   width="163.26678mm"
   height="19.553219mm"
   viewBox="0 0 163.26679 19.553219"
   version="1.1"
   id="svg24800"
   xml:space="preserve"
   inkscape:version="1.2.2 (b0a84865, 2022-12-01)"
   sodipodi:docname="SimpleCompiler.svg"
   xmlns:inkscape="http://www.inkscape.org/namespaces/inkscape"
   xmlns:sodipodi="http://sodipodi.sourceforge.net/DTD/sodipodi-0.dtd"
   xmlns="http://www.w3.org/2000/svg"
   xmlns:svg="http://www.w3.org/2000/svg"><sodipodi:namedview
     id="namedview24802"
     pagecolor="#ffffff"
     bordercolor="#000000"
     borderopacity="0.25"
     inkscape:showpageshadow="2"
     inkscape:pageopacity="0.0"
     inkscape:pagecheckerboard="0"
     inkscape:deskcolor="#d1d1d1"
     inkscape:document-units="mm"
     showgrid="false"
     inkscape:zoom="1.5606167"
     inkscape:cx="313.97845"
     inkscape:cy="46.455995"
     inkscape:window-width="1631"
     inkscape:window-height="821"
     inkscape:window-x="0"
     inkscape:window-y="38"
     inkscape:window-maximized="0"
     inkscape:current-layer="layer1" /><defs
     id="defs24797"><inkscape:path-effect
       effect="spiro"
       id="path-effect38088"
       is_visible="true"
       lpeversion="1" /><inkscape:path-effect
       effect="spiro"
       id="path-effect38076"
       is_visible="true"
       lpeversion="1" /><inkscape:path-effect
       effect="spiro"
       id="path-effect38008"
       is_visible="true"
       lpeversion="1" /><marker
       style="overflow:visible"
       id="RoundedArrow"
       refX="0"
       refY="0"
       orient="auto-start-reverse"
       inkscape:stockid="RoundedArrow"
       markerWidth="6.1347523"
       markerHeight="5.9304948"
       viewBox="0 0 6.1347524 5.9304951"
       inkscape:isstock="true"
       inkscape:collect="always"
       preserveAspectRatio="xMidYMid"><path
         transform="scale(0.7)"
         d="m -0.21114562,-4.1055728 6.42229122,3.21114561 a 1,1 90 0 1 0,1.78885438 L -0.21114562,4.1055728 A 1.236068,1.236068 31.717474 0 1 -2,3 v -6 a 1.236068,1.236068 148.28253 0 1 1.78885438,-1.1055728 z"
         style="fill:context-stroke;fill-rule:evenodd;stroke:none"
         id="path1367" /></marker><inkscape:path-effect
       effect="spiro"
       id="path-effect37946"
       is_visible="true"
       lpeversion="1" /></defs><g
     inkscape:label="Layer 1"
     inkscape:groupmode="layer"
     id="layer1"
     transform="translate(-22.257349,-137.35501)"><g
       aria-label="Optimizer"
       id="text38098-5"
       style="font-weight:bold;font-size:3.88056px;font-family:'Roboto Mono';-inkscape-font-specification:'Roboto Mono Bold';text-align:center;text-anchor:middle;stroke-width:0.564999"><path
         d="m 95.612657,146.88166 v -0.4017 q 0,-0.18758 -0.036,-0.35433 -0.03411,-0.16674 -0.100425,-0.30695 -0.06063,-0.12317 -0.1459,-0.22549 -0.08337,-0.10232 -0.195165,-0.17432 -0.111793,-0.0758 -0.252009,-0.11558 -0.13832,-0.0417 -0.297484,-0.0417 -0.157269,0 -0.2918,0.0398 -0.134531,0.0398 -0.242535,0.11369 -0.109899,0.0758 -0.195165,0.1819 -0.08337,0.10611 -0.14211,0.23685 -0.06063,0.13832 -0.09285,0.30128 -0.03032,0.16295 -0.03032,0.34485 v 0.4017 q 0,0.17053 0.02653,0.32401 0.02842,0.15348 0.08148,0.28422 0.05874,0.14211 0.1459,0.2558 0.08716,0.1118 0.19706,0.19138 0.111794,0.0758 0.24822,0.11747 0.136425,0.0417 0.297484,0.0417 0.151584,0 0.282326,-0.0379 0.132636,-0.036 0.242535,-0.10232 0.121267,-0.0758 0.216007,-0.18948 0.09474,-0.11368 0.159164,-0.25011 0.06063,-0.13643 0.09284,-0.29559 0.03221,-0.16106 0.03221,-0.33917 z m -0.540019,-0.40549 v 0.40549 q 0,0.10232 -0.01137,0.19706 -0.0095,0.0947 -0.03032,0.17432 -0.02653,0.10232 -0.072,0.1838 -0.04358,0.0796 -0.108004,0.13263 -0.05116,0.0436 -0.117478,0.0663 -0.06632,0.0227 -0.1459,0.0227 -0.08337,0 -0.14969,-0.0246 -0.06442,-0.0246 -0.115583,-0.0701 -0.05495,-0.0512 -0.09663,-0.13264 -0.03979,-0.0834 -0.06063,-0.18379 -0.01895,-0.0796 -0.02653,-0.17243 -0.0076,-0.0928 -0.0076,-0.19327 v -0.40549 q 0,-0.10611 0.0076,-0.20274 0.0095,-0.0966 0.02842,-0.17811 0.02463,-0.10611 0.06821,-0.18569 0.04547,-0.0796 0.109899,-0.13264 0.04737,-0.036 0.106109,-0.055 0.06063,-0.0189 0.134531,-0.0189 0.07769,0 0.140216,0.0208 0.06442,0.0208 0.115583,0.0587 0.06442,0.0512 0.111793,0.13264 0.04737,0.0796 0.07579,0.1819 0.02274,0.0815 0.03221,0.17811 0.01137,0.0947 0.01137,0.20085 z"
         style="stroke-width:0.565"
         id="path158" /><path
         d="m 96.042778,148.84657 h 0.526755 v -0.96635 q 0.036,0.0398 0.07579,0.072 0.03979,0.0322 0.08337,0.0587 0.0739,0.0417 0.159164,0.0625 0.08716,0.0227 0.18948,0.0227 0.19327,0 0.34296,-0.0796 0.149689,-0.0796 0.252009,-0.2198 0.100424,-0.13832 0.151584,-0.32969 0.05306,-0.19138 0.05306,-0.41497 v -0.0398 q 0,-0.23306 -0.05306,-0.42443 -0.05116,-0.19327 -0.153479,-0.33159 -0.10232,-0.13643 -0.252009,-0.21033 -0.14969,-0.0758 -0.344855,-0.0758 -0.09474,0 -0.178111,0.0208 -0.08148,0.019 -0.14969,0.055 -0.05684,0.0303 -0.106109,0.072 -0.04926,0.0398 -0.09095,0.091 l -0.01895,-0.20085 h -0.486965 z m 1.307415,-1.83417 v 0.0398 q 0,0.12695 -0.02274,0.24064 -0.02274,0.1118 -0.072,0.19706 -0.04927,0.0853 -0.128847,0.13453 -0.07769,0.0493 -0.18948,0.0493 -0.07011,0 -0.126952,-0.0133 -0.05685,-0.0152 -0.100425,-0.0417 -0.04547,-0.0284 -0.08148,-0.0682 -0.03411,-0.0398 -0.05874,-0.0891 v -0.85645 q 0.02653,-0.0531 0.06253,-0.0928 0.0379,-0.0398 0.08716,-0.0663 0.04358,-0.0227 0.09664,-0.0341 0.05306,-0.0133 0.117478,-0.0133 0.111793,0 0.18948,0.0474 0.07958,0.0474 0.130742,0.12884 0.04927,0.0834 0.072,0.19706 0.02463,0.1118 0.02463,0.24064 z"
         style="stroke-width:0.565"
         id="path160" /><path
         d="m 99.330264,145.50603 h -0.526756 v 0.50213 h -0.468017 v 0.38843 h 0.468017 v 0.93224 q 0,0.20275 0.05306,0.34865 0.05305,0.144 0.151584,0.23685 0.09664,0.0947 0.233061,0.14021 0.138321,0.0436 0.306958,0.0436 0.08716,0 0.176217,-0.009 0.09095,-0.008 0.174322,-0.0227 0.08337,-0.0152 0.157265,-0.0379 0.0739,-0.0246 0.12885,-0.0568 l -0.0512,-0.3619 q -0.036,0.009 -0.0872,0.0189 -0.04926,0.009 -0.106109,0.0171 -0.05874,0.009 -0.123162,0.0152 -0.06253,0.006 -0.123163,0.006 -0.08337,0 -0.151584,-0.0189 -0.06632,-0.019 -0.113688,-0.0644 -0.04737,-0.0436 -0.0739,-0.11748 -0.02463,-0.0758 -0.02463,-0.18759 v -0.88108 h 0.765496 v -0.38843 h -0.765496 z"
         style="stroke-width:0.565"
         id="path162" /><path
         d="m 100.83284,146.00816 v 0.43012 h 0.5836 v 1.19183 h -0.5836 v 0.42822 h 1.67122 v -0.42822 h -0.55518 v -1.62195 z m 0.54571,-0.52487 q 0,0.0606 0.0208,0.11369 0.0227,0.0512 0.0625,0.0872 0.0398,0.0379 0.0947,0.0587 0.0568,0.0208 0.12506,0.0208 0.14021,0 0.22169,-0.0777 0.0834,-0.0796 0.0834,-0.20275 0,-0.12316 -0.0834,-0.20084 -0.0815,-0.0796 -0.22169,-0.0796 -0.0682,0 -0.12506,0.0209 -0.0549,0.0208 -0.0947,0.0568 -0.0398,0.0379 -0.0625,0.0909 -0.0208,0.0512 -0.0208,0.11179 z"
         style="stroke-width:0.565"
         id="path164" /><path
         d="m 103.34914,146.00816 h -0.45285 v 2.05017 h 0.47938 v -1.53479 q 0.009,-0.0246 0.0208,-0.0455 0.0114,-0.0208 0.0265,-0.036 0.0208,-0.0208 0.0474,-0.0322 0.0265,-0.0114 0.0606,-0.0114 0.0303,0 0.0568,0.009 0.0265,0.008 0.0474,0.0284 0.019,0.0208 0.0303,0.0587 0.0114,0.0379 0.0114,0.0966 v 1.46657 h 0.46422 v -1.51205 q 0,-0.0227 0,-0.036 0,-0.0133 0,-0.017 0.009,-0.0209 0.0227,-0.036 0.0133,-0.0171 0.0303,-0.0303 0.0208,-0.0133 0.0436,-0.0208 0.0246,-0.008 0.055,-0.008 0.0284,0 0.055,0.009 0.0284,0.008 0.0493,0.0284 0.0208,0.0227 0.0322,0.0606 0.0133,0.0379 0.0133,0.0966 v 1.46468 h 0.47938 v -1.46278 q 0,-0.17054 -0.0341,-0.28802 -0.0322,-0.11937 -0.091,-0.19516 -0.0606,-0.0739 -0.14212,-0.108 -0.0796,-0.0341 -0.17242,-0.0341 -0.0739,0 -0.13643,0.019 -0.0625,0.0189 -0.11179,0.053 -0.0398,0.0265 -0.0739,0.0644 -0.0322,0.036 -0.0587,0.0815 -0.0171,-0.0474 -0.0417,-0.0834 -0.0227,-0.0379 -0.055,-0.0644 -0.0417,-0.036 -0.0985,-0.0531 -0.0569,-0.0171 -0.12885,-0.0171 -0.14779,0 -0.25201,0.0777 -0.10232,0.0758 -0.16106,0.20843 z"
         style="stroke-width:0.565"
         id="path166" /><path
         d="m 105.49027,146.00816 v 0.43012 h 0.5836 v 1.19183 h -0.5836 v 0.42822 h 1.67122 v -0.42822 h -0.55518 v -1.62195 z m 0.54571,-0.52487 q 0,0.0606 0.0208,0.11369 0.0227,0.0512 0.0625,0.0872 0.0398,0.0379 0.0947,0.0587 0.0568,0.0208 0.12506,0.0208 0.14021,0 0.22169,-0.0777 0.0834,-0.0796 0.0834,-0.20275 0,-0.12316 -0.0834,-0.20084 -0.0815,-0.0796 -0.22169,-0.0796 -0.0682,0 -0.12506,0.0209 -0.055,0.0208 -0.0947,0.0568 -0.0398,0.0379 -0.0625,0.0909 -0.0208,0.0512 -0.0208,0.11179 z"
         style="stroke-width:0.565"
         id="path168" /><path
         d="m 108.35522,147.63579 1.15962,-1.3112 v -0.31643 h -1.85312 v 0.42822 h 1.12172 l -1.14825,1.29605 v 0.3259 h 1.92702 v -0.42254 z"
         style="stroke-width:0.565"
         id="path170" /><path
         d="m 111.00226,148.09623 q 0.29748,0 0.51539,-0.11558 0.2179,-0.11559 0.31832,-0.2577 l -0.26337,-0.28422 q -0.0909,0.11748 -0.23685,0.17622 -0.1459,0.0587 -0.30128,0.0587 -0.1099,0 -0.20274,-0.0341 -0.0928,-0.0341 -0.16485,-0.0966 -0.0701,-0.0606 -0.11179,-0.13453 -0.0417,-0.0758 -0.0682,-0.19896 v -0.006 h 1.39079 v -0.22359 q 0,-0.22548 -0.0625,-0.41117 -0.0625,-0.18759 -0.1819,-0.32022 -0.12127,-0.13264 -0.29559,-0.20464 -0.17243,-0.0739 -0.39412,-0.0739 -0.21411,0 -0.39601,0.0777 -0.1819,0.0777 -0.31454,0.2179 -0.13264,0.14021 -0.20653,0.33538 -0.0739,0.19327 -0.0739,0.42823 v 0.0758 q 0,0.20653 0.0739,0.38843 0.0758,0.18001 0.21411,0.31265 0.13832,0.13453 0.33159,0.21221 0.19327,0.0777 0.43012,0.0777 z m -0.0625,-1.69964 q 0.10043,0 0.17622,0.0322 0.0777,0.0303 0.13074,0.0834 0.053,0.0549 0.0834,0.12885 0.0303,0.0739 0.0303,0.15727 v 0.0417 h -0.86403 q 0.0189,-0.10042 0.0568,-0.1819 0.0379,-0.0815 0.0947,-0.14021 0.0549,-0.0587 0.12885,-0.0891 0.0739,-0.0322 0.16295,-0.0322 z"
         style="stroke-width:0.565"
         id="path172" /><path
         d="m 113.80847,145.97026 q -0.20654,0 -0.38086,0.10042 -0.17432,0.0985 -0.29938,0.27286 l -0.004,-0.0455 -0.0208,-0.2899 h -0.49076 v 2.05017 h 0.52676 v -1.23162 q 0.036,-0.0872 0.0909,-0.15158 0.055,-0.0644 0.13264,-0.10611 0.0644,-0.036 0.1459,-0.0531 0.0834,-0.0189 0.18569,-0.0189 0.0985,0 0.20653,0.0133 0.1099,0.0114 0.21411,0.036 l 0.0777,-0.52486 q -0.0625,-0.019 -0.16485,-0.0341 -0.10042,-0.0171 -0.21979,-0.0171 z"
         style="stroke-width:0.565"
         id="path174" /></g><g
       aria-label="Backend"
       id="text38098-53"
       style="font-weight:bold;font-size:3.88056px;font-family:'Roboto Mono';-inkscape-font-specification:'Roboto Mono Bold';text-align:center;text-anchor:middle;stroke-width:0.564999"><path
         d="m 134.66705,147.88879 h 1.00614 q 0.22738,0 0.40928,-0.0512 0.1819,-0.0512 0.30885,-0.15347 0.12695,-0.10232 0.19516,-0.25391 0.0682,-0.15158 0.0682,-0.35054 0,-0.10421 -0.0284,-0.20085 -0.0265,-0.0985 -0.0834,-0.1819 -0.0549,-0.0777 -0.13642,-0.13642 -0.0796,-0.0587 -0.21601,-0.0966 v -0.002 q 0.0701,-0.0265 0.12695,-0.0644 0.0587,-0.0379 0.10422,-0.0834 0.0834,-0.0834 0.12505,-0.19327 0.0436,-0.11179 0.0455,-0.23685 0,-0.19327 -0.072,-0.33538 -0.0701,-0.14211 -0.20085,-0.23496 -0.13074,-0.0928 -0.31644,-0.13832 -0.18379,-0.0455 -0.40927,-0.0455 h -0.92656 z m 0.53433,-1.21646 h 0.49644 q 0.11179,0.002 0.19327,0.0303 0.0815,0.0284 0.13264,0.0815 0.0512,0.0512 0.0739,0.12506 0.0246,0.0739 0.0246,0.16674 0,0.0891 -0.0322,0.16106 -0.0303,0.072 -0.0909,0.12316 -0.0549,0.0455 -0.13833,0.072 -0.0815,0.0265 -0.18569,0.0265 h -0.4737 z m 0,-0.38465 v -0.72381 h 0.39412 q 0.12885,0.002 0.22359,0.0284 0.0966,0.0265 0.15348,0.0853 0.0436,0.0417 0.0644,0.10421 0.0227,0.0625 0.0227,0.1459 0,0.0796 -0.0265,0.14211 -0.0246,0.0625 -0.072,0.10611 -0.0568,0.0549 -0.14969,0.0834 -0.0928,0.0265 -0.21411,0.0284 z"
         style="stroke-width:0.565"
         id="path177" /><path
         d="m 138.29939,147.88879 h 0.53433 v -0.0322 q -0.0398,-0.0777 -0.0606,-0.18569 -0.0208,-0.108 -0.0208,-0.27285 v -0.87919 q 0,-0.17811 -0.0663,-0.31264 -0.0663,-0.13643 -0.1838,-0.22548 -0.11748,-0.0891 -0.27853,-0.13454 -0.15917,-0.0455 -0.34486,-0.0455 -0.20653,0 -0.36759,0.053 -0.15916,0.0512 -0.26906,0.14022 -0.1118,0.0891 -0.17054,0.20653 -0.0568,0.11748 -0.0568,0.24822 h 0.52676 q 0,-0.0549 0.0152,-0.10042 0.0171,-0.0455 0.0512,-0.0777 0.0379,-0.036 0.0985,-0.055 0.0606,-0.0208 0.14401,-0.0208 0.0947,0 0.16485,0.0246 0.072,0.0227 0.11937,0.0663 0.0455,0.0417 0.0682,0.10042 0.0227,0.0568 0.0227,0.12885 v 0.12127 h -0.29369 q -0.22738,0 -0.4036,0.0417 -0.17432,0.0398 -0.29369,0.11748 -0.13264,0.0853 -0.19896,0.2179 -0.0663,0.13075 -0.0663,0.30128 0,0.13263 0.053,0.24632 0.0531,0.1118 0.14779,0.19327 0.0947,0.0815 0.22549,0.12695 0.13263,0.0455 0.2899,0.0455 0.0966,0 0.18001,-0.019 0.0834,-0.017 0.15348,-0.0493 0.0682,-0.0303 0.12505,-0.072 0.0568,-0.0417 0.10043,-0.0891 0.009,0.055 0.0227,0.10421 0.0133,0.0493 0.0322,0.0872 z m -0.50213,-0.36948 q -0.0739,0 -0.13074,-0.0171 -0.0549,-0.0189 -0.0928,-0.0493 -0.0379,-0.0322 -0.0587,-0.0777 -0.0189,-0.0474 -0.0189,-0.10232 0,-0.0701 0.0265,-0.12884 0.0265,-0.0606 0.0815,-0.10422 0.0549,-0.0417 0.14212,-0.0644 0.0872,-0.0246 0.21032,-0.0246 h 0.26906 v 0.35243 q -0.0227,0.0398 -0.0625,0.0796 -0.0398,0.0379 -0.0947,0.0682 -0.0549,0.0303 -0.12316,0.0493 -0.0682,0.0189 -0.1478,0.0189 z"
         style="stroke-width:0.565"
         id="path179" /><path
         d="m 140.25483,147.50604 q -0.12696,0 -0.21033,-0.0512 -0.0815,-0.0512 -0.12884,-0.13642 -0.0493,-0.0834 -0.0682,-0.19327 -0.0189,-0.1118 -0.0189,-0.23117 v -0.0568 q 0,-0.11748 0.0189,-0.22738 0.0208,-0.1099 0.0701,-0.19516 0.0474,-0.0853 0.12885,-0.13643 0.0815,-0.0512 0.20653,-0.0512 0.0853,0 0.15727,0.0303 0.072,0.0284 0.12316,0.0777 0.0512,0.0493 0.0777,0.11748 0.0265,0.0682 0.0227,0.14401 h 0.49644 q 0.004,-0.1819 -0.0606,-0.3278 -0.0644,-0.1478 -0.18,-0.25201 -0.11748,-0.10232 -0.27854,-0.15917 -0.16106,-0.0568 -0.35054,-0.0568 -0.23685,0 -0.41686,0.0815 -0.17811,0.0815 -0.29938,0.22169 -0.12126,0.14021 -0.1819,0.32969 -0.0606,0.18759 -0.0606,0.4036 v 0.0568 q 0,0.21601 0.0606,0.40549 0.0625,0.18759 0.1838,0.3278 0.11937,0.14022 0.29938,0.22169 0.18001,0.0796 0.41875,0.0796 0.17622,0 0.33349,-0.0549 0.15916,-0.0568 0.27853,-0.15538 0.11938,-0.0985 0.18759,-0.23495 0.0701,-0.13643 0.0663,-0.29559 h -0.49644 q 0.004,0.072 -0.0265,0.13074 -0.0284,0.0587 -0.0815,0.10042 -0.053,0.0417 -0.12316,0.0644 -0.0701,0.0227 -0.14779,0.0227 z"
         style="stroke-width:0.565"
         id="path181" /><path
         d="m 142.44712,147.04182 0.5817,0.84697 h 0.64613 l -0.88109,-1.19562 0.77308,-0.85455 h -0.63286 l -0.56655,0.62149 -0.15916,0.1819 v -1.66364 h -0.52676 v 2.91042 h 0.52676 v -0.62528 z"
         style="stroke-width:0.565"
         id="path183" /><path
         d="m 144.99942,147.92669 q 0.29748,0 0.51538,-0.11558 0.21791,-0.11559 0.31833,-0.2577 l -0.26338,-0.28422 q -0.0909,0.11748 -0.23685,0.17622 -0.1459,0.0587 -0.30127,0.0587 -0.1099,0 -0.20275,-0.0341 -0.0928,-0.0341 -0.16484,-0.0966 -0.0701,-0.0606 -0.1118,-0.13453 -0.0417,-0.0758 -0.0682,-0.19896 v -0.006 h 1.39079 v -0.22359 q 0,-0.22548 -0.0625,-0.41117 -0.0625,-0.18759 -0.1819,-0.32022 -0.12127,-0.13264 -0.29559,-0.20464 -0.17243,-0.0739 -0.39412,-0.0739 -0.21411,0 -0.39602,0.0777 -0.1819,0.0777 -0.31453,0.2179 -0.13264,0.14021 -0.20654,0.33538 -0.0739,0.19327 -0.0739,0.42823 v 0.0758 q 0,0.20653 0.0739,0.38843 0.0758,0.18001 0.21412,0.31264 0.13832,0.13454 0.33159,0.21222 0.19327,0.0777 0.43012,0.0777 z m -0.0625,-1.69964 q 0.10042,0 0.17622,0.0322 0.0777,0.0303 0.13074,0.0834 0.053,0.0549 0.0834,0.12885 0.0303,0.0739 0.0303,0.15727 v 0.0417 h -0.86404 q 0.0189,-0.10042 0.0568,-0.1819 0.0379,-0.0815 0.0947,-0.14021 0.0549,-0.0587 0.12885,-0.0891 0.0739,-0.0322 0.16295,-0.0322 z"
         style="stroke-width:0.565"
         id="path185" /><path
         d="m 146.33336,147.88879 h 0.52865 v -1.4571 q 0.0265,-0.0417 0.0587,-0.0758 0.0322,-0.0341 0.072,-0.0587 0.0493,-0.0341 0.11179,-0.0512 0.0644,-0.0171 0.14022,-0.0171 0.0909,0 0.16295,0.0189 0.072,0.0171 0.12317,0.0625 0.0512,0.0455 0.0777,0.12506 0.0284,0.0777 0.0284,0.19895 v 1.25436 h 0.52676 v -1.26194 q 0,-0.22358 -0.053,-0.37896 -0.0512,-0.15727 -0.14401,-0.25769 -0.0947,-0.0985 -0.22359,-0.14401 -0.12884,-0.0455 -0.28422,-0.0455 -0.12126,0 -0.22927,0.0341 -0.108,0.0341 -0.19895,0.0985 -0.0531,0.0379 -0.10043,0.0853 -0.0474,0.0474 -0.0872,0.10422 l -0.0322,-0.28422 h -0.47749 z"
         style="stroke-width:0.565"
         id="path187" /><path
         d="m 148.60713,146.84855 v 0.0398 q 0,0.22358 0.0549,0.41496 0.0549,0.18948 0.15917,0.3278 0.10232,0.13832 0.25011,0.2179 0.14969,0.0777 0.33728,0.0777 0.17242,0 0.30317,-0.0663 0.13074,-0.0663 0.22737,-0.18569 l 0.0265,0.21411 h 0.4756 v -2.91042 h -0.52865 v 1.04404 q -0.0947,-0.10611 -0.21791,-0.16295 -0.12126,-0.0587 -0.28232,-0.0587 -0.19138,0 -0.34107,0.0758 -0.14779,0.0758 -0.25201,0.21411 -0.10421,0.13833 -0.15916,0.3316 -0.053,0.19327 -0.053,0.42633 z m 0.52675,0.0398 v -0.0398 q 0,-0.12885 0.0227,-0.24064 0.0227,-0.11369 0.072,-0.19896 0.0493,-0.0834 0.12695,-0.13074 0.0796,-0.0493 0.19138,-0.0493 0.13453,0 0.22359,0.0587 0.089,0.0568 0.14211,0.16106 v 0.82993 q -0.0531,0.10232 -0.14401,0.16106 -0.0891,0.0587 -0.22548,0.0587 -0.11179,0 -0.18948,-0.0474 -0.0777,-0.0474 -0.12695,-0.13074 -0.0493,-0.0815 -0.072,-0.19137 -0.0208,-0.1118 -0.0208,-0.24064 z"
         style="stroke-width:0.565"
         id="path189" /></g><g
       aria-label="SOURCE
CODE"
       id="text37894"
       style="font-weight:bold;font-size:3.88056px;font-family:'Roboto Mono';-inkscape-font-specification:'Roboto Mono Bold';text-align:center;text-anchor:middle;stroke:#000000;stroke-width:0.264999"><path
         d="m 23.939799,145.58665 q 0,0.11369 -0.04927,0.19706 -0.04926,0.0815 -0.126952,0.13453 -0.07769,0.0549 -0.178111,0.0815 -0.09853,0.0246 -0.20085,0.0246 -0.128846,0 -0.238745,-0.0341 -0.108004,-0.036 -0.191375,-0.10611 -0.08337,-0.0682 -0.136426,-0.16674 -0.05306,-0.10043 -0.07011,-0.22927 h -0.358118 q 0.0057,0.17811 0.07769,0.32401 0.0739,0.144 0.198954,0.25201 0.140216,0.12506 0.329696,0.19137 0.191376,0.0663 0.388435,0.0663 0.164848,0 0.329696,-0.0455 0.164848,-0.0474 0.29559,-0.14022 0.130741,-0.091 0.212218,-0.22927 0.08337,-0.13832 0.08337,-0.32401 0,-0.1838 -0.07769,-0.32401 -0.07579,-0.14022 -0.200849,-0.23685 -0.126952,-0.10422 -0.280431,-0.17054 -0.153479,-0.0682 -0.306958,-0.11558 -0.09285,-0.0284 -0.198955,-0.0663 -0.104214,-0.0379 -0.19327,-0.0947 -0.09095,-0.0568 -0.149689,-0.13832 -0.05874,-0.0834 -0.06063,-0.20274 0,-0.1099 0.04358,-0.19327 0.04548,-0.0834 0.121268,-0.14022 0.0739,-0.0568 0.168637,-0.0853 0.09663,-0.0284 0.19706,-0.0284 0.125057,0 0.223587,0.0398 0.100425,0.0379 0.172427,0.10801 0.072,0.0701 0.115583,0.16864 0.04358,0.0966 0.05874,0.216 h 0.360013 q -0.0038,-0.18948 -0.08148,-0.34296 -0.07769,-0.15348 -0.206534,-0.26148 -0.128847,-0.108 -0.29559,-0.16674 -0.166742,-0.0606 -0.346749,-0.0606 -0.162953,0 -0.324011,0.0512 -0.161059,0.0493 -0.288011,0.1459 -0.126952,0.0966 -0.206534,0.23685 -0.07769,0.14022 -0.07769,0.31833 0,0.17811 0.07769,0.31075 0.07958,0.13074 0.204639,0.22738 0.123163,0.0947 0.272852,0.16295 0.151585,0.0663 0.297485,0.11369 0.100424,0.0322 0.208428,0.072 0.109899,0.0398 0.200849,0.0985 0.09095,0.0606 0.147795,0.14779 0.05874,0.0872 0.05874,0.21412 z"
         style="font-weight:normal;stroke-width:0.265"
         id="path192" /><path
         d="m 26.619053,145.06368 v -0.31454 q -0.0019,-0.14779 -0.02653,-0.29938 -0.02274,-0.15158 -0.072,-0.2918 -0.05116,-0.14021 -0.128847,-0.26148 -0.07579,-0.12316 -0.181901,-0.21411 -0.106109,-0.0909 -0.24443,-0.14211 -0.138321,-0.0531 -0.308853,-0.0531 -0.170532,0 -0.308853,0.0531 -0.136426,0.0512 -0.242535,0.14211 -0.106109,0.0928 -0.183796,0.21601 -0.07579,0.12126 -0.125057,0.26148 -0.05116,0.14022 -0.07579,0.2918 -0.02274,0.14969 -0.02463,0.29748 v 0.31454 q 0.0019,0.1478 0.02653,0.29749 0.02463,0.14969 0.07579,0.2899 0.04926,0.14022 0.126951,0.26338 0.07769,0.12127 0.183797,0.21222 0.106109,0.091 0.242535,0.144 0.13832,0.0512 0.308853,0.0512 0.170532,0 0.306958,-0.0512 0.138321,-0.053 0.24443,-0.144 0.106109,-0.0909 0.181901,-0.21222 0.07769,-0.12127 0.126952,-0.26148 0.04926,-0.14022 0.072,-0.28991 0.02463,-0.15158 0.02653,-0.29938 z m -0.346749,-0.31833 v 0.31833 q -0.0019,0.0985 -0.01326,0.20654 -0.0095,0.108 -0.036,0.21221 -0.02842,0.10611 -0.0739,0.20275 -0.04358,0.0947 -0.109898,0.16674 -0.06821,0.0739 -0.162954,0.11748 -0.09285,0.0436 -0.216007,0.0436 -0.123163,0 -0.216008,-0.0436 -0.09285,-0.0436 -0.161058,-0.11748 -0.06821,-0.072 -0.113689,-0.16864 -0.04547,-0.0966 -0.0739,-0.20274 -0.02842,-0.10422 -0.04169,-0.21222 -0.01137,-0.108 -0.01326,-0.20464 v -0.31833 q 0.0019,-0.0966 0.01326,-0.20274 0.01326,-0.108 0.04169,-0.21411 0.02653,-0.10422 0.072,-0.19896 0.04548,-0.0966 0.113689,-0.17053 0.06821,-0.072 0.161058,-0.11558 0.09285,-0.0436 0.214113,-0.0436 0.123162,0 0.216008,0.0436 0.09285,0.0417 0.161058,0.11369 0.06821,0.0739 0.113688,0.17053 0.04548,0.0947 0.0739,0.19895 0.02653,0.10611 0.0379,0.21412 0.01137,0.1061 0.01326,0.20463 z"
         style="font-weight:normal;stroke-width:0.265"
         id="path194" /><path
         d="m 28.885239,143.5251 h -0.33917 l -0.0057,1.86828 q -0.0038,0.12316 -0.03979,0.23685 -0.036,0.11369 -0.104214,0.20085 -0.07011,0.0891 -0.172428,0.14211 -0.102319,0.0512 -0.23685,0.0512 -0.134531,0 -0.238746,-0.0531 -0.102319,-0.0531 -0.170532,-0.14021 -0.07011,-0.0872 -0.108004,-0.20085 -0.036,-0.11369 -0.0379,-0.23685 l -0.0076,-1.86828 h -0.333486 l -0.0038,1.86828 q 0.0019,0.19327 0.06821,0.3638 0.06632,0.16864 0.183797,0.29369 0.117477,0.12696 0.282325,0.19896 0.164848,0.072 0.365698,0.072 0.197059,0 0.361907,-0.072 0.164848,-0.0739 0.284221,-0.20085 0.119373,-0.12506 0.187586,-0.29369 0.06821,-0.16864 0.06821,-0.36191 z"
         style="font-weight:normal;stroke-width:0.265"
         id="path196" /><path
         d="m 30.395398,145.15842 0.541914,1.12552 h 0.369487 l 0.0019,-0.0227 -0.585494,-1.17857 q 0.113688,-0.0493 0.208428,-0.11937 0.09474,-0.0701 0.162953,-0.16106 0.06821,-0.0909 0.106109,-0.20275 0.03979,-0.11179 0.03979,-0.24632 0,-0.20843 -0.0739,-0.36191 -0.072,-0.15537 -0.198955,-0.25769 -0.128846,-0.10232 -0.299379,-0.15348 -0.170532,-0.0512 -0.363802,-0.0549 h -0.809082 v 2.75884 h 0.348644 v -1.12552 z m -0.551388,-0.28801 v -1.0573 h 0.460438 q 0.126952,0.002 0.233061,0.036 0.108004,0.0341 0.185691,0.10043 0.07769,0.0682 0.121267,0.16863 0.04358,0.0985 0.04358,0.23117 0,0.12506 -0.04548,0.22169 -0.04547,0.0947 -0.123162,0.16106 -0.07958,0.0663 -0.183796,0.10232 -0.104214,0.0341 -0.221692,0.036 z"
         style="font-weight:normal;stroke-width:0.265"
         id="path198" /><path
         d="m 33.597618,145.45401 h -0.350539 q -0.01705,0.12506 -0.05874,0.23306 -0.04168,0.10611 -0.111793,0.1838 -0.07011,0.0796 -0.172427,0.12316 -0.100425,0.0436 -0.238746,0.0436 -0.126952,0 -0.221692,-0.0398 -0.09474,-0.0417 -0.164848,-0.11369 -0.07011,-0.0701 -0.115583,-0.16295 -0.04548,-0.0928 -0.0739,-0.19896 -0.02842,-0.10421 -0.04169,-0.21221 -0.01137,-0.1099 -0.01137,-0.21222 v -0.38844 q 0,-0.10232 0.01137,-0.21032 0.01326,-0.1099 0.04169,-0.21411 0.02842,-0.10422 0.0739,-0.19706 0.04737,-0.0928 0.117478,-0.16296 0.06821,-0.0701 0.162953,-0.10989 0.09663,-0.0417 0.221692,-0.0417 0.138321,0 0.238746,0.0474 0.102319,0.0455 0.172427,0.12695 0.07011,0.0815 0.111793,0.18948 0.04169,0.10801 0.05874,0.23306 h 0.350539 q -0.02274,-0.19706 -0.09474,-0.36001 -0.07011,-0.16295 -0.187586,-0.28043 -0.117478,-0.11558 -0.280431,-0.17811 -0.162953,-0.0644 -0.369487,-0.0644 -0.172427,0 -0.310748,0.0493 -0.13832,0.0474 -0.246324,0.13264 -0.109899,0.0853 -0.189481,0.20274 -0.07769,0.11558 -0.128847,0.25201 -0.05305,0.13642 -0.07958,0.28611 -0.02463,0.14969 -0.02653,0.30317 v 0.38465 q 0.0019,0.15348 0.02653,0.30317 0.02653,0.14969 0.07958,0.28611 0.05116,0.13643 0.128847,0.25201 0.07958,0.11558 0.189481,0.20085 0.108004,0.0853 0.246324,0.13453 0.140216,0.0474 0.310748,0.0474 0.198955,0 0.360013,-0.0625 0.162953,-0.0644 0.282326,-0.18 0.117478,-0.11369 0.191375,-0.27286 0.0739,-0.16105 0.09853,-0.35243 z"
         style="font-weight:normal;stroke-width:0.265"
         id="path200" /><path
         d="m 35.65727,145.00873 v -0.29748 h -1.152041 v -0.88677 h 1.326363 V 143.5251 H 34.15469 v 2.75884 h 1.693956 v -0.29749 h -1.343417 v -0.97772 z"
         style="font-weight:normal;stroke-width:0.265"
         id="path202" /><path
         d="m 26.611474,150.30471 h -0.350539 q -0.01705,0.12506 -0.05874,0.23306 -0.04169,0.10611 -0.111794,0.1838 -0.07011,0.0796 -0.172427,0.12316 -0.100424,0.0436 -0.238745,0.0436 -0.126952,0 -0.221692,-0.0398 -0.09474,-0.0417 -0.164848,-0.11369 -0.07011,-0.0701 -0.115583,-0.16295 -0.04548,-0.0928 -0.0739,-0.19896 -0.02842,-0.10421 -0.04169,-0.21221 -0.01137,-0.1099 -0.01137,-0.21222 v -0.38844 q 0,-0.10232 0.01137,-0.21032 0.01326,-0.1099 0.04169,-0.21411 0.02842,-0.10422 0.0739,-0.19706 0.04737,-0.0928 0.117477,-0.16296 0.06821,-0.0701 0.162954,-0.1099 0.09663,-0.0417 0.221692,-0.0417 0.138321,0 0.238745,0.0474 0.10232,0.0455 0.172427,0.12695 0.07011,0.0815 0.111794,0.18948 0.04169,0.10801 0.05874,0.23306 h 0.350539 q -0.02274,-0.19706 -0.09474,-0.36001 -0.07011,-0.16295 -0.187585,-0.28043 -0.117478,-0.11558 -0.280431,-0.17811 -0.162954,-0.0644 -0.369487,-0.0644 -0.172427,0 -0.310748,0.0493 -0.138321,0.0474 -0.246325,0.13264 -0.109898,0.0853 -0.18948,0.20274 -0.07769,0.11558 -0.128847,0.25201 -0.05306,0.13642 -0.07958,0.28611 -0.02463,0.14969 -0.02653,0.30317 v 0.38465 q 0.0019,0.15348 0.02653,0.30317 0.02653,0.14969 0.07958,0.28611 0.05116,0.13643 0.128847,0.25201 0.07958,0.11558 0.18948,0.20085 0.108004,0.0853 0.246325,0.13453 0.140215,0.0474 0.310748,0.0474 0.198954,0 0.360013,-0.0625 0.162953,-0.0644 0.282326,-0.18 0.117477,-0.11369 0.191375,-0.27286 0.0739,-0.16105 0.09853,-0.35243 z"
         style="font-weight:normal;stroke-width:0.265"
         id="path204" /><path
         d="m 28.947768,149.91438 v -0.31454 q -0.0019,-0.14779 -0.02653,-0.29938 -0.02274,-0.15158 -0.072,-0.2918 -0.05116,-0.14021 -0.128847,-0.26148 -0.07579,-0.12316 -0.181901,-0.21411 -0.106109,-0.091 -0.24443,-0.14211 -0.138321,-0.0531 -0.308853,-0.0531 -0.170532,0 -0.308853,0.0531 -0.136426,0.0512 -0.242535,0.14211 -0.106109,0.0928 -0.183796,0.21601 -0.07579,0.12126 -0.125057,0.26148 -0.05116,0.14021 -0.07579,0.2918 -0.02274,0.14969 -0.02463,0.29748 v 0.31454 q 0.0019,0.1478 0.02653,0.29749 0.02463,0.14969 0.07579,0.2899 0.04926,0.14022 0.126952,0.26338 0.07769,0.12127 0.183796,0.21222 0.106109,0.0909 0.242535,0.144 0.138321,0.0512 0.308854,0.0512 0.170532,0 0.306958,-0.0512 0.138321,-0.0531 0.24443,-0.144 0.106109,-0.091 0.181901,-0.21222 0.07769,-0.12127 0.126952,-0.26148 0.04927,-0.14022 0.072,-0.28991 0.02463,-0.15158 0.02653,-0.29938 z m -0.34675,-0.31833 v 0.31833 q -0.0019,0.0985 -0.01326,0.20653 -0.0095,0.10801 -0.036,0.21222 -0.02842,0.10611 -0.0739,0.20275 -0.04358,0.0947 -0.109898,0.16674 -0.06821,0.0739 -0.162954,0.11748 -0.09285,0.0436 -0.216007,0.0436 -0.123163,0 -0.216008,-0.0436 -0.09285,-0.0436 -0.161059,-0.11748 -0.06821,-0.072 -0.113688,-0.16864 -0.04547,-0.0966 -0.0739,-0.20274 -0.02842,-0.10422 -0.04169,-0.21222 -0.01137,-0.108 -0.01326,-0.20464 v -0.31833 q 0.0019,-0.0966 0.01326,-0.20274 0.01326,-0.108 0.04169,-0.21411 0.02653,-0.10422 0.072,-0.19896 0.04548,-0.0966 0.113689,-0.17053 0.06821,-0.072 0.161058,-0.11558 0.09284,-0.0436 0.214113,-0.0436 0.123162,0 0.216008,0.0436 0.09285,0.0417 0.161058,0.11369 0.06821,0.0739 0.113688,0.17053 0.04548,0.0947 0.0739,0.19895 0.02653,0.10611 0.0379,0.21412 0.01137,0.1061 0.01326,0.20463 z"
         style="font-weight:normal;stroke-width:0.265"
         id="path206" /><path
         d="m 29.446101,151.13464 h 0.638549 q 0.198955,-0.002 0.369487,-0.0474 0.172428,-0.0455 0.308854,-0.13075 0.128846,-0.0815 0.23306,-0.19706 0.104215,-0.11558 0.172428,-0.25769 0.06632,-0.13643 0.100424,-0.29938 0.036,-0.16295 0.036,-0.34485 v -0.20275 q -0.0019,-0.18948 -0.03979,-0.35622 -0.036,-0.16674 -0.106109,-0.30696 -0.07769,-0.16485 -0.208429,-0.2899 -0.128847,-0.12696 -0.297484,-0.20464 -0.121268,-0.0568 -0.265273,-0.0872 -0.14211,-0.0322 -0.303169,-0.0341 h -0.638549 z m 0.356224,-2.47083 h 0.282325 q 0.130742,0.002 0.240641,0.0303 0.109898,0.0265 0.198954,0.0758 0.125057,0.0663 0.210323,0.17432 0.08716,0.10611 0.138321,0.23875 0.03979,0.10232 0.05874,0.22169 0.02084,0.11748 0.02274,0.24632 v 0.20654 q -0.0019,0.12695 -0.02084,0.24443 -0.01895,0.11558 -0.05684,0.216 -0.04358,0.12317 -0.119373,0.22359 -0.0739,0.0985 -0.176217,0.16674 -0.09663,0.0663 -0.221692,0.10232 -0.123162,0.036 -0.274747,0.0379 h -0.282325 z"
         style="font-weight:normal;stroke-width:0.265"
         id="path208" /><path
         d="m 33.328556,149.85943 v -0.29748 h -1.152041 v -0.88677 h 1.326363 v -0.29938 h -1.676902 v 2.75884 h 1.693955 v -0.29749 h -1.343416 v -0.97772 z"
         style="font-weight:normal;stroke-width:0.265"
         id="path210" /></g><g
       aria-label="MACHINE
CODE"
       id="text37894-4"
       style="font-weight:bold;font-size:3.88056px;font-family:'Roboto Mono';-inkscape-font-specification:'Roboto Mono Bold';text-align:center;text-anchor:middle;stroke:#000000;stroke-width:0.264999"><path
         d="m 169.41673,144.005 h -0.43391 v 2.75884 h 0.34106 v -1.10088 l -0.0284,-1.11225 0.46802,1.44573 h 0.20085 l 0.5097,-1.48552 -0.0284,1.15204 v 1.10088 h 0.34106 V 144.005 h -0.4358 l -0.48507,1.37942 z"
         style="font-weight:normal;stroke-width:0.265"
         id="path213" /><path
         d="m 172.67769,146.0495 0.2179,0.71434 h 0.34864 l -0.8754,-2.75884 h -0.29369 l -0.89056,2.75884 h 0.35054 l 0.22169,-0.71434 z m -0.82614,-0.30507 0.36949,-1.19751 0.3638,1.19751 z"
         style="font-weight:normal;stroke-width:0.265"
         id="path215" /><path
         d="m 175.47631,145.93392 h -0.35053 q -0.0171,0.12505 -0.0587,0.23306 -0.0417,0.10611 -0.1118,0.18379 -0.0701,0.0796 -0.17242,0.12316 -0.10043,0.0436 -0.23875,0.0436 -0.12695,0 -0.22169,-0.0398 -0.0947,-0.0417 -0.16485,-0.11368 -0.0701,-0.0701 -0.11558,-0.16296 -0.0455,-0.0928 -0.0739,-0.19895 -0.0284,-0.10422 -0.0417,-0.21222 -0.0114,-0.1099 -0.0114,-0.21222 v -0.38843 q 0,-0.10232 0.0114,-0.21033 0.0133,-0.10989 0.0417,-0.21411 0.0284,-0.10421 0.0739,-0.19706 0.0474,-0.0928 0.11748,-0.16295 0.0682,-0.0701 0.16295,-0.1099 0.0966,-0.0417 0.22169,-0.0417 0.13832,0 0.23875,0.0474 0.10232,0.0455 0.17242,0.12696 0.0701,0.0815 0.1118,0.18948 0.0417,0.108 0.0587,0.23306 h 0.35053 q -0.0227,-0.19706 -0.0947,-0.36002 -0.0701,-0.16295 -0.18758,-0.28043 -0.11748,-0.11558 -0.28043,-0.17811 -0.16296,-0.0644 -0.36949,-0.0644 -0.17243,0 -0.31075,0.0493 -0.13832,0.0474 -0.24632,0.13264 -0.1099,0.0853 -0.18948,0.20274 -0.0777,0.11559 -0.12885,0.25201 -0.053,0.13643 -0.0796,0.28612 -0.0246,0.14969 -0.0265,0.30317 v 0.38464 q 0.002,0.15348 0.0265,0.30317 0.0265,0.14969 0.0796,0.28612 0.0512,0.13642 0.12885,0.25201 0.0796,0.11558 0.18948,0.20084 0.108,0.0853 0.24632,0.13454 0.14022,0.0474 0.31075,0.0474 0.19895,0 0.36001,-0.0625 0.16296,-0.0644 0.28233,-0.18001 0.11748,-0.11369 0.19137,-0.27285 0.0739,-0.16106 0.0985,-0.35243 z"
         style="font-weight:normal;stroke-width:0.265"
         id="path217" /><path
         d="M 177.74819,146.76384 V 144.005 h -0.3316 v 1.18615 H 176.2854 V 144.005 h -0.3297 v 2.75884 h 0.3297 v -1.2752 h 1.13119 v 1.2752 z"
         style="font-weight:normal;stroke-width:0.265"
         id="path219" /><path
         d="m 178.34694,144.005 v 0.30507 h 0.64613 v 2.1506 h -0.64613 v 0.30317 h 1.66743 v -0.30317 h -0.66129 v -2.1506 h 0.66129 V 144.005 Z"
         style="font-weight:normal;stroke-width:0.265"
         id="path221" /><path
         d="M 182.40372,146.76384 V 144.005 h -0.35433 l -0.006,2.05776 -1.07057,-2.05776 h -0.35622 v 2.75884 h 0.35433 l 0.006,-2.06155 1.07057,2.06155 z"
         style="font-weight:normal;stroke-width:0.265"
         id="path223" /><path
         d="m 184.52211,145.48864 v -0.29749 h -1.15204 v -0.88677 h 1.32636 V 144.005 h -1.6769 v 2.75884 h 1.69396 v -0.29748 h -1.34342 v -0.97772 z"
         style="font-weight:normal;stroke-width:0.265"
         id="path225" /><path
         d="m 174.31196,150.78462 h -0.35054 q -0.0171,0.12505 -0.0587,0.23306 -0.0417,0.10611 -0.11179,0.18379 -0.0701,0.0796 -0.17243,0.12316 -0.10043,0.0436 -0.23875,0.0436 -0.12695,0 -0.22169,-0.0398 -0.0947,-0.0417 -0.16485,-0.11368 -0.0701,-0.0701 -0.11558,-0.16296 -0.0455,-0.0928 -0.0739,-0.19895 -0.0284,-0.10422 -0.0417,-0.21222 -0.0114,-0.1099 -0.0114,-0.21222 v -0.38843 q 0,-0.10232 0.0114,-0.21033 0.0133,-0.1099 0.0417,-0.21411 0.0284,-0.10421 0.0739,-0.19706 0.0474,-0.0928 0.11748,-0.16295 0.0682,-0.0701 0.16295,-0.1099 0.0966,-0.0417 0.22169,-0.0417 0.13832,0 0.23875,0.0474 0.10232,0.0455 0.17243,0.12696 0.0701,0.0815 0.11179,0.18948 0.0417,0.108 0.0587,0.23306 h 0.35054 q -0.0227,-0.19706 -0.0947,-0.36002 -0.0701,-0.16295 -0.18759,-0.28043 -0.11748,-0.11558 -0.28043,-0.17811 -0.16295,-0.0644 -0.36949,-0.0644 -0.17242,0 -0.31074,0.0493 -0.13833,0.0474 -0.24633,0.13264 -0.1099,0.0853 -0.18948,0.20274 -0.0777,0.11559 -0.12885,0.25201 -0.0531,0.13643 -0.0796,0.28612 -0.0246,0.14969 -0.0265,0.30317 v 0.38464 q 0.002,0.15348 0.0265,0.30317 0.0265,0.14969 0.0796,0.28612 0.0512,0.13642 0.12885,0.25201 0.0796,0.11558 0.18948,0.20084 0.108,0.0853 0.24633,0.13454 0.14021,0.0474 0.31074,0.0474 0.19896,0 0.36002,-0.0625 0.16295,-0.0644 0.28232,-0.18001 0.11748,-0.11369 0.19138,-0.27285 0.0739,-0.16106 0.0985,-0.35243 z"
         style="font-weight:normal;stroke-width:0.265"
         id="path227" /><path
         d="m 176.64825,150.39429 v -0.31454 q -0.002,-0.1478 -0.0265,-0.29938 -0.0227,-0.15159 -0.072,-0.2918 -0.0512,-0.14022 -0.12885,-0.26148 -0.0758,-0.12317 -0.1819,-0.21412 -0.10611,-0.0909 -0.24443,-0.14211 -0.13832,-0.053 -0.30885,-0.053 -0.17053,0 -0.30885,0.053 -0.13643,0.0512 -0.24254,0.14211 -0.10611,0.0928 -0.18379,0.21601 -0.0758,0.12127 -0.12506,0.26148 -0.0512,0.14022 -0.0758,0.2918 -0.0227,0.14969 -0.0246,0.29749 v 0.31454 q 0.002,0.14779 0.0265,0.29748 0.0246,0.14969 0.0758,0.2899 0.0493,0.14022 0.12696,0.26338 0.0777,0.12127 0.18379,0.21222 0.10611,0.0909 0.24254,0.14401 0.13832,0.0512 0.30885,0.0512 0.17053,0 0.30696,-0.0512 0.13832,-0.0531 0.24443,-0.14401 0.10611,-0.0909 0.1819,-0.21222 0.0777,-0.12126 0.12695,-0.26148 0.0493,-0.14022 0.072,-0.28991 0.0246,-0.15158 0.0265,-0.29937 z m -0.34675,-0.31833 v 0.31833 q -0.002,0.0985 -0.0133,0.20653 -0.009,0.108 -0.036,0.21222 -0.0284,0.10611 -0.0739,0.20274 -0.0436,0.0947 -0.1099,0.16674 -0.0682,0.0739 -0.16295,0.11748 -0.0928,0.0436 -0.21601,0.0436 -0.12316,0 -0.21601,-0.0436 -0.0928,-0.0436 -0.16106,-0.11748 -0.0682,-0.072 -0.11368,-0.16863 -0.0455,-0.0966 -0.0739,-0.20275 -0.0284,-0.10421 -0.0417,-0.21222 -0.0114,-0.108 -0.0133,-0.20463 v -0.31833 q 0.002,-0.0966 0.0133,-0.20275 0.0133,-0.108 0.0417,-0.21411 0.0265,-0.10421 0.072,-0.19895 0.0455,-0.0966 0.11369,-0.17054 0.0682,-0.072 0.16106,-0.11558 0.0928,-0.0436 0.21411,-0.0436 0.12316,0 0.21601,0.0436 0.0928,0.0417 0.16106,0.11369 0.0682,0.0739 0.11368,0.17053 0.0455,0.0947 0.0739,0.19896 0.0265,0.10611 0.0379,0.21411 0.0114,0.10611 0.0133,0.20464 z"
         style="font-weight:normal;stroke-width:0.265"
         id="path229" /><path
         d="m 177.14658,151.61454 h 0.63855 q 0.19896,-0.002 0.36949,-0.0474 0.17243,-0.0455 0.30885,-0.13074 0.12885,-0.0815 0.23306,-0.19706 0.10422,-0.11558 0.17243,-0.2577 0.0663,-0.13642 0.10043,-0.29937 0.036,-0.16296 0.036,-0.34486 v -0.20274 q -0.002,-0.18948 -0.0398,-0.35623 -0.036,-0.16674 -0.10611,-0.30695 -0.0777,-0.16485 -0.20843,-0.28991 -0.12885,-0.12695 -0.29748,-0.20464 -0.12127,-0.0568 -0.26528,-0.0872 -0.14211,-0.0322 -0.30317,-0.0341 h -0.63855 z m 0.35623,-2.47083 h 0.28232 q 0.13075,0.002 0.24064,0.0303 0.1099,0.0265 0.19896,0.0758 0.12506,0.0663 0.21032,0.17433 0.0872,0.1061 0.13832,0.23874 0.0398,0.10232 0.0587,0.22169 0.0208,0.11748 0.0227,0.24633 v 0.20653 q -0.002,0.12695 -0.0208,0.24443 -0.0189,0.11558 -0.0568,0.21601 -0.0436,0.12316 -0.11937,0.22359 -0.0739,0.0985 -0.17622,0.16674 -0.0966,0.0663 -0.22169,0.10232 -0.12316,0.036 -0.27475,0.0379 h -0.28232 z"
         style="font-weight:normal;stroke-width:0.265"
         id="path231" /><path
         d="m 181.02904,150.33934 v -0.29749 H 179.877 v -0.88677 h 1.32636 v -0.29938 h -1.6769 v 2.75884 h 1.69395 v -0.29748 H 179.877 v -0.97772 z"
         style="font-weight:normal;stroke-width:0.265"
         id="path233" /></g><path
       style="fill:#000000;stroke:#000000;stroke-width:0.365;stroke-dasharray:none;marker-end:url(#RoundedArrow)"
       d="m 161.3918,146.96209 h 4.0689"
       id="path37944"
       sodipodi:nodetypes="cc" /><path
       style="fill:#000000;stroke:#000000;stroke-width:0.365;stroke-dasharray:none;marker-end:url(#RoundedArrow)"
       d="m 37.290217,147.30117 h 4.0689"
       id="path38004"
       sodipodi:nodetypes="cc" /><path
       id="rect38072"
       style="fill:none;stroke:#000000;stroke-width:0.564999"
       d="M 44.749874,137.63751 H 161.90042 v 18.98822 H 44.749874 Z" /><path
       style="fill:none;stroke:#000000;stroke-width:0.564999;stroke-dasharray:none"
       d="m 122.05906,137.46798 v 19.15776"
       id="path38074" /><path
       style="fill:none;stroke:#000000;stroke-width:0.564999;stroke-dasharray:none"
       d="m 83.429746,137.46798 v 19.15776"
       id="path38084" /><g
       aria-label="Frontend"
       id="text38098"
       style="font-weight:bold;font-size:3.88056px;font-family:'Roboto Mono';-inkscape-font-specification:'Roboto Mono Bold';text-align:center;text-anchor:middle;stroke-width:0.564999"><path
         d="m 57.609017,147.17582 v -0.43201 h -1.182358 v -0.75035 h 1.330153 v -0.43391 h -1.864488 v 2.75884 h 0.534335 v -1.14257 z"
         style="stroke-width:0.565"
         id="path237" /><path
         d="m 59.678144,146.23032 q -0.206534,0 -0.380856,0.10042 -0.174322,0.0985 -0.299379,0.27285 l -0.0038,-0.0455 -0.02084,-0.28991 h -0.490755 v 2.05018 h 0.526756 v -1.23162 q 0.036,-0.0872 0.09095,-0.15159 0.05495,-0.0644 0.132636,-0.10611 0.06442,-0.036 0.1459,-0.0531 0.08337,-0.0189 0.185691,-0.0189 0.09853,0 0.206533,0.0133 0.109899,0.0114 0.214113,0.036 l 0.07769,-0.52487 q -0.06253,-0.0189 -0.164848,-0.0341 -0.100424,-0.017 -0.219797,-0.017 z"
         style="stroke-width:0.565"
         id="path239" /><path
         d="m 60.462593,147.27435 v 0.0398 q 0,0.22549 0.06442,0.41686 0.06442,0.18948 0.189481,0.3297 0.123162,0.14021 0.303169,0.21979 0.181901,0.0777 0.413067,0.0777 0.229271,0 0.409278,-0.0777 0.180006,-0.0796 0.303169,-0.21979 0.123162,-0.14022 0.187585,-0.3297 0.06442,-0.19137 0.06442,-0.41686 v -0.0398 q 0,-0.22358 -0.06442,-0.41306 -0.06442,-0.19138 -0.187585,-0.3316 -0.125058,-0.14021 -0.305064,-0.21979 -0.180006,-0.0796 -0.411173,-0.0796 -0.231166,0 -0.411172,0.0796 -0.178112,0.0796 -0.301274,0.21979 -0.125057,0.14022 -0.189481,0.3316 -0.06442,0.18948 -0.06442,0.41306 z m 0.526756,0.0398 v -0.0398 q 0,-0.12505 0.02463,-0.23685 0.02463,-0.11179 0.07769,-0.19706 0.05306,-0.0853 0.136426,-0.13453 0.08337,-0.0493 0.200849,-0.0493 0.119373,0 0.202744,0.0493 0.08337,0.0493 0.136426,0.13453 0.05116,0.0853 0.07579,0.19706 0.02463,0.1118 0.02463,0.23685 v 0.0398 q 0,0.12885 -0.02463,0.24254 -0.02463,0.11179 -0.07579,0.19516 -0.05305,0.0853 -0.136426,0.13453 -0.08337,0.0493 -0.198954,0.0493 -0.119373,0 -0.204639,-0.0493 -0.08337,-0.0493 -0.136426,-0.13453 -0.05305,-0.0834 -0.07769,-0.19516 -0.02463,-0.11369 -0.02463,-0.24254 z"
         style="stroke-width:0.565"
         id="path241" /><path
         d="m 62.86331,148.31839 h 0.528651 v -1.4571 q 0.02653,-0.0417 0.05874,-0.0758 0.03221,-0.0341 0.072,-0.0587 0.04926,-0.0341 0.111794,-0.0512 0.06442,-0.0171 0.140215,-0.0171 0.09095,0 0.162954,0.019 0.072,0.017 0.123162,0.0625 0.05116,0.0455 0.07769,0.12505 0.02842,0.0777 0.02842,0.19896 v 1.25436 h 0.526756 v -1.26194 q 0,-0.22359 -0.05306,-0.37896 -0.05116,-0.15727 -0.144005,-0.25769 -0.09474,-0.0985 -0.223587,-0.14401 -0.128847,-0.0455 -0.284221,-0.0455 -0.121267,0 -0.229271,0.0341 -0.108004,0.0341 -0.198954,0.0985 -0.05306,0.0379 -0.100425,0.0853 -0.04737,0.0474 -0.08716,0.10421 l -0.03221,-0.28422 H 62.86331 Z"
         style="stroke-width:0.565"
         id="path243" /><path
         d="M 66.158376,145.76609 H 65.63162 v 0.50212 h -0.468017 v 0.38844 h 0.468017 v 0.93224 q 0,0.20274 0.05305,0.34864 0.05306,0.14401 0.151585,0.23685 0.09664,0.0947 0.233061,0.14022 0.138321,0.0436 0.306958,0.0436 0.08716,0 0.176217,-0.009 0.09095,-0.008 0.174322,-0.0227 0.08337,-0.0152 0.157269,-0.0379 0.0739,-0.0246 0.128847,-0.0568 l -0.05116,-0.36191 q -0.036,0.009 -0.08716,0.019 -0.04927,0.009 -0.106109,0.017 -0.05874,0.009 -0.123163,0.0152 -0.06253,0.006 -0.123162,0.006 -0.08337,0 -0.151584,-0.019 -0.06632,-0.0189 -0.113689,-0.0644 -0.04737,-0.0436 -0.0739,-0.11747 -0.02463,-0.0758 -0.02463,-0.18759 v -0.88108 h 0.765501 v -0.38844 h -0.765501 z"
         style="stroke-width:0.565"
         id="path245" /><path
         d="m 68.515512,148.35629 q 0.297484,0 0.515387,-0.11559 0.217902,-0.11558 0.318327,-0.25769 l -0.263378,-0.28422 q -0.09095,0.11748 -0.23685,0.17622 -0.1459,0.0587 -0.301274,0.0587 -0.109899,0 -0.202744,-0.0341 -0.09285,-0.0341 -0.164848,-0.0966 -0.07011,-0.0606 -0.111794,-0.13453 -0.04169,-0.0758 -0.06821,-0.19895 v -0.006 h 1.390787 v -0.22358 q 0,-0.22549 -0.06253,-0.41118 -0.06253,-0.18758 -0.181901,-0.32022 -0.121267,-0.13263 -0.295589,-0.20464 -0.172428,-0.0739 -0.39412,-0.0739 -0.214113,0 -0.396014,0.0777 -0.181901,0.0777 -0.314538,0.2179 -0.132636,0.14022 -0.206533,0.33539 -0.0739,0.19327 -0.0739,0.42822 v 0.0758 q 0,0.20654 0.0739,0.38844 0.07579,0.18 0.214113,0.31264 0.13832,0.13453 0.33159,0.21222 0.193271,0.0777 0.430121,0.0777 z m -0.06253,-1.69964 q 0.100424,0 0.176216,0.0322 0.07769,0.0303 0.130742,0.0834 0.05305,0.0549 0.08337,0.12885 0.03032,0.0739 0.03032,0.15726 v 0.0417 h -0.864031 q 0.01895,-0.10042 0.05684,-0.1819 0.0379,-0.0815 0.09474,-0.14022 0.05495,-0.0587 0.128846,-0.089 0.0739,-0.0322 0.162954,-0.0322 z"
         style="stroke-width:0.565"
         id="path247" /><path
         d="m 69.849455,148.31839 h 0.52865 v -1.4571 q 0.02653,-0.0417 0.05874,-0.0758 0.03221,-0.0341 0.072,-0.0587 0.04926,-0.0341 0.111793,-0.0512 0.06442,-0.0171 0.140216,-0.0171 0.09095,0 0.162953,0.019 0.072,0.017 0.123163,0.0625 0.05116,0.0455 0.07769,0.12505 0.02842,0.0777 0.02842,0.19896 v 1.25436 h 0.526755 v -1.26194 q 0,-0.22359 -0.05305,-0.37896 -0.05116,-0.15727 -0.144005,-0.25769 -0.09474,-0.0985 -0.223587,-0.14401 -0.128847,-0.0455 -0.284221,-0.0455 -0.121268,0 -0.229271,0.0341 -0.108004,0.0341 -0.198955,0.0985 -0.05305,0.0379 -0.100425,0.0853 -0.04737,0.0474 -0.08716,0.10421 l -0.03221,-0.28422 h -0.477491 z"
         style="stroke-width:0.565"
         id="path249" /><path
         d="m 72.123221,147.27814 v 0.0398 q 0,0.22359 0.05495,0.41497 0.05495,0.18948 0.159164,0.3278 0.102319,0.13832 0.250114,0.2179 0.14969,0.0777 0.337275,0.0777 0.172428,0 0.303169,-0.0663 0.130742,-0.0663 0.227377,-0.18569 l 0.02653,0.21411 h 0.475596 v -2.91042 h -0.528651 v 1.04404 q -0.09474,-0.10611 -0.217902,-0.16296 -0.121268,-0.0587 -0.282326,-0.0587 -0.191375,0 -0.341065,0.0758 -0.147795,0.0758 -0.252009,0.21411 -0.104214,0.13832 -0.159164,0.33159 -0.05305,0.19327 -0.05305,0.42633 z m 0.526756,0.0398 v -0.0398 q 0,-0.12884 0.02274,-0.24064 0.02274,-0.11369 0.072,-0.19895 0.04927,-0.0834 0.126952,-0.13074 0.07958,-0.0493 0.191375,-0.0493 0.134531,0 0.223587,0.0587 0.08906,0.0568 0.14211,0.16106 v 0.82992 q -0.05305,0.10232 -0.144005,0.16106 -0.08906,0.0587 -0.225482,0.0587 -0.111793,0 -0.18948,-0.0474 -0.07769,-0.0474 -0.126952,-0.13074 -0.04927,-0.0815 -0.072,-0.19138 -0.02084,-0.11179 -0.02084,-0.24064 z"
         style="stroke-width:0.565"
         id="path251" /></g></g></svg>
